<?xml version="1.0" encoding="UTF-8" standalone="no"?>
<!DOCTYPE svg PUBLIC "-//W3C//DTD SVG 1.1//EN" "http://www.w3.org/Graphics/SVG/1.1/DTD/svg11.dtd">
<svg width="100%" height="100%" viewBox="0 0 3525 1963" version="1.1" xmlns="http://www.w3.org/2000/svg" xmlns:xlink="http://www.w3.org/1999/xlink" xml:space="preserve" xmlns:serif="http://www.serif.com/" style="fill-rule:evenodd;clip-rule:evenodd;stroke-linecap:round;stroke-linejoin:round;stroke-miterlimit:10;">
    <g transform="matrix(4.16667,0,0,4.16667,0,0)">
        <g id="surface1" transform="matrix(1.12332,0,0,1.12332,-56.695,-27.4359)">
            <g transform="matrix(1,0,0,0.842842,0.94527,33.2199)">
                <path d="M50.094,345.047L51.566,344.871L53.039,344.688L54.512,344.496L55.984,344.293L57.457,344.078L58.934,343.852L60.406,343.613L61.879,343.363L63.352,343.102L64.824,342.824L66.297,342.535L67.77,342.23L69.242,341.906L70.719,341.563L72.191,341.207L73.664,340.828L75.137,340.43L76.609,340.008L78.082,339.559L79.555,339.086L81.027,338.586L82.504,338.059L83.977,337.5L85.449,336.91L86.922,336.281L88.395,335.613L89.867,334.906L91.34,334.156L92.816,333.367L94.289,332.527L95.762,331.641L97.234,330.691L98.707,329.691L100.18,328.633L101.652,327.516L103.125,326.336L104.602,325.09L106.074,323.762L107.547,322.363L109.02,320.891L110.492,319.34L111.965,317.715L113.438,316.004L114.91,314.203L116.387,312.309L117.859,310.332L119.332,308.27L120.805,306.121L122.277,303.891L123.75,301.57L125.223,299.156L126.699,296.668L128.172,294.102L129.645,291.469L131.117,288.766L132.59,286.004L134.063,283.18L135.535,280.301L137.008,277.379L138.484,274.422L139.957,271.43L141.43,268.41L142.902,265.367L144.375,262.305L145.848,259.23L147.32,256.145L148.793,253.051L150.27,249.953L153.215,243.742L154.688,240.633L156.16,237.52L157.633,234.402L159.105,231.281L160.582,228.156L162.055,225.023L163.527,221.883L165,218.738L166.473,215.582L167.945,212.414L169.418,209.238L170.891,206.055L172.367,202.859L173.84,199.652L175.313,196.438L176.785,193.215L178.258,189.98L179.73,186.742L181.203,183.492L182.68,180.238L184.152,176.98L185.625,173.715L187.098,170.445L190.043,163.898L191.516,160.617L192.988,157.34L194.465,154.059L195.938,150.777L198.883,144.223L200.355,140.953L201.828,137.688L203.301,134.43L204.773,131.184L206.25,127.949L207.723,124.727L209.195,121.523L210.668,118.344L212.141,115.188L213.613,112.059L215.086,108.961L216.563,105.898L218.035,102.875L219.508,99.902L220.98,96.98L222.453,94.113L223.926,91.305L225.398,88.559L226.871,85.879L228.348,83.285L229.82,80.777L231.293,78.352L232.766,76.016L234.238,73.77L235.711,71.617L237.184,69.563L238.656,67.629L240.133,65.793L241.605,64.055L243.078,62.41L244.551,60.863L246.023,59.41L247.496,58.051L248.969,56.785L250.445,55.594L251.918,54.469L253.391,53.41L254.863,52.41L256.336,51.465L257.809,50.566L259.281,49.707L260.754,48.879L262.23,48.082L263.703,47.305L265.176,46.551L266.648,45.816L268.121,45.102L269.594,44.406L271.066,43.727L272.539,43.063L274.016,42.418L275.488,41.797L276.961,41.203L278.434,40.633L279.906,40.086L281.379,39.57L282.852,39.078L284.328,38.613L285.801,38.18L287.273,37.77L288.746,37.379L290.219,37.008L291.691,36.652L293.164,36.309L294.637,35.973L296.113,35.645L297.586,35.313L299.059,34.977L300.531,34.637L302.004,34.289L303.477,33.934L304.949,33.57L306.422,33.199L307.898,32.828L309.371,32.457L310.844,32.094L312.316,31.742L313.789,31.414L315.262,31.117L316.734,30.859L318.211,30.652L319.684,30.496L321.156,30.402L322.629,30.387L324.102,30.465L325.574,30.629L327.047,30.887L328.52,31.242L329.996,31.695L331.469,32.25L332.941,32.926L334.414,33.707L335.887,34.582L337.359,35.559L338.832,36.621L340.309,37.777L341.781,39.016L343.254,40.344L344.727,41.738L346.199,43.199L347.672,44.723L349.145,46.297L350.617,47.926L352.094,49.609L353.566,51.344L355.039,53.117L356.512,54.938L357.984,56.801L359.457,58.711L360.93,60.672L362.402,62.691L363.879,64.762L365.352,66.891L366.824,69.078L368.297,71.328L369.77,73.645L371.242,76.047L372.715,78.52L374.191,81.07L375.664,83.691L377.137,86.391L378.609,89.164L380.082,92.02L381.555,94.953L383.027,97.953L384.5,101.02L385.977,104.145L387.449,107.32L388.922,110.551L390.395,113.828L391.867,117.141L393.34,120.484L394.813,123.844L396.285,127.219L397.762,130.602L399.234,133.984L400.707,137.355L402.18,140.711L403.652,144.043L405.125,147.352L406.598,150.621L408.074,153.852L409.547,157.027L411.02,160.152L412.492,163.219L413.965,166.23L415.438,169.176L416.91,172.059L418.383,174.859L419.859,177.59L421.332,180.246L422.805,182.836L424.277,185.352L425.75,187.793L427.223,190.156L428.695,192.438L430.168,194.652L431.645,196.793L433.117,198.867L434.59,200.875L436.063,202.809L437.535,204.664L439.008,206.453L440.48,208.176L441.957,209.836L443.43,211.43L444.902,212.961L446.375,214.426L447.848,215.824L449.32,217.164L450.793,218.453L452.266,219.695L453.742,220.887L455.215,222.039L456.688,223.148L458.16,224.23L459.633,225.293L461.105,226.344L462.578,227.387L464.051,228.434L465.527,229.488L467,230.566L468.473,231.668L469.945,232.801L471.418,233.969L472.891,235.176L474.363,236.434L475.84,237.742L477.313,239.098L478.785,240.5L480.258,241.945L481.73,243.43L483.203,244.953L484.676,246.516L486.148,248.102L487.625,249.707L489.098,251.324L493.516,256.211L494.988,257.828L496.461,259.434L497.934,261.023L499.41,262.598L500.883,264.152L502.355,265.691L503.828,267.207L505.301,268.703L506.773,270.188L508.246,271.652L509.723,273.109L511.195,274.551L512.668,275.98L514.141,277.402L515.613,278.813L517.086,280.219L518.559,281.609L520.031,282.992L521.508,284.363L522.98,285.719L524.453,287.059L525.926,288.375L527.398,289.672L528.871,290.945L530.344,292.191L531.82,293.402L533.293,294.582L534.766,295.73L536.238,296.844L537.711,297.926L539.184,298.973L540.656,299.984L542.129,300.961L543.605,301.906L545.078,302.824L546.551,303.711L548.023,304.574L549.496,305.414L550.969,306.223L552.441,307.016L553.914,307.785L555.391,308.535L556.863,309.27L558.336,309.984L559.809,310.68L561.281,311.355L562.754,312.012L564.227,312.652L565.703,313.277L567.176,313.879L568.648,314.469L570.121,315.035L571.594,315.582L573.066,316.121L574.539,316.641L576.012,317.152L577.488,317.648L578.961,318.141L580.434,318.625L583.379,319.586L584.852,320.07L586.324,320.559L587.797,321.051L589.273,321.555L590.746,322.07L592.219,322.598L593.691,323.141L595.164,323.691L596.637,324.262L598.109,324.848L599.586,325.445L601.059,326.055L602.531,326.68L604.004,327.309L605.477,327.953L606.949,328.602L609.895,329.906L611.371,330.563L614.316,331.859L615.789,332.496L617.262,333.125L618.734,333.742L620.207,334.344L621.68,334.93L623.156,335.496L624.629,336.047L626.102,336.578L627.574,337.082L629.047,337.566L630.52,338.031L631.992,338.473L633.469,338.891L634.941,339.289L636.414,339.664L637.887,340.02L639.359,340.359L640.832,340.68L642.305,340.984L643.777,341.273L645.254,341.547L646.727,341.809L648.199,342.055L649.672,342.293L651.145,342.516L652.617,342.73L654.09,342.934L655.563,343.121L657.039,343.301L658.512,343.465L659.984,343.621L661.457,343.762L662.93,343.887L664.402,344L665.875,344.098L667.352,344.18L668.824,344.254L670.297,344.309L671.77,344.355L673.242,344.391L674.715,344.41L676.188,344.426L677.66,344.43L679.137,344.434L680.609,344.426L682.082,344.422L683.555,344.41L685.027,344.402L687.973,344.395L689.445,344.395L690.922,344.398L692.395,344.406L695.34,344.445L696.813,344.473L698.285,344.504L699.758,344.543L701.234,344.586L702.707,344.629L708.598,344.832L710.07,344.887L711.543,344.938L713.02,344.988L715.965,345.082L717.438,345.125L720.383,345.203L721.855,345.238L723.332,345.273L726.277,345.336L727.75,345.363L729.223,345.395L730.695,345.422L732.168,345.453L733.641,345.48L735.117,345.512L736.59,345.543L741.008,345.648L745.426,345.766L746.902,345.805L748.375,345.844L749.848,345.887L755.738,346.043L757.215,346.078L758.688,346.109L760.16,346.145L764.578,346.227L767.523,346.273L769,346.293L770.473,346.313L771.945,346.328L773.418,346.348L779.309,346.395L780.785,346.402L782.258,346.414L783.73,346.418L786.676,346.434L789.621,346.441L791.098,346.449L795.516,346.461L799.934,346.484L801.406,346.496L802.883,346.504L802.883,346.973L50.094,346.973L50.094,345.047Z" style="fill:rgb(254,0,254);fill-opacity:0.501961;fill-rule:nonzero;stroke:black;stroke-width:0.01px;"/>
            </g>
            <g id="PCT" transform="matrix(1,0,0,1,0.94527,-21.3097)">
                <path d="M144.828,384.813L554.613,384.813" style="fill:none;stroke:rgb(169,169,169);stroke-width:4.27px;stroke-linecap:butt;"/>
                <g transform="matrix(1,0,0,0.182198,-1.30945,315.844)">
                    <path d="M554.613,384.813L554.613,0" style="fill:none;stroke:rgb(169,169,169);stroke-width:3.48px;stroke-linecap:butt;"/>
                </g>
                <g transform="matrix(1,0,0,0.292501,-409.335,274.312)">
                    <path d="M554.613,384.813L554.613,0" style="fill:none;stroke:rgb(169,169,169);stroke-width:3.39px;stroke-linecap:butt;"/>
                </g>
            </g>
            <g id="BCa" transform="matrix(1,0,0,1,0.94527,-21.3097)">
                <g id="BCA-CI" serif:id="BCA CI" transform="matrix(1,0,0,1,-2.42412,-23.4814)">
                    <path d="M172.652,441.57L621.281,441.57" style="fill:none;stroke:rgb(13,242,201);stroke-width:4.27px;stroke-linecap:butt;"/>
                </g>
                <g transform="matrix(1,0,0,0.218397,63.3364,335.673)">
                    <path d="M554.613,384.813L554.613,0" style="fill:none;stroke:rgb(13,242,201);stroke-width:3.41px;stroke-linecap:butt;"/>
                </g>
                <g transform="matrix(1,0,0,0.50714,-382.669,224.808)">
                    <path d="M554.613,384.813L554.613,0" style="fill:none;stroke:rgb(13,242,201);stroke-width:3.07px;stroke-linecap:butt;"/>
                </g>
            </g>
            <g id="sampling-mean" serif:id="sampling mean" transform="matrix(1,0,0,0.882659,179.738,59.714)">
                <path d="M144.828,384.813L144.828,0" style="fill:rgb(254,0,254);fill-rule:nonzero;stroke:rgb(254,0,254);stroke-width:2.58px;stroke-linecap:butt;"/>
            </g>
            <g transform="matrix(1,0,0,1,-48.9451,-126.964)">
                <path d="M416.101,154.798L421.741,154.798C423.565,154.798 424.921,155.178 425.809,155.938C426.697,156.698 427.141,157.774 427.141,159.166C427.141,159.998 426.905,160.734 426.433,161.374C425.961,162.014 425.309,162.414 424.477,162.574L424.477,162.598C425.405,162.774 426.149,163.198 426.709,163.87C427.269,164.542 427.549,165.318 427.549,166.198C427.549,167.558 427.037,168.638 426.013,169.438C424.989,170.238 423.557,170.638 421.717,170.638L416.101,170.638L416.101,154.798ZM421.765,161.758C422.901,161.758 423.745,161.546 424.297,161.122C424.849,160.698 425.125,160.046 425.125,159.166C425.125,157.454 424.005,156.598 421.765,156.598L418.021,156.598L418.021,161.758L421.765,161.758ZM422.173,168.838C423.293,168.838 424.133,168.61 424.693,168.154C425.253,167.698 425.533,167.046 425.533,166.198C425.533,165.35 425.253,164.698 424.693,164.242C424.133,163.786 423.293,163.558 422.173,163.558L418.021,163.558L418.021,168.838L422.173,168.838Z" style="fill:rgb(254,0,254);fill-rule:nonzero;"/>
                <path d="M436.477,158.398C438.285,158.398 439.705,158.95 440.737,160.054C441.769,161.158 442.285,162.686 442.285,164.638C442.285,166.59 441.769,168.118 440.737,169.222C439.705,170.326 438.285,170.878 436.477,170.878C434.669,170.878 433.249,170.326 432.217,169.222C431.185,168.118 430.669,166.59 430.669,164.638C430.669,162.686 431.185,161.158 432.217,160.054C433.249,158.95 434.669,158.398 436.477,158.398ZM436.477,160.054C435.261,160.054 434.309,160.462 433.621,161.278C432.933,162.094 432.589,163.214 432.589,164.638C432.589,166.062 432.933,167.182 433.621,167.998C434.309,168.814 435.261,169.222 436.477,169.222C437.693,169.222 438.645,168.814 439.333,167.998C440.021,167.182 440.365,166.062 440.365,164.638C440.365,163.214 440.021,162.094 439.333,161.278C438.645,160.462 437.693,160.054 436.477,160.054Z" style="fill:rgb(254,0,254);fill-rule:nonzero;"/>
                <path d="M451.069,158.398C452.877,158.398 454.297,158.95 455.329,160.054C456.361,161.158 456.877,162.686 456.877,164.638C456.877,166.59 456.361,168.118 455.329,169.222C454.297,170.326 452.877,170.878 451.069,170.878C449.261,170.878 447.841,170.326 446.809,169.222C445.777,168.118 445.261,166.59 445.261,164.638C445.261,162.686 445.777,161.158 446.809,160.054C447.841,158.95 449.261,158.398 451.069,158.398ZM451.069,160.054C449.853,160.054 448.901,160.462 448.213,161.278C447.525,162.094 447.181,163.214 447.181,164.638C447.181,166.062 447.525,167.182 448.213,167.998C448.901,168.814 449.853,169.222 451.069,169.222C452.285,169.222 453.237,168.814 453.925,167.998C454.613,167.182 454.957,166.062 454.957,164.638C454.957,163.214 454.613,162.094 453.925,161.278C453.237,160.462 452.285,160.054 451.069,160.054Z" style="fill:rgb(254,0,254);fill-rule:nonzero;"/>
                <path d="M467.725,169.798C466.925,170.518 465.893,170.878 464.629,170.878C463.653,170.878 462.857,170.614 462.241,170.086C461.625,169.558 461.309,168.75 461.293,167.662L461.293,160.294L458.893,160.294L458.893,158.638L461.293,158.638L461.293,155.758L463.213,155.23L463.213,158.638L467.653,158.638L467.653,160.294L463.213,160.294L463.213,167.326C463.213,167.902 463.377,168.338 463.705,168.634C464.033,168.93 464.469,169.078 465.013,169.078C465.781,169.078 466.461,168.782 467.053,168.19L467.725,169.798Z" style="fill:rgb(254,0,254);fill-rule:nonzero;"/>
                <path d="M474.517,170.878C473.365,170.878 472.325,170.65 471.397,170.194C470.469,169.738 469.789,169.062 469.357,168.166L470.917,167.086C471.189,167.79 471.661,168.318 472.333,168.67C473.005,169.022 473.797,169.198 474.709,169.198C475.653,169.198 476.373,169.03 476.869,168.694C477.365,168.358 477.613,167.934 477.613,167.422C477.613,166.958 477.381,166.586 476.917,166.306C476.453,166.026 475.637,165.782 474.469,165.574C473.317,165.366 472.405,165.114 471.733,164.818C471.061,164.522 470.573,164.146 470.269,163.69C469.965,163.234 469.813,162.67 469.813,161.998C469.813,161.342 470.005,160.742 470.389,160.198C470.773,159.654 471.325,159.218 472.045,158.89C472.765,158.562 473.597,158.398 474.541,158.398C475.821,158.398 476.849,158.634 477.625,159.106C478.401,159.578 478.957,160.302 479.293,161.278L477.661,162.238C477.405,161.47 477.017,160.918 476.497,160.582C475.977,160.246 475.325,160.078 474.541,160.078C473.757,160.078 473.093,160.254 472.549,160.606C472.005,160.958 471.733,161.366 471.733,161.83C471.733,162.358 471.969,162.766 472.441,163.054C472.913,163.342 473.757,163.59 474.973,163.798C476.637,164.07 477.813,164.478 478.501,165.022C479.189,165.566 479.533,166.334 479.533,167.326C479.533,168.014 479.329,168.626 478.921,169.162C478.513,169.698 477.929,170.118 477.169,170.422C476.409,170.726 475.525,170.878 474.517,170.878Z" style="fill:rgb(254,0,254);fill-rule:nonzero;"/>
                <path d="M490.429,169.798C489.629,170.518 488.597,170.878 487.333,170.878C486.357,170.878 485.561,170.614 484.945,170.086C484.329,169.558 484.013,168.75 483.997,167.662L483.997,160.294L481.597,160.294L481.597,158.638L483.997,158.638L483.997,155.758L485.917,155.23L485.917,158.638L490.357,158.638L490.357,160.294L485.917,160.294L485.917,167.326C485.917,167.902 486.081,168.338 486.409,168.634C486.737,168.93 487.173,169.078 487.717,169.078C488.485,169.078 489.165,168.782 489.757,168.19L490.429,169.798Z" style="fill:rgb(254,0,254);fill-rule:nonzero;"/>
                <path d="M498.805,158.398C499.381,158.398 499.821,158.478 500.125,158.638L499.741,160.51C499.357,160.302 498.853,160.198 498.229,160.198C497.717,160.198 497.217,160.346 496.729,160.642C496.241,160.938 495.841,161.386 495.529,161.986C495.217,162.586 495.061,163.31 495.061,164.158L495.061,170.638L493.141,170.638L493.141,158.638L494.701,158.638L494.965,160.606C495.637,159.134 496.917,158.398 498.805,158.398Z" style="fill:rgb(254,0,254);fill-rule:nonzero;"/>
                <path d="M512.437,169.246C512.757,169.246 513.077,169.206 513.397,169.126L513.277,170.638C512.829,170.798 512.349,170.878 511.837,170.878C511.213,170.878 510.721,170.742 510.361,170.47C510.001,170.198 509.773,169.742 509.677,169.102C509.309,169.662 508.769,170.098 508.057,170.41C507.345,170.722 506.597,170.878 505.813,170.878C504.629,170.878 503.653,170.602 502.885,170.05C502.117,169.498 501.733,168.702 501.733,167.662C501.733,166.75 502.133,165.962 502.933,165.298C503.733,164.634 504.893,164.174 506.413,163.918L509.605,163.39L509.605,162.718C509.605,161.918 509.357,161.278 508.861,160.798C508.365,160.318 507.677,160.078 506.797,160.078C505.997,160.078 505.305,160.27 504.721,160.654C504.137,161.038 503.685,161.606 503.365,162.358L501.949,161.326C502.269,160.43 502.865,159.718 503.737,159.19C504.609,158.662 505.629,158.398 506.797,158.398C508.221,158.398 509.365,158.742 510.229,159.43C511.093,160.118 511.525,161.134 511.525,162.478L511.525,168.382C511.525,168.67 511.597,168.886 511.741,169.03C511.885,169.174 512.117,169.246 512.437,169.246ZM505.909,169.198C506.917,169.198 507.785,168.958 508.513,168.478C509.241,167.998 509.605,167.374 509.605,166.606L509.605,164.95L506.917,165.454C505.845,165.646 505.045,165.922 504.517,166.282C503.989,166.642 503.725,167.102 503.725,167.662C503.725,168.158 503.917,168.538 504.301,168.802C504.685,169.066 505.221,169.198 505.909,169.198Z" style="fill:rgb(254,0,254);fill-rule:nonzero;"/>
                <path d="M522.085,158.398C523.765,158.398 525.097,158.954 526.081,160.066C527.065,161.178 527.557,162.702 527.557,164.638C527.557,166.574 527.065,168.098 526.081,169.21C525.097,170.322 523.765,170.878 522.085,170.878C521.205,170.878 520.417,170.686 519.721,170.302C519.025,169.918 518.485,169.406 518.101,168.766L518.101,175.678L516.181,175.678L516.181,158.638L517.861,158.638L517.981,160.726C518.333,160.022 518.873,159.458 519.601,159.034C520.329,158.61 521.157,158.398 522.085,158.398ZM521.869,169.198C523.037,169.198 523.957,168.786 524.629,167.962C525.301,167.138 525.637,166.03 525.637,164.638C525.637,163.246 525.301,162.138 524.629,161.314C523.957,160.49 523.037,160.078 521.869,160.078C520.717,160.078 519.801,160.478 519.121,161.278C518.441,162.078 518.101,163.15 518.101,164.494L518.101,164.782C518.101,166.126 518.441,167.198 519.121,167.998C519.801,168.798 520.717,169.198 521.869,169.198Z" style="fill:rgb(254,0,254);fill-rule:nonzero;"/>
                <path d="M550.141,153.118L550.141,170.638L548.461,170.638L548.341,168.55C547.989,169.254 547.449,169.818 546.721,170.242C545.993,170.666 545.165,170.878 544.237,170.878C542.557,170.878 541.225,170.322 540.241,169.21C539.257,168.098 538.765,166.574 538.765,164.638C538.765,162.702 539.257,161.178 540.241,160.066C541.225,158.954 542.557,158.398 544.237,158.398C545.117,158.398 545.905,158.59 546.601,158.974C547.297,159.358 547.837,159.87 548.221,160.51L548.221,153.118L550.141,153.118ZM544.453,169.198C545.605,169.198 546.521,168.798 547.201,167.998C547.881,167.198 548.221,166.126 548.221,164.782L548.221,164.494C548.221,163.15 547.881,162.078 547.201,161.278C546.521,160.478 545.605,160.078 544.453,160.078C543.285,160.078 542.365,160.49 541.693,161.314C541.021,162.138 540.685,163.246 540.685,164.638C540.685,166.03 541.021,167.138 541.693,167.962C542.365,168.786 543.285,169.198 544.453,169.198Z" style="fill:rgb(254,0,254);fill-rule:nonzero;"/>
                <path d="M555.565,156.334C555.133,156.334 554.785,156.202 554.521,155.938C554.257,155.674 554.125,155.326 554.125,154.894C554.125,154.462 554.257,154.114 554.521,153.85C554.785,153.586 555.133,153.454 555.565,153.454C555.997,153.454 556.345,153.586 556.609,153.85C556.873,154.114 557.005,154.462 557.005,154.894C557.005,155.326 556.873,155.674 556.609,155.938C556.345,156.202 555.997,156.334 555.565,156.334ZM556.525,170.638L554.605,170.638L554.605,158.638L556.525,158.638L556.525,170.638Z" style="fill:rgb(254,0,254);fill-rule:nonzero;"/>
                <path d="M565.069,170.878C563.917,170.878 562.877,170.65 561.949,170.194C561.021,169.738 560.341,169.062 559.909,168.166L561.469,167.086C561.741,167.79 562.213,168.318 562.885,168.67C563.557,169.022 564.349,169.198 565.261,169.198C566.205,169.198 566.925,169.03 567.421,168.694C567.917,168.358 568.165,167.934 568.165,167.422C568.165,166.958 567.933,166.586 567.469,166.306C567.005,166.026 566.189,165.782 565.021,165.574C563.869,165.366 562.957,165.114 562.285,164.818C561.613,164.522 561.125,164.146 560.821,163.69C560.517,163.234 560.365,162.67 560.365,161.998C560.365,161.342 560.557,160.742 560.941,160.198C561.325,159.654 561.877,159.218 562.597,158.89C563.317,158.562 564.149,158.398 565.093,158.398C566.373,158.398 567.401,158.634 568.177,159.106C568.953,159.578 569.509,160.302 569.845,161.278L568.213,162.238C567.957,161.47 567.569,160.918 567.049,160.582C566.529,160.246 565.877,160.078 565.093,160.078C564.309,160.078 563.645,160.254 563.101,160.606C562.557,160.958 562.285,161.366 562.285,161.83C562.285,162.358 562.521,162.766 562.993,163.054C563.465,163.342 564.309,163.59 565.525,163.798C567.189,164.07 568.365,164.478 569.053,165.022C569.741,165.566 570.085,166.334 570.085,167.326C570.085,168.014 569.881,168.626 569.473,169.162C569.065,169.698 568.481,170.118 567.721,170.422C566.961,170.726 566.077,170.878 565.069,170.878Z" style="fill:rgb(254,0,254);fill-rule:nonzero;"/>
                <path d="M580.981,169.798C580.181,170.518 579.149,170.878 577.885,170.878C576.909,170.878 576.113,170.614 575.497,170.086C574.881,169.558 574.565,168.75 574.549,167.662L574.549,160.294L572.149,160.294L572.149,158.638L574.549,158.638L574.549,155.758L576.469,155.23L576.469,158.638L580.909,158.638L580.909,160.294L576.469,160.294L576.469,167.326C576.469,167.902 576.633,168.338 576.961,168.634C577.289,168.93 577.725,169.078 578.269,169.078C579.037,169.078 579.717,168.782 580.309,168.19L580.981,169.798Z" style="fill:rgb(254,0,254);fill-rule:nonzero;"/>
                <path d="M589.357,158.398C589.933,158.398 590.373,158.478 590.677,158.638L590.293,160.51C589.909,160.302 589.405,160.198 588.781,160.198C588.269,160.198 587.769,160.346 587.281,160.642C586.793,160.938 586.393,161.386 586.081,161.986C585.769,162.586 585.613,163.31 585.613,164.158L585.613,170.638L583.693,170.638L583.693,158.638L585.253,158.638L585.517,160.606C586.189,159.134 587.469,158.398 589.357,158.398Z" style="fill:rgb(254,0,254);fill-rule:nonzero;"/>
                <path d="M594.445,156.334C594.013,156.334 593.665,156.202 593.401,155.938C593.137,155.674 593.005,155.326 593.005,154.894C593.005,154.462 593.137,154.114 593.401,153.85C593.665,153.586 594.013,153.454 594.445,153.454C594.877,153.454 595.225,153.586 595.489,153.85C595.753,154.114 595.885,154.462 595.885,154.894C595.885,155.326 595.753,155.674 595.489,155.938C595.225,156.202 594.877,156.334 594.445,156.334ZM595.405,170.638L593.485,170.638L593.485,158.638L595.405,158.638L595.405,170.638Z" style="fill:rgb(254,0,254);fill-rule:nonzero;"/>
                <path d="M605.773,158.398C607.453,158.398 608.785,158.954 609.769,160.066C610.753,161.178 611.245,162.702 611.245,164.638C611.245,166.574 610.753,168.098 609.769,169.21C608.785,170.322 607.453,170.878 605.773,170.878C604.845,170.878 604.017,170.666 603.289,170.242C602.561,169.818 602.021,169.254 601.669,168.55L601.549,170.638L599.869,170.638L599.869,153.118L601.789,153.118L601.789,160.51C602.173,159.87 602.713,159.358 603.409,158.974C604.105,158.59 604.893,158.398 605.773,158.398ZM605.557,169.198C606.725,169.198 607.645,168.786 608.317,167.962C608.989,167.138 609.325,166.03 609.325,164.638C609.325,163.246 608.989,162.138 608.317,161.314C607.645,160.49 606.725,160.078 605.557,160.078C604.405,160.078 603.489,160.478 602.809,161.278C602.129,162.078 601.789,163.15 601.789,164.494L601.789,164.782C601.789,166.126 602.129,167.198 602.809,167.998C603.489,168.798 604.405,169.198 605.557,169.198Z" style="fill:rgb(254,0,254);fill-rule:nonzero;"/>
                <path d="M625.381,158.638L625.381,170.638L623.701,170.638L623.581,168.814C622.781,170.19 621.349,170.878 619.285,170.878C617.989,170.878 616.929,170.518 616.105,169.798C615.281,169.078 614.869,167.974 614.869,166.486L614.869,158.638L616.789,158.638L616.789,165.982C616.789,167.15 617.029,167.978 617.509,168.466C617.989,168.954 618.693,169.198 619.621,169.198C620.725,169.198 621.641,168.862 622.369,168.19C623.097,167.518 623.461,166.51 623.461,165.166L623.461,158.638L625.381,158.638Z" style="fill:rgb(254,0,254);fill-rule:nonzero;"/>
                <path d="M637.189,169.798C636.389,170.518 635.357,170.878 634.093,170.878C633.117,170.878 632.321,170.614 631.705,170.086C631.089,169.558 630.773,168.75 630.757,167.662L630.757,160.294L628.357,160.294L628.357,158.638L630.757,158.638L630.757,155.758L632.677,155.23L632.677,158.638L637.117,158.638L637.117,160.294L632.677,160.294L632.677,167.326C632.677,167.902 632.841,168.338 633.169,168.634C633.497,168.93 633.933,169.078 634.477,169.078C635.245,169.078 635.925,168.782 636.517,168.19L637.189,169.798Z" style="fill:rgb(254,0,254);fill-rule:nonzero;"/>
                <path d="M640.861,156.334C640.429,156.334 640.081,156.202 639.817,155.938C639.553,155.674 639.421,155.326 639.421,154.894C639.421,154.462 639.553,154.114 639.817,153.85C640.081,153.586 640.429,153.454 640.861,153.454C641.293,153.454 641.641,153.586 641.905,153.85C642.169,154.114 642.301,154.462 642.301,154.894C642.301,155.326 642.169,155.674 641.905,155.938C641.641,156.202 641.293,156.334 640.861,156.334ZM641.821,170.638L639.901,170.638L639.901,158.638L641.821,158.638L641.821,170.638Z" style="fill:rgb(254,0,254);fill-rule:nonzero;"/>
                <path d="M651.349,158.398C653.157,158.398 654.577,158.95 655.609,160.054C656.641,161.158 657.157,162.686 657.157,164.638C657.157,166.59 656.641,168.118 655.609,169.222C654.577,170.326 653.157,170.878 651.349,170.878C649.541,170.878 648.121,170.326 647.089,169.222C646.057,168.118 645.541,166.59 645.541,164.638C645.541,162.686 646.057,161.158 647.089,160.054C648.121,158.95 649.541,158.398 651.349,158.398ZM651.349,160.054C650.133,160.054 649.181,160.462 648.493,161.278C647.805,162.094 647.461,163.214 647.461,164.638C647.461,166.062 647.805,167.182 648.493,167.998C649.181,168.814 650.133,169.222 651.349,169.222C652.565,169.222 653.517,168.814 654.205,167.998C654.893,167.182 655.237,166.062 655.237,164.638C655.237,163.214 654.893,162.094 654.205,161.278C653.517,160.462 652.565,160.054 651.349,160.054Z" style="fill:rgb(254,0,254);fill-rule:nonzero;"/>
                <path d="M666.709,158.398C668.069,158.398 669.189,158.79 670.069,159.574C670.949,160.358 671.389,161.486 671.389,162.958L671.389,170.638L669.469,170.638L669.469,163.63C669.469,162.382 669.201,161.478 668.665,160.918C668.129,160.358 667.413,160.078 666.517,160.078C665.877,160.078 665.277,160.218 664.717,160.498C664.157,160.778 663.697,161.234 663.337,161.866C662.977,162.498 662.797,163.294 662.797,164.254L662.797,170.638L660.877,170.638L660.877,158.638L662.557,158.638L662.677,160.51C663.077,159.79 663.629,159.258 664.333,158.914C665.037,158.57 665.829,158.398 666.709,158.398Z" style="fill:rgb(254,0,254);fill-rule:nonzero;"/>
                <path d="M420.805,182.398C422.613,182.398 424.033,182.95 425.065,184.054C426.097,185.158 426.613,186.686 426.613,188.638C426.613,190.59 426.097,192.118 425.065,193.222C424.033,194.326 422.613,194.878 420.805,194.878C418.997,194.878 417.577,194.326 416.545,193.222C415.513,192.118 414.997,190.59 414.997,188.638C414.997,186.686 415.513,185.158 416.545,184.054C417.577,182.95 418.997,182.398 420.805,182.398ZM420.805,184.054C419.589,184.054 418.637,184.462 417.949,185.278C417.261,186.094 416.917,187.214 416.917,188.638C416.917,190.062 417.261,191.182 417.949,191.998C418.637,192.814 419.589,193.222 420.805,193.222C422.021,193.222 422.973,192.814 423.661,191.998C424.349,191.182 424.693,190.062 424.693,188.638C424.693,187.214 424.349,186.094 423.661,185.278C422.973,184.462 422.021,184.054 420.805,184.054Z" style="fill:rgb(254,0,254);fill-rule:nonzero;"/>
                <path d="M432.973,182.638L436.981,182.638L436.981,184.294L432.973,184.294L432.973,194.638L431.053,194.638L431.053,184.294L428.653,184.294L428.653,182.638L431.053,182.638L431.053,180.622C431.053,179.518 431.389,178.638 432.061,177.982C432.733,177.326 433.709,176.998 434.989,176.998C435.421,176.998 435.817,177.046 436.177,177.142C436.537,177.238 436.821,177.374 437.029,177.55L436.525,179.11C436.141,178.87 435.685,178.75 435.157,178.75C433.701,178.75 432.973,179.438 432.973,180.814L432.973,182.638Z" style="fill:rgb(254,0,254);fill-rule:nonzero;"/>
                <path d="M460.717,182.398C461.517,182.398 462.265,182.562 462.961,182.89C463.657,183.218 464.221,183.726 464.653,184.414C465.085,185.102 465.301,185.95 465.301,186.958L465.301,194.638L463.381,194.638L463.381,187.15C463.381,186.11 463.121,185.338 462.601,184.834C462.081,184.33 461.397,184.078 460.549,184.078C459.909,184.078 459.321,184.234 458.785,184.546C458.249,184.858 457.817,185.314 457.489,185.914C457.161,186.514 456.997,187.23 456.997,188.062L456.997,194.638L455.077,194.638L455.077,187.15C455.077,186.11 454.817,185.338 454.297,184.834C453.777,184.33 453.093,184.078 452.245,184.078C451.669,184.078 451.109,184.226 450.565,184.522C450.021,184.818 449.573,185.278 449.221,185.902C448.869,186.526 448.693,187.302 448.693,188.23L448.693,194.638L446.773,194.638L446.773,182.638L448.453,182.638L448.573,184.51C448.989,183.806 449.537,183.278 450.217,182.926C450.897,182.574 451.629,182.398 452.413,182.398C453.293,182.398 454.105,182.598 454.849,182.998C455.593,183.398 456.157,183.982 456.541,184.75C456.893,183.982 457.469,183.398 458.269,182.998C459.069,182.598 459.885,182.398 460.717,182.398Z" style="fill:rgb(254,0,254);fill-rule:nonzero;"/>
                <path d="M479.941,188.014C479.941,188.462 479.909,188.91 479.845,189.358L470.797,189.358C470.909,190.574 471.313,191.518 472.009,192.19C472.705,192.862 473.605,193.198 474.709,193.198C475.589,193.198 476.321,193.046 476.905,192.742C477.489,192.438 477.885,191.998 478.093,191.422L479.701,192.262C479.221,193.11 478.581,193.758 477.781,194.206C476.981,194.654 475.957,194.878 474.709,194.878C472.901,194.878 471.481,194.326 470.449,193.222C469.417,192.118 468.901,190.59 468.901,188.638C468.901,186.686 469.393,185.158 470.377,184.054C471.361,182.95 472.757,182.398 474.565,182.398C475.685,182.398 476.653,182.646 477.469,183.142C478.285,183.638 478.901,184.31 479.317,185.158C479.733,186.006 479.941,186.958 479.941,188.014ZM474.565,184.078C473.509,184.078 472.657,184.39 472.009,185.014C471.361,185.638 470.965,186.518 470.821,187.654L478.093,187.654C477.965,186.534 477.597,185.658 476.989,185.026C476.381,184.394 475.573,184.078 474.565,184.078Z" style="fill:rgb(254,0,254);fill-rule:nonzero;"/>
                <path d="M494.245,177.118L494.245,194.638L492.565,194.638L492.445,192.55C492.093,193.254 491.553,193.818 490.825,194.242C490.097,194.666 489.269,194.878 488.341,194.878C486.661,194.878 485.329,194.322 484.345,193.21C483.361,192.098 482.869,190.574 482.869,188.638C482.869,186.702 483.361,185.178 484.345,184.066C485.329,182.954 486.661,182.398 488.341,182.398C489.221,182.398 490.009,182.59 490.705,182.974C491.401,183.358 491.941,183.87 492.325,184.51L492.325,177.118L494.245,177.118ZM488.557,193.198C489.709,193.198 490.625,192.798 491.305,191.998C491.985,191.198 492.325,190.126 492.325,188.782L492.325,188.494C492.325,187.15 491.985,186.078 491.305,185.278C490.625,184.478 489.709,184.078 488.557,184.078C487.389,184.078 486.469,184.49 485.797,185.314C485.125,186.138 484.789,187.246 484.789,188.638C484.789,190.03 485.125,191.138 485.797,191.962C486.469,192.786 487.389,193.198 488.557,193.198Z" style="fill:rgb(254,0,254);fill-rule:nonzero;"/>
                <path d="M499.669,180.334C499.237,180.334 498.889,180.202 498.625,179.938C498.361,179.674 498.229,179.326 498.229,178.894C498.229,178.462 498.361,178.114 498.625,177.85C498.889,177.586 499.237,177.454 499.669,177.454C500.101,177.454 500.449,177.586 500.713,177.85C500.977,178.114 501.109,178.462 501.109,178.894C501.109,179.326 500.977,179.674 500.713,179.938C500.449,180.202 500.101,180.334 499.669,180.334ZM500.629,194.638L498.709,194.638L498.709,182.638L500.629,182.638L500.629,194.638Z" style="fill:rgb(254,0,254);fill-rule:nonzero;"/>
                <path d="M514.933,193.246C515.253,193.246 515.573,193.206 515.893,193.126L515.773,194.638C515.325,194.798 514.845,194.878 514.333,194.878C513.709,194.878 513.217,194.742 512.857,194.47C512.497,194.198 512.269,193.742 512.173,193.102C511.805,193.662 511.265,194.098 510.553,194.41C509.841,194.722 509.093,194.878 508.309,194.878C507.125,194.878 506.149,194.602 505.381,194.05C504.613,193.498 504.229,192.702 504.229,191.662C504.229,190.75 504.629,189.962 505.429,189.298C506.229,188.634 507.389,188.174 508.909,187.918L512.101,187.39L512.101,186.718C512.101,185.918 511.853,185.278 511.357,184.798C510.861,184.318 510.173,184.078 509.293,184.078C508.493,184.078 507.801,184.27 507.217,184.654C506.633,185.038 506.181,185.606 505.861,186.358L504.445,185.326C504.765,184.43 505.361,183.718 506.233,183.19C507.105,182.662 508.125,182.398 509.293,182.398C510.717,182.398 511.861,182.742 512.725,183.43C513.589,184.118 514.021,185.134 514.021,186.478L514.021,192.382C514.021,192.67 514.093,192.886 514.237,193.03C514.381,193.174 514.613,193.246 514.933,193.246ZM508.405,193.198C509.413,193.198 510.281,192.958 511.009,192.478C511.737,191.998 512.101,191.374 512.101,190.606L512.101,188.95L509.413,189.454C508.341,189.646 507.541,189.922 507.013,190.282C506.485,190.642 506.221,191.102 506.221,191.662C506.221,192.158 506.413,192.538 506.797,192.802C507.181,193.066 507.717,193.198 508.405,193.198Z" style="fill:rgb(254,0,254);fill-rule:nonzero;"/>
                <path d="M524.509,182.398C525.869,182.398 526.989,182.79 527.869,183.574C528.749,184.358 529.189,185.486 529.189,186.958L529.189,194.638L527.269,194.638L527.269,187.63C527.269,186.382 527.001,185.478 526.465,184.918C525.929,184.358 525.213,184.078 524.317,184.078C523.677,184.078 523.077,184.218 522.517,184.498C521.957,184.778 521.497,185.234 521.137,185.866C520.777,186.498 520.597,187.294 520.597,188.254L520.597,194.638L518.677,194.638L518.677,182.638L520.357,182.638L520.477,184.51C520.877,183.79 521.429,183.258 522.133,182.914C522.837,182.57 523.629,182.398 524.509,182.398Z" style="fill:rgb(254,0,254);fill-rule:nonzero;"/>
                <path d="M552.373,177.118L552.373,194.638L550.693,194.638L550.573,192.55C550.221,193.254 549.681,193.818 548.953,194.242C548.225,194.666 547.397,194.878 546.469,194.878C544.789,194.878 543.457,194.322 542.473,193.21C541.489,192.098 540.997,190.574 540.997,188.638C540.997,186.702 541.489,185.178 542.473,184.066C543.457,182.954 544.789,182.398 546.469,182.398C547.349,182.398 548.137,182.59 548.833,182.974C549.529,183.358 550.069,183.87 550.453,184.51L550.453,177.118L552.373,177.118ZM546.685,193.198C547.837,193.198 548.753,192.798 549.433,191.998C550.113,191.198 550.453,190.126 550.453,188.782L550.453,188.494C550.453,187.15 550.113,186.078 549.433,185.278C548.753,184.478 547.837,184.078 546.685,184.078C545.517,184.078 544.597,184.49 543.925,185.314C543.253,186.138 542.917,187.246 542.917,188.638C542.917,190.03 543.253,191.138 543.925,191.962C544.597,192.786 545.517,193.198 546.685,193.198Z" style="fill:rgb(254,0,254);fill-rule:nonzero;"/>
                <path d="M557.797,180.334C557.365,180.334 557.017,180.202 556.753,179.938C556.489,179.674 556.357,179.326 556.357,178.894C556.357,178.462 556.489,178.114 556.753,177.85C557.017,177.586 557.365,177.454 557.797,177.454C558.229,177.454 558.577,177.586 558.841,177.85C559.105,178.114 559.237,178.462 559.237,178.894C559.237,179.326 559.105,179.674 558.841,179.938C558.577,180.202 558.229,180.334 557.797,180.334ZM558.757,194.638L556.837,194.638L556.837,182.638L558.757,182.638L558.757,194.638Z" style="fill:rgb(254,0,254);fill-rule:nonzero;"/>
                <path d="M566.077,182.638L570.085,182.638L570.085,184.294L566.077,184.294L566.077,194.638L564.157,194.638L564.157,184.294L561.757,184.294L561.757,182.638L564.157,182.638L564.157,180.622C564.157,179.518 564.493,178.638 565.165,177.982C565.837,177.326 566.813,176.998 568.093,176.998C568.525,176.998 568.921,177.046 569.281,177.142C569.641,177.238 569.925,177.374 570.133,177.55L569.629,179.11C569.245,178.87 568.789,178.75 568.261,178.75C566.805,178.75 566.077,179.438 566.077,180.814L566.077,182.638Z" style="fill:rgb(254,0,254);fill-rule:nonzero;"/>
                <path d="M573.829,182.638L577.837,182.638L577.837,184.294L573.829,184.294L573.829,194.638L571.909,194.638L571.909,184.294L569.509,184.294L569.509,182.638L571.909,182.638L571.909,180.622C571.909,179.518 572.245,178.638 572.917,177.982C573.589,177.326 574.565,176.998 575.845,176.998C576.277,176.998 576.673,177.046 577.033,177.142C577.393,177.238 577.677,177.374 577.885,177.55L577.381,179.11C576.997,178.87 576.541,178.75 576.013,178.75C574.557,178.75 573.829,179.438 573.829,180.814L573.829,182.638Z" style="fill:rgb(254,0,254);fill-rule:nonzero;"/>
                <path d="M590.365,188.014C590.365,188.462 590.333,188.91 590.269,189.358L581.221,189.358C581.333,190.574 581.737,191.518 582.433,192.19C583.129,192.862 584.029,193.198 585.133,193.198C586.013,193.198 586.745,193.046 587.329,192.742C587.913,192.438 588.309,191.998 588.517,191.422L590.125,192.262C589.645,193.11 589.005,193.758 588.205,194.206C587.405,194.654 586.381,194.878 585.133,194.878C583.325,194.878 581.905,194.326 580.873,193.222C579.841,192.118 579.325,190.59 579.325,188.638C579.325,186.686 579.817,185.158 580.801,184.054C581.785,182.95 583.181,182.398 584.989,182.398C586.109,182.398 587.077,182.646 587.893,183.142C588.709,183.638 589.325,184.31 589.741,185.158C590.157,186.006 590.365,186.958 590.365,188.014ZM584.989,184.078C583.933,184.078 583.081,184.39 582.433,185.014C581.785,185.638 581.389,186.518 581.245,187.654L588.517,187.654C588.389,186.534 588.021,185.658 587.413,185.026C586.805,184.394 585.997,184.078 584.989,184.078Z" style="fill:rgb(254,0,254);fill-rule:nonzero;"/>
                <path d="M599.677,182.398C600.253,182.398 600.693,182.478 600.997,182.638L600.613,184.51C600.229,184.302 599.725,184.198 599.101,184.198C598.589,184.198 598.089,184.346 597.601,184.642C597.113,184.938 596.713,185.386 596.401,185.986C596.089,186.586 595.933,187.31 595.933,188.158L595.933,194.638L594.013,194.638L594.013,182.638L595.573,182.638L595.837,184.606C596.509,183.134 597.789,182.398 599.677,182.398Z" style="fill:rgb(254,0,254);fill-rule:nonzero;"/>
                <path d="M613.717,188.014C613.717,188.462 613.685,188.91 613.621,189.358L604.573,189.358C604.685,190.574 605.089,191.518 605.785,192.19C606.481,192.862 607.381,193.198 608.485,193.198C609.365,193.198 610.097,193.046 610.681,192.742C611.265,192.438 611.661,191.998 611.869,191.422L613.477,192.262C612.997,193.11 612.357,193.758 611.557,194.206C610.757,194.654 609.733,194.878 608.485,194.878C606.677,194.878 605.257,194.326 604.225,193.222C603.193,192.118 602.677,190.59 602.677,188.638C602.677,186.686 603.169,185.158 604.153,184.054C605.137,182.95 606.533,182.398 608.341,182.398C609.461,182.398 610.429,182.646 611.245,183.142C612.061,183.638 612.677,184.31 613.093,185.158C613.509,186.006 613.717,186.958 613.717,188.014ZM608.341,184.078C607.285,184.078 606.433,184.39 605.785,185.014C605.137,185.638 604.741,186.518 604.597,187.654L611.869,187.654C611.741,186.534 611.373,185.658 610.765,185.026C610.157,184.394 609.349,184.078 608.341,184.078Z" style="fill:rgb(254,0,254);fill-rule:nonzero;"/>
                <path d="M623.197,182.398C624.557,182.398 625.677,182.79 626.557,183.574C627.437,184.358 627.877,185.486 627.877,186.958L627.877,194.638L625.957,194.638L625.957,187.63C625.957,186.382 625.689,185.478 625.153,184.918C624.617,184.358 623.901,184.078 623.005,184.078C622.365,184.078 621.765,184.218 621.205,184.498C620.645,184.778 620.185,185.234 619.825,185.866C619.465,186.498 619.285,187.294 619.285,188.254L619.285,194.638L617.365,194.638L617.365,182.638L619.045,182.638L619.165,184.51C619.565,183.79 620.117,183.258 620.821,182.914C621.525,182.57 622.317,182.398 623.197,182.398Z" style="fill:rgb(254,0,254);fill-rule:nonzero;"/>
                <path d="M637.285,182.398C638.485,182.398 639.497,182.674 640.321,183.226C641.145,183.778 641.789,184.566 642.253,185.59L640.429,186.454C639.917,184.87 638.853,184.078 637.237,184.078C636.037,184.078 635.097,184.482 634.417,185.29C633.737,186.098 633.397,187.214 633.397,188.638C633.397,190.062 633.737,191.178 634.417,191.986C635.097,192.794 636.037,193.198 637.237,193.198C638.165,193.198 638.913,192.986 639.481,192.562C640.049,192.138 640.421,191.526 640.597,190.726L642.373,191.35C641.957,192.47 641.317,193.338 640.453,193.954C639.589,194.57 638.533,194.878 637.285,194.878C635.477,194.878 634.057,194.326 633.025,193.222C631.993,192.118 631.477,190.59 631.477,188.638C631.477,186.686 631.993,185.158 633.025,184.054C634.057,182.95 635.477,182.398 637.285,182.398Z" style="fill:rgb(254,0,254);fill-rule:nonzero;"/>
                <path d="M656.053,188.014C656.053,188.462 656.021,188.91 655.957,189.358L646.909,189.358C647.021,190.574 647.425,191.518 648.121,192.19C648.817,192.862 649.717,193.198 650.821,193.198C651.701,193.198 652.433,193.046 653.017,192.742C653.601,192.438 653.997,191.998 654.205,191.422L655.813,192.262C655.333,193.11 654.693,193.758 653.893,194.206C653.093,194.654 652.069,194.878 650.821,194.878C649.013,194.878 647.593,194.326 646.561,193.222C645.529,192.118 645.013,190.59 645.013,188.638C645.013,186.686 645.505,185.158 646.489,184.054C647.473,182.95 648.869,182.398 650.677,182.398C651.797,182.398 652.765,182.646 653.581,183.142C654.397,183.638 655.013,184.31 655.429,185.158C655.845,186.006 656.053,186.958 656.053,188.014ZM650.677,184.078C649.621,184.078 648.769,184.39 648.121,185.014C647.473,185.638 647.077,186.518 646.933,187.654L654.205,187.654C654.077,186.534 653.709,185.658 653.101,185.026C652.493,184.394 651.685,184.078 650.677,184.078Z" style="fill:rgb(254,0,254);fill-rule:nonzero;"/>
            </g>
            <g transform="matrix(1,0,0,1,-72.0254,184.602)">
                <path d="M420.289,160.438C421.689,160.438 422.799,160.901 423.619,161.828C424.439,162.754 424.849,164.024 424.849,165.638C424.849,167.251 424.439,168.521 423.619,169.448C422.799,170.374 421.689,170.838 420.289,170.838C419.556,170.838 418.899,170.678 418.319,170.358C417.739,170.038 417.289,169.611 416.969,169.078L416.969,174.838L415.369,174.838L415.369,160.638L416.769,160.638L416.869,162.378C417.162,161.791 417.612,161.321 418.219,160.968C418.826,160.614 419.516,160.438 420.289,160.438ZM420.109,169.438C421.082,169.438 421.849,169.094 422.409,168.408C422.969,167.721 423.249,166.798 423.249,165.638C423.249,164.478 422.969,163.554 422.409,162.868C421.849,162.181 421.082,161.838 420.109,161.838C419.149,161.838 418.386,162.171 417.819,162.838C417.252,163.504 416.969,164.398 416.969,165.518L416.969,165.758C416.969,166.878 417.252,167.771 417.819,168.438C418.386,169.104 419.149,169.438 420.109,169.438Z" style="fill:rgb(169,169,169);fill-rule:nonzero;"/>
                <path d="M436.549,165.118C436.549,165.491 436.522,165.864 436.469,166.238L428.929,166.238C429.022,167.251 429.359,168.038 429.939,168.598C430.519,169.158 431.269,169.438 432.189,169.438C432.922,169.438 433.532,169.311 434.019,169.058C434.506,168.804 434.836,168.438 435.009,167.958L436.349,168.658C435.949,169.364 435.416,169.904 434.749,170.278C434.082,170.651 433.229,170.838 432.189,170.838C430.682,170.838 429.499,170.378 428.639,169.458C427.779,168.538 427.349,167.264 427.349,165.638C427.349,164.011 427.759,162.738 428.579,161.818C429.399,160.898 430.562,160.438 432.069,160.438C433.002,160.438 433.809,160.644 434.489,161.058C435.169,161.471 435.682,162.031 436.029,162.738C436.376,163.444 436.549,164.238 436.549,165.118ZM432.069,161.838C431.189,161.838 430.479,162.098 429.939,162.618C429.399,163.138 429.069,163.871 428.949,164.818L435.009,164.818C434.902,163.884 434.596,163.154 434.089,162.628C433.582,162.101 432.909,161.838 432.069,161.838Z" style="fill:rgb(169,169,169);fill-rule:nonzero;"/>
                <path d="M444.309,160.438C444.789,160.438 445.156,160.504 445.409,160.638L445.089,162.198C444.769,162.024 444.349,161.938 443.829,161.938C443.402,161.938 442.986,162.061 442.579,162.308C442.172,162.554 441.839,162.928 441.579,163.428C441.319,163.928 441.189,164.531 441.189,165.238L441.189,170.638L439.589,170.638L439.589,160.638L440.889,160.638L441.109,162.278C441.669,161.051 442.736,160.438 444.309,160.438Z" style="fill:rgb(169,169,169);fill-rule:nonzero;"/>
                <path d="M451.649,160.438C452.649,160.438 453.492,160.668 454.179,161.128C454.866,161.588 455.402,162.244 455.789,163.098L454.269,163.818C453.842,162.498 452.956,161.838 451.609,161.838C450.609,161.838 449.826,162.174 449.259,162.848C448.692,163.521 448.409,164.451 448.409,165.638C448.409,166.824 448.692,167.754 449.259,168.428C449.826,169.101 450.609,169.438 451.609,169.438C452.382,169.438 453.006,169.261 453.479,168.908C453.952,168.554 454.262,168.044 454.409,167.378L455.889,167.898C455.542,168.831 455.009,169.554 454.289,170.068C453.569,170.581 452.689,170.838 451.649,170.838C450.142,170.838 448.959,170.378 448.099,169.458C447.239,168.538 446.809,167.264 446.809,165.638C446.809,164.011 447.239,162.738 448.099,161.818C448.959,160.898 450.142,160.438 451.649,160.438Z" style="fill:rgb(169,169,169);fill-rule:nonzero;"/>
                <path d="M467.289,165.118C467.289,165.491 467.262,165.864 467.209,166.238L459.669,166.238C459.762,167.251 460.099,168.038 460.679,168.598C461.259,169.158 462.009,169.438 462.929,169.438C463.662,169.438 464.272,169.311 464.759,169.058C465.246,168.804 465.576,168.438 465.749,167.958L467.089,168.658C466.689,169.364 466.156,169.904 465.489,170.278C464.822,170.651 463.969,170.838 462.929,170.838C461.422,170.838 460.239,170.378 459.379,169.458C458.519,168.538 458.089,167.264 458.089,165.638C458.089,164.011 458.499,162.738 459.319,161.818C460.139,160.898 461.302,160.438 462.809,160.438C463.742,160.438 464.549,160.644 465.229,161.058C465.909,161.471 466.422,162.031 466.769,162.738C467.116,163.444 467.289,164.238 467.289,165.118ZM462.809,161.838C461.929,161.838 461.219,162.098 460.679,162.618C460.139,163.138 459.809,163.871 459.689,164.818L465.749,164.818C465.642,163.884 465.336,163.154 464.829,162.628C464.322,162.101 463.649,161.838 462.809,161.838Z" style="fill:rgb(169,169,169);fill-rule:nonzero;"/>
                <path d="M475.189,160.438C476.322,160.438 477.256,160.764 477.989,161.418C478.722,162.071 479.089,163.011 479.089,164.238L479.089,170.638L477.489,170.638L477.489,164.798C477.489,163.758 477.266,163.004 476.819,162.538C476.372,162.071 475.776,161.838 475.029,161.838C474.496,161.838 473.996,161.954 473.529,162.188C473.062,162.421 472.679,162.801 472.379,163.328C472.079,163.854 471.929,164.518 471.929,165.318L471.929,170.638L470.329,170.638L470.329,160.638L471.729,160.638L471.829,162.198C472.162,161.598 472.622,161.154 473.209,160.868C473.796,160.581 474.456,160.438 475.189,160.438Z" style="fill:rgb(169,169,169);fill-rule:nonzero;"/>
                <path d="M488.689,169.938C488.022,170.538 487.162,170.838 486.109,170.838C485.296,170.838 484.632,170.618 484.119,170.178C483.606,169.738 483.342,169.064 483.329,168.158L483.329,162.018L481.329,162.018L481.329,160.638L483.329,160.638L483.329,158.238L484.929,157.798L484.929,160.638L488.629,160.638L488.629,162.018L484.929,162.018L484.929,167.878C484.929,168.358 485.066,168.721 485.339,168.968C485.612,169.214 485.976,169.338 486.429,169.338C487.069,169.338 487.636,169.091 488.129,168.598L488.689,169.938Z" style="fill:rgb(169,169,169);fill-rule:nonzero;"/>
                <path d="M491.749,158.718C491.389,158.718 491.099,158.608 490.879,158.388C490.659,158.168 490.549,157.878 490.549,157.518C490.549,157.158 490.659,156.868 490.879,156.648C491.099,156.428 491.389,156.318 491.749,156.318C492.109,156.318 492.399,156.428 492.619,156.648C492.839,156.868 492.949,157.158 492.949,157.518C492.949,157.878 492.839,158.168 492.619,158.388C492.399,158.608 492.109,158.718 491.749,158.718ZM492.549,170.638L490.949,170.638L490.949,160.638L492.549,160.638L492.549,170.638Z" style="fill:rgb(169,169,169);fill-rule:nonzero;"/>
                <path d="M497.789,167.958C497.789,168.464 497.866,168.814 498.019,169.008C498.172,169.201 498.456,169.298 498.869,169.298C499.149,169.298 499.392,169.278 499.599,169.238C499.806,169.198 500.049,169.124 500.329,169.018L500.069,170.558C499.629,170.744 499.136,170.838 498.589,170.838C497.776,170.838 497.172,170.618 496.779,170.178C496.386,169.738 496.189,169.064 496.189,168.158L496.189,156.038L497.789,156.038L497.789,167.958Z" style="fill:rgb(169,169,169);fill-rule:nonzero;"/>
                <path d="M510.969,165.118C510.969,165.491 510.942,165.864 510.889,166.238L503.349,166.238C503.442,167.251 503.779,168.038 504.359,168.598C504.939,169.158 505.689,169.438 506.609,169.438C507.342,169.438 507.952,169.311 508.439,169.058C508.926,168.804 509.256,168.438 509.429,167.958L510.769,168.658C510.369,169.364 509.836,169.904 509.169,170.278C508.502,170.651 507.649,170.838 506.609,170.838C505.102,170.838 503.919,170.378 503.059,169.458C502.199,168.538 501.769,167.264 501.769,165.638C501.769,164.011 502.179,162.738 502.999,161.818C503.819,160.898 504.982,160.438 506.489,160.438C507.422,160.438 508.229,160.644 508.909,161.058C509.589,161.471 510.102,162.031 510.449,162.738C510.796,163.444 510.969,164.238 510.969,165.118ZM506.489,161.838C505.609,161.838 504.899,162.098 504.359,162.618C503.819,163.138 503.489,163.871 503.369,164.818L509.429,164.818C509.322,163.884 509.016,163.154 508.509,162.628C508.002,162.101 507.329,161.838 506.489,161.838Z" style="fill:rgb(169,169,169);fill-rule:nonzero;"/>
                <path d="M532.569,160.438C533.969,160.438 535.079,160.901 535.899,161.828C536.719,162.754 537.129,164.024 537.129,165.638C537.129,167.251 536.719,168.521 535.899,169.448C535.079,170.374 533.969,170.838 532.569,170.838C531.796,170.838 531.106,170.661 530.499,170.308C529.892,169.954 529.442,169.484 529.149,168.898L529.049,170.638L527.649,170.638L527.649,156.038L529.249,156.038L529.249,162.198C529.569,161.664 530.019,161.238 530.599,160.918C531.179,160.598 531.836,160.438 532.569,160.438ZM532.389,169.438C533.362,169.438 534.129,169.094 534.689,168.408C535.249,167.721 535.529,166.798 535.529,165.638C535.529,164.478 535.249,163.554 534.689,162.868C534.129,162.181 533.362,161.838 532.389,161.838C531.429,161.838 530.666,162.171 530.099,162.838C529.532,163.504 529.249,164.398 529.249,165.518L529.249,165.758C529.249,166.878 529.532,167.771 530.099,168.438C530.666,169.104 531.429,169.438 532.389,169.438Z" style="fill:rgb(169,169,169);fill-rule:nonzero;"/>
                <path d="M544.469,160.438C545.976,160.438 547.159,160.898 548.019,161.818C548.879,162.738 549.309,164.011 549.309,165.638C549.309,167.264 548.879,168.538 548.019,169.458C547.159,170.378 545.976,170.838 544.469,170.838C542.962,170.838 541.779,170.378 540.919,169.458C540.059,168.538 539.629,167.264 539.629,165.638C539.629,164.011 540.059,162.738 540.919,161.818C541.779,160.898 542.962,160.438 544.469,160.438ZM544.469,161.818C543.456,161.818 542.662,162.158 542.089,162.838C541.516,163.518 541.229,164.451 541.229,165.638C541.229,166.824 541.516,167.758 542.089,168.438C542.662,169.118 543.456,169.458 544.469,169.458C545.482,169.458 546.276,169.118 546.849,168.438C547.422,167.758 547.709,166.824 547.709,165.638C547.709,164.451 547.422,163.518 546.849,162.838C546.276,162.158 545.482,161.818 544.469,161.818Z" style="fill:rgb(169,169,169);fill-rule:nonzero;"/>
                <path d="M556.629,160.438C558.136,160.438 559.319,160.898 560.179,161.818C561.039,162.738 561.469,164.011 561.469,165.638C561.469,167.264 561.039,168.538 560.179,169.458C559.319,170.378 558.136,170.838 556.629,170.838C555.122,170.838 553.939,170.378 553.079,169.458C552.219,168.538 551.789,167.264 551.789,165.638C551.789,164.011 552.219,162.738 553.079,161.818C553.939,160.898 555.122,160.438 556.629,160.438ZM556.629,161.818C555.616,161.818 554.822,162.158 554.249,162.838C553.676,163.518 553.389,164.451 553.389,165.638C553.389,166.824 553.676,167.758 554.249,168.438C554.822,169.118 555.616,169.458 556.629,169.458C557.642,169.458 558.436,169.118 559.009,168.438C559.582,167.758 559.869,166.824 559.869,165.638C559.869,164.451 559.582,163.518 559.009,162.838C558.436,162.158 557.642,161.818 556.629,161.818Z" style="fill:rgb(169,169,169);fill-rule:nonzero;"/>
                <path d="M570.509,169.938C569.842,170.538 568.982,170.838 567.929,170.838C567.116,170.838 566.452,170.618 565.939,170.178C565.426,169.738 565.162,169.064 565.149,168.158L565.149,162.018L563.149,162.018L563.149,160.638L565.149,160.638L565.149,158.238L566.749,157.798L566.749,160.638L570.449,160.638L570.449,162.018L566.749,162.018L566.749,167.878C566.749,168.358 566.886,168.721 567.159,168.968C567.432,169.214 567.796,169.338 568.249,169.338C568.889,169.338 569.456,169.091 569.949,168.598L570.509,169.938Z" style="fill:rgb(169,169,169);fill-rule:nonzero;"/>
                <path d="M576.169,170.838C575.209,170.838 574.342,170.648 573.569,170.268C572.796,169.888 572.229,169.324 571.869,168.578L573.169,167.678C573.396,168.264 573.789,168.704 574.349,168.998C574.909,169.291 575.569,169.438 576.329,169.438C577.116,169.438 577.716,169.298 578.129,169.018C578.542,168.738 578.749,168.384 578.749,167.958C578.749,167.571 578.556,167.261 578.169,167.028C577.782,166.794 577.102,166.591 576.129,166.418C575.169,166.244 574.409,166.034 573.849,165.788C573.289,165.541 572.882,165.228 572.629,164.848C572.376,164.468 572.249,163.998 572.249,163.438C572.249,162.891 572.409,162.391 572.729,161.938C573.049,161.484 573.509,161.121 574.109,160.848C574.709,160.574 575.402,160.438 576.189,160.438C577.256,160.438 578.112,160.634 578.759,161.028C579.406,161.421 579.869,162.024 580.149,162.838L578.789,163.638C578.576,162.998 578.252,162.538 577.819,162.258C577.386,161.978 576.842,161.838 576.189,161.838C575.536,161.838 574.982,161.984 574.529,162.278C574.076,162.571 573.849,162.911 573.849,163.298C573.849,163.738 574.046,164.078 574.439,164.318C574.832,164.558 575.536,164.764 576.549,164.938C577.936,165.164 578.916,165.504 579.489,165.958C580.062,166.411 580.349,167.051 580.349,167.878C580.349,168.451 580.179,168.961 579.839,169.408C579.499,169.854 579.012,170.204 578.379,170.458C577.746,170.711 577.009,170.838 576.169,170.838Z" style="fill:rgb(169,169,169);fill-rule:nonzero;"/>
                <path d="M589.429,169.938C588.762,170.538 587.902,170.838 586.849,170.838C586.036,170.838 585.372,170.618 584.859,170.178C584.346,169.738 584.082,169.064 584.069,168.158L584.069,162.018L582.069,162.018L582.069,160.638L584.069,160.638L584.069,158.238L585.669,157.798L585.669,160.638L589.369,160.638L589.369,162.018L585.669,162.018L585.669,167.878C585.669,168.358 585.806,168.721 586.079,168.968C586.352,169.214 586.716,169.338 587.169,169.338C587.809,169.338 588.376,169.091 588.869,168.598L589.429,169.938Z" style="fill:rgb(169,169,169);fill-rule:nonzero;"/>
                <path d="M596.409,160.438C596.889,160.438 597.256,160.504 597.509,160.638L597.189,162.198C596.869,162.024 596.449,161.938 595.929,161.938C595.502,161.938 595.086,162.061 594.679,162.308C594.272,162.554 593.939,162.928 593.679,163.428C593.419,163.928 593.289,164.531 593.289,165.238L593.289,170.638L591.689,170.638L591.689,160.638L592.989,160.638L593.209,162.278C593.769,161.051 594.836,160.438 596.409,160.438Z" style="fill:rgb(169,169,169);fill-rule:nonzero;"/>
                <path d="M607.769,169.478C608.036,169.478 608.302,169.444 608.569,169.378L608.469,170.638C608.096,170.771 607.696,170.838 607.269,170.838C606.749,170.838 606.339,170.724 606.039,170.498C605.739,170.271 605.549,169.891 605.469,169.358C605.162,169.824 604.712,170.188 604.119,170.448C603.526,170.708 602.902,170.838 602.249,170.838C601.262,170.838 600.449,170.608 599.809,170.148C599.169,169.688 598.849,169.024 598.849,168.158C598.849,167.398 599.182,166.741 599.849,166.188C600.516,165.634 601.482,165.251 602.749,165.038L605.409,164.598L605.409,164.038C605.409,163.371 605.202,162.838 604.789,162.438C604.376,162.038 603.802,161.838 603.069,161.838C602.402,161.838 601.826,161.998 601.339,162.318C600.852,162.638 600.476,163.111 600.209,163.738L599.029,162.878C599.296,162.131 599.792,161.538 600.519,161.098C601.246,160.658 602.096,160.438 603.069,160.438C604.256,160.438 605.209,160.724 605.929,161.298C606.649,161.871 607.009,162.718 607.009,163.838L607.009,168.758C607.009,168.998 607.069,169.178 607.189,169.298C607.309,169.418 607.502,169.478 607.769,169.478ZM602.329,169.438C603.169,169.438 603.892,169.238 604.499,168.838C605.106,168.438 605.409,167.918 605.409,167.278L605.409,165.898L603.169,166.318C602.276,166.478 601.609,166.708 601.169,167.008C600.729,167.308 600.509,167.691 600.509,168.158C600.509,168.571 600.669,168.888 600.989,169.108C601.309,169.328 601.756,169.438 602.329,169.438Z" style="fill:rgb(169,169,169);fill-rule:nonzero;"/>
                <path d="M615.809,160.438C617.209,160.438 618.319,160.901 619.139,161.828C619.959,162.754 620.369,164.024 620.369,165.638C620.369,167.251 619.959,168.521 619.139,169.448C618.319,170.374 617.209,170.838 615.809,170.838C615.076,170.838 614.419,170.678 613.839,170.358C613.259,170.038 612.809,169.611 612.489,169.078L612.489,174.838L610.889,174.838L610.889,160.638L612.289,160.638L612.389,162.378C612.682,161.791 613.132,161.321 613.739,160.968C614.346,160.614 615.036,160.438 615.809,160.438ZM615.629,169.438C616.602,169.438 617.369,169.094 617.929,168.408C618.489,167.721 618.769,166.798 618.769,165.638C618.769,164.478 618.489,163.554 617.929,162.868C617.369,162.181 616.602,161.838 615.629,161.838C614.669,161.838 613.906,162.171 613.339,162.838C612.772,163.504 612.489,164.398 612.489,165.518L612.489,165.758C612.489,166.878 612.772,167.771 613.339,168.438C613.906,169.104 614.669,169.438 615.629,169.438Z" style="fill:rgb(169,169,169);fill-rule:nonzero;"/>
            </g>
            <g transform="matrix(1,0,0,1,-3.7434,246.215)">
                <path d="M420.289,160.438C421.689,160.438 422.799,160.901 423.619,161.828C424.439,162.754 424.849,164.024 424.849,165.638C424.849,167.251 424.439,168.521 423.619,169.448C422.799,170.374 421.689,170.838 420.289,170.838C419.516,170.838 418.826,170.661 418.219,170.308C417.612,169.954 417.162,169.484 416.869,168.898L416.769,170.638L415.369,170.638L415.369,156.038L416.969,156.038L416.969,162.198C417.289,161.664 417.739,161.238 418.319,160.918C418.899,160.598 419.556,160.438 420.289,160.438ZM420.109,169.438C421.082,169.438 421.849,169.094 422.409,168.408C422.969,167.721 423.249,166.798 423.249,165.638C423.249,164.478 422.969,163.554 422.409,162.868C421.849,162.181 421.082,161.838 420.109,161.838C419.149,161.838 418.386,162.171 417.819,162.838C417.252,163.504 416.969,164.398 416.969,165.518L416.969,165.758C416.969,166.878 417.252,167.771 417.819,168.438C418.386,169.104 419.149,169.438 420.109,169.438Z" style="fill:rgb(13,242,201);fill-rule:nonzero;"/>
                <path d="M428.769,158.718C428.409,158.718 428.119,158.608 427.899,158.388C427.679,158.168 427.569,157.878 427.569,157.518C427.569,157.158 427.679,156.868 427.899,156.648C428.119,156.428 428.409,156.318 428.769,156.318C429.129,156.318 429.419,156.428 429.639,156.648C429.859,156.868 429.969,157.158 429.969,157.518C429.969,157.878 429.859,158.168 429.639,158.388C429.419,158.608 429.129,158.718 428.769,158.718ZM429.569,170.638L427.969,170.638L427.969,160.638L429.569,160.638L429.569,170.638Z" style="fill:rgb(13,242,201);fill-rule:nonzero;"/>
                <path d="M441.489,169.478C441.756,169.478 442.022,169.444 442.289,169.378L442.189,170.638C441.816,170.771 441.416,170.838 440.989,170.838C440.469,170.838 440.059,170.724 439.759,170.498C439.459,170.271 439.269,169.891 439.189,169.358C438.882,169.824 438.432,170.188 437.839,170.448C437.246,170.708 436.622,170.838 435.969,170.838C434.982,170.838 434.169,170.608 433.529,170.148C432.889,169.688 432.569,169.024 432.569,168.158C432.569,167.398 432.902,166.741 433.569,166.188C434.236,165.634 435.202,165.251 436.469,165.038L439.129,164.598L439.129,164.038C439.129,163.371 438.922,162.838 438.509,162.438C438.096,162.038 437.522,161.838 436.789,161.838C436.122,161.838 435.546,161.998 435.059,162.318C434.572,162.638 434.196,163.111 433.929,163.738L432.749,162.878C433.016,162.131 433.512,161.538 434.239,161.098C434.966,160.658 435.816,160.438 436.789,160.438C437.976,160.438 438.929,160.724 439.649,161.298C440.369,161.871 440.729,162.718 440.729,163.838L440.729,168.758C440.729,168.998 440.789,169.178 440.909,169.298C441.029,169.418 441.222,169.478 441.489,169.478ZM436.049,169.438C436.889,169.438 437.612,169.238 438.219,168.838C438.826,168.438 439.129,167.918 439.129,167.278L439.129,165.898L436.889,166.318C435.996,166.478 435.329,166.708 434.889,167.008C434.449,167.308 434.229,167.691 434.229,168.158C434.229,168.571 434.389,168.888 434.709,169.108C435.029,169.328 435.476,169.438 436.049,169.438Z" style="fill:rgb(13,242,201);fill-rule:nonzero;"/>
                <path d="M448.009,170.838C447.049,170.838 446.182,170.648 445.409,170.268C444.636,169.888 444.069,169.324 443.709,168.578L445.009,167.678C445.236,168.264 445.629,168.704 446.189,168.998C446.749,169.291 447.409,169.438 448.169,169.438C448.956,169.438 449.556,169.298 449.969,169.018C450.382,168.738 450.589,168.384 450.589,167.958C450.589,167.571 450.396,167.261 450.009,167.028C449.622,166.794 448.942,166.591 447.969,166.418C447.009,166.244 446.249,166.034 445.689,165.788C445.129,165.541 444.722,165.228 444.469,164.848C444.216,164.468 444.089,163.998 444.089,163.438C444.089,162.891 444.249,162.391 444.569,161.938C444.889,161.484 445.349,161.121 445.949,160.848C446.549,160.574 447.242,160.438 448.029,160.438C449.096,160.438 449.952,160.634 450.599,161.028C451.246,161.421 451.709,162.024 451.989,162.838L450.629,163.638C450.416,162.998 450.092,162.538 449.659,162.258C449.226,161.978 448.682,161.838 448.029,161.838C447.376,161.838 446.822,161.984 446.369,162.278C445.916,162.571 445.689,162.911 445.689,163.298C445.689,163.738 445.886,164.078 446.279,164.318C446.672,164.558 447.376,164.764 448.389,164.938C449.776,165.164 450.756,165.504 451.329,165.958C451.902,166.411 452.189,167.051 452.189,167.878C452.189,168.451 452.019,168.961 451.679,169.408C451.339,169.854 450.852,170.204 450.219,170.458C449.586,170.711 448.849,170.838 448.009,170.838Z" style="fill:rgb(13,242,201);fill-rule:nonzero;"/>
                <path d="M466.189,160.438C467.189,160.438 468.032,160.668 468.719,161.128C469.406,161.588 469.942,162.244 470.329,163.098L468.809,163.818C468.382,162.498 467.496,161.838 466.149,161.838C465.149,161.838 464.366,162.174 463.799,162.848C463.232,163.521 462.949,164.451 462.949,165.638C462.949,166.824 463.232,167.754 463.799,168.428C464.366,169.101 465.149,169.438 466.149,169.438C466.922,169.438 467.546,169.261 468.019,168.908C468.492,168.554 468.802,168.044 468.949,167.378L470.429,167.898C470.082,168.831 469.549,169.554 468.829,170.068C468.109,170.581 467.229,170.838 466.189,170.838C464.682,170.838 463.499,170.378 462.639,169.458C461.779,168.538 461.349,167.264 461.349,165.638C461.349,164.011 461.779,162.738 462.639,161.818C463.499,160.898 464.682,160.438 466.189,160.438Z" style="fill:rgb(13,242,201);fill-rule:nonzero;"/>
                <path d="M477.469,160.438C478.976,160.438 480.159,160.898 481.019,161.818C481.879,162.738 482.309,164.011 482.309,165.638C482.309,167.264 481.879,168.538 481.019,169.458C480.159,170.378 478.976,170.838 477.469,170.838C475.962,170.838 474.779,170.378 473.919,169.458C473.059,168.538 472.629,167.264 472.629,165.638C472.629,164.011 473.059,162.738 473.919,161.818C474.779,160.898 475.962,160.438 477.469,160.438ZM477.469,161.818C476.456,161.818 475.662,162.158 475.089,162.838C474.516,163.518 474.229,164.451 474.229,165.638C474.229,166.824 474.516,167.758 475.089,168.438C475.662,169.118 476.456,169.458 477.469,169.458C478.482,169.458 479.276,169.118 479.849,168.438C480.422,167.758 480.709,166.824 480.709,165.638C480.709,164.451 480.422,163.518 479.849,162.838C479.276,162.158 478.482,161.818 477.469,161.818Z" style="fill:rgb(13,242,201);fill-rule:nonzero;"/>
                <path d="M490.129,160.438C490.609,160.438 490.976,160.504 491.229,160.638L490.909,162.198C490.589,162.024 490.169,161.938 489.649,161.938C489.222,161.938 488.806,162.061 488.399,162.308C487.992,162.554 487.659,162.928 487.399,163.428C487.139,163.928 487.009,164.531 487.009,165.238L487.009,170.638L485.409,170.638L485.409,160.638L486.709,160.638L486.929,162.278C487.489,161.051 488.556,160.438 490.129,160.438Z" style="fill:rgb(13,242,201);fill-rule:nonzero;"/>
                <path d="M498.289,160.438C498.769,160.438 499.136,160.504 499.389,160.638L499.069,162.198C498.749,162.024 498.329,161.938 497.809,161.938C497.382,161.938 496.966,162.061 496.559,162.308C496.152,162.554 495.819,162.928 495.559,163.428C495.299,163.928 495.169,164.531 495.169,165.238L495.169,170.638L493.569,170.638L493.569,160.638L494.869,160.638L495.089,162.278C495.649,161.051 496.716,160.438 498.289,160.438Z" style="fill:rgb(13,242,201);fill-rule:nonzero;"/>
                <path d="M509.989,165.118C509.989,165.491 509.962,165.864 509.909,166.238L502.369,166.238C502.462,167.251 502.799,168.038 503.379,168.598C503.959,169.158 504.709,169.438 505.629,169.438C506.362,169.438 506.972,169.311 507.459,169.058C507.946,168.804 508.276,168.438 508.449,167.958L509.789,168.658C509.389,169.364 508.856,169.904 508.189,170.278C507.522,170.651 506.669,170.838 505.629,170.838C504.122,170.838 502.939,170.378 502.079,169.458C501.219,168.538 500.789,167.264 500.789,165.638C500.789,164.011 501.199,162.738 502.019,161.818C502.839,160.898 504.002,160.438 505.509,160.438C506.442,160.438 507.249,160.644 507.929,161.058C508.609,161.471 509.122,162.031 509.469,162.738C509.816,163.444 509.989,164.238 509.989,165.118ZM505.509,161.838C504.629,161.838 503.919,162.098 503.379,162.618C502.839,163.138 502.509,163.871 502.389,164.818L508.449,164.818C508.342,163.884 508.036,163.154 507.529,162.628C507.022,162.101 506.349,161.838 505.509,161.838Z" style="fill:rgb(13,242,201);fill-rule:nonzero;"/>
                <path d="M517.249,160.438C518.249,160.438 519.092,160.668 519.779,161.128C520.466,161.588 521.002,162.244 521.389,163.098L519.869,163.818C519.442,162.498 518.556,161.838 517.209,161.838C516.209,161.838 515.426,162.174 514.859,162.848C514.292,163.521 514.009,164.451 514.009,165.638C514.009,166.824 514.292,167.754 514.859,168.428C515.426,169.101 516.209,169.438 517.209,169.438C517.982,169.438 518.606,169.261 519.079,168.908C519.552,168.554 519.862,168.044 520.009,167.378L521.489,167.898C521.142,168.831 520.609,169.554 519.889,170.068C519.169,170.581 518.289,170.838 517.249,170.838C515.742,170.838 514.559,170.378 513.699,169.458C512.839,168.538 512.409,167.264 512.409,165.638C512.409,164.011 512.839,162.738 513.699,161.818C514.559,160.898 515.742,160.438 517.249,160.438Z" style="fill:rgb(13,242,201);fill-rule:nonzero;"/>
                <path d="M530.429,169.938C529.762,170.538 528.902,170.838 527.849,170.838C527.036,170.838 526.372,170.618 525.859,170.178C525.346,169.738 525.082,169.064 525.069,168.158L525.069,162.018L523.069,162.018L523.069,160.638L525.069,160.638L525.069,158.238L526.669,157.798L526.669,160.638L530.369,160.638L530.369,162.018L526.669,162.018L526.669,167.878C526.669,168.358 526.806,168.721 527.079,168.968C527.352,169.214 527.716,169.338 528.169,169.338C528.809,169.338 529.376,169.091 529.869,168.598L530.429,169.938Z" style="fill:rgb(13,242,201);fill-rule:nonzero;"/>
                <path d="M541.269,165.118C541.269,165.491 541.242,165.864 541.189,166.238L533.649,166.238C533.742,167.251 534.079,168.038 534.659,168.598C535.239,169.158 535.989,169.438 536.909,169.438C537.642,169.438 538.252,169.311 538.739,169.058C539.226,168.804 539.556,168.438 539.729,167.958L541.069,168.658C540.669,169.364 540.136,169.904 539.469,170.278C538.802,170.651 537.949,170.838 536.909,170.838C535.402,170.838 534.219,170.378 533.359,169.458C532.499,168.538 532.069,167.264 532.069,165.638C532.069,164.011 532.479,162.738 533.299,161.818C534.119,160.898 535.282,160.438 536.789,160.438C537.722,160.438 538.529,160.644 539.209,161.058C539.889,161.471 540.402,162.031 540.749,162.738C541.096,163.444 541.269,164.238 541.269,165.118ZM536.789,161.838C535.909,161.838 535.199,162.098 534.659,162.618C534.119,163.138 533.789,163.871 533.669,164.818L539.729,164.818C539.622,163.884 539.316,163.154 538.809,162.628C538.302,162.101 537.629,161.838 536.789,161.838Z" style="fill:rgb(13,242,201);fill-rule:nonzero;"/>
                <path d="M553.189,156.038L553.189,170.638L551.789,170.638L551.689,168.898C551.396,169.484 550.946,169.954 550.339,170.308C549.732,170.661 549.042,170.838 548.269,170.838C546.869,170.838 545.759,170.374 544.939,169.448C544.119,168.521 543.709,167.251 543.709,165.638C543.709,164.024 544.119,162.754 544.939,161.828C545.759,160.901 546.869,160.438 548.269,160.438C549.002,160.438 549.659,160.598 550.239,160.918C550.819,161.238 551.269,161.664 551.589,162.198L551.589,156.038L553.189,156.038ZM548.449,169.438C549.409,169.438 550.172,169.104 550.739,168.438C551.306,167.771 551.589,166.878 551.589,165.758L551.589,165.518C551.589,164.398 551.306,163.504 550.739,162.838C550.172,162.171 549.409,161.838 548.449,161.838C547.476,161.838 546.709,162.181 546.149,162.868C545.589,163.554 545.309,164.478 545.309,165.638C545.309,166.798 545.589,167.721 546.149,168.408C546.709,169.094 547.476,169.438 548.449,169.438Z" style="fill:rgb(13,242,201);fill-rule:nonzero;"/>
                <path d="M571.929,169.478C572.196,169.478 572.462,169.444 572.729,169.378L572.629,170.638C572.256,170.771 571.856,170.838 571.429,170.838C570.909,170.838 570.499,170.724 570.199,170.498C569.899,170.271 569.709,169.891 569.629,169.358C569.322,169.824 568.872,170.188 568.279,170.448C567.686,170.708 567.062,170.838 566.409,170.838C565.422,170.838 564.609,170.608 563.969,170.148C563.329,169.688 563.009,169.024 563.009,168.158C563.009,167.398 563.342,166.741 564.009,166.188C564.676,165.634 565.642,165.251 566.909,165.038L569.569,164.598L569.569,164.038C569.569,163.371 569.362,162.838 568.949,162.438C568.536,162.038 567.962,161.838 567.229,161.838C566.562,161.838 565.986,161.998 565.499,162.318C565.012,162.638 564.636,163.111 564.369,163.738L563.189,162.878C563.456,162.131 563.952,161.538 564.679,161.098C565.406,160.658 566.256,160.438 567.229,160.438C568.416,160.438 569.369,160.724 570.089,161.298C570.809,161.871 571.169,162.718 571.169,163.838L571.169,168.758C571.169,168.998 571.229,169.178 571.349,169.298C571.469,169.418 571.662,169.478 571.929,169.478ZM566.489,169.438C567.329,169.438 568.052,169.238 568.659,168.838C569.266,168.438 569.569,167.918 569.569,167.278L569.569,165.898L567.329,166.318C566.436,166.478 565.769,166.708 565.329,167.008C564.889,167.308 564.669,167.691 564.669,168.158C564.669,168.571 564.829,168.888 565.149,169.108C565.469,169.328 565.916,169.438 566.489,169.438Z" style="fill:rgb(13,242,201);fill-rule:nonzero;"/>
                <path d="M579.909,160.438C581.042,160.438 581.976,160.764 582.709,161.418C583.442,162.071 583.809,163.011 583.809,164.238L583.809,170.638L582.209,170.638L582.209,164.798C582.209,163.758 581.986,163.004 581.539,162.538C581.092,162.071 580.496,161.838 579.749,161.838C579.216,161.838 578.716,161.954 578.249,162.188C577.782,162.421 577.399,162.801 577.099,163.328C576.799,163.854 576.649,164.518 576.649,165.318L576.649,170.638L575.049,170.638L575.049,160.638L576.449,160.638L576.549,162.198C576.882,161.598 577.342,161.154 577.929,160.868C578.516,160.581 579.176,160.438 579.909,160.438Z" style="fill:rgb(13,242,201);fill-rule:nonzero;"/>
                <path d="M596.309,156.038L596.309,170.638L594.909,170.638L594.809,168.898C594.516,169.484 594.066,169.954 593.459,170.308C592.852,170.661 592.162,170.838 591.389,170.838C589.989,170.838 588.879,170.374 588.059,169.448C587.239,168.521 586.829,167.251 586.829,165.638C586.829,164.024 587.239,162.754 588.059,161.828C588.879,160.901 589.989,160.438 591.389,160.438C592.122,160.438 592.779,160.598 593.359,160.918C593.939,161.238 594.389,161.664 594.709,162.198L594.709,156.038L596.309,156.038ZM591.569,169.438C592.529,169.438 593.292,169.104 593.859,168.438C594.426,167.771 594.709,166.878 594.709,165.758L594.709,165.518C594.709,164.398 594.426,163.504 593.859,162.838C593.292,162.171 592.529,161.838 591.569,161.838C590.596,161.838 589.829,162.181 589.269,162.868C588.709,163.554 588.429,164.478 588.429,165.638C588.429,166.798 588.709,167.721 589.269,168.408C589.829,169.094 590.596,169.438 591.569,169.438Z" style="fill:rgb(13,242,201);fill-rule:nonzero;"/>
                <path d="M615.049,169.478C615.316,169.478 615.582,169.444 615.849,169.378L615.749,170.638C615.376,170.771 614.976,170.838 614.549,170.838C614.029,170.838 613.619,170.724 613.319,170.498C613.019,170.271 612.829,169.891 612.749,169.358C612.442,169.824 611.992,170.188 611.399,170.448C610.806,170.708 610.182,170.838 609.529,170.838C608.542,170.838 607.729,170.608 607.089,170.148C606.449,169.688 606.129,169.024 606.129,168.158C606.129,167.398 606.462,166.741 607.129,166.188C607.796,165.634 608.762,165.251 610.029,165.038L612.689,164.598L612.689,164.038C612.689,163.371 612.482,162.838 612.069,162.438C611.656,162.038 611.082,161.838 610.349,161.838C609.682,161.838 609.106,161.998 608.619,162.318C608.132,162.638 607.756,163.111 607.489,163.738L606.309,162.878C606.576,162.131 607.072,161.538 607.799,161.098C608.526,160.658 609.376,160.438 610.349,160.438C611.536,160.438 612.489,160.724 613.209,161.298C613.929,161.871 614.289,162.718 614.289,163.838L614.289,168.758C614.289,168.998 614.349,169.178 614.469,169.298C614.589,169.418 614.782,169.478 615.049,169.478ZM609.609,169.438C610.449,169.438 611.172,169.238 611.779,168.838C612.386,168.438 612.689,167.918 612.689,167.278L612.689,165.898L610.449,166.318C609.556,166.478 608.889,166.708 608.449,167.008C608.009,167.308 607.789,167.691 607.789,168.158C607.789,168.571 607.949,168.888 608.269,169.108C608.589,169.328 609.036,169.438 609.609,169.438Z" style="fill:rgb(13,242,201);fill-rule:nonzero;"/>
                <path d="M622.389,160.438C623.389,160.438 624.232,160.668 624.919,161.128C625.606,161.588 626.142,162.244 626.529,163.098L625.009,163.818C624.582,162.498 623.696,161.838 622.349,161.838C621.349,161.838 620.566,162.174 619.999,162.848C619.432,163.521 619.149,164.451 619.149,165.638C619.149,166.824 619.432,167.754 619.999,168.428C620.566,169.101 621.349,169.438 622.349,169.438C623.122,169.438 623.746,169.261 624.219,168.908C624.692,168.554 625.002,168.044 625.149,167.378L626.629,167.898C626.282,168.831 625.749,169.554 625.029,170.068C624.309,170.581 623.429,170.838 622.389,170.838C620.882,170.838 619.699,170.378 618.839,169.458C617.979,168.538 617.549,167.264 617.549,165.638C617.549,164.011 617.979,162.738 618.839,161.818C619.699,160.898 620.882,160.438 622.389,160.438Z" style="fill:rgb(13,242,201);fill-rule:nonzero;"/>
                <path d="M633.669,160.438C634.669,160.438 635.512,160.668 636.199,161.128C636.886,161.588 637.422,162.244 637.809,163.098L636.289,163.818C635.862,162.498 634.976,161.838 633.629,161.838C632.629,161.838 631.846,162.174 631.279,162.848C630.712,163.521 630.429,164.451 630.429,165.638C630.429,166.824 630.712,167.754 631.279,168.428C631.846,169.101 632.629,169.438 633.629,169.438C634.402,169.438 635.026,169.261 635.499,168.908C635.972,168.554 636.282,168.044 636.429,167.378L637.909,167.898C637.562,168.831 637.029,169.554 636.309,170.068C635.589,170.581 634.709,170.838 633.669,170.838C632.162,170.838 630.979,170.378 630.119,169.458C629.259,168.538 628.829,167.264 628.829,165.638C628.829,164.011 629.259,162.738 630.119,161.818C630.979,160.898 632.162,160.438 633.669,160.438Z" style="fill:rgb(13,242,201);fill-rule:nonzero;"/>
                <path d="M649.309,165.118C649.309,165.491 649.282,165.864 649.229,166.238L641.689,166.238C641.782,167.251 642.119,168.038 642.699,168.598C643.279,169.158 644.029,169.438 644.949,169.438C645.682,169.438 646.292,169.311 646.779,169.058C647.266,168.804 647.596,168.438 647.769,167.958L649.109,168.658C648.709,169.364 648.176,169.904 647.509,170.278C646.842,170.651 645.989,170.838 644.949,170.838C643.442,170.838 642.259,170.378 641.399,169.458C640.539,168.538 640.109,167.264 640.109,165.638C640.109,164.011 640.519,162.738 641.339,161.818C642.159,160.898 643.322,160.438 644.829,160.438C645.762,160.438 646.569,160.644 647.249,161.058C647.929,161.471 648.442,162.031 648.789,162.738C649.136,163.444 649.309,164.238 649.309,165.118ZM644.829,161.838C643.949,161.838 643.239,162.098 642.699,162.618C642.159,163.138 641.829,163.871 641.709,164.818L647.769,164.818C647.662,163.884 647.356,163.154 646.849,162.628C646.342,162.101 645.669,161.838 644.829,161.838Z" style="fill:rgb(13,242,201);fill-rule:nonzero;"/>
                <path d="M653.869,167.958C653.869,168.464 653.946,168.814 654.099,169.008C654.252,169.201 654.536,169.298 654.949,169.298C655.229,169.298 655.472,169.278 655.679,169.238C655.886,169.198 656.129,169.124 656.409,169.018L656.149,170.558C655.709,170.744 655.216,170.838 654.669,170.838C653.856,170.838 653.252,170.618 652.859,170.178C652.466,169.738 652.269,169.064 652.269,168.158L652.269,156.038L653.869,156.038L653.869,167.958Z" style="fill:rgb(13,242,201);fill-rule:nonzero;"/>
                <path d="M667.049,165.118C667.049,165.491 667.022,165.864 666.969,166.238L659.429,166.238C659.522,167.251 659.859,168.038 660.439,168.598C661.019,169.158 661.769,169.438 662.689,169.438C663.422,169.438 664.032,169.311 664.519,169.058C665.006,168.804 665.336,168.438 665.509,167.958L666.849,168.658C666.449,169.364 665.916,169.904 665.249,170.278C664.582,170.651 663.729,170.838 662.689,170.838C661.182,170.838 659.999,170.378 659.139,169.458C658.279,168.538 657.849,167.264 657.849,165.638C657.849,164.011 658.259,162.738 659.079,161.818C659.899,160.898 661.062,160.438 662.569,160.438C663.502,160.438 664.309,160.644 664.989,161.058C665.669,161.471 666.182,162.031 666.529,162.738C666.876,163.444 667.049,164.238 667.049,165.118ZM662.569,161.838C661.689,161.838 660.979,162.098 660.439,162.618C659.899,163.138 659.569,163.871 659.449,164.818L665.509,164.818C665.402,163.884 665.096,163.154 664.589,162.628C664.082,162.101 663.409,161.838 662.569,161.838Z" style="fill:rgb(13,242,201);fill-rule:nonzero;"/>
                <path d="M674.809,160.438C675.289,160.438 675.656,160.504 675.909,160.638L675.589,162.198C675.269,162.024 674.849,161.938 674.329,161.938C673.902,161.938 673.486,162.061 673.079,162.308C672.672,162.554 672.339,162.928 672.079,163.428C671.819,163.928 671.689,164.531 671.689,165.238L671.689,170.638L670.089,170.638L670.089,160.638L671.389,160.638L671.609,162.278C672.169,161.051 673.236,160.438 674.809,160.438Z" style="fill:rgb(13,242,201);fill-rule:nonzero;"/>
                <path d="M686.169,169.478C686.436,169.478 686.702,169.444 686.969,169.378L686.869,170.638C686.496,170.771 686.096,170.838 685.669,170.838C685.149,170.838 684.739,170.724 684.439,170.498C684.139,170.271 683.949,169.891 683.869,169.358C683.562,169.824 683.112,170.188 682.519,170.448C681.926,170.708 681.302,170.838 680.649,170.838C679.662,170.838 678.849,170.608 678.209,170.148C677.569,169.688 677.249,169.024 677.249,168.158C677.249,167.398 677.582,166.741 678.249,166.188C678.916,165.634 679.882,165.251 681.149,165.038L683.809,164.598L683.809,164.038C683.809,163.371 683.602,162.838 683.189,162.438C682.776,162.038 682.202,161.838 681.469,161.838C680.802,161.838 680.226,161.998 679.739,162.318C679.252,162.638 678.876,163.111 678.609,163.738L677.429,162.878C677.696,162.131 678.192,161.538 678.919,161.098C679.646,160.658 680.496,160.438 681.469,160.438C682.656,160.438 683.609,160.724 684.329,161.298C685.049,161.871 685.409,162.718 685.409,163.838L685.409,168.758C685.409,168.998 685.469,169.178 685.589,169.298C685.709,169.418 685.902,169.478 686.169,169.478ZM680.729,169.438C681.569,169.438 682.292,169.238 682.899,168.838C683.506,168.438 683.809,167.918 683.809,167.278L683.809,165.898L681.569,166.318C680.676,166.478 680.009,166.708 679.569,167.008C679.129,167.308 678.909,167.691 678.909,168.158C678.909,168.571 679.069,168.888 679.389,169.108C679.709,169.328 680.156,169.438 680.729,169.438Z" style="fill:rgb(13,242,201);fill-rule:nonzero;"/>
                <path d="M695.009,169.938C694.342,170.538 693.482,170.838 692.429,170.838C691.616,170.838 690.952,170.618 690.439,170.178C689.926,169.738 689.662,169.064 689.649,168.158L689.649,162.018L687.649,162.018L687.649,160.638L689.649,160.638L689.649,158.238L691.249,157.798L691.249,160.638L694.949,160.638L694.949,162.018L691.249,162.018L691.249,167.878C691.249,168.358 691.386,168.721 691.659,168.968C691.932,169.214 692.296,169.338 692.749,169.338C693.389,169.338 693.956,169.091 694.449,168.598L695.009,169.938Z" style="fill:rgb(13,242,201);fill-rule:nonzero;"/>
                <path d="M705.849,165.118C705.849,165.491 705.822,165.864 705.769,166.238L698.229,166.238C698.322,167.251 698.659,168.038 699.239,168.598C699.819,169.158 700.569,169.438 701.489,169.438C702.222,169.438 702.832,169.311 703.319,169.058C703.806,168.804 704.136,168.438 704.309,167.958L705.649,168.658C705.249,169.364 704.716,169.904 704.049,170.278C703.382,170.651 702.529,170.838 701.489,170.838C699.982,170.838 698.799,170.378 697.939,169.458C697.079,168.538 696.649,167.264 696.649,165.638C696.649,164.011 697.059,162.738 697.879,161.818C698.699,160.898 699.862,160.438 701.369,160.438C702.302,160.438 703.109,160.644 703.789,161.058C704.469,161.471 704.982,162.031 705.329,162.738C705.676,163.444 705.849,164.238 705.849,165.118ZM701.369,161.838C700.489,161.838 699.779,162.098 699.239,162.618C698.699,163.138 698.369,163.871 698.249,164.818L704.309,164.818C704.202,163.884 703.896,163.154 703.389,162.628C702.882,162.101 702.209,161.838 701.369,161.838Z" style="fill:rgb(13,242,201);fill-rule:nonzero;"/>
                <path d="M717.769,156.038L717.769,170.638L716.369,170.638L716.269,168.898C715.976,169.484 715.526,169.954 714.919,170.308C714.312,170.661 713.622,170.838 712.849,170.838C711.449,170.838 710.339,170.374 709.519,169.448C708.699,168.521 708.289,167.251 708.289,165.638C708.289,164.024 708.699,162.754 709.519,161.828C710.339,160.901 711.449,160.438 712.849,160.438C713.582,160.438 714.239,160.598 714.819,160.918C715.399,161.238 715.849,161.664 716.169,162.198L716.169,156.038L717.769,156.038ZM713.029,169.438C713.989,169.438 714.752,169.104 715.319,168.438C715.886,167.771 716.169,166.878 716.169,165.758L716.169,165.518C716.169,164.398 715.886,163.504 715.319,162.838C714.752,162.171 713.989,161.838 713.029,161.838C712.056,161.838 711.289,162.181 710.729,162.868C710.169,163.554 709.889,164.478 709.889,165.638C709.889,166.798 710.169,167.721 710.729,168.408C711.289,169.094 712.056,169.438 713.029,169.438Z" style="fill:rgb(13,242,201);fill-rule:nonzero;"/>
                <path d="M420.289,180.438C421.689,180.438 422.799,180.901 423.619,181.828C424.439,182.754 424.849,184.024 424.849,185.638C424.849,187.251 424.439,188.521 423.619,189.448C422.799,190.374 421.689,190.838 420.289,190.838C419.516,190.838 418.826,190.661 418.219,190.308C417.612,189.954 417.162,189.484 416.869,188.898L416.769,190.638L415.369,190.638L415.369,176.038L416.969,176.038L416.969,182.198C417.289,181.664 417.739,181.238 418.319,180.918C418.899,180.598 419.556,180.438 420.289,180.438ZM420.109,189.438C421.082,189.438 421.849,189.094 422.409,188.408C422.969,187.721 423.249,186.798 423.249,185.638C423.249,184.478 422.969,183.554 422.409,182.868C421.849,182.181 421.082,181.838 420.109,181.838C419.149,181.838 418.386,182.171 417.819,182.838C417.252,183.504 416.969,184.398 416.969,185.518L416.969,185.758C416.969,186.878 417.252,187.771 417.819,188.438C418.386,189.104 419.149,189.438 420.109,189.438Z" style="fill:rgb(13,242,201);fill-rule:nonzero;"/>
                <path d="M432.189,180.438C433.696,180.438 434.879,180.898 435.739,181.818C436.599,182.738 437.029,184.011 437.029,185.638C437.029,187.264 436.599,188.538 435.739,189.458C434.879,190.378 433.696,190.838 432.189,190.838C430.682,190.838 429.499,190.378 428.639,189.458C427.779,188.538 427.349,187.264 427.349,185.638C427.349,184.011 427.779,182.738 428.639,181.818C429.499,180.898 430.682,180.438 432.189,180.438ZM432.189,181.818C431.176,181.818 430.382,182.158 429.809,182.838C429.236,183.518 428.949,184.451 428.949,185.638C428.949,186.824 429.236,187.758 429.809,188.438C430.382,189.118 431.176,189.458 432.189,189.458C433.202,189.458 433.996,189.118 434.569,188.438C435.142,187.758 435.429,186.824 435.429,185.638C435.429,184.451 435.142,183.518 434.569,182.838C433.996,182.158 433.202,181.818 432.189,181.818Z" style="fill:rgb(13,242,201);fill-rule:nonzero;"/>
                <path d="M444.349,180.438C445.856,180.438 447.039,180.898 447.899,181.818C448.759,182.738 449.189,184.011 449.189,185.638C449.189,187.264 448.759,188.538 447.899,189.458C447.039,190.378 445.856,190.838 444.349,190.838C442.842,190.838 441.659,190.378 440.799,189.458C439.939,188.538 439.509,187.264 439.509,185.638C439.509,184.011 439.939,182.738 440.799,181.818C441.659,180.898 442.842,180.438 444.349,180.438ZM444.349,181.818C443.336,181.818 442.542,182.158 441.969,182.838C441.396,183.518 441.109,184.451 441.109,185.638C441.109,186.824 441.396,187.758 441.969,188.438C442.542,189.118 443.336,189.458 444.349,189.458C445.362,189.458 446.156,189.118 446.729,188.438C447.302,187.758 447.589,186.824 447.589,185.638C447.589,184.451 447.302,183.518 446.729,182.838C446.156,182.158 445.362,181.818 444.349,181.818Z" style="fill:rgb(13,242,201);fill-rule:nonzero;"/>
                <path d="M458.229,189.938C457.562,190.538 456.702,190.838 455.649,190.838C454.836,190.838 454.172,190.618 453.659,190.178C453.146,189.738 452.882,189.064 452.869,188.158L452.869,182.018L450.869,182.018L450.869,180.638L452.869,180.638L452.869,178.238L454.469,177.798L454.469,180.638L458.169,180.638L458.169,182.018L454.469,182.018L454.469,187.878C454.469,188.358 454.606,188.721 454.879,188.968C455.152,189.214 455.516,189.338 455.969,189.338C456.609,189.338 457.176,189.091 457.669,188.598L458.229,189.938Z" style="fill:rgb(13,242,201);fill-rule:nonzero;"/>
                <path d="M463.889,190.838C462.929,190.838 462.062,190.648 461.289,190.268C460.516,189.888 459.949,189.324 459.589,188.578L460.889,187.678C461.116,188.264 461.509,188.704 462.069,188.998C462.629,189.291 463.289,189.438 464.049,189.438C464.836,189.438 465.436,189.298 465.849,189.018C466.262,188.738 466.469,188.384 466.469,187.958C466.469,187.571 466.276,187.261 465.889,187.028C465.502,186.794 464.822,186.591 463.849,186.418C462.889,186.244 462.129,186.034 461.569,185.788C461.009,185.541 460.602,185.228 460.349,184.848C460.096,184.468 459.969,183.998 459.969,183.438C459.969,182.891 460.129,182.391 460.449,181.938C460.769,181.484 461.229,181.121 461.829,180.848C462.429,180.574 463.122,180.438 463.909,180.438C464.976,180.438 465.832,180.634 466.479,181.028C467.126,181.421 467.589,182.024 467.869,182.838L466.509,183.638C466.296,182.998 465.972,182.538 465.539,182.258C465.106,181.978 464.562,181.838 463.909,181.838C463.256,181.838 462.702,181.984 462.249,182.278C461.796,182.571 461.569,182.911 461.569,183.298C461.569,183.738 461.766,184.078 462.159,184.318C462.552,184.558 463.256,184.764 464.269,184.938C465.656,185.164 466.636,185.504 467.209,185.958C467.782,186.411 468.069,187.051 468.069,187.878C468.069,188.451 467.899,188.961 467.559,189.408C467.219,189.854 466.732,190.204 466.099,190.458C465.466,190.711 464.729,190.838 463.889,190.838Z" style="fill:rgb(13,242,201);fill-rule:nonzero;"/>
                <path d="M477.149,189.938C476.482,190.538 475.622,190.838 474.569,190.838C473.756,190.838 473.092,190.618 472.579,190.178C472.066,189.738 471.802,189.064 471.789,188.158L471.789,182.018L469.789,182.018L469.789,180.638L471.789,180.638L471.789,178.238L473.389,177.798L473.389,180.638L477.089,180.638L477.089,182.018L473.389,182.018L473.389,187.878C473.389,188.358 473.526,188.721 473.799,188.968C474.072,189.214 474.436,189.338 474.889,189.338C475.529,189.338 476.096,189.091 476.589,188.598L477.149,189.938Z" style="fill:rgb(13,242,201);fill-rule:nonzero;"/>
                <path d="M484.129,180.438C484.609,180.438 484.976,180.504 485.229,180.638L484.909,182.198C484.589,182.024 484.169,181.938 483.649,181.938C483.222,181.938 482.806,182.061 482.399,182.308C481.992,182.554 481.659,182.928 481.399,183.428C481.139,183.928 481.009,184.531 481.009,185.238L481.009,190.638L479.409,190.638L479.409,180.638L480.709,180.638L480.929,182.278C481.489,181.051 482.556,180.438 484.129,180.438Z" style="fill:rgb(13,242,201);fill-rule:nonzero;"/>
                <path d="M495.489,189.478C495.756,189.478 496.022,189.444 496.289,189.378L496.189,190.638C495.816,190.771 495.416,190.838 494.989,190.838C494.469,190.838 494.059,190.724 493.759,190.498C493.459,190.271 493.269,189.891 493.189,189.358C492.882,189.824 492.432,190.188 491.839,190.448C491.246,190.708 490.622,190.838 489.969,190.838C488.982,190.838 488.169,190.608 487.529,190.148C486.889,189.688 486.569,189.024 486.569,188.158C486.569,187.398 486.902,186.741 487.569,186.188C488.236,185.634 489.202,185.251 490.469,185.038L493.129,184.598L493.129,184.038C493.129,183.371 492.922,182.838 492.509,182.438C492.096,182.038 491.522,181.838 490.789,181.838C490.122,181.838 489.546,181.998 489.059,182.318C488.572,182.638 488.196,183.111 487.929,183.738L486.749,182.878C487.016,182.131 487.512,181.538 488.239,181.098C488.966,180.658 489.816,180.438 490.789,180.438C491.976,180.438 492.929,180.724 493.649,181.298C494.369,181.871 494.729,182.718 494.729,183.838L494.729,188.758C494.729,188.998 494.789,189.178 494.909,189.298C495.029,189.418 495.222,189.478 495.489,189.478ZM490.049,189.438C490.889,189.438 491.612,189.238 492.219,188.838C492.826,188.438 493.129,187.918 493.129,187.278L493.129,185.898L490.889,186.318C489.996,186.478 489.329,186.708 488.889,187.008C488.449,187.308 488.229,187.691 488.229,188.158C488.229,188.571 488.389,188.888 488.709,189.108C489.029,189.328 489.476,189.438 490.049,189.438Z" style="fill:rgb(13,242,201);fill-rule:nonzero;"/>
                <path d="M503.529,180.438C504.929,180.438 506.039,180.901 506.859,181.828C507.679,182.754 508.089,184.024 508.089,185.638C508.089,187.251 507.679,188.521 506.859,189.448C506.039,190.374 504.929,190.838 503.529,190.838C502.796,190.838 502.139,190.678 501.559,190.358C500.979,190.038 500.529,189.611 500.209,189.078L500.209,194.838L498.609,194.838L498.609,180.638L500.009,180.638L500.109,182.378C500.402,181.791 500.852,181.321 501.459,180.968C502.066,180.614 502.756,180.438 503.529,180.438ZM503.349,189.438C504.322,189.438 505.089,189.094 505.649,188.408C506.209,187.721 506.489,186.798 506.489,185.638C506.489,184.478 506.209,183.554 505.649,182.868C505.089,182.181 504.322,181.838 503.349,181.838C502.389,181.838 501.626,182.171 501.059,182.838C500.492,183.504 500.209,184.398 500.209,185.518L500.209,185.758C500.209,186.878 500.492,187.771 501.059,188.438C501.626,189.104 502.389,189.438 503.349,189.438Z" style="fill:rgb(13,242,201);fill-rule:nonzero;"/>
            </g>
        </g>
    </g>
</svg>
