<?xml version="1.0" encoding="UTF-8" standalone="no"?>
<!DOCTYPE svg PUBLIC "-//W3C//DTD SVG 1.1//EN" "http://www.w3.org/Graphics/SVG/1.1/DTD/svg11.dtd">
<svg width="100%" height="100%" viewBox="0 0 386 361" version="1.1" xmlns="http://www.w3.org/2000/svg" xmlns:xlink="http://www.w3.org/1999/xlink" xml:space="preserve" xmlns:serif="http://www.serif.com/" style="fill-rule:evenodd;clip-rule:evenodd;">
    <g id="Artboard1" transform="matrix(1,0,0,0.812722,-9.11135,-0.681454)">
        <rect x="9.111" y="0.838" width="385.107" height="443.578" style="fill:none;"/>
        <g id="NHST" transform="matrix(1.07551,0,0,1.32335,-25.7385,-99.1295)">
            <g transform="matrix(-1.7935,0,0,1.7935,65.0929,316.836)">
                <path d="M-5.94,0L0,0" style="fill:white;fill-rule:nonzero;stroke:white;stroke-width:0.32px;"/>
            </g>
            <g transform="matrix(-0.858586,0,0,1.7935,71.0929,265.36)">
                <path d="M-5.94,0L0,0" style="fill:white;fill-rule:nonzero;stroke:white;stroke-width:0.41px;"/>
            </g>
            <g transform="matrix(-1.7935,0,0,1.7935,65.0929,213.883)">
                <path d="M-5.94,0L0,0" style="fill:white;fill-rule:nonzero;stroke:white;stroke-width:0.32px;"/>
            </g>
            <g transform="matrix(-0.858586,0,0,1.7935,71.0929,162.406)">
                <path d="M-5.94,0L0,0" style="fill:white;fill-rule:nonzero;stroke:white;stroke-width:0.41px;"/>
            </g>
            <g transform="matrix(-1.7935,0,0,1.7935,65.0929,110.928)">
                <path d="M-5.94,0L0,0" style="fill:white;fill-rule:nonzero;stroke:white;stroke-width:0.32px;"/>
            </g>
            <g transform="matrix(0,-1.65376,-1.7935,0,230.178,225.915)">
                <path d="M-86.106,86.106L86.106,86.106" style="fill:white;fill-rule:nonzero;stroke:white;stroke-width:0.34px;stroke-linecap:square;"/>
            </g>
            <g transform="matrix(3.78134,0,0,1.7935,75.655,368.313)">
                <path d="M0,0L38.67,0" style="fill:white;fill-rule:nonzero;stroke:white;stroke-width:0.2px;stroke-linecap:square;"/>
            </g>
            <g id="Contrast-Axes" serif:id="Contrast Axes">
                <g transform="matrix(1.93285,0,0,1.7935,249.025,368.313)">
                    <path d="M0,0L38.67,0" style="fill:white;fill-rule:nonzero;stroke:white;stroke-width:0.31px;stroke-linecap:square;"/>
                </g>
                <g transform="matrix(0.899471,0,0,1.7935,323.873,277.31)">
                    <path d="M0,0L5.67,0" style="fill:white;fill-rule:nonzero;stroke:white;stroke-width:0.41px;"/>
                </g>
                <g transform="matrix(1.7935,0,0,1.7935,323.873,225.835)">
                    <path d="M0,0L5.67,0" style="fill:white;fill-rule:nonzero;stroke:white;stroke-width:0.32px;"/>
                </g>
                <g transform="matrix(0.899471,0,0,1.7935,323.873,174.357)">
                    <path d="M0,0L5.67,0" style="fill:white;fill-rule:nonzero;stroke:white;stroke-width:0.41px;"/>
                </g>
                <g transform="matrix(0,-2.84763,-1.7935,0,401.088,245.04)">
                    <path d="M-43.053,43.053L43.053,43.053" style="fill:white;fill-rule:nonzero;stroke:white;stroke-width:0.24px;stroke-linecap:square;"/>
                </g>
                <g transform="matrix(1.7935,0,0,1.7935,323.873,122.878)">
                    <path d="M0,0L5.669,0" style="fill:white;fill-rule:nonzero;stroke:white;stroke-width:0.32px;"/>
                </g>
                <g transform="matrix(1.7935,0,0,1.7935,-107.741,-642.542)">
                    <text x="250.538px" y="488.432px" style="font-family:'WorkSans-Regular', 'Work Sans';font-size:11.339px;fill:white;">0</text>
                </g>
                <g transform="matrix(1.7935,0,0,1.7935,-104.52,-642.542)">
                    <text x="250.318px" y="430.272px" style="font-family:'WorkSans-Regular', 'Work Sans';font-size:11.339px;fill:white;">1</text>
                </g>
                <g transform="matrix(0,-1.7935,1.7935,0,-102.846,-529.628)">
                    <text x="-479.891px" y="271.164px" style="font-family:'LucidaGrande', 'Lucida Grande', sans-serif;font-weight:500;font-size:9.874px;fill:white;">Δ</text>
                    <text x="-470.176px" y="271.164px" style="font-family:'WorkSans-Regular', 'Work Sans';font-size:9.874px;fill:white;">(Mean Difference)</text>
                </g>
                <g id="_95CI-and-bootstrap" serif:id="95CI and bootstrap" transform="matrix(0.705406,0,0,0.705406,-67.1944,26.2023)">
                    <g id="bootstrap-distrib" serif:id="bootstrap distrib" transform="matrix(1,0,0,1,0,543.023)">
                        <path d="M483.12,-232.342L483.025,-232.342L483.025,-233.503L483.025,-234.664L483.025,-235.825L483.025,-236.986L483.025,-238.147L483.025,-239.307L483.025,-240.468L483.025,-241.629L483.025,-242.79L483.025,-243.951L483.025,-245.112L483.025,-246.272L483.025,-247.433L483.025,-248.594L483.025,-249.755L483.025,-250.916L483.025,-252.077L483.025,-253.237L483.025,-254.398L483.025,-255.559L483.025,-256.72L483.025,-257.881L483.025,-259.041L483.025,-260.202L483.025,-261.363L483.025,-262.524L483.025,-263.685L483.025,-264.846L483.025,-266.006L483.025,-267.167L483.025,-268.328L483.025,-269.489L483.025,-270.65L483.025,-271.811L483.025,-272.971L483.025,-274.132L483.025,-275.293L483.025,-276.454L483.025,-277.615L483.025,-278.775L483.025,-279.936L483.025,-281.097L483.025,-282.258L483.025,-283.419L483.025,-284.58L483.025,-285.74L483.025,-286.901L483.025,-288.062L483.025,-289.223L483.025,-290.384L483.025,-291.545L483.025,-292.705L483.025,-293.866L483.025,-295.027L483.025,-296.188L483.025,-297.349L483.025,-298.509L483.025,-299.67L483.025,-300.831L483.025,-301.992L483.025,-303.153L483.025,-304.314L483.025,-305.474L483.025,-306.635L483.025,-307.796L483.025,-308.957L483.025,-310.118L483.025,-311.279L483.025,-312.439L483.025,-313.6L483.025,-314.761L483.025,-315.922L483.025,-317.083L483.025,-318.243L483.025,-319.404L483.025,-320.565L483.025,-321.726L483.025,-322.887L483.025,-324.048L483.025,-325.208L483.025,-326.369L483.025,-327.53L483.025,-328.691L483.025,-329.852L483.025,-331.013L483.025,-332.173L483.025,-333.334L483.025,-334.495L483.025,-335.656L483.025,-336.817L483.025,-337.978L483.025,-339.138L483.025,-340.299L483.025,-341.46L483.025,-342.621L483.025,-343.782L483.025,-344.942L483.025,-346.103L483.025,-347.264L483.426,-347.264L483.58,-346.103L483.737,-344.942L483.884,-343.782L484.013,-342.621L484.126,-341.46L484.236,-340.299L484.358,-339.138L484.517,-337.978L484.739,-336.817L485.052,-335.656L485.473,-334.495L486.006,-333.334L486.632,-332.173L487.321,-331.013L488.047,-329.852L488.808,-328.691L489.632,-327.53L490.57,-326.369L491.667,-325.208L492.942,-324.048L494.38,-322.887L495.938,-321.726L497.564,-320.565L499.206,-319.404L500.814,-318.243L502.347,-317.083L503.779,-315.922L505.116,-314.761L506.405,-313.6L507.72,-312.439L509.129,-311.279L510.651,-310.118L512.247,-308.957L513.854,-307.796L515.426,-306.635L516.964,-305.474L518.5,-304.314L520.058,-303.153L521.608,-301.992L523.066,-300.831L524.324,-299.67L525.308,-298.509L526.024,-297.349L526.543,-296.188L526.946,-295.027L527.254,-293.866L527.408,-292.705L527.308,-291.545L526.881,-290.384L526.124,-289.223L525.094,-288.062L523.852,-286.901L522.427,-285.74L520.814,-284.58L519.016,-283.419L517.084,-282.258L515.105,-281.097L513.169,-279.936L511.326,-278.775L509.575,-277.615L507.868,-276.454L506.139,-275.293L504.331,-274.132L502.431,-272.971L500.491,-271.811L498.614,-270.65L496.907,-269.489L495.437,-268.328L494.202,-267.167L493.14,-266.006L492.167,-264.846L491.219,-263.685L490.276,-262.524L489.356,-261.363L488.492,-260.202L487.713,-259.041L487.034,-257.881L486.457,-256.72L485.968,-255.559L485.543,-254.398L485.158,-253.237L484.799,-252.077L484.472,-250.916L484.189,-249.755L483.963,-248.594L483.793,-247.433L483.666,-246.272L483.567,-245.112L483.48,-243.951L483.398,-242.79L483.319,-241.629L483.249,-240.468L483.193,-239.307L483.156,-238.147L483.138,-236.986L483.134,-235.825L483.134,-234.664L483.131,-233.503L483.12,-232.342Z" style="fill:rgb(147,161,162);fill-rule:nonzero;stroke:rgb(147,161,162);stroke-width:0.3px;"/>
                    </g>
                    <path id="_95CI" serif:id="95CI" d="M482.134,279.646L482.134,214.982" style="fill:white;fill-rule:nonzero;stroke:white;stroke-width:3px;stroke-linecap:round;"/>
                    <g id="mean-diff" serif:id="mean diff" transform="matrix(1,0,0,1,482.134,248.246)">
                        <path d="M0,7.5C1.989,7.5 3.897,6.71 5.303,5.303C6.71,3.897 7.5,1.989 7.5,0C7.5,-1.989 6.71,-3.897 5.303,-5.303C3.897,-6.71 1.989,-7.5 0,-7.5C-1.989,-7.5 -3.897,-6.71 -5.303,-5.303C-6.71,-3.897 -7.5,-1.989 -7.5,0C-7.5,1.989 -6.71,3.897 -5.303,5.303C-3.897,6.71 -1.989,7.5 0,7.5Z" style="fill:white;fill-rule:nonzero;stroke:white;stroke-width:1.32px;stroke-linejoin:round;stroke-miterlimit:1.41421;"/>
                    </g>
                </g>
                <g id="control-mean-white" serif:id="control mean white">
                    <g transform="matrix(1.7935,0,0,1.7935,210.908,225.835)">
                        <path d="M0,0L62.986,0" style="fill:none;stroke:white;stroke-width:0.97px;stroke-linecap:round;"/>
                    </g>
                    <g id="control-mean" serif:id="control mean" transform="matrix(1.7935,0,0,1.7935,126.184,225.835)">
                        <path d="M0,0L47.239,0" style="fill:none;stroke:white;stroke-width:0.97px;stroke-linecap:round;"/>
                    </g>
                </g>
                <g id="test-mean-white" serif:id="test mean white">
                    <g transform="matrix(1.7935,0,0,1.7935,210.908,201.309)">
                        <path d="M0,0L62.986,0" style="fill:white;fill-rule:nonzero;stroke:white;stroke-width:0.97px;stroke-linecap:round;"/>
                    </g>
                    <g id="test-mean" serif:id="test mean" transform="matrix(0.988857,0,0,1.7935,195.337,201.309)">
                        <path d="M0,0L15.746,0" style="fill:white;fill-rule:nonzero;stroke:white;stroke-width:1.2px;stroke-linecap:round;"/>
                    </g>
                </g>
                <g transform="matrix(1.7935,0,0,1.7935,92.8188,-374.226)">
                    <text x="98.751px" y="424.363px" style="font-family:'WorkSans-Regular', 'Work Sans';font-size:6.97px;fill:white;">Test</text>
                    <text x="81.857px" y="434.121px" style="font-family:'WorkSans-Regular', 'Work Sans';font-size:6.97px;fill:white;">minus Control</text>
                </g>
                <g transform="matrix(1.7935,0,0,1.7935,-110.245,-436.082)">
                    <text x="250.318px" y="430.272px" style="font-family:'WorkSans-Regular', 'Work Sans';font-size:11.339px;fill:white;">-1</text>
                </g>
                <g transform="matrix(1.78666,0,0,1.7935,323.85,328.768)">
                    <path d="M0,0L5.67,0" style="fill:white;fill-rule:nonzero;stroke:white;stroke-width:0.32px;"/>
                </g>
            </g>
            <g>
                <g transform="matrix(1.7935,0,0,1.7935,126.185,325.327)">
                    <path d="M0,4.752C0.63,4.752 1.235,4.502 1.68,4.056C2.126,3.611 2.376,3.006 2.376,2.376C2.376,1.746 2.126,1.142 1.68,0.696C1.235,0.25 0.63,0 0,0C-0.63,0 -1.234,0.25 -1.68,0.696C-2.125,1.142 -2.376,1.746 -2.376,2.376C-2.376,3.006 -2.125,3.611 -1.68,4.056C-1.234,4.502 -0.63,4.752 0,4.752" style="fill:rgb(26,158,120);fill-rule:nonzero;"/>
                </g>
                <g transform="matrix(1.7935,0,0,1.7935,126.185,291.156)">
                    <path d="M0,4.752C0.63,4.752 1.235,4.501 1.68,4.056C2.126,3.609 2.376,3.006 2.376,2.376C2.376,1.745 2.126,1.141 1.68,0.694C1.235,0.25 0.63,0 0,0C-0.63,0 -1.234,0.25 -1.68,0.694C-2.125,1.141 -2.376,1.745 -2.376,2.376C-2.376,3.006 -2.125,3.609 -1.68,4.056C-1.234,4.501 -0.63,4.752 0,4.752" style="fill:rgb(26,158,120);fill-rule:nonzero;"/>
                </g>
                <g transform="matrix(1.7935,0,0,1.7935,121.235,284.055)">
                    <path d="M0,4.752C0.63,4.752 1.235,4.502 1.68,4.056C2.126,3.609 2.376,3.006 2.376,2.376C2.376,1.746 2.126,1.141 1.68,0.695C1.235,0.25 0.63,0 0,0C-0.63,0 -1.235,0.25 -1.68,0.695C-2.126,1.141 -2.376,1.746 -2.376,2.376C-2.376,3.006 -2.126,3.609 -1.68,4.056C-1.235,4.502 -0.63,4.752 0,4.752" style="fill:rgb(26,158,120);fill-rule:nonzero;"/>
                </g>
                <g transform="matrix(1.7935,0,0,1.7935,126.185,276.123)">
                    <path d="M0,4.752C0.63,4.752 1.235,4.501 1.68,4.056C2.126,3.609 2.376,3.006 2.376,2.376C2.376,1.745 2.126,1.141 1.68,0.695C1.235,0.25 0.63,0 0,0C-0.63,0 -1.234,0.25 -1.68,0.695C-2.125,1.141 -2.376,1.745 -2.376,2.376C-2.376,3.006 -2.125,3.609 -1.68,4.056C-1.234,4.501 -0.63,4.752 0,4.752" style="fill:rgb(26,158,120);fill-rule:nonzero;"/>
                </g>
                <g transform="matrix(1.7935,0,0,1.7935,123.109,268.117)">
                    <path d="M0,4.753C0.63,4.753 1.234,4.503 1.68,4.058C2.125,3.611 2.376,3.008 2.376,2.376C2.376,1.746 2.125,1.143 1.68,0.696C1.234,0.251 0.63,0 0,0C-0.63,0 -1.235,0.251 -1.68,0.696C-2.126,1.143 -2.376,1.746 -2.376,2.376C-2.376,3.008 -2.126,3.611 -1.68,4.058C-1.235,4.503 -0.63,4.753 0,4.753" style="fill:rgb(26,158,120);fill-rule:nonzero;"/>
                </g>
                <g transform="matrix(1.7935,0,0,1.7935,126.185,256.408)">
                    <path d="M0,4.752C0.63,4.752 1.235,4.501 1.68,4.056C2.126,3.609 2.376,3.006 2.376,2.376C2.376,1.745 2.126,1.141 1.68,0.694C1.235,0.25 0.63,0 0,0C-0.63,0 -1.234,0.25 -1.68,0.694C-2.125,1.141 -2.376,1.745 -2.376,2.376C-2.376,3.006 -2.125,3.609 -1.68,4.056C-1.234,4.501 -0.63,4.752 0,4.752" style="fill:rgb(26,158,120);fill-rule:nonzero;"/>
                </g>
                <g transform="matrix(1.7935,0,0,1.7935,117.383,254.874)">
                    <path d="M0,4.752C0.63,4.752 1.235,4.502 1.68,4.057C2.126,3.611 2.376,3.006 2.376,2.376C2.376,1.746 2.126,1.143 1.68,0.696C1.235,0.251 0.63,0 0,0C-0.63,0 -1.234,0.251 -1.68,0.696C-2.126,1.143 -2.376,1.746 -2.376,2.376C-2.376,3.006 -2.126,3.611 -1.68,4.057C-1.234,4.502 -0.63,4.752 0,4.752" style="fill:rgb(26,158,120);fill-rule:nonzero;"/>
                </g>
                <g transform="matrix(1.7935,0,0,1.7935,134.99,254.874)">
                    <path d="M0,4.752C0.63,4.752 1.234,4.502 1.68,4.057C2.125,3.61 2.376,3.006 2.376,2.376C2.376,1.746 2.125,1.142 1.68,0.696C1.234,0.25 0.63,0 0,0C-0.631,0 -1.235,0.25 -1.681,0.696C-2.126,1.142 -2.376,1.746 -2.376,2.376C-2.376,3.006 -2.126,3.61 -1.681,4.057C-1.235,4.502 -0.631,4.752 0,4.752" style="fill:rgb(26,158,120);fill-rule:nonzero;"/>
                </g>
                <g transform="matrix(1.7935,0,0,1.7935,109.186,251.452)">
                    <path d="M0,4.752C0.63,4.752 1.235,4.502 1.68,4.057C2.126,3.611 2.376,3.007 2.376,2.376C2.376,1.746 2.126,1.143 1.68,0.696C1.235,0.251 0.63,0 0,0C-0.63,0 -1.234,0.251 -1.68,0.696C-2.125,1.143 -2.376,1.746 -2.376,2.376C-2.376,3.007 -2.125,3.611 -1.68,4.057C-1.234,4.502 -0.63,4.752 0,4.752" style="fill:rgb(26,158,120);fill-rule:nonzero;"/>
                </g>
                <g transform="matrix(1.7935,0,0,1.7935,126.185,236.54)">
                    <path d="M0,4.752C0.63,4.752 1.235,4.502 1.68,4.056C2.126,3.611 2.376,3.006 2.376,2.376C2.376,1.746 2.126,1.142 1.68,0.696C1.235,0.251 0.63,0 0,0C-0.63,0 -1.234,0.251 -1.68,0.696C-2.125,1.142 -2.376,1.746 -2.376,2.376C-2.376,3.006 -2.125,3.611 -1.68,4.056C-1.234,4.502 -0.63,4.752 0,4.752" style="fill:rgb(26,158,120);fill-rule:nonzero;"/>
                </g>
                <g transform="matrix(1.7935,0,0,1.7935,118.685,231.893)">
                    <path d="M0,4.752C0.63,4.752 1.235,4.501 1.68,4.056C2.126,3.609 2.376,3.006 2.376,2.376C2.376,1.746 2.126,1.141 1.68,0.695C1.235,0.25 0.63,0 0,0C-0.63,0 -1.234,0.25 -1.68,0.695C-2.126,1.141 -2.376,1.746 -2.376,2.376C-2.376,3.006 -2.126,3.609 -1.68,4.056C-1.234,4.501 -0.63,4.752 0,4.752" style="fill:rgb(26,158,120);fill-rule:nonzero;"/>
                </g>
                <g transform="matrix(1.7935,0,0,1.7935,133.463,231.579)">
                    <path d="M0,4.753C0.63,4.753 1.234,4.502 1.68,4.057C2.125,3.61 2.376,3.007 2.376,2.377C2.376,1.745 2.125,1.142 1.68,0.696C1.234,0.25 0.63,0 0,0C-0.63,0 -1.235,0.25 -1.68,0.696C-2.126,1.142 -2.376,1.745 -2.376,2.377C-2.376,3.007 -2.126,3.61 -1.68,4.057C-1.235,4.502 -0.63,4.753 0,4.753" style="fill:rgb(26,158,120);fill-rule:nonzero;"/>
                </g>
                <g transform="matrix(1.7935,0,0,1.7935,142.411,231.455)">
                    <path d="M0,4.752C0.63,4.752 1.234,4.502 1.68,4.056C2.126,3.61 2.376,3.006 2.376,2.376C2.376,1.746 2.126,1.142 1.68,0.696C1.234,0.251 0.63,0 0,0C-0.63,0 -1.235,0.251 -1.68,0.696C-2.126,1.142 -2.376,1.746 -2.376,2.376C-2.376,3.006 -2.126,3.61 -1.68,4.056C-1.235,4.502 -0.63,4.752 0,4.752" style="fill:rgb(26,158,120);fill-rule:nonzero;"/>
                </g>
                <g transform="matrix(1.7935,0,0,1.7935,110.001,229.835)">
                    <path d="M0,4.752C0.63,4.752 1.234,4.502 1.68,4.057C2.126,3.611 2.376,3.006 2.376,2.376C2.376,1.746 2.126,1.143 1.68,0.696C1.234,0.25 0.63,0 0,0C-0.63,0 -1.235,0.25 -1.68,0.696C-2.126,1.143 -2.376,1.746 -2.376,2.376C-2.376,3.006 -2.126,3.611 -1.68,4.057C-1.235,4.502 -0.63,4.752 0,4.752" style="fill:rgb(26,158,120);fill-rule:nonzero;"/>
                </g>
                <g transform="matrix(1.7935,0,0,1.7935,126.185,226.054)">
                    <path d="M0,4.752C0.63,4.752 1.235,4.501 1.68,4.056C2.126,3.609 2.376,3.006 2.376,2.376C2.376,1.744 2.126,1.141 1.68,0.695C1.235,0.25 0.63,0 0,0C-0.63,0 -1.234,0.25 -1.68,0.695C-2.125,1.141 -2.376,1.744 -2.376,2.376C-2.376,3.006 -2.125,3.609 -1.68,4.056C-1.234,4.501 -0.63,4.752 0,4.752" style="fill:rgb(26,158,120);fill-rule:nonzero;"/>
                </g>
                <g transform="matrix(1.7935,0,0,1.7935,134.218,222.293)">
                    <path d="M0,4.752C0.63,4.752 1.234,4.502 1.68,4.057C2.125,3.611 2.376,3.006 2.376,2.376C2.376,1.746 2.125,1.143 1.68,0.696C1.234,0.251 0.63,0 0,0C-0.63,0 -1.235,0.251 -1.68,0.696C-2.126,1.143 -2.376,1.746 -2.376,2.376C-2.376,3.006 -2.126,3.611 -1.68,4.057C-1.235,4.502 -0.63,4.752 0,4.752" style="fill:rgb(26,158,120);fill-rule:nonzero;"/>
                </g>
                <g transform="matrix(1.7935,0,0,1.7935,119.363,220.538)">
                    <path d="M0,4.752C0.63,4.752 1.235,4.501 1.68,4.056C2.126,3.609 2.376,3.006 2.376,2.376C2.376,1.745 2.126,1.141 1.68,0.694C1.235,0.25 0.63,0 0,0C-0.63,0 -1.234,0.25 -1.68,0.694C-2.125,1.141 -2.376,1.745 -2.376,2.376C-2.376,3.006 -2.125,3.609 -1.68,4.056C-1.234,4.501 -0.63,4.752 0,4.752" style="fill:rgb(26,158,120);fill-rule:nonzero;"/>
                </g>
                <g transform="matrix(1.7935,0,0,1.7935,110.867,217.862)">
                    <path d="M0,4.752C0.63,4.752 1.234,4.501 1.68,4.056C2.126,3.61 2.376,3.006 2.376,2.376C2.376,1.746 2.126,1.141 1.68,0.696C1.234,0.25 0.63,0 0,0C-0.63,0 -1.235,0.25 -1.68,0.696C-2.126,1.141 -2.376,1.746 -2.376,2.376C-2.376,3.006 -2.126,3.61 -1.68,4.056C-1.235,4.501 -0.63,4.752 0,4.752" style="fill:rgb(26,158,120);fill-rule:nonzero;"/>
                </g>
                <g transform="matrix(1.7935,0,0,1.7935,126.185,207.691)">
                    <path d="M0,4.752C0.63,4.752 1.235,4.501 1.68,4.056C2.126,3.609 2.376,3.006 2.376,2.376C2.376,1.746 2.126,1.141 1.68,0.696C1.235,0.25 0.63,0 0,0C-0.63,0 -1.234,0.25 -1.68,0.696C-2.125,1.141 -2.376,1.746 -2.376,2.376C-2.376,3.006 -2.125,3.609 -1.68,4.056C-1.234,4.501 -0.63,4.752 0,4.752" style="fill:rgb(26,158,120);fill-rule:nonzero;"/>
                </g>
                <g transform="matrix(1.7935,0,0,1.7935,117.279,206.877)">
                    <path d="M0,4.752C0.63,4.752 1.234,4.502 1.68,4.056C2.125,3.611 2.376,3.006 2.376,2.376C2.376,1.746 2.125,1.142 1.68,0.696C1.234,0.25 0.63,0 0,0C-0.631,0 -1.235,0.25 -1.681,0.696C-2.126,1.142 -2.376,1.746 -2.376,2.376C-2.376,3.006 -2.126,3.611 -1.681,4.056C-1.235,4.502 -0.631,4.752 0,4.752" style="fill:rgb(26,158,120);fill-rule:nonzero;"/>
                </g>
                <g transform="matrix(1.7935,0,0,1.7935,134.675,204.998)">
                    <path d="M0,4.752C0.63,4.752 1.235,4.501 1.68,4.056C2.126,3.609 2.376,3.006 2.376,2.376C2.376,1.746 2.126,1.141 1.68,0.696C1.235,0.25 0.63,0 0,0C-0.63,0 -1.234,0.25 -1.68,0.696C-2.125,1.141 -2.376,1.746 -2.376,2.376C-2.376,3.006 -2.125,3.609 -1.68,4.056C-1.234,4.501 -0.63,4.752 0,4.752" style="fill:rgb(26,158,120);fill-rule:nonzero;"/>
                </g>
                <g transform="matrix(1.7935,0,0,1.7935,109.126,203.363)">
                    <path d="M0,4.752C0.63,4.752 1.234,4.501 1.68,4.056C2.126,3.61 2.376,3.006 2.376,2.376C2.376,1.745 2.126,1.141 1.68,0.695C1.234,0.25 0.63,0 0,0C-0.63,0 -1.235,0.25 -1.68,0.695C-2.126,1.141 -2.376,1.745 -2.376,2.376C-2.376,3.006 -2.126,3.61 -1.68,4.056C-1.235,4.501 -0.63,4.752 0,4.752" style="fill:rgb(26,158,120);fill-rule:nonzero;"/>
                </g>
                <g transform="matrix(1.7935,0,0,1.7935,126.185,196.251)">
                    <path d="M0,4.752C0.63,4.752 1.235,4.501 1.68,4.056C2.126,3.609 2.376,3.006 2.376,2.376C2.376,1.745 2.126,1.141 1.68,0.694C1.235,0.25 0.63,0 0,0C-0.63,0 -1.234,0.25 -1.68,0.694C-2.125,1.141 -2.376,1.745 -2.376,2.376C-2.376,3.006 -2.125,3.609 -1.68,4.056C-1.234,4.501 -0.63,4.752 0,4.752" style="fill:rgb(26,158,120);fill-rule:nonzero;"/>
                </g>
                <g transform="matrix(1.7935,0,0,1.7935,117.599,193.846)">
                    <path d="M0,4.752C0.631,4.752 1.235,4.502 1.681,4.056C2.126,3.609 2.376,3.006 2.376,2.376C2.376,1.745 2.126,1.141 1.681,0.695C1.235,0.25 0.631,0 0,0C-0.63,0 -1.234,0.25 -1.68,0.695C-2.125,1.141 -2.376,1.745 -2.376,2.376C-2.376,3.006 -2.125,3.609 -1.68,4.056C-1.234,4.502 -0.63,4.752 0,4.752" style="fill:rgb(26,158,120);fill-rule:nonzero;"/>
                </g>
                <g transform="matrix(1.7935,0,0,1.7935,132.857,190.569)">
                    <path d="M0,4.752C0.63,4.752 1.234,4.502 1.68,4.056C2.125,3.609 2.376,3.006 2.376,2.376C2.376,1.746 2.125,1.141 1.68,0.695C1.234,0.25 0.63,0 0,0C-0.63,0 -1.235,0.25 -1.68,0.695C-2.126,1.141 -2.376,1.746 -2.376,2.376C-2.376,3.006 -2.126,3.609 -1.68,4.056C-1.235,4.502 -0.63,4.752 0,4.752" style="fill:rgb(26,158,120);fill-rule:nonzero;"/>
                </g>
                <g transform="matrix(1.7935,0,0,1.7935,126.185,156.748)">
                    <path d="M0,4.752C0.63,4.752 1.235,4.501 1.68,4.056C2.126,3.61 2.376,3.006 2.376,2.376C2.376,1.746 2.126,1.142 1.68,0.696C1.235,0.25 0.63,0 0,0C-0.63,0 -1.234,0.25 -1.68,0.696C-2.125,1.142 -2.376,1.746 -2.376,2.376C-2.376,3.006 -2.125,3.61 -1.68,4.056C-1.234,4.501 -0.63,4.752 0,4.752" style="fill:rgb(26,158,120);fill-rule:nonzero;"/>
                </g>
                <g transform="matrix(1.7935,0,0,1.7935,118.075,153.149)">
                    <path d="M0,4.752C0.63,4.752 1.234,4.501 1.68,4.056C2.125,3.61 2.376,3.006 2.376,2.376C2.376,1.746 2.125,1.141 1.68,0.696C1.234,0.25 0.63,0 0,0C-0.631,0 -1.235,0.25 -1.681,0.696C-2.126,1.141 -2.376,1.746 -2.376,2.376C-2.376,3.006 -2.126,3.61 -1.681,4.056C-1.235,4.501 -0.631,4.752 0,4.752" style="fill:rgb(26,158,120);fill-rule:nonzero;"/>
                </g>
                <g transform="matrix(1.7935,0,0,1.7935,126.185,144.681)">
                    <path d="M0,4.752C0.63,4.752 1.235,4.501 1.68,4.056C2.126,3.609 2.376,3.006 2.376,2.376C2.376,1.746 2.126,1.141 1.68,0.695C1.235,0.25 0.63,0 0,0C-0.63,0 -1.234,0.25 -1.68,0.695C-2.125,1.141 -2.376,1.746 -2.376,2.376C-2.376,3.006 -2.125,3.609 -1.68,4.056C-1.234,4.501 -0.63,4.752 0,4.752" style="fill:rgb(26,158,120);fill-rule:nonzero;"/>
                </g>
                <g transform="matrix(1.7935,0,0,1.7935,118.12,140.988)">
                    <path d="M0,4.752C0.63,4.752 1.234,4.501 1.68,4.057C2.126,3.61 2.376,3.006 2.376,2.376C2.376,1.745 2.126,1.142 1.68,0.696C1.234,0.25 0.63,0 0,0C-0.63,0 -1.235,0.25 -1.68,0.696C-2.126,1.142 -2.376,1.745 -2.376,2.376C-2.376,3.006 -2.126,3.61 -1.68,4.057C-1.235,4.501 -0.63,4.752 0,4.752" style="fill:rgb(26,158,120);fill-rule:nonzero;"/>
                </g>
                <g transform="matrix(1.7935,0,0,1.7935,131.148,137.587)">
                    <path d="M0,4.752C0.63,4.752 1.235,4.502 1.68,4.056C2.126,3.61 2.376,3.006 2.376,2.376C2.376,1.746 2.126,1.142 1.68,0.695C1.235,0.25 0.63,0 0,0C-0.63,0 -1.234,0.25 -1.68,0.695C-2.126,1.142 -2.376,1.746 -2.376,2.376C-2.376,3.006 -2.126,3.61 -1.68,4.056C-1.234,4.502 -0.63,4.752 0,4.752" style="fill:rgb(26,158,120);fill-rule:nonzero;"/>
                </g>
            </g>
            <g>
                <g transform="matrix(1.7935,0,0,1.7935,195.539,307.828)">
                    <path d="M0,4.752C0.63,4.752 1.234,4.502 1.68,4.056C2.125,3.609 2.376,3.006 2.376,2.376C2.376,1.746 2.125,1.141 1.68,0.696C1.234,0.25 0.63,0 0,0C-0.63,0 -1.235,0.25 -1.68,0.696C-2.126,1.141 -2.376,1.746 -2.376,2.376C-2.376,3.006 -2.126,3.609 -1.68,4.056C-1.235,4.502 -0.63,4.752 0,4.752" style="fill:rgb(217,95,2);fill-rule:nonzero;"/>
                </g>
                <g transform="matrix(1.7935,0,0,1.7935,195.539,293.704)">
                    <path d="M0,4.752C0.63,4.752 1.234,4.502 1.68,4.056C2.125,3.609 2.376,3.006 2.376,2.376C2.376,1.746 2.125,1.141 1.68,0.696C1.234,0.25 0.63,0 0,0C-0.63,0 -1.235,0.25 -1.68,0.696C-2.126,1.141 -2.376,1.746 -2.376,2.376C-2.376,3.006 -2.126,3.609 -1.68,4.056C-1.235,4.502 -0.63,4.752 0,4.752" style="fill:rgb(217,95,2);fill-rule:nonzero;"/>
                </g>
                <g transform="matrix(1.7935,0,0,1.7935,195.539,264.297)">
                    <path d="M0,4.752C0.63,4.752 1.234,4.502 1.68,4.057C2.125,3.611 2.376,3.006 2.376,2.376C2.376,1.746 2.125,1.143 1.68,0.696C1.234,0.25 0.63,0 0,0C-0.63,0 -1.235,0.25 -1.68,0.696C-2.126,1.143 -2.376,1.746 -2.376,2.376C-2.376,3.006 -2.126,3.611 -1.68,4.057C-1.235,4.502 -0.63,4.752 0,4.752" style="fill:rgb(217,95,2);fill-rule:nonzero;"/>
                </g>
                <g transform="matrix(1.7935,0,0,1.7935,195.539,246.127)">
                    <path d="M0,4.752C0.63,4.752 1.234,4.501 1.68,4.057C2.125,3.61 2.376,3.006 2.376,2.376C2.376,1.745 2.125,1.142 1.68,0.695C1.234,0.25 0.63,0 0,0C-0.63,0 -1.235,0.25 -1.68,0.695C-2.126,1.142 -2.376,1.745 -2.376,2.376C-2.376,3.006 -2.126,3.61 -1.68,4.057C-1.235,4.501 -0.63,4.752 0,4.752" style="fill:rgb(217,95,2);fill-rule:nonzero;"/>
                </g>
                <g transform="matrix(1.7935,0,0,1.7935,195.539,233.243)">
                    <path d="M0,4.752C0.63,4.752 1.234,4.501 1.68,4.056C2.125,3.609 2.376,3.006 2.376,2.376C2.376,1.746 2.125,1.141 1.68,0.695C1.234,0.25 0.63,0 0,0C-0.63,0 -1.235,0.25 -1.68,0.695C-2.126,1.141 -2.376,1.746 -2.376,2.376C-2.376,3.006 -2.126,3.609 -1.68,4.056C-1.235,4.501 -0.63,4.752 0,4.752" style="fill:rgb(217,95,2);fill-rule:nonzero;"/>
                </g>
                <g transform="matrix(1.7935,0,0,1.7935,186.616,232.609)">
                    <path d="M0,4.752C0.63,4.752 1.234,4.501 1.68,4.057C2.126,3.61 2.376,3.006 2.376,2.376C2.376,1.746 2.126,1.142 1.68,0.696C1.234,0.25 0.63,0 0,0C-0.63,0 -1.235,0.25 -1.68,0.696C-2.126,1.142 -2.376,1.746 -2.376,2.376C-2.376,3.006 -2.126,3.61 -1.68,4.057C-1.235,4.501 -0.63,4.752 0,4.752" style="fill:rgb(217,95,2);fill-rule:nonzero;"/>
                </g>
                <g transform="matrix(1.7935,0,0,1.7935,201.274,226.7)">
                    <path d="M0,4.752C0.631,4.752 1.235,4.501 1.681,4.057C2.126,3.61 2.376,3.006 2.376,2.376C2.376,1.746 2.126,1.142 1.681,0.696C1.235,0.25 0.631,0 0,0C-0.63,0 -1.234,0.25 -1.68,0.696C-2.125,1.142 -2.376,1.746 -2.376,2.376C-2.376,3.006 -2.125,3.61 -1.68,4.057C-1.234,4.501 -0.63,4.752 0,4.752" style="fill:rgb(217,95,2);fill-rule:nonzero;"/>
                </g>
                <g transform="matrix(1.7935,0,0,1.7935,192.774,224.034)">
                    <path d="M0,4.752C0.631,4.752 1.235,4.501 1.681,4.056C2.126,3.609 2.376,3.006 2.376,2.376C2.376,1.745 2.126,1.141 1.681,0.695C1.235,0.25 0.631,0 0,0C-0.63,0 -1.234,0.25 -1.68,0.695C-2.125,1.141 -2.376,1.745 -2.376,2.376C-2.376,3.006 -2.125,3.609 -1.68,4.056C-1.234,4.501 -0.63,4.752 0,4.752" style="fill:rgb(217,95,2);fill-rule:nonzero;"/>
                </g>
                <g transform="matrix(1.7935,0,0,1.7935,184.785,220.197)">
                    <path d="M0,4.752C0.63,4.752 1.234,4.501 1.68,4.057C2.126,3.61 2.376,3.006 2.376,2.376C2.376,1.746 2.126,1.142 1.68,0.696C1.234,0.25 0.63,0 0,0C-0.63,0 -1.235,0.25 -1.68,0.696C-2.126,1.142 -2.376,1.746 -2.376,2.376C-2.376,3.006 -2.126,3.61 -1.68,4.057C-1.235,4.501 -0.63,4.752 0,4.752" style="fill:rgb(217,95,2);fill-rule:nonzero;"/>
                </g>
                <g transform="matrix(1.7935,0,0,1.7935,198.358,217.372)">
                    <path d="M0,4.752C0.63,4.752 1.235,4.501 1.68,4.057C2.126,3.61 2.376,3.007 2.376,2.376C2.376,1.746 2.126,1.142 1.68,0.696C1.235,0.25 0.63,0 0,0C-0.63,0 -1.234,0.25 -1.68,0.696C-2.126,1.142 -2.376,1.746 -2.376,2.376C-2.376,3.007 -2.126,3.61 -1.68,4.057C-1.234,4.501 -0.63,4.752 0,4.752" style="fill:rgb(217,95,2);fill-rule:nonzero;"/>
                </g>
                <g transform="matrix(1.7935,0,0,1.7935,207.307,217.309)">
                    <path d="M0,4.752C0.63,4.752 1.234,4.502 1.68,4.056C2.125,3.61 2.376,3.007 2.376,2.376C2.376,1.745 2.125,1.142 1.68,0.695C1.234,0.251 0.63,0 0,0C-0.631,0 -1.235,0.251 -1.681,0.695C-2.126,1.142 -2.376,1.745 -2.376,2.376C-2.376,3.007 -2.126,3.61 -1.681,4.056C-1.235,4.502 -0.631,4.752 0,4.752" style="fill:rgb(217,95,2);fill-rule:nonzero;"/>
                </g>
                <g transform="matrix(1.7935,0,0,1.7935,190.884,212.685)">
                    <path d="M0,4.752C0.63,4.752 1.234,4.502 1.68,4.056C2.125,3.61 2.376,3.006 2.376,2.376C2.376,1.746 2.125,1.142 1.68,0.695C1.234,0.251 0.63,0 0,0C-0.63,0 -1.235,0.251 -1.68,0.695C-2.126,1.142 -2.376,1.746 -2.376,2.376C-2.376,3.006 -2.126,3.61 -1.68,4.056C-1.235,4.502 -0.63,4.752 0,4.752" style="fill:rgb(217,95,2);fill-rule:nonzero;"/>
                </g>
                <g transform="matrix(1.7935,0,0,1.7935,200.829,209.18)">
                    <path d="M0,4.752C0.63,4.752 1.235,4.502 1.68,4.057C2.126,3.61 2.376,3.007 2.376,2.376C2.376,1.746 2.126,1.142 1.68,0.695C1.235,0.251 0.63,0 0,0C-0.63,0 -1.234,0.251 -1.68,0.695C-2.125,1.142 -2.376,1.746 -2.376,2.376C-2.376,3.007 -2.125,3.61 -1.68,4.057C-1.234,4.502 -0.63,4.752 0,4.752" style="fill:rgb(217,95,2);fill-rule:nonzero;"/>
                </g>
                <g transform="matrix(1.7935,0,0,1.7935,195.539,200.167)">
                    <path d="M0,4.752C0.63,4.752 1.234,4.502 1.68,4.056C2.125,3.611 2.376,3.006 2.376,2.376C2.376,1.746 2.125,1.143 1.68,0.696C1.234,0.251 0.63,0 0,0C-0.63,0 -1.235,0.251 -1.68,0.696C-2.126,1.143 -2.376,1.746 -2.376,2.376C-2.376,3.006 -2.126,3.611 -1.68,4.056C-1.235,4.502 -0.63,4.752 0,4.752" style="fill:rgb(217,95,2);fill-rule:nonzero;"/>
                </g>
                <g transform="matrix(1.7935,0,0,1.7935,187.259,196.934)">
                    <path d="M0,4.752C0.63,4.752 1.235,4.502 1.68,4.056C2.126,3.611 2.376,3.006 2.376,2.376C2.376,1.746 2.126,1.141 1.68,0.696C1.235,0.25 0.63,0 0,0C-0.63,0 -1.234,0.25 -1.68,0.696C-2.125,1.141 -2.376,1.746 -2.376,2.376C-2.376,3.006 -2.125,3.611 -1.68,4.056C-1.234,4.502 -0.63,4.752 0,4.752" style="fill:rgb(217,95,2);fill-rule:nonzero;"/>
                </g>
                <g transform="matrix(1.7935,0,0,1.7935,195.539,187.565)">
                    <path d="M0,4.752C0.63,4.752 1.234,4.502 1.68,4.056C2.125,3.61 2.376,3.006 2.376,2.376C2.376,1.745 2.125,1.142 1.68,0.695C1.234,0.251 0.63,0 0,0C-0.63,0 -1.235,0.251 -1.68,0.695C-2.126,1.142 -2.376,1.745 -2.376,2.376C-2.376,3.006 -2.126,3.61 -1.68,4.056C-1.235,4.502 -0.63,4.752 0,4.752" style="fill:rgb(217,95,2);fill-rule:nonzero;"/>
                </g>
                <g transform="matrix(1.7935,0,0,1.7935,187.133,184.639)">
                    <path d="M0,4.752C0.63,4.752 1.235,4.502 1.68,4.057C2.126,3.611 2.376,3.007 2.376,2.376C2.376,1.746 2.126,1.143 1.68,0.696C1.235,0.251 0.63,0 0,0C-0.63,0 -1.234,0.251 -1.68,0.696C-2.125,1.143 -2.376,1.746 -2.376,2.376C-2.376,3.007 -2.125,3.611 -1.68,4.057C-1.234,4.502 -0.63,4.752 0,4.752" style="fill:rgb(217,95,2);fill-rule:nonzero;"/>
                </g>
                <g transform="matrix(1.7935,0,0,1.7935,201.742,181.421)">
                    <path d="M0,4.752C0.63,4.752 1.235,4.502 1.68,4.057C2.126,3.611 2.376,3.006 2.376,2.376C2.376,1.746 2.126,1.143 1.68,0.696C1.235,0.25 0.63,0 0,0C-0.63,0 -1.234,0.25 -1.68,0.696C-2.126,1.143 -2.376,1.746 -2.376,2.376C-2.376,3.006 -2.126,3.611 -1.68,4.057C-1.234,4.502 -0.63,4.752 0,4.752" style="fill:rgb(217,95,2);fill-rule:nonzero;"/>
                </g>
                <g transform="matrix(1.7935,0,0,1.7935,210.592,180.167)">
                    <path d="M0,4.752C0.63,4.752 1.235,4.502 1.68,4.056C2.126,3.61 2.376,3.006 2.376,2.376C2.376,1.745 2.126,1.142 1.68,0.695C1.235,0.25 0.63,0 0,0C-0.63,0 -1.234,0.25 -1.68,0.695C-2.125,1.142 -2.376,1.745 -2.376,2.376C-2.376,3.006 -2.125,3.61 -1.68,4.056C-1.234,4.502 -0.63,4.752 0,4.752" style="fill:rgb(217,95,2);fill-rule:nonzero;"/>
                </g>
                <g transform="matrix(1.7935,0,0,1.7935,180.108,179.361)">
                    <path d="M0,4.752C0.63,4.752 1.235,4.502 1.68,4.056C2.126,3.609 2.376,3.006 2.376,2.376C2.376,1.746 2.126,1.141 1.68,0.695C1.235,0.25 0.63,0 0,0C-0.63,0 -1.234,0.25 -1.68,0.695C-2.126,1.141 -2.376,1.746 -2.376,2.376C-2.376,3.006 -2.126,3.609 -1.68,4.056C-1.234,4.502 -0.63,4.752 0,4.752" style="fill:rgb(217,95,2);fill-rule:nonzero;"/>
                </g>
                <g transform="matrix(1.7935,0,0,1.7935,195.539,175.485)">
                    <path d="M0,4.752C0.63,4.752 1.234,4.502 1.68,4.056C2.125,3.611 2.376,3.006 2.376,2.376C2.376,1.746 2.125,1.142 1.68,0.696C1.234,0.25 0.63,0 0,0C-0.63,0 -1.235,0.25 -1.68,0.696C-2.126,1.142 -2.376,1.746 -2.376,2.376C-2.376,3.006 -2.126,3.611 -1.68,4.056C-1.235,4.502 -0.63,4.752 0,4.752" style="fill:rgb(217,95,2);fill-rule:nonzero;"/>
                </g>
                <g transform="matrix(1.7935,0,0,1.7935,192.36,167.518)">
                    <path d="M0,4.752C0.63,4.752 1.235,4.502 1.68,4.057C2.126,3.611 2.376,3.006 2.376,2.376C2.376,1.746 2.126,1.143 1.68,0.696C1.235,0.25 0.63,0 0,0C-0.63,0 -1.235,0.25 -1.68,0.696C-2.126,1.143 -2.376,1.746 -2.376,2.376C-2.376,3.006 -2.126,3.611 -1.68,4.057C-1.235,4.502 -0.63,4.752 0,4.752" style="fill:rgb(217,95,2);fill-rule:nonzero;"/>
                </g>
                <g transform="matrix(1.7935,0,0,1.7935,198.372,161.206)">
                    <path d="M0,4.752C0.63,4.752 1.234,4.501 1.68,4.056C2.125,3.609 2.376,3.006 2.376,2.376C2.376,1.746 2.125,1.141 1.68,0.695C1.234,0.25 0.63,0 0,0C-0.631,0 -1.235,0.25 -1.68,0.695C-2.126,1.141 -2.376,1.746 -2.376,2.376C-2.376,3.006 -2.126,3.609 -1.68,4.056C-1.235,4.501 -0.631,4.752 0,4.752" style="fill:rgb(217,95,2);fill-rule:nonzero;"/>
                </g>
                <g transform="matrix(1.7935,0,0,1.7935,190.195,157.741)">
                    <path d="M0,4.752C0.63,4.752 1.234,4.501 1.68,4.057C2.125,3.61 2.376,3.007 2.376,2.376C2.376,1.745 2.125,1.142 1.68,0.695C1.234,0.25 0.63,0 0,0C-0.63,0 -1.235,0.25 -1.68,0.695C-2.126,1.142 -2.376,1.745 -2.376,2.376C-2.376,3.007 -2.126,3.61 -1.68,4.057C-1.235,4.501 -0.63,4.752 0,4.752" style="fill:rgb(217,95,2);fill-rule:nonzero;"/>
                </g>
                <g transform="matrix(1.7935,0,0,1.7935,206.405,157.45)">
                    <path d="M0,4.752C0.63,4.752 1.234,4.502 1.68,4.056C2.125,3.609 2.376,3.006 2.376,2.376C2.376,1.745 2.125,1.141 1.68,0.695C1.234,0.25 0.63,0 0,0C-0.63,0 -1.235,0.25 -1.68,0.695C-2.126,1.141 -2.376,1.745 -2.376,2.376C-2.376,3.006 -2.126,3.609 -1.68,4.056C-1.235,4.502 -0.63,4.752 0,4.752" style="fill:rgb(217,95,2);fill-rule:nonzero;"/>
                </g>
                <g transform="matrix(1.7935,0,0,1.7935,181.402,156.156)">
                    <path d="M0,4.752C0.63,4.752 1.235,4.501 1.68,4.057C2.126,3.61 2.376,3.006 2.376,2.376C2.376,1.746 2.126,1.142 1.68,0.696C1.235,0.25 0.63,0 0,0C-0.63,0 -1.234,0.25 -1.68,0.696C-2.126,1.142 -2.376,1.746 -2.376,2.376C-2.376,3.006 -2.126,3.61 -1.68,4.057C-1.234,4.501 -0.63,4.752 0,4.752" style="fill:rgb(217,95,2);fill-rule:nonzero;"/>
                </g>
                <g transform="matrix(1.7935,0,0,1.7935,195.539,151.102)">
                    <path d="M0,4.752C0.63,4.752 1.234,4.502 1.68,4.056C2.125,3.61 2.376,3.006 2.376,2.376C2.376,1.745 2.125,1.142 1.68,0.695C1.234,0.25 0.63,0 0,0C-0.63,0 -1.235,0.25 -1.68,0.695C-2.126,1.142 -2.376,1.745 -2.376,2.376C-2.376,3.006 -2.126,3.61 -1.68,4.056C-1.235,4.502 -0.63,4.752 0,4.752" style="fill:rgb(217,95,2);fill-rule:nonzero;"/>
                </g>
                <g transform="matrix(1.7935,0,0,1.7935,192.895,142.959)">
                    <path d="M0,4.752C0.63,4.752 1.235,4.502 1.68,4.056C2.126,3.61 2.376,3.007 2.376,2.376C2.376,1.746 2.126,1.142 1.68,0.695C1.235,0.251 0.63,0 0,0C-0.63,0 -1.234,0.251 -1.68,0.695C-2.126,1.142 -2.376,1.746 -2.376,2.376C-2.376,3.007 -2.126,3.61 -1.68,4.056C-1.234,4.502 -0.63,4.752 0,4.752" style="fill:rgb(217,95,2);fill-rule:nonzero;"/>
                </g>
                <g transform="matrix(1.7935,0,0,1.7935,195.539,124.975)">
                    <path d="M0,4.752C0.63,4.752 1.234,4.502 1.68,4.056C2.125,3.611 2.376,3.006 2.376,2.376C2.376,1.746 2.125,1.142 1.68,0.696C1.234,0.25 0.63,0 0,0C-0.63,0 -1.235,0.25 -1.68,0.696C-2.126,1.142 -2.376,1.746 -2.376,2.376C-2.376,3.006 -2.126,3.611 -1.68,4.056C-1.235,4.502 -0.63,4.752 0,4.752" style="fill:rgb(217,95,2);fill-rule:nonzero;"/>
                </g>
                <g transform="matrix(1.7935,0,0,1.7935,195.539,101.321)">
                    <path d="M0,4.753C0.63,4.753 1.234,4.503 1.68,4.058C2.125,3.611 2.376,3.008 2.376,2.376C2.376,1.746 2.125,1.143 1.68,0.696C1.234,0.251 0.63,0 0,0C-0.63,0 -1.235,0.251 -1.68,0.696C-2.126,1.143 -2.376,1.746 -2.376,2.376C-2.376,3.008 -2.126,3.611 -1.68,4.058C-1.235,4.503 -0.63,4.753 0,4.753" style="fill:rgb(217,95,2);fill-rule:nonzero;"/>
                </g>
            </g>
            <g transform="matrix(1.7935,0,0,1.7935,-107.514,-642.542)">
                <text x="85.461px" y="539.172px" style="font-family:'WorkSans-Regular', 'Work Sans';font-size:11.339px;fill:white;">2</text>
            </g>
            <g transform="matrix(1.7935,0,0,1.7935,-107.514,-642.542)">
                <text x="85.461px" y="481.768px" style="font-family:'WorkSans-Regular', 'Work Sans';font-size:11.339px;fill:white;">3</text>
            </g>
            <g transform="matrix(1.7935,0,0,1.7935,-107.514,-642.542)">
                <text x="85.461px" y="424.363px" style="font-family:'WorkSans-Regular', 'Work Sans';font-size:11.339px;fill:white;">4</text>
            </g>
            <g transform="matrix(1.7935,0,0,1.7935,-65.0277,-374.226)">
                <text x="93.444px" y="424.363px" style="font-family:'WorkSans-Regular', 'Work Sans';font-size:6.97px;fill:white;">Control</text>
                <text x="94.939px" y="434.121px" style="font-family:'WorkSans-Regular', 'Work Sans';font-size:6.97px;fill:white;">N = 30</text>
            </g>
            <g transform="matrix(1.7935,0,0,1.7935,3.92241,-374.226)">
                <text x="98.751px" y="424.363px" style="font-family:'WorkSans-Regular', 'Work Sans';font-size:6.97px;fill:white;">Test</text>
                <text x="94.939px" y="434.121px" style="font-family:'WorkSans-Regular', 'Work Sans';font-size:6.97px;fill:white;">N = 30</text>
            </g>
        </g>
    </g>
</svg>
