<?xml version="1.0" encoding="UTF-8" standalone="no"?>
<!DOCTYPE svg PUBLIC "-//W3C//DTD SVG 1.1//EN" "http://www.w3.org/Graphics/SVG/1.1/DTD/svg11.dtd">
<svg width="100%" height="100%" viewBox="0 0 386 361" version="1.1" xmlns="http://www.w3.org/2000/svg" xmlns:xlink="http://www.w3.org/1999/xlink" xml:space="preserve" xmlns:serif="http://www.serif.com/" style="fill-rule:evenodd;clip-rule:evenodd;stroke-linecap:square;">
    <g id="Artboard1" transform="matrix(1,0,0,0.812722,-9.11135,-0.681454)">
        <rect x="9.111" y="0.838" width="385.107" height="443.578" style="fill:none;"/>
        <g id="paired" transform="matrix(0.837928,0,0,1.03101,55.4476,-0.387734)">
            <g id="swarm-x-axis" serif:id="swarm x axis" transform="matrix(1,0,0,1,-39.3829,5.85236)">
                <g id="text_2" transform="matrix(1,-1.11022e-16,0,1,151.762,396.746)">
                    <path d="M9.426,-3.867L3.107,-3.867L1.628,0L-0.147,0L5.284,-13.948L7.292,-13.948L12.702,0L10.905,0L9.426,-3.867ZM8.813,-5.452L6.932,-10.398L6.277,-12.342L6.235,-12.342L5.622,-10.461L3.72,-5.452L8.813,-5.452Z" style="fill:white;fill-rule:nonzero;"/>
                    <path d="M17.245,-10.567L20.775,-10.567L20.775,-9.109L17.245,-9.109L17.245,0L15.555,0L15.555,-9.109L13.441,-9.109L13.441,-10.567L15.555,-10.567L15.555,-12.342C15.555,-13.314 15.851,-14.089 16.442,-14.667C17.034,-15.244 17.894,-15.533 19.021,-15.533C19.401,-15.533 19.75,-15.491 20.067,-15.406C20.384,-15.322 20.634,-15.202 20.817,-15.047L20.373,-13.673C20.035,-13.885 19.634,-13.99 19.169,-13.99C17.886,-13.99 17.245,-13.385 17.245,-12.173L17.245,-10.567Z" style="fill:white;fill-rule:nonzero;"/>
                    <path d="M28.446,-0.74C27.742,-0.106 26.833,0.211 25.72,0.211C24.861,0.211 24.16,-0.021 23.617,-0.486C23.075,-0.951 22.797,-1.663 22.782,-2.621L22.782,-9.109L20.669,-9.109L20.669,-10.567L22.782,-10.567L22.782,-13.103L24.473,-13.568L24.473,-10.567L28.383,-10.567L28.383,-9.109L24.473,-9.109L24.473,-2.916C24.473,-2.409 24.618,-2.025 24.906,-1.765C25.195,-1.504 25.579,-1.374 26.058,-1.374C26.734,-1.374 27.333,-1.634 27.854,-2.156L28.446,-0.74Z" style="fill:white;fill-rule:nonzero;"/>
                    <path d="M39.901,-5.833C39.901,-5.438 39.872,-5.044 39.816,-4.649L31.849,-4.649C31.947,-3.579 32.303,-2.747 32.916,-2.156C33.529,-1.564 34.321,-1.268 35.293,-1.268C36.068,-1.268 36.713,-1.402 37.227,-1.67C37.741,-1.937 38.09,-2.325 38.273,-2.832L39.689,-2.092C39.267,-1.345 38.703,-0.775 37.999,-0.38C37.294,0.014 36.392,0.211 35.293,0.211C33.701,0.211 32.451,-0.275 31.542,-1.247C30.634,-2.219 30.179,-3.565 30.179,-5.283C30.179,-7.002 30.612,-8.348 31.479,-9.32C32.345,-10.292 33.575,-10.778 35.167,-10.778C36.153,-10.778 37.005,-10.56 37.724,-10.123C38.442,-9.686 38.985,-9.094 39.351,-8.348C39.717,-7.601 39.901,-6.763 39.901,-5.833ZM35.167,-9.299C34.237,-9.299 33.487,-9.024 32.916,-8.475C32.345,-7.925 31.997,-7.15 31.87,-6.15L38.273,-6.15C38.161,-7.136 37.837,-7.907 37.301,-8.464C36.766,-9.02 36.054,-9.299 35.167,-9.299Z" style="fill:white;fill-rule:nonzero;"/>
                    <path d="M48.1,-10.778C48.608,-10.778 48.995,-10.708 49.263,-10.567L48.925,-8.918C48.586,-9.101 48.143,-9.193 47.593,-9.193C47.142,-9.193 46.702,-9.063 46.272,-8.802C45.843,-8.541 45.49,-8.147 45.216,-7.619C44.941,-7.09 44.804,-6.453 44.804,-5.706L44.804,0L43.113,0L43.113,-10.567L44.487,-10.567L44.719,-8.834C45.311,-10.13 46.438,-10.778 48.1,-10.778Z" style="fill:white;fill-rule:nonzero;"/>
                    <path d="M3.688,21.133L1.596,21.133L-4.237,11.792L-5.716,9.045L-5.737,9.045L-5.653,11.285L-5.653,21.133L-7.259,21.133L-7.259,7.185L-5.167,7.185L0.645,16.484L2.146,19.274L2.167,19.274L2.082,17.034L2.082,7.185L3.688,7.185L3.688,21.133Z" style="fill:white;fill-rule:nonzero;"/>
                    <path d="M24.589,13.399L14.53,13.399L14.53,11.814L24.589,11.814L24.589,13.399ZM24.589,17.625L14.53,17.625L14.53,16.04L24.589,16.04L24.589,17.625Z" style="fill:white;fill-rule:nonzero;"/>
                    <path d="M39.298,6.974C40.214,6.974 40.999,7.14 41.655,7.471C42.31,7.802 42.806,8.242 43.145,8.792C43.483,9.341 43.652,9.947 43.652,10.609C43.652,11.257 43.532,11.842 43.292,12.363C43.053,12.884 42.732,13.296 42.331,13.599C41.929,13.902 41.496,14.054 41.031,14.054L41.031,14.096C41.919,14.096 42.63,14.417 43.166,15.058C43.701,15.699 43.969,16.477 43.969,17.393C43.969,18.14 43.768,18.816 43.366,19.422C42.965,20.027 42.391,20.499 41.644,20.838C40.897,21.176 40.038,21.345 39.066,21.345C36.741,21.345 35.135,20.232 34.247,18.006L35.811,17.182C36.093,18.041 36.484,18.686 36.984,19.115C37.484,19.545 38.22,19.76 39.193,19.76C40.137,19.76 40.876,19.524 41.412,19.052C41.947,18.58 42.215,17.971 42.215,17.224C42.215,16.364 41.958,15.762 41.443,15.417C40.929,15.072 40.115,14.899 39.002,14.899L38.453,14.899L38.453,13.314L39.002,13.314C40.933,13.314 41.898,12.525 41.898,10.947C41.898,10.158 41.676,9.563 41.232,9.161C40.788,8.76 40.151,8.559 39.319,8.559C38.502,8.559 37.851,8.746 37.365,9.119C36.878,9.492 36.544,10.017 36.361,10.694L34.776,9.954C35.114,9.038 35.688,8.313 36.498,7.777C37.308,7.242 38.242,6.974 39.298,6.974Z" style="fill:white;fill-rule:nonzero;"/>
                    <path d="M52.042,21.345C50.351,21.345 49.062,20.732 48.174,19.506C47.287,18.28 46.843,16.498 46.843,14.159C46.843,11.821 47.287,10.038 48.174,8.813C49.062,7.587 50.351,6.974 52.042,6.974C53.732,6.974 55.022,7.587 55.909,8.813C56.797,10.038 57.241,11.821 57.241,14.159C57.241,16.498 56.797,18.28 55.909,19.506C55.022,20.732 53.732,21.345 52.042,21.345ZM52.042,19.823C53.155,19.823 54.007,19.341 54.599,18.376C55.191,17.41 55.486,16.005 55.486,14.159C55.486,12.314 55.191,10.908 54.599,9.943C54.007,8.978 53.155,8.496 52.042,8.496C50.929,8.496 50.076,8.978 49.485,9.943C48.893,10.908 48.597,12.314 48.597,14.159C48.597,16.005 48.893,17.41 49.485,18.376C50.076,19.341 50.929,19.823 52.042,19.823Z" style="fill:white;fill-rule:nonzero;"/>
                </g>
                <g id="text_1" transform="matrix(1,-1.11022e-16,0,1,56.7815,396.746)">
                    <path d="M-7.108,-13.948L-2.142,-13.948C-0.536,-13.948 0.659,-13.613 1.44,-12.944C2.222,-12.275 2.613,-11.328 2.613,-10.102C2.613,-9.369 2.406,-8.721 1.99,-8.158C1.574,-7.594 1,-7.242 0.268,-7.101L0.268,-7.08C1.085,-6.925 1.74,-6.551 2.233,-5.96C2.726,-5.368 2.973,-4.685 2.973,-3.91C2.973,-2.712 2.522,-1.761 1.62,-1.057C0.718,-0.352 -0.543,0 -2.163,0L-7.108,0L-7.108,-13.948ZM-2.121,-7.819C-1.12,-7.819 -0.377,-8.006 0.109,-8.379C0.595,-8.753 0.838,-9.327 0.838,-10.102C0.838,-11.609 -0.148,-12.363 -2.121,-12.363L-5.417,-12.363L-5.417,-7.819L-2.121,-7.819ZM-1.761,-1.585C-0.775,-1.585 -0.035,-1.786 0.458,-2.187C0.951,-2.589 1.197,-3.163 1.197,-3.91C1.197,-4.656 0.951,-5.231 0.458,-5.632C-0.035,-6.034 -0.775,-6.234 -1.761,-6.234L-5.417,-6.234L-5.417,-1.585L-1.761,-1.585Z" style="fill:white;fill-rule:nonzero;"/>
                    <path d="M15.441,-5.833C15.441,-5.438 15.413,-5.044 15.357,-4.649L7.39,-4.649C7.488,-3.579 7.844,-2.747 8.457,-2.156C9.07,-1.564 9.862,-1.268 10.834,-1.268C11.609,-1.268 12.254,-1.402 12.768,-1.67C13.282,-1.937 13.631,-2.325 13.814,-2.832L15.23,-2.092C14.807,-1.345 14.244,-0.775 13.539,-0.38C12.835,0.014 11.933,0.211 10.834,0.211C9.242,0.211 7.992,-0.275 7.083,-1.247C6.174,-2.219 5.72,-3.565 5.72,-5.283C5.72,-7.002 6.153,-8.348 7.02,-9.32C7.886,-10.292 9.115,-10.778 10.707,-10.778C11.694,-10.778 12.546,-10.56 13.265,-10.123C13.983,-9.686 14.526,-9.094 14.892,-8.348C15.258,-7.601 15.441,-6.763 15.441,-5.833ZM10.707,-9.299C9.778,-9.299 9.027,-9.024 8.457,-8.475C7.886,-7.925 7.537,-7.15 7.411,-6.15L13.814,-6.15C13.701,-7.136 13.377,-7.907 12.842,-8.464C12.307,-9.02 11.595,-9.299 10.707,-9.299Z" style="fill:white;fill-rule:nonzero;"/>
                    <path d="M21.063,-10.567L24.592,-10.567L24.592,-9.109L21.063,-9.109L21.063,0L19.372,0L19.372,-9.109L17.259,-9.109L17.259,-10.567L19.372,-10.567L19.372,-12.342C19.372,-13.314 19.668,-14.089 20.26,-14.667C20.852,-15.244 21.711,-15.533 22.838,-15.533C23.219,-15.533 23.567,-15.491 23.884,-15.406C24.201,-15.322 24.451,-15.202 24.634,-15.047L24.191,-13.673C23.853,-13.885 23.451,-13.99 22.986,-13.99C21.704,-13.99 21.063,-13.385 21.063,-12.173L21.063,-10.567Z" style="fill:white;fill-rule:nonzero;"/>
                    <path d="M31.017,-10.778C32.609,-10.778 33.859,-10.292 34.768,-9.32C35.677,-8.348 36.131,-7.002 36.131,-5.283C36.131,-3.565 35.677,-2.219 34.768,-1.247C33.859,-0.275 32.609,0.211 31.017,0.211C29.425,0.211 28.174,-0.275 27.266,-1.247C26.357,-2.219 25.902,-3.565 25.902,-5.283C25.902,-7.002 26.357,-8.348 27.266,-9.32C28.174,-10.292 29.425,-10.778 31.017,-10.778ZM31.017,-9.32C29.946,-9.32 29.108,-8.961 28.502,-8.242C27.896,-7.524 27.593,-6.537 27.593,-5.283C27.593,-4.029 27.896,-3.043 28.502,-2.325C29.108,-1.606 29.946,-1.247 31.017,-1.247C32.088,-1.247 32.926,-1.606 33.532,-2.325C34.137,-3.043 34.44,-4.029 34.44,-5.283C34.44,-6.537 34.137,-7.524 33.532,-8.242C32.926,-8.961 32.088,-9.32 31.017,-9.32Z" style="fill:white;fill-rule:nonzero;"/>
                    <path d="M44.394,-10.778C44.901,-10.778 45.289,-10.708 45.557,-10.567L45.218,-8.918C44.88,-9.101 44.437,-9.193 43.887,-9.193C43.436,-9.193 42.996,-9.063 42.566,-8.802C42.136,-8.541 41.784,-8.147 41.51,-7.619C41.235,-7.09 41.097,-6.453 41.097,-5.706L41.097,0L39.407,0L39.407,-10.567L40.78,-10.567L41.013,-8.834C41.605,-10.13 42.732,-10.778 44.394,-10.778Z" style="fill:white;fill-rule:nonzero;"/>
                    <path d="M56.757,-5.833C56.757,-5.438 56.729,-5.044 56.673,-4.649L48.705,-4.649C48.804,-3.579 49.16,-2.747 49.773,-2.156C50.386,-1.564 51.178,-1.268 52.15,-1.268C52.925,-1.268 53.57,-1.402 54.084,-1.67C54.598,-1.937 54.947,-2.325 55.13,-2.832L56.546,-2.092C56.123,-1.345 55.56,-0.775 54.855,-0.38C54.151,0.014 53.249,0.211 52.15,0.211C50.558,0.211 49.308,-0.275 48.399,-1.247C47.49,-2.219 47.036,-3.565 47.036,-5.283C47.036,-7.002 47.469,-8.348 48.336,-9.32C49.202,-10.292 50.431,-10.778 52.023,-10.778C53.01,-10.778 53.862,-10.56 54.581,-10.123C55.299,-9.686 55.842,-9.094 56.208,-8.348C56.574,-7.601 56.757,-6.763 56.757,-5.833ZM52.023,-9.299C51.094,-9.299 50.343,-9.024 49.773,-8.475C49.202,-7.925 48.853,-7.15 48.727,-6.15L55.13,-6.15C55.017,-7.136 54.693,-7.907 54.158,-8.464C53.623,-9.02 52.911,-9.299 52.023,-9.299Z" style="fill:white;fill-rule:nonzero;"/>
                    <path d="M3.459,21.133L1.366,21.133L-4.466,11.792L-5.946,9.045L-5.967,9.045L-5.882,11.285L-5.882,21.133L-7.488,21.133L-7.488,7.185L-5.396,7.185L0.415,16.484L1.916,19.274L1.937,19.274L1.853,17.034L1.853,7.185L3.459,7.185L3.459,21.133Z" style="fill:white;fill-rule:nonzero;"/>
                    <path d="M24.36,13.399L14.3,13.399L14.3,11.814L24.36,11.814L24.36,13.399ZM24.36,17.625L14.3,17.625L14.3,16.04L24.36,16.04L24.36,17.625Z" style="fill:white;fill-rule:nonzero;"/>
                    <path d="M39.069,6.974C39.984,6.974 40.77,7.14 41.425,7.471C42.08,7.802 42.577,8.242 42.915,8.792C43.253,9.341 43.422,9.947 43.422,10.609C43.422,11.257 43.302,11.842 43.063,12.363C42.823,12.884 42.503,13.296 42.101,13.599C41.7,13.902 41.267,14.054 40.802,14.054L40.802,14.096C41.689,14.096 42.401,14.417 42.936,15.058C43.471,15.699 43.739,16.477 43.739,17.393C43.739,18.14 43.538,18.816 43.137,19.422C42.735,20.027 42.161,20.499 41.414,20.838C40.668,21.176 39.808,21.345 38.836,21.345C36.511,21.345 34.905,20.232 34.018,18.006L35.582,17.182C35.863,18.041 36.254,18.686 36.755,19.115C37.255,19.545 37.991,19.76 38.963,19.76C39.907,19.76 40.647,19.524 41.182,19.052C41.717,18.58 41.985,17.971 41.985,17.224C41.985,16.364 41.728,15.762 41.214,15.417C40.699,15.072 39.886,14.899 38.773,14.899L38.223,14.899L38.223,13.314L38.773,13.314C40.703,13.314 41.668,12.525 41.668,10.947C41.668,10.158 41.446,9.563 41.002,9.161C40.559,8.76 39.921,8.559 39.09,8.559C38.273,8.559 37.621,8.746 37.135,9.119C36.649,9.492 36.314,10.017 36.131,10.694L34.546,9.954C34.884,9.038 35.458,8.313 36.268,7.777C37.079,7.242 38.012,6.974 39.069,6.974Z" style="fill:white;fill-rule:nonzero;"/>
                    <path d="M51.812,21.345C50.121,21.345 48.832,20.732 47.945,19.506C47.057,18.28 46.613,16.498 46.613,14.159C46.613,11.821 47.057,10.038 47.945,8.813C48.832,7.587 50.121,6.974 51.812,6.974C53.503,6.974 54.792,7.587 55.68,8.813C56.567,10.038 57.011,11.821 57.011,14.159C57.011,16.498 56.567,18.28 55.68,19.506C54.792,20.732 53.503,21.345 51.812,21.345ZM51.812,19.823C52.925,19.823 53.778,19.341 54.369,18.376C54.961,17.41 55.257,16.005 55.257,14.159C55.257,12.314 54.961,10.908 54.369,9.943C53.778,8.978 52.925,8.496 51.812,8.496C50.699,8.496 49.847,8.978 49.255,9.943C48.663,10.908 48.367,12.314 48.367,14.159C48.367,16.005 48.663,17.41 49.255,18.376C49.847,19.341 50.699,19.823 51.812,19.823Z" style="fill:white;fill-rule:nonzero;"/>
                </g>
                <g id="patch_4" transform="matrix(2.21608,0,0,1,-152.116,-4.93451)">
                    <path d="M90.197,370.54L164.597,370.54" style="fill:none;stroke:white;stroke-width:1.03px;"/>
                </g>
            </g>
            <g id="swarm-y-axis" serif:id="swarm y axis" transform="matrix(1,0,0,1,-63.2513,0)">
                <g id="ytick_1">
                    <g id="m2dfb8df768" transform="matrix(1,0,0,1,71.5966,370.54)">
                        <path d="M0,0L-10,0" style="fill:white;fill-rule:nonzero;stroke:white;stroke-width:1.25px;stroke-linecap:butt;"/>
                    </g>
                    <g id="text_3" transform="matrix(1,0,0,1,56.5966,376.445)">
                        <path d="M-2.282,-14.769L-2.282,0L-4.073,0L-4.073,-10.83C-4.073,-11.144 -4.058,-11.718 -4.028,-12.553C-4.535,-12.061 -5.124,-11.632 -5.796,-11.267C-6.467,-10.901 -7.153,-10.636 -7.854,-10.472L-8.324,-12.106C-7.966,-12.151 -7.481,-12.318 -6.87,-12.609C-6.258,-12.9 -5.669,-13.243 -5.102,-13.639C-4.535,-14.034 -4.117,-14.411 -3.849,-14.769L-2.282,-14.769Z" style="fill:white;fill-rule:nonzero;"/>
                    </g>
                </g>
                <g transform="matrix(0.586946,0,0,1,71.5966,311.65)">
                    <g id="ytick_2">
                        <path id="m2dfb8df7681" serif:id="m2dfb8df768" d="M0,0L-10,0" style="fill:white;fill-rule:nonzero;stroke:white;stroke-width:1.25px;stroke-linecap:butt;"/>
                    </g>
                </g>
                <g id="ytick_3">
                    <g id="m2dfb8df7682" serif:id="m2dfb8df768" transform="matrix(1,0,0,1,71.5966,252.76)">
                        <path d="M0,0L-10,0" style="fill:white;fill-rule:nonzero;stroke:white;stroke-width:1.25px;stroke-linecap:butt;"/>
                    </g>
                    <g id="text_5" transform="matrix(1,0,0,1,56.5966,258.665)">
                        <path d="M-11.39,-1.454C-9.346,-2.961 -7.78,-4.203 -6.691,-5.18C-5.602,-6.157 -4.822,-7.045 -4.352,-7.843C-3.882,-8.641 -3.647,-9.48 -3.647,-10.36C-3.647,-11.241 -3.931,-11.953 -4.498,-12.497C-5.065,-13.042 -5.825,-13.314 -6.78,-13.314C-7.78,-13.314 -8.589,-12.986 -9.208,-12.33C-9.827,-11.673 -10.189,-10.786 -10.293,-9.667L-11.86,-10.607C-11.666,-11.934 -11.125,-12.997 -10.237,-13.795C-9.35,-14.593 -8.175,-14.992 -6.713,-14.992C-5.728,-14.992 -4.859,-14.798 -4.106,-14.411C-3.353,-14.023 -2.775,-13.478 -2.372,-12.777C-1.969,-12.076 -1.768,-11.27 -1.768,-10.36C-1.768,-9.406 -1.995,-8.488 -2.45,-7.608C-2.905,-6.728 -3.647,-5.803 -4.677,-4.833C-5.706,-3.864 -7.093,-2.797 -8.839,-1.633L-8.839,-1.611C-7.854,-1.656 -7.116,-1.678 -6.623,-1.678L-1.454,-1.678L-1.454,0L-11.39,0L-11.39,-1.454Z" style="fill:white;fill-rule:nonzero;"/>
                    </g>
                </g>
                <g transform="matrix(0.586946,0,0,1,71.5966,193.87)">
                    <g id="ytick_4">
                        <path id="m2dfb8df7683" serif:id="m2dfb8df768" d="M0,0L-10,0" style="fill:white;fill-rule:nonzero;stroke:white;stroke-width:1.25px;stroke-linecap:butt;"/>
                    </g>
                </g>
                <g id="ytick_5">
                    <g id="m2dfb8df7684" serif:id="m2dfb8df768" transform="matrix(1,0,0,1,71.5966,134.98)">
                        <path d="M0,0L-10,0" style="fill:white;fill-rule:nonzero;stroke:white;stroke-width:1.25px;stroke-linecap:butt;"/>
                    </g>
                    <g id="text_7" transform="matrix(1,0,0,1,56.5966,140.885)">
                        <path d="M-6.534,-14.992C-5.564,-14.992 -4.733,-14.817 -4.039,-14.466C-3.345,-14.116 -2.819,-13.65 -2.461,-13.068C-2.103,-12.486 -1.924,-11.845 -1.924,-11.144C-1.924,-10.457 -2.051,-9.838 -2.305,-9.286C-2.558,-8.734 -2.898,-8.298 -3.323,-7.977C-3.748,-7.657 -4.207,-7.496 -4.699,-7.496L-4.699,-7.451C-3.759,-7.451 -3.006,-7.112 -2.439,-6.433C-1.872,-5.755 -1.589,-4.93 -1.589,-3.961C-1.589,-3.17 -1.801,-2.454 -2.226,-1.813C-2.652,-1.171 -3.26,-0.671 -4.05,-0.313C-4.841,0.045 -5.751,0.224 -6.78,0.224C-9.242,0.224 -10.942,-0.955 -11.882,-3.312L-10.226,-4.184C-9.928,-3.274 -9.514,-2.592 -8.984,-2.137C-8.455,-1.682 -7.675,-1.454 -6.646,-1.454C-5.646,-1.454 -4.863,-1.704 -4.296,-2.204C-3.729,-2.704 -3.446,-3.349 -3.446,-4.14C-3.446,-5.05 -3.718,-5.687 -4.263,-6.053C-4.807,-6.418 -5.669,-6.601 -6.847,-6.601L-7.429,-6.601L-7.429,-8.279L-6.847,-8.279C-4.804,-8.279 -3.782,-9.115 -3.782,-10.786C-3.782,-11.621 -4.017,-12.251 -4.487,-12.676C-4.956,-13.102 -5.631,-13.314 -6.512,-13.314C-7.377,-13.314 -8.067,-13.116 -8.581,-12.721C-9.096,-12.326 -9.45,-11.77 -9.644,-11.054L-11.323,-11.837C-10.965,-12.807 -10.357,-13.575 -9.499,-14.142C-8.641,-14.709 -7.653,-14.992 -6.534,-14.992Z" style="fill:white;fill-rule:nonzero;"/>
                    </g>
                </g>
                <g transform="matrix(0.586946,0,0,1,71.5966,76.09)">
                    <g id="ytick_6">
                        <path id="m2dfb8df7685" serif:id="m2dfb8df768" d="M0,0L-10,0" style="fill:white;fill-rule:nonzero;stroke:white;stroke-width:1.25px;stroke-linecap:butt;"/>
                    </g>
                </g>
                <g id="ytick_7">
                    <g id="m2dfb8df7686" serif:id="m2dfb8df768" transform="matrix(1,0,0,1,71.5966,17.2)">
                        <path d="M0,0L-10,0" style="fill:white;fill-rule:nonzero;stroke:white;stroke-width:1.25px;stroke-linecap:butt;"/>
                    </g>
                    <g id="text_9" transform="matrix(1,0,0,1,56.5966,23.1052)">
                        <path d="M-1.074,-3.871L-3.692,-3.871L-3.692,0L-5.482,0L-5.482,-3.871L-12.688,-3.871L-12.688,-5.191L-5.952,-14.769L-3.692,-14.769L-3.692,-5.415L-1.074,-5.415L-1.074,-3.871ZM-10.786,-5.415L-5.482,-5.415L-5.482,-10.942L-5.393,-13.314L-5.438,-13.314C-5.81,-12.553 -6.303,-11.733 -6.914,-10.853L-10.786,-5.415Z" style="fill:white;fill-rule:nonzero;"/>
                    </g>
                </g>
                <path id="patch_3" d="M71.597,370.54L71.597,17.2" style="fill:none;stroke:white;stroke-width:1.25px;"/>
            </g>
            <g id="pairs" transform="matrix(1,0,0,1,-39.3829,0)">
                <path id="line2d_10" d="M90.197,47.936L164.597,174.902" style="fill:none;stroke:rgb(115,115,115);stroke-width:1px;stroke-linecap:round;"/>
                <path id="line2d_11" d="M90.197,136.145L164.597,100.453" style="fill:none;stroke:rgb(115,115,115);stroke-width:1px;stroke-linecap:round;"/>
                <path id="line2d_12" d="M90.197,140.368L164.597,193.878" style="fill:none;stroke:rgb(115,115,115);stroke-width:1px;stroke-linecap:round;"/>
                <path id="line2d_13" d="M90.197,180.517L164.597,200.673" style="fill:none;stroke:rgb(115,115,115);stroke-width:1px;stroke-linecap:round;"/>
                <path id="line2d_14" d="M90.197,209.75L164.597,317.868" style="fill:none;stroke:rgb(115,115,115);stroke-width:1px;stroke-linecap:round;"/>
                <path id="line2d_15" d="M90.197,236.576L164.597,164.003" style="fill:none;stroke:rgb(115,115,115);stroke-width:1px;stroke-linecap:round;"/>
                <path id="line2d_16" d="M90.197,209.914L164.597,86.085" style="fill:none;stroke:rgb(115,115,115);stroke-width:1px;stroke-linecap:round;"/>
                <path id="line2d_17" d="M90.197,52.964L164.597,205.595" style="fill:none;stroke:rgb(115,115,115);stroke-width:1px;stroke-linecap:round;"/>
                <path id="line2d_18" d="M90.197,141.369L164.597,143.135" style="fill:none;stroke:rgb(115,115,115);stroke-width:1px;stroke-linecap:round;"/>
                <path id="line2d_19" d="M90.197,145.021L164.597,254.516" style="fill:none;stroke:rgb(115,115,115);stroke-width:1px;stroke-linecap:round;"/>
                <path id="line2d_20" d="M90.197,126.118L164.597,116.689" style="fill:none;stroke:rgb(115,115,115);stroke-width:1px;stroke-linecap:round;"/>
                <path id="line2d_21" d="M90.197,122.958L164.597,222.368" style="fill:none;stroke:rgb(115,115,115);stroke-width:1px;stroke-linecap:round;"/>
                <path id="line2d_22" d="M90.197,96.372L164.597,199.236" style="fill:none;stroke:rgb(115,115,115);stroke-width:1px;stroke-linecap:round;"/>
                <path id="line2d_23" d="M90.197,65.982L164.597,181.505" style="fill:none;stroke:rgb(115,115,115);stroke-width:1px;stroke-linecap:round;"/>
                <path id="line2d_24" d="M90.197,154.594L164.597,164.149" style="fill:none;stroke:rgb(115,115,115);stroke-width:1px;stroke-linecap:round;"/>
                <path id="line2d_25" d="M90.197,124.095L164.597,263.692" style="fill:none;stroke:rgb(115,115,115);stroke-width:1px;stroke-linecap:round;"/>
                <path id="line2d_26" d="M90.197,44.834L164.597,183.987" style="fill:none;stroke:rgb(115,115,115);stroke-width:1px;stroke-linecap:round;"/>
                <path id="line2d_27" d="M90.197,65.033L164.597,118.856" style="fill:none;stroke:rgb(115,115,115);stroke-width:1px;stroke-linecap:round;"/>
                <path id="line2d_28" d="M90.197,144.199L164.597,248.496" style="fill:none;stroke:rgb(115,115,115);stroke-width:1px;stroke-linecap:round;"/>
                <path id="line2d_29" d="M90.197,46.244L164.597,222.275" style="fill:none;stroke:rgb(115,115,115);stroke-width:1px;stroke-linecap:round;"/>
                <path id="line2d_30" d="M90.197,98.848L164.597,238.342" style="fill:none;stroke:rgb(115,115,115);stroke-width:1px;stroke-linecap:round;"/>
                <path id="line2d_31" d="M90.197,86.453L164.597,232.74" style="fill:none;stroke:rgb(115,115,115);stroke-width:1px;stroke-linecap:round;"/>
                <path id="line2d_32" d="M90.197,101.185L164.597,206.665" style="fill:none;stroke:rgb(115,115,115);stroke-width:1px;stroke-linecap:round;"/>
                <path id="line2d_33" d="M90.197,100.736L164.597,124.577" style="fill:none;stroke:rgb(115,115,115);stroke-width:1px;stroke-linecap:round;"/>
                <path id="line2d_34" d="M90.197,112.896L164.597,105.553" style="fill:none;stroke:rgb(115,115,115);stroke-width:1px;stroke-linecap:round;"/>
                <path id="line2d_35" d="M90.197,141.334L164.597,199.381" style="fill:none;stroke:rgb(115,115,115);stroke-width:1px;stroke-linecap:round;"/>
                <path id="line2d_36" d="M90.197,81.514L164.597,217.558" style="fill:none;stroke:rgb(115,115,115);stroke-width:1px;stroke-linecap:round;"/>
                <path id="line2d_37" d="M90.197,82.419L164.597,319.506" style="fill:none;stroke:rgb(115,115,115);stroke-width:1px;stroke-linecap:round;"/>
                <path id="line2d_38" d="M90.197,83.001L164.597,121.876" style="fill:none;stroke:rgb(115,115,115);stroke-width:1px;stroke-linecap:round;"/>
                <path id="line2d_39" d="M90.197,201.052L164.597,127.778" style="fill:none;stroke:rgb(115,115,115);stroke-width:1px;stroke-linecap:round;"/>
            </g>
            <g id="contrast-axis" serif:id="contrast axis" transform="matrix(1,0,0,1,86.1151,0)">
                <g id="ytick_8" transform="matrix(1,0,0,1,1.11444,117.837)">
                    <g id="m27666e4dbc" transform="matrix(1,0,0,1,238.997,237.128)">
                        <path d="M0,0L10,0" style="fill:white;fill-rule:nonzero;stroke:white;stroke-width:1.25px;stroke-linecap:butt;"/>
                    </g>
                    <g id="text_11" transform="matrix(1,0,0,1,253.997,243.033)">
                        <rect x="1.32" y="-7.921" width="10.875" height="1.678" style="fill:white;fill-rule:nonzero;"/>
                        <path d="M14.478,-1.454C16.521,-2.961 18.088,-4.203 19.177,-5.18C20.266,-6.157 21.045,-7.045 21.515,-7.843C21.985,-8.641 22.22,-9.48 22.22,-10.36C22.22,-11.241 21.937,-11.953 21.37,-12.497C20.803,-13.042 20.042,-13.314 19.087,-13.314C18.088,-13.314 17.278,-12.986 16.659,-12.33C16.04,-11.673 15.679,-10.786 15.574,-9.667L14.008,-10.607C14.202,-11.934 14.742,-12.997 15.63,-13.795C16.518,-14.593 17.692,-14.992 19.154,-14.992C20.139,-14.992 21.008,-14.798 21.761,-14.411C22.515,-14.023 23.093,-13.478 23.495,-12.777C23.898,-12.076 24.1,-11.27 24.1,-10.36C24.1,-9.406 23.872,-8.488 23.417,-7.608C22.962,-6.728 22.22,-5.803 21.191,-4.833C20.161,-3.864 18.774,-2.797 17.029,-1.633L17.029,-1.611C18.013,-1.656 18.752,-1.678 19.244,-1.678L24.413,-1.678L24.413,0L14.478,0L14.478,-1.454Z" style="fill:white;fill-rule:nonzero;"/>
                    </g>
                </g>
                <g transform="matrix(0.51882,0,0,1,239.575,296.074)">
                    <g id="ytick_9">
                        <path id="m27666e4dbc1" serif:id="m27666e4dbc" d="M0,0L10,0" style="fill:white;fill-rule:nonzero;stroke:white;stroke-width:1.25px;stroke-linecap:butt;"/>
                    </g>
                </g>
                <g id="ytick_81" serif:id="ytick_8">
                    <g id="m27666e4dbc2" serif:id="m27666e4dbc" transform="matrix(1,0,0,1,238.997,237.128)">
                        <path d="M0,0L10,0" style="fill:white;fill-rule:nonzero;stroke:white;stroke-width:1.25px;stroke-linecap:butt;"/>
                    </g>
                    <g id="text_111" serif:id="text_11" transform="matrix(1,0,0,1,253.997,243.033)">
                        <rect x="1.32" y="-7.921" width="10.875" height="1.678" style="fill:white;fill-rule:nonzero;"/>
                        <path d="M19.87,-14.769L19.87,0L18.08,0L18.08,-10.83C18.08,-11.144 18.095,-11.718 18.125,-12.553C17.618,-12.061 17.029,-11.632 16.357,-11.267C15.686,-10.901 15,-10.636 14.299,-10.472L13.829,-12.106C14.187,-12.151 14.672,-12.318 15.283,-12.609C15.895,-12.9 16.484,-13.243 17.051,-13.639C17.618,-14.034 18.036,-14.411 18.304,-14.769L19.87,-14.769Z" style="fill:white;fill-rule:nonzero;"/>
                    </g>
                </g>
                <g transform="matrix(0.51882,0,0,1,238.997,178.238)">
                    <g id="ytick_91" serif:id="ytick_9">
                        <path id="m27666e4dbc3" serif:id="m27666e4dbc" d="M0,0L10,0" style="fill:white;fill-rule:nonzero;stroke:white;stroke-width:1.25px;stroke-linecap:butt;"/>
                    </g>
                </g>
                <g id="ytick_10">
                    <g id="m27666e4dbc4" serif:id="m27666e4dbc" transform="matrix(1,0,0,1,238.997,119.348)">
                        <path d="M0,0L10,0" style="fill:white;fill-rule:nonzero;stroke:white;stroke-width:1.25px;stroke-linecap:butt;"/>
                    </g>
                    <g id="text_13" transform="matrix(1,0,0,1,264.254,125.253)">
                        <path d="M6.959,0.224C5.169,0.224 3.804,-0.425 2.864,-1.723C1.924,-3.021 1.454,-4.908 1.454,-7.384C1.454,-9.861 1.924,-11.748 2.864,-13.046C3.804,-14.343 5.169,-14.992 6.959,-14.992C8.749,-14.992 10.114,-14.343 11.054,-13.046C11.994,-11.748 12.464,-9.861 12.464,-7.384C12.464,-4.908 11.994,-3.021 11.054,-1.723C10.114,-0.425 8.749,0.224 6.959,0.224ZM6.959,-1.387C8.138,-1.387 9.04,-1.898 9.667,-2.92C10.293,-3.942 10.607,-5.43 10.607,-7.384C10.607,-9.339 10.293,-10.827 9.667,-11.848C9.04,-12.87 8.138,-13.381 6.959,-13.381C5.781,-13.381 4.878,-12.87 4.252,-11.848C3.625,-10.827 3.312,-9.339 3.312,-7.384C3.312,-5.43 3.625,-3.942 4.252,-2.92C4.878,-1.898 5.781,-1.387 6.959,-1.387Z" style="fill:white;fill-rule:nonzero;"/>
                    </g>
                </g>
                <g id="patch_5" transform="matrix(1,0,0,2.1356,-4.26326e-14,-135.159)">
                    <path d="M238.997,237.128L238.997,119.348" style="fill:none;stroke:white;stroke-width:1.25px;"/>
                </g>
                <g id="patch_41" serif:id="patch_4" transform="matrix(0.916091,0,0,1,88.1149,0.917851)">
                    <path d="M90.197,370.54L164.597,370.54" style="fill:none;stroke:white;stroke-width:1.56px;"/>
                </g>
                <g id="ES-and-95CI" serif:id="ES and 95CI" transform="matrix(1,0,0,1,-19.0947,0)">
                    <g id="bootstrap-difference" serif:id="bootstrap difference" transform="matrix(1.4284,0,0,1,-86.4499,467.303)">
                        <path d="M201.875,-232.93L201.798,-232.93L201.798,-233.926L201.798,-234.922L201.798,-235.917L201.798,-236.913L201.798,-237.909L201.798,-238.905L201.798,-239.901L201.798,-240.897L201.798,-241.892L201.798,-242.888L201.798,-243.884L201.798,-244.88L201.798,-245.876L201.798,-246.872L201.798,-247.867L201.798,-248.863L201.798,-249.859L201.798,-250.855L201.798,-251.851L201.798,-252.847L201.798,-253.843L201.798,-254.838L201.798,-255.834L201.798,-256.83L201.798,-257.826L201.798,-258.822L201.798,-259.818L201.798,-260.813L201.798,-261.809L201.798,-262.805L201.798,-263.801L201.798,-264.797L201.798,-265.793L201.798,-266.789L201.798,-267.784L201.798,-268.78L201.798,-269.776L201.798,-270.772L201.798,-271.768L201.798,-272.764L201.798,-273.759L201.798,-274.755L201.798,-275.751L201.798,-276.747L201.798,-277.743L201.798,-278.739L201.798,-279.735L201.798,-280.73L201.798,-281.726L201.798,-282.722L201.798,-283.718L201.798,-284.714L201.798,-285.71L201.798,-286.705L201.798,-287.701L201.798,-288.697L201.798,-289.693L201.798,-290.689L201.798,-291.685L201.798,-292.68L201.798,-293.676L201.798,-294.672L201.798,-295.668L201.798,-296.664L201.798,-297.66L201.798,-298.656L201.798,-299.651L201.798,-300.647L201.798,-301.643L201.798,-302.639L201.798,-303.635L201.798,-304.631L201.798,-305.626L201.798,-306.622L201.798,-307.618L201.798,-308.614L201.798,-309.61L201.798,-310.606L201.798,-311.602L201.798,-312.597L201.798,-313.593L201.798,-314.589L201.798,-315.585L201.798,-316.581L201.798,-317.577L201.798,-318.572L201.798,-319.568L201.798,-320.564L201.798,-321.56L201.798,-322.556L201.798,-323.552L201.798,-324.547L201.798,-325.543L201.798,-326.539L201.798,-327.535L201.798,-328.531L201.798,-329.527L201.798,-330.523L201.798,-331.518L201.885,-331.518L201.908,-330.523L201.93,-329.527L201.951,-328.531L201.973,-327.535L202,-326.539L202.033,-325.543L202.074,-324.547L202.123,-323.552L202.182,-322.556L202.25,-321.56L202.327,-320.564L202.415,-319.568L202.517,-318.572L202.635,-317.577L202.773,-316.581L202.932,-315.585L203.117,-314.589L203.329,-313.593L203.574,-312.597L203.85,-311.602L204.155,-310.606L204.481,-309.61L204.816,-308.614L205.151,-307.618L205.485,-306.622L205.827,-305.626L206.192,-304.631L206.593,-303.635L207.037,-302.639L207.529,-301.643L208.079,-300.647L208.706,-299.651L209.426,-298.656L210.239,-297.66L211.131,-296.664L212.075,-295.668L213.037,-294.672L213.978,-293.676L214.859,-292.68L215.648,-291.685L216.333,-290.689L216.93,-289.693L217.476,-288.697L218.004,-287.701L218.526,-286.705L219.028,-285.71L219.483,-284.714L219.862,-283.718L220.146,-282.722L220.324,-281.726L220.397,-280.73L220.369,-279.735L220.251,-278.739L220.059,-277.743L219.819,-276.747L219.568,-275.751L219.343,-274.755L219.159,-273.759L218.998,-272.764L218.811,-271.768L218.547,-270.772L218.178,-269.776L217.708,-268.78L217.164,-267.784L216.574,-266.789L215.949,-265.793L215.282,-264.797L214.562,-263.801L213.776,-262.805L212.928,-261.809L212.034,-260.813L211.118,-259.818L210.21,-258.822L209.338,-257.826L208.525,-256.83L207.793,-255.834L207.157,-254.838L206.619,-253.843L206.163,-252.847L205.763,-251.851L205.392,-250.855L205.032,-249.859L204.681,-248.863L204.345,-247.867L204.034,-246.872L203.75,-245.876L203.489,-244.88L203.246,-243.884L203.018,-242.888L202.809,-241.892L202.622,-240.897L202.46,-239.901L202.324,-238.905L202.209,-237.909L202.113,-236.913L202.031,-235.917L201.965,-234.922L201.913,-233.926L201.875,-232.93Z" style="fill:rgb(128,128,128);fill-rule:nonzero;stroke:rgb(128,128,128);stroke-width:0.97px;stroke-linecap:butt;stroke-linejoin:round;stroke-miterlimit:1.41421;"/>
                    </g>
                    <g id="paired-mean-diff" serif:id="paired mean diff" transform="matrix(1,0,0,1,201.797,188.545)">
                        <path d="M0,5C1.326,5 2.598,4.473 3.536,3.536C4.473,2.598 5,1.326 5,0C5,-1.326 4.473,-2.598 3.536,-3.536C2.598,-4.473 1.326,-5 0,-5C-1.326,-5 -2.598,-4.473 -3.536,-3.536C-4.473,-2.598 -5,-1.326 -5,0C-5,1.326 -4.473,2.598 -3.536,3.536C-2.598,4.473 -1.326,5 0,5Z" style="fill:white;fill-rule:nonzero;stroke:white;stroke-width:1px;stroke-linecap:butt;"/>
                    </g>
                    <path id="_95CI" serif:id="95CI" d="M201.797,216.815L201.797,157.482" style="fill:white;fill-rule:nonzero;stroke:white;stroke-width:3px;stroke-linecap:round;"/>
                </g>
                <g id="text_21" serif:id="text_2" transform="matrix(1,-1.11022e-16,0,1,182.546,402.563)">
                    <path d="M9.604,-3.822L3.359,-3.822L1.897,0L0.143,0L5.51,-13.784L7.494,-13.784L12.841,0L11.066,0L9.604,-3.822ZM8.998,-5.388L7.139,-10.275L6.492,-12.197L6.45,-12.197L5.845,-10.338L3.965,-5.388L8.998,-5.388Z" style="fill:white;fill-rule:nonzero;"/>
                    <path d="M17.331,-10.442L20.819,-10.442L20.819,-9.001L17.331,-9.001L17.331,0L15.66,0L15.66,-9.001L13.572,-9.001L13.572,-10.442L15.66,-10.442L15.66,-12.197C15.66,-13.157 15.953,-13.923 16.538,-14.494C17.122,-15.065 17.972,-15.35 19.086,-15.35C19.461,-15.35 19.806,-15.309 20.119,-15.225C20.433,-15.142 20.68,-15.023 20.861,-14.87L20.422,-13.512C20.088,-13.721 19.691,-13.826 19.232,-13.826C17.965,-13.826 17.331,-13.227 17.331,-12.03L17.331,-10.442Z" style="fill:white;fill-rule:nonzero;"/>
                    <path d="M28.4,-0.731C27.704,-0.104 26.806,0.209 25.706,0.209C24.857,0.209 24.164,-0.021 23.628,-0.48C23.092,-0.94 22.817,-1.643 22.803,-2.59L22.803,-9.001L20.715,-9.001L20.715,-10.442L22.803,-10.442L22.803,-12.949L24.474,-13.408L24.474,-10.442L28.338,-10.442L28.338,-9.001L24.474,-9.001L24.474,-2.882C24.474,-2.381 24.617,-2.001 24.902,-1.744C25.187,-1.486 25.567,-1.358 26.04,-1.358C26.709,-1.358 27.3,-1.615 27.815,-2.13L28.4,-0.731Z" style="fill:white;fill-rule:nonzero;"/>
                    <path d="M39.72,-5.764C39.72,-5.374 39.692,-4.985 39.636,-4.595L31.763,-4.595C31.86,-3.537 32.212,-2.715 32.817,-2.13C33.423,-1.545 34.206,-1.253 35.167,-1.253C35.933,-1.253 36.57,-1.385 37.078,-1.65C37.586,-1.914 37.931,-2.297 38.112,-2.799L39.511,-2.068C39.093,-1.33 38.536,-0.766 37.84,-0.376C37.144,0.014 36.253,0.209 35.167,0.209C33.594,0.209 32.358,-0.272 31.46,-1.232C30.562,-2.193 30.113,-3.523 30.113,-5.221C30.113,-6.92 30.541,-8.25 31.397,-9.21C32.253,-10.171 33.468,-10.651 35.042,-10.651C36.016,-10.651 36.859,-10.435 37.569,-10.004C38.279,-9.572 38.815,-8.987 39.177,-8.25C39.539,-7.512 39.72,-6.683 39.72,-5.764ZM35.042,-9.189C34.123,-9.189 33.381,-8.918 32.817,-8.375C32.253,-7.832 31.909,-7.066 31.784,-6.077L38.112,-6.077C38,-7.052 37.68,-7.814 37.151,-8.364C36.622,-8.914 35.919,-9.189 35.042,-9.189Z" style="fill:white;fill-rule:nonzero;"/>
                    <path d="M47.823,-10.651C48.324,-10.651 48.707,-10.582 48.972,-10.442L48.638,-8.813C48.303,-8.994 47.865,-9.085 47.322,-9.085C46.876,-9.085 46.441,-8.956 46.017,-8.699C45.592,-8.441 45.244,-8.051 44.972,-7.529C44.701,-7.007 44.565,-6.377 44.565,-5.639L44.565,0L42.894,0L42.894,-10.442L44.252,-10.442L44.482,-8.73C45.066,-10.011 46.18,-10.651 47.823,-10.651Z" style="fill:white;fill-rule:nonzero;"/>
                    <path d="M-29.409,10.234C-28.713,10.234 -28.062,10.376 -27.456,10.662C-26.851,10.947 -26.36,11.389 -25.984,11.988C-25.608,12.587 -25.42,13.325 -25.42,14.202L-25.42,20.885L-27.091,20.885L-27.091,14.369C-27.091,13.464 -27.317,12.792 -27.77,12.353C-28.222,11.915 -28.817,11.696 -29.555,11.696C-30.112,11.696 -30.624,11.831 -31.09,12.103C-31.557,12.374 -31.933,12.771 -32.218,13.293C-32.504,13.815 -32.646,14.438 -32.646,15.162L-32.646,20.885L-34.317,20.885L-34.317,14.369C-34.317,13.464 -34.543,12.792 -34.996,12.353C-35.448,11.915 -36.043,11.696 -36.781,11.696C-37.283,11.696 -37.77,11.824 -38.243,12.082C-38.717,12.339 -39.107,12.74 -39.413,13.283C-39.719,13.826 -39.872,14.501 -39.872,15.309L-39.872,20.885L-41.543,20.885L-41.543,10.442L-40.081,10.442L-39.977,12.071C-39.615,11.459 -39.138,10.999 -38.546,10.693C-37.954,10.387 -37.317,10.234 -36.635,10.234C-35.869,10.234 -35.163,10.408 -34.515,10.756C-33.868,11.104 -33.377,11.612 -33.043,12.28C-32.737,11.612 -32.235,11.104 -31.539,10.756C-30.843,10.408 -30.133,10.234 -29.409,10.234Z" style="fill:white;fill-rule:nonzero;"/>
                    <path d="M-20.805,8.437C-21.18,8.437 -21.483,8.323 -21.713,8.093C-21.943,7.863 -22.058,7.56 -22.058,7.184C-22.058,6.808 -21.943,6.506 -21.713,6.276C-21.483,6.046 -21.18,5.931 -20.805,5.931C-20.429,5.931 -20.126,6.046 -19.896,6.276C-19.666,6.506 -19.551,6.808 -19.551,7.184C-19.551,7.56 -19.666,7.863 -19.896,8.093C-20.126,8.323 -20.429,8.437 -20.805,8.437ZM-19.969,20.885L-21.64,20.885L-21.64,10.442L-19.969,10.442L-19.969,20.885Z" style="fill:white;fill-rule:nonzero;"/>
                    <path d="M-11.01,10.234C-9.826,10.234 -8.851,10.575 -8.086,11.257C-7.32,11.939 -6.937,12.921 -6.937,14.202L-6.937,20.885L-8.608,20.885L-8.608,14.786C-8.608,13.7 -8.841,12.914 -9.307,12.426C-9.774,11.939 -10.397,11.696 -11.177,11.696C-11.734,11.696 -12.256,11.817 -12.743,12.061C-13.23,12.305 -13.631,12.701 -13.944,13.251C-14.257,13.801 -14.414,14.494 -14.414,15.329L-14.414,20.885L-16.085,20.885L-16.085,10.442L-14.623,10.442L-14.518,12.071C-14.17,11.445 -13.69,10.982 -13.077,10.683C-12.464,10.383 -11.775,10.234 -11.01,10.234Z" style="fill:white;fill-rule:nonzero;"/>
                    <path d="M5.886,10.442L5.886,20.885L4.424,20.885L4.32,19.298C3.624,20.495 2.378,21.094 0.582,21.094C-0.546,21.094 -1.469,20.78 -2.186,20.154C-2.903,19.527 -3.261,18.567 -3.261,17.272L-3.261,10.442L-1.59,10.442L-1.59,16.833C-1.59,17.85 -1.382,18.57 -0.964,18.995C-0.546,19.419 0.066,19.632 0.874,19.632C1.835,19.632 2.632,19.339 3.265,18.755C3.899,18.17 4.216,17.293 4.216,16.123L4.216,10.442L5.886,10.442Z" style="fill:white;fill-rule:nonzero;"/>
                    <path d="M13.321,21.094C12.319,21.094 11.414,20.895 10.606,20.498C9.799,20.102 9.207,19.513 8.831,18.734L10.189,17.794C10.425,18.407 10.836,18.866 11.421,19.172C12.006,19.479 12.695,19.632 13.488,19.632C14.31,19.632 14.936,19.486 15.368,19.193C15.8,18.901 16.015,18.532 16.015,18.086C16.015,17.683 15.814,17.359 15.41,17.115C15.006,16.871 14.296,16.659 13.28,16.478C12.277,16.297 11.483,16.078 10.899,15.82C10.314,15.563 9.889,15.235 9.625,14.839C9.36,14.442 9.228,13.951 9.228,13.366C9.228,12.795 9.395,12.273 9.729,11.8C10.063,11.327 10.544,10.947 11.17,10.662C11.797,10.376 12.521,10.234 13.342,10.234C14.456,10.234 15.351,10.439 16.026,10.85C16.701,11.26 17.185,11.89 17.477,12.74L16.057,13.575C15.834,12.907 15.497,12.426 15.044,12.134C14.592,11.842 14.024,11.696 13.342,11.696C12.66,11.696 12.082,11.849 11.609,12.155C11.135,12.461 10.899,12.816 10.899,13.22C10.899,13.68 11.104,14.035 11.515,14.285C11.926,14.536 12.66,14.752 13.718,14.933C15.166,15.169 16.19,15.524 16.788,15.998C17.387,16.471 17.686,17.139 17.686,18.003C17.686,18.601 17.509,19.134 17.154,19.6C16.799,20.067 16.29,20.432 15.629,20.697C14.968,20.961 14.198,21.094 13.321,21.094Z" style="fill:white;fill-rule:nonzero;"/>
                    <path d="M28.212,7.101L33.12,7.101C34.707,7.101 35.887,7.432 36.66,8.093C37.433,8.754 37.819,9.691 37.819,10.902C37.819,11.626 37.614,12.266 37.203,12.823C36.792,13.38 36.225,13.728 35.501,13.868L35.501,13.888C36.309,14.042 36.956,14.411 37.443,14.995C37.931,15.58 38.174,16.255 38.174,17.021C38.174,18.205 37.729,19.144 36.838,19.841C35.947,20.537 34.7,20.885 33.099,20.885L28.212,20.885L28.212,7.101ZM33.141,13.157C34.13,13.157 34.864,12.973 35.344,12.604C35.825,12.235 36.065,11.668 36.065,10.902C36.065,9.412 35.09,8.667 33.141,8.667L29.883,8.667L29.883,13.157L33.141,13.157ZM33.496,19.318C34.471,19.318 35.202,19.12 35.689,18.723C36.176,18.326 36.42,17.759 36.42,17.021C36.42,16.283 36.176,15.716 35.689,15.319C35.202,14.922 34.471,14.724 33.496,14.724L29.883,14.724L29.883,19.318L33.496,19.318Z" style="fill:white;fill-rule:nonzero;"/>
                    <path d="M50.496,15.121C50.496,15.51 50.469,15.9 50.413,16.29L42.539,16.29C42.637,17.348 42.988,18.17 43.594,18.755C44.2,19.339 44.983,19.632 45.943,19.632C46.709,19.632 47.346,19.499 47.854,19.235C48.363,18.97 48.707,18.588 48.888,18.086L50.288,18.817C49.87,19.555 49.313,20.119 48.617,20.509C47.921,20.899 47.029,21.094 45.943,21.094C44.37,21.094 43.134,20.613 42.236,19.653C41.338,18.692 40.889,17.362 40.889,15.664C40.889,13.965 41.317,12.635 42.174,11.675C43.03,10.714 44.245,10.234 45.818,10.234C46.793,10.234 47.635,10.449 48.345,10.881C49.055,11.313 49.591,11.897 49.953,12.635C50.315,13.373 50.496,14.202 50.496,15.121ZM45.818,11.696C44.899,11.696 44.158,11.967 43.594,12.51C43.03,13.053 42.685,13.819 42.56,14.807L48.888,14.807C48.777,13.833 48.457,13.07 47.928,12.52C47.398,11.97 46.695,11.696 45.818,11.696Z" style="fill:white;fill-rule:nonzero;"/>
                    <path d="M56.052,10.442L59.54,10.442L59.54,11.883L56.052,11.883L56.052,20.885L54.381,20.885L54.381,11.883L52.292,11.883L52.292,10.442L54.381,10.442L54.381,8.688C54.381,7.727 54.673,6.962 55.258,6.391C55.843,5.82 56.692,5.534 57.806,5.534C58.182,5.534 58.527,5.576 58.84,5.66C59.153,5.743 59.4,5.862 59.581,6.015L59.143,7.372C58.809,7.164 58.412,7.059 57.952,7.059C56.685,7.059 56.052,7.658 56.052,8.855L56.052,10.442Z" style="fill:white;fill-rule:nonzero;"/>
                    <path d="M65.888,10.234C67.462,10.234 68.698,10.714 69.596,11.675C70.494,12.635 70.943,13.965 70.943,15.664C70.943,17.362 70.494,18.692 69.596,19.653C68.698,20.613 67.462,21.094 65.888,21.094C64.315,21.094 63.079,20.613 62.181,19.653C61.283,18.692 60.834,17.362 60.834,15.664C60.834,13.965 61.283,12.635 62.181,11.675C63.079,10.714 64.315,10.234 65.888,10.234ZM65.888,11.675C64.83,11.675 64.002,12.03 63.403,12.74C62.805,13.45 62.505,14.424 62.505,15.664C62.505,16.903 62.805,17.877 63.403,18.588C64.002,19.298 64.83,19.653 65.888,19.653C66.947,19.653 67.775,19.298 68.374,18.588C68.972,17.877 69.272,16.903 69.272,15.664C69.272,14.424 68.972,13.45 68.374,12.74C67.775,12.03 66.947,11.675 65.888,11.675Z" style="fill:white;fill-rule:nonzero;"/>
                    <path d="M79.109,10.234C79.61,10.234 79.993,10.303 80.257,10.442L79.923,12.071C79.589,11.89 79.15,11.8 78.607,11.8C78.162,11.8 77.727,11.929 77.302,12.186C76.877,12.444 76.529,12.834 76.258,13.356C75.986,13.878 75.851,14.508 75.851,15.246L75.851,20.885L74.18,20.885L74.18,10.442L75.537,10.442L75.767,12.155C76.352,10.874 77.466,10.234 79.109,10.234Z" style="fill:white;fill-rule:nonzero;"/>
                    <path d="M91.326,15.121C91.326,15.51 91.298,15.9 91.243,16.29L83.369,16.29C83.467,17.348 83.818,18.17 84.424,18.755C85.029,19.339 85.813,19.632 86.773,19.632C87.539,19.632 88.176,19.499 88.684,19.235C89.193,18.97 89.537,18.588 89.718,18.086L91.117,18.817C90.7,19.555 90.143,20.119 89.447,20.509C88.75,20.899 87.859,21.094 86.773,21.094C85.2,21.094 83.964,20.613 83.066,19.653C82.168,18.692 81.719,17.362 81.719,15.664C81.719,13.965 82.147,12.635 83.004,11.675C83.86,10.714 85.075,10.234 86.648,10.234C87.623,10.234 88.465,10.449 89.175,10.881C89.885,11.313 90.421,11.897 90.783,12.635C91.145,13.373 91.326,14.202 91.326,15.121ZM86.648,11.696C85.729,11.696 84.988,11.967 84.424,12.51C83.86,13.053 83.515,13.819 83.39,14.807L89.718,14.807C89.607,13.833 89.286,13.07 88.757,12.52C88.228,11.97 87.525,11.696 86.648,11.696Z" style="fill:white;fill-rule:nonzero;"/>
                </g>
                <g transform="matrix(7.30759e-17,-1.19342,1.19342,7.30759e-17,116.268,636.741)">
                    <path d="M238.62,147.816C239.731,147.816 240.625,148.119 241.303,148.724C241.981,149.33 242.32,150.144 242.32,151.166C242.32,152.188 241.981,153.002 241.303,153.608C240.625,154.213 239.731,154.516 238.62,154.516L236.07,154.516L236.07,158.816L234.736,158.816L234.736,147.816L238.62,147.816ZM238.42,153.266C239.275,153.266 239.906,153.091 240.311,152.741C240.717,152.391 240.92,151.866 240.92,151.166C240.92,150.466 240.717,149.941 240.311,149.591C239.906,149.241 239.275,149.066 238.42,149.066L236.07,149.066L236.07,153.266L238.42,153.266Z" style="fill:white;fill-rule:nonzero;"/>
                    <path d="M251.486,157.849C251.709,157.849 251.931,157.822 252.153,157.766L252.07,158.816C251.759,158.927 251.425,158.983 251.07,158.983C250.636,158.983 250.295,158.888 250.045,158.699C249.795,158.511 249.636,158.194 249.57,157.749C249.314,158.138 248.939,158.441 248.445,158.658C247.95,158.874 247.431,158.983 246.886,158.983C246.064,158.983 245.386,158.791 244.853,158.408C244.32,158.024 244.053,157.472 244.053,156.749C244.053,156.116 244.331,155.569 244.886,155.108C245.442,154.647 246.248,154.327 247.303,154.149L249.52,153.783L249.52,153.316C249.52,152.761 249.348,152.316 249.003,151.983C248.659,151.649 248.181,151.483 247.57,151.483C247.014,151.483 246.534,151.616 246.128,151.883C245.723,152.149 245.409,152.544 245.186,153.066L244.203,152.349C244.425,151.727 244.839,151.233 245.445,150.866C246.05,150.499 246.759,150.316 247.57,150.316C248.559,150.316 249.353,150.555 249.953,151.033C250.553,151.511 250.853,152.216 250.853,153.149L250.853,157.249C250.853,157.449 250.903,157.599 251.003,157.699C251.103,157.799 251.264,157.849 251.486,157.849ZM246.953,157.816C247.653,157.816 248.256,157.649 248.761,157.316C249.267,156.983 249.52,156.549 249.52,156.016L249.52,154.866L247.653,155.216C246.909,155.349 246.353,155.541 245.986,155.791C245.62,156.041 245.436,156.361 245.436,156.749C245.436,157.094 245.57,157.358 245.836,157.541C246.103,157.724 246.475,157.816 246.953,157.816Z" style="fill:white;fill-rule:nonzero;"/>
                    <path d="M254.753,148.883C254.453,148.883 254.211,148.791 254.028,148.608C253.845,148.424 253.753,148.183 253.753,147.883C253.753,147.583 253.845,147.341 254.028,147.158C254.211,146.974 254.453,146.883 254.753,146.883C255.053,146.883 255.295,146.974 255.478,147.158C255.661,147.341 255.753,147.583 255.753,147.883C255.753,148.183 255.661,148.424 255.478,148.608C255.295,148.791 255.053,148.883 254.753,148.883ZM255.42,158.816L254.086,158.816L254.086,150.483L255.42,150.483L255.42,158.816Z" style="fill:white;fill-rule:nonzero;"/>
                    <path d="M262.453,150.316C262.853,150.316 263.159,150.372 263.37,150.483L263.103,151.783C262.836,151.638 262.486,151.566 262.053,151.566C261.698,151.566 261.35,151.669 261.011,151.874C260.673,152.08 260.395,152.391 260.178,152.808C259.961,153.224 259.853,153.727 259.853,154.316L259.853,158.816L258.52,158.816L258.52,150.483L259.603,150.483L259.786,151.849C260.253,150.827 261.142,150.316 262.453,150.316Z" style="fill:white;fill-rule:nonzero;"/>
                    <path d="M272.203,154.216C272.203,154.527 272.181,154.838 272.136,155.149L265.853,155.149C265.931,155.994 266.211,156.649 266.695,157.116C267.178,157.583 267.803,157.816 268.57,157.816C269.181,157.816 269.689,157.711 270.095,157.499C270.5,157.288 270.775,156.983 270.92,156.583L272.036,157.166C271.703,157.755 271.259,158.205 270.703,158.516C270.148,158.827 269.436,158.983 268.57,158.983C267.314,158.983 266.328,158.599 265.611,157.833C264.895,157.066 264.536,156.005 264.536,154.649C264.536,153.294 264.878,152.233 265.561,151.466C266.245,150.699 267.214,150.316 268.47,150.316C269.248,150.316 269.92,150.488 270.486,150.833C271.053,151.177 271.481,151.644 271.77,152.233C272.059,152.822 272.203,153.483 272.203,154.216ZM268.47,151.483C267.736,151.483 267.145,151.699 266.695,152.133C266.245,152.566 265.97,153.177 265.87,153.966L270.92,153.966C270.831,153.188 270.575,152.58 270.153,152.141C269.731,151.702 269.17,151.483 268.47,151.483Z" style="fill:white;fill-rule:nonzero;"/>
                    <path d="M282.136,146.649L282.136,158.816L280.97,158.816L280.886,157.366C280.642,157.855 280.267,158.247 279.761,158.541C279.256,158.836 278.681,158.983 278.036,158.983C276.87,158.983 275.945,158.597 275.261,157.824C274.578,157.052 274.236,155.994 274.236,154.649C274.236,153.305 274.578,152.247 275.261,151.474C275.945,150.702 276.87,150.316 278.036,150.316C278.648,150.316 279.195,150.449 279.678,150.716C280.161,150.983 280.536,151.338 280.803,151.783L280.803,146.649L282.136,146.649ZM278.186,157.816C278.986,157.816 279.623,157.538 280.095,156.983C280.567,156.427 280.803,155.683 280.803,154.749L280.803,154.549C280.803,153.616 280.567,152.872 280.095,152.316C279.623,151.761 278.986,151.483 278.186,151.483C277.375,151.483 276.736,151.769 276.27,152.341C275.803,152.913 275.57,153.683 275.57,154.649C275.57,155.616 275.803,156.386 276.27,156.958C276.736,157.53 277.375,157.816 278.186,157.816Z" style="fill:white;fill-rule:nonzero;"/>
                    <path d="M301.803,158.816L300.536,158.816L300.536,151.899L300.686,148.999L300.67,148.999L297.053,158.816L295.92,158.816L292.303,148.999L292.286,148.999L292.436,151.899L292.436,158.816L291.17,158.816L291.17,147.816L293.22,147.816L295.636,154.499L296.47,157.249L296.503,157.249L297.353,154.516L299.753,147.816L301.803,147.816L301.803,158.816Z" style="fill:white;fill-rule:nonzero;"/>
                    <path d="M312.153,154.216C312.153,154.527 312.131,154.838 312.086,155.149L305.803,155.149C305.881,155.994 306.161,156.649 306.645,157.116C307.128,157.583 307.753,157.816 308.52,157.816C309.131,157.816 309.639,157.711 310.045,157.499C310.45,157.288 310.725,156.983 310.87,156.583L311.986,157.166C311.653,157.755 311.209,158.205 310.653,158.516C310.098,158.827 309.386,158.983 308.52,158.983C307.264,158.983 306.278,158.599 305.561,157.833C304.845,157.066 304.486,156.005 304.486,154.649C304.486,153.294 304.828,152.233 305.511,151.466C306.195,150.699 307.164,150.316 308.42,150.316C309.198,150.316 309.87,150.488 310.436,150.833C311.003,151.177 311.431,151.644 311.72,152.233C312.009,152.822 312.153,153.483 312.153,154.216ZM308.42,151.483C307.686,151.483 307.095,151.699 306.645,152.133C306.195,152.566 305.92,153.177 305.82,153.966L310.87,153.966C310.781,153.188 310.525,152.58 310.103,152.141C309.681,151.702 309.12,151.483 308.42,151.483Z" style="fill:white;fill-rule:nonzero;"/>
                    <path d="M321.52,157.849C321.742,157.849 321.964,157.822 322.186,157.766L322.103,158.816C321.792,158.927 321.459,158.983 321.103,158.983C320.67,158.983 320.328,158.888 320.078,158.699C319.828,158.511 319.67,158.194 319.603,157.749C319.348,158.138 318.973,158.441 318.478,158.658C317.984,158.874 317.464,158.983 316.92,158.983C316.098,158.983 315.42,158.791 314.886,158.408C314.353,158.024 314.086,157.472 314.086,156.749C314.086,156.116 314.364,155.569 314.92,155.108C315.475,154.647 316.281,154.327 317.336,154.149L319.553,153.783L319.553,153.316C319.553,152.761 319.381,152.316 319.036,151.983C318.692,151.649 318.214,151.483 317.603,151.483C317.048,151.483 316.567,151.616 316.161,151.883C315.756,152.149 315.442,152.544 315.22,153.066L314.236,152.349C314.459,151.727 314.873,151.233 315.478,150.866C316.084,150.499 316.792,150.316 317.603,150.316C318.592,150.316 319.386,150.555 319.986,151.033C320.586,151.511 320.886,152.216 320.886,153.149L320.886,157.249C320.886,157.449 320.936,157.599 321.036,157.699C321.136,157.799 321.298,157.849 321.52,157.849ZM316.986,157.816C317.686,157.816 318.289,157.649 318.795,157.316C319.3,156.983 319.553,156.549 319.553,156.016L319.553,154.866L317.686,155.216C316.942,155.349 316.386,155.541 316.02,155.791C315.653,156.041 315.47,156.361 315.47,156.749C315.47,157.094 315.603,157.358 315.87,157.541C316.136,157.724 316.509,157.816 316.986,157.816Z" style="fill:white;fill-rule:nonzero;"/>
                    <path d="M328.17,150.316C329.114,150.316 329.892,150.588 330.503,151.133C331.114,151.677 331.42,152.461 331.42,153.483L331.42,158.816L330.086,158.816L330.086,153.949C330.086,153.083 329.9,152.455 329.528,152.066C329.156,151.677 328.659,151.483 328.036,151.483C327.592,151.483 327.175,151.58 326.786,151.774C326.398,151.969 326.078,152.286 325.828,152.724C325.578,153.163 325.453,153.716 325.453,154.383L325.453,158.816L324.12,158.816L324.12,150.483L325.286,150.483L325.37,151.783C325.648,151.283 326.031,150.913 326.52,150.674C327.009,150.436 327.559,150.316 328.17,150.316Z" style="fill:white;fill-rule:nonzero;"/>
                    <path d="M343.92,147.816C345.653,147.816 347.009,148.294 347.986,149.249C348.964,150.205 349.453,151.561 349.453,153.316C349.453,155.072 348.964,156.427 347.986,157.383C347.009,158.338 345.653,158.816 343.92,158.816L340.37,158.816L340.37,147.816L343.92,147.816ZM344.053,157.566C345.309,157.566 346.289,157.191 346.995,156.441C347.7,155.691 348.053,154.649 348.053,153.316C348.053,151.983 347.7,150.941 346.995,150.191C346.289,149.441 345.309,149.066 344.053,149.066L341.703,149.066L341.703,157.566L344.053,157.566Z" style="fill:white;fill-rule:nonzero;"/>
                    <path d="M352.72,148.883C352.42,148.883 352.178,148.791 351.995,148.608C351.811,148.424 351.72,148.183 351.72,147.883C351.72,147.583 351.811,147.341 351.995,147.158C352.178,146.974 352.42,146.883 352.72,146.883C353.02,146.883 353.261,146.974 353.445,147.158C353.628,147.341 353.72,147.583 353.72,147.883C353.72,148.183 353.628,148.424 353.445,148.608C353.261,148.791 353.02,148.883 352.72,148.883ZM353.386,158.816L352.053,158.816L352.053,150.483L353.386,150.483L353.386,158.816Z" style="fill:white;fill-rule:nonzero;"/>
                    <path d="M358.47,150.483L361.253,150.483L361.253,151.633L358.47,151.633L358.47,158.816L357.136,158.816L357.136,151.633L355.47,151.633L355.47,150.483L357.136,150.483L357.136,149.083C357.136,148.316 357.37,147.705 357.836,147.249C358.303,146.794 358.981,146.566 359.87,146.566C360.17,146.566 360.445,146.599 360.695,146.666C360.945,146.733 361.142,146.827 361.286,146.949L360.936,148.033C360.67,147.866 360.353,147.783 359.986,147.783C358.975,147.783 358.47,148.261 358.47,149.216L358.47,150.483Z" style="fill:white;fill-rule:nonzero;"/>
                    <path d="M363.853,150.483L366.636,150.483L366.636,151.633L363.853,151.633L363.853,158.816L362.52,158.816L362.52,151.633L360.853,151.633L360.853,150.483L362.52,150.483L362.52,149.083C362.52,148.316 362.753,147.705 363.22,147.249C363.686,146.794 364.364,146.566 365.253,146.566C365.553,146.566 365.828,146.599 366.078,146.666C366.328,146.733 366.525,146.827 366.67,146.949L366.32,148.033C366.053,147.866 365.736,147.783 365.37,147.783C364.359,147.783 363.853,148.261 363.853,149.216L363.853,150.483Z" style="fill:white;fill-rule:nonzero;"/>
                    <path d="M375.336,154.216C375.336,154.527 375.314,154.838 375.27,155.149L368.986,155.149C369.064,155.994 369.345,156.649 369.828,157.116C370.311,157.583 370.936,157.816 371.703,157.816C372.314,157.816 372.823,157.711 373.228,157.499C373.634,157.288 373.909,156.983 374.053,156.583L375.17,157.166C374.836,157.755 374.392,158.205 373.836,158.516C373.281,158.827 372.57,158.983 371.703,158.983C370.448,158.983 369.461,158.599 368.745,157.833C368.028,157.066 367.67,156.005 367.67,154.649C367.67,153.294 368.011,152.233 368.695,151.466C369.378,150.699 370.348,150.316 371.603,150.316C372.381,150.316 373.053,150.488 373.62,150.833C374.186,151.177 374.614,151.644 374.903,152.233C375.192,152.822 375.336,153.483 375.336,154.216ZM371.603,151.483C370.87,151.483 370.278,151.699 369.828,152.133C369.378,152.566 369.103,153.177 369.003,153.966L374.053,153.966C373.964,153.188 373.709,152.58 373.286,152.141C372.864,151.702 372.303,151.483 371.603,151.483Z" style="fill:white;fill-rule:nonzero;"/>
                    <path d="M381.803,150.316C382.203,150.316 382.509,150.372 382.72,150.483L382.453,151.783C382.186,151.638 381.836,151.566 381.403,151.566C381.048,151.566 380.7,151.669 380.361,151.874C380.023,152.08 379.745,152.391 379.528,152.808C379.311,153.224 379.203,153.727 379.203,154.316L379.203,158.816L377.87,158.816L377.87,150.483L378.953,150.483L379.136,151.849C379.603,150.827 380.492,150.316 381.803,150.316Z" style="fill:white;fill-rule:nonzero;"/>
                    <path d="M391.553,154.216C391.553,154.527 391.531,154.838 391.486,155.149L385.203,155.149C385.281,155.994 385.561,156.649 386.045,157.116C386.528,157.583 387.153,157.816 387.92,157.816C388.531,157.816 389.039,157.711 389.445,157.499C389.85,157.288 390.125,156.983 390.27,156.583L391.386,157.166C391.053,157.755 390.609,158.205 390.053,158.516C389.498,158.827 388.786,158.983 387.92,158.983C386.664,158.983 385.678,158.599 384.961,157.833C384.245,157.066 383.886,156.005 383.886,154.649C383.886,153.294 384.228,152.233 384.911,151.466C385.595,150.699 386.564,150.316 387.82,150.316C388.598,150.316 389.27,150.488 389.836,150.833C390.403,151.177 390.831,151.644 391.12,152.233C391.409,152.822 391.553,153.483 391.553,154.216ZM387.82,151.483C387.086,151.483 386.495,151.699 386.045,152.133C385.595,152.566 385.32,153.177 385.22,153.966L390.27,153.966C390.181,153.188 389.925,152.58 389.503,152.141C389.081,151.702 388.52,151.483 387.82,151.483Z" style="fill:white;fill-rule:nonzero;"/>
                    <path d="M398.136,150.316C399.081,150.316 399.859,150.588 400.47,151.133C401.081,151.677 401.386,152.461 401.386,153.483L401.386,158.816L400.053,158.816L400.053,153.949C400.053,153.083 399.867,152.455 399.495,152.066C399.123,151.677 398.625,151.483 398.003,151.483C397.559,151.483 397.142,151.58 396.753,151.774C396.364,151.969 396.045,152.286 395.795,152.724C395.545,153.163 395.42,153.716 395.42,154.383L395.42,158.816L394.086,158.816L394.086,150.483L395.253,150.483L395.336,151.783C395.614,151.283 395.998,150.913 396.486,150.674C396.975,150.436 397.525,150.316 398.136,150.316Z" style="fill:white;fill-rule:nonzero;"/>
                    <path d="M407.92,150.316C408.753,150.316 409.456,150.508 410.028,150.891C410.6,151.274 411.048,151.822 411.37,152.533L410.103,153.133C409.748,152.033 409.009,151.483 407.886,151.483C407.053,151.483 406.4,151.763 405.928,152.324C405.456,152.886 405.22,153.661 405.22,154.649C405.22,155.638 405.456,156.413 405.928,156.974C406.4,157.536 407.053,157.816 407.886,157.816C408.531,157.816 409.05,157.669 409.445,157.374C409.839,157.08 410.098,156.655 410.22,156.099L411.453,156.533C411.164,157.311 410.72,157.913 410.12,158.341C409.52,158.769 408.786,158.983 407.92,158.983C406.664,158.983 405.678,158.599 404.961,157.833C404.245,157.066 403.886,156.005 403.886,154.649C403.886,153.294 404.245,152.233 404.961,151.466C405.678,150.699 406.664,150.316 407.92,150.316Z" style="fill:white;fill-rule:nonzero;"/>
                    <path d="M420.953,154.216C420.953,154.527 420.931,154.838 420.886,155.149L414.603,155.149C414.681,155.994 414.961,156.649 415.445,157.116C415.928,157.583 416.553,157.816 417.32,157.816C417.931,157.816 418.439,157.711 418.845,157.499C419.25,157.288 419.525,156.983 419.67,156.583L420.786,157.166C420.453,157.755 420.009,158.205 419.453,158.516C418.898,158.827 418.186,158.983 417.32,158.983C416.064,158.983 415.078,158.599 414.361,157.833C413.645,157.066 413.286,156.005 413.286,154.649C413.286,153.294 413.628,152.233 414.311,151.466C414.995,150.699 415.964,150.316 417.22,150.316C417.998,150.316 418.67,150.488 419.236,150.833C419.803,151.177 420.231,151.644 420.52,152.233C420.809,152.822 420.953,153.483 420.953,154.216ZM417.22,151.483C416.486,151.483 415.895,151.699 415.445,152.133C414.995,152.566 414.72,153.177 414.62,153.966L419.67,153.966C419.581,153.188 419.325,152.58 418.903,152.141C418.481,151.702 417.92,151.483 417.22,151.483Z" style="fill:white;fill-rule:nonzero;"/>
                </g>
            </g>
            <g id="control-mean" serif:id="control mean" transform="matrix(1.84832,0,0,1,-116.221,5.32907e-15)">
                <path d="M90.197,119.348L238.997,119.348" style="fill:none;stroke:white;stroke-width:0.75px;stroke-linecap:butt;"/>
            </g>
            <g id="test-mean" serif:id="test mean" transform="matrix(2.68593,0,0,1,-316.542,-1.06581e-14)">
                <path d="M164.597,188.545L238.997,188.545" style="fill:none;stroke:white;stroke-width:0.75px;stroke-linecap:butt;"/>
            </g>
        </g>
    </g>
</svg>
