<?xml version="1.0" encoding="UTF-8" standalone="no"?>
<!DOCTYPE svg PUBLIC "-//W3C//DTD SVG 1.1//EN" "http://www.w3.org/Graphics/SVG/1.1/DTD/svg11.dtd">
<svg width="100%" height="100%" viewBox="0 0 12188 4317" version="1.1" xmlns="http://www.w3.org/2000/svg" xmlns:xlink="http://www.w3.org/1999/xlink" xml:space="preserve" xmlns:serif="http://www.serif.com/" style="fill-rule:evenodd;clip-rule:evenodd;">
    <g transform="matrix(4.16667,0,0,4.16667,0,0)">
        <g transform="matrix(4.16667,0,0,4.16667,0,0)">
            <rect x="0" y="-4.923" width="709.181" height="259.947" style="fill:rgb(20,36,46);"/>
            <g id="figure_1">
                <rect id="patch_1" x="0" y="0" width="702" height="248.428" style="fill:none;"/>
                <g id="axes_1">
                    <rect id="patch_2" x="16.2" y="32.968" width="669.6" height="163.08" style="fill:none;"/>
                    <g id="matplotlib.axis_1">
                        <g id="xtick_1">
                            <g id="mbd6c996217" transform="matrix(1,0,0,1,70.7456,197.048)">
                                <path d="M0,0L0,9" style="fill:rgb(38,38,38);fill-rule:nonzero;stroke:white;stroke-width:1.88px;"/>
                            </g>
                            <g id="text_1" transform="matrix(1,0,0,1,70.7456,234.669)">
                                <rect x="-18.101" y="-11.682" width="16.038" height="2.475" style="fill:white;"/>
                                <path d="M18.464,-5.709L14.602,-5.709L14.602,0L11.962,0L11.962,-5.709L1.336,-5.709L1.336,-7.656L11.27,-21.78L14.602,-21.78L14.602,-7.986L18.464,-7.986L18.464,-5.709ZM4.141,-7.986L11.962,-7.986L11.962,-16.137L12.094,-19.635L12.028,-19.635C11.478,-18.513 10.752,-17.303 9.85,-16.005L4.141,-7.986Z" style="fill:white;fill-rule:nonzero;"/>
                            </g>
                        </g>
                        <g id="xtick_2">
                            <g id="mbd6c9962171" serif:id="mbd6c996217" transform="matrix(1,0,0,1,210.818,197.048)">
                                <path d="M0,0L0,9" style="fill:rgb(38,38,38);fill-rule:nonzero;stroke:white;stroke-width:1.88px;"/>
                            </g>
                            <g id="text_2" transform="matrix(1,0,0,1,210.818,234.669)">
                                <rect x="-17.127" y="-11.682" width="16.038" height="2.475" style="fill:white;"/>
                                <path d="M2.277,-2.145C5.291,-4.367 7.601,-6.199 9.207,-7.64C10.813,-9.081 11.963,-10.39 12.656,-11.567C13.349,-12.744 13.695,-13.981 13.695,-15.279C13.695,-16.577 13.277,-17.628 12.441,-18.43C11.605,-19.234 10.483,-19.635 9.075,-19.635C7.601,-19.635 6.408,-19.151 5.495,-18.183C4.582,-17.215 4.048,-15.906 3.894,-14.256L1.584,-15.642C1.87,-17.6 2.668,-19.168 3.977,-20.345C5.286,-21.522 7.018,-22.11 9.174,-22.11C10.626,-22.11 11.908,-21.824 13.019,-21.252C14.13,-20.68 14.982,-19.877 15.576,-18.843C16.17,-17.809 16.467,-16.621 16.467,-15.279C16.467,-13.871 16.132,-12.518 15.461,-11.22C14.79,-9.922 13.695,-8.558 12.177,-7.128C10.659,-5.698 8.613,-4.125 6.039,-2.409L6.039,-2.376C7.491,-2.442 8.58,-2.475 9.306,-2.475L16.929,-2.475L16.929,0L2.277,0L2.277,-2.145Z" style="fill:white;fill-rule:nonzero;"/>
                            </g>
                        </g>
                        <g id="xtick_3">
                            <g id="mbd6c9962172" serif:id="mbd6c996217" transform="matrix(1,0,0,1,350.891,197.048)">
                                <path d="M0,0L0,9" style="fill:rgb(38,38,38);fill-rule:nonzero;stroke:white;stroke-width:1.88px;"/>
                            </g>
                            <g id="text_3" transform="matrix(1,0,0,1,350.891,234.669)">
                                <path d="M0,0.33C-2.64,0.33 -4.653,-0.627 -6.039,-2.541C-7.425,-4.455 -8.118,-7.238 -8.118,-10.89C-8.118,-14.542 -7.425,-17.325 -6.039,-19.239C-4.653,-21.153 -2.64,-22.11 0,-22.11C2.64,-22.11 4.653,-21.153 6.039,-19.239C7.425,-17.325 8.118,-14.542 8.118,-10.89C8.118,-7.238 7.425,-4.455 6.039,-2.541C4.653,-0.627 2.64,0.33 0,0.33ZM0,-2.046C1.738,-2.046 3.069,-2.8 3.993,-4.307C4.917,-5.814 5.379,-8.008 5.379,-10.89C5.379,-13.772 4.917,-15.967 3.993,-17.473C3.069,-18.981 1.738,-19.734 0,-19.734C-1.738,-19.734 -3.069,-18.981 -3.993,-17.473C-4.917,-15.967 -5.379,-13.772 -5.379,-10.89C-5.379,-8.008 -4.917,-5.814 -3.993,-4.307C-3.069,-2.8 -1.738,-2.046 0,-2.046Z" style="fill:white;fill-rule:nonzero;"/>
                            </g>
                        </g>
                        <g id="xtick_4">
                            <g id="mbd6c9962173" serif:id="mbd6c996217" transform="matrix(1,0,0,1,490.964,197.048)">
                                <path d="M0,0L0,9" style="fill:rgb(38,38,38);fill-rule:nonzero;stroke:white;stroke-width:1.88px;"/>
                            </g>
                            <g id="text_4" transform="matrix(1,0,0,1,490.964,234.669)">
                                <path d="M-7.177,-2.145C-4.163,-4.367 -1.853,-6.199 -0.247,-7.64C1.359,-9.081 2.508,-10.39 3.201,-11.567C3.894,-12.744 4.241,-13.981 4.241,-15.279C4.241,-16.577 3.823,-17.628 2.987,-18.43C2.151,-19.234 1.029,-19.635 -0.379,-19.635C-1.853,-19.635 -3.047,-19.151 -3.96,-18.183C-4.873,-17.215 -5.406,-15.906 -5.56,-14.256L-7.87,-15.642C-7.584,-17.6 -6.787,-19.168 -5.478,-20.345C-4.169,-21.522 -2.436,-22.11 -0.28,-22.11C1.172,-22.11 2.453,-21.824 3.564,-21.252C4.675,-20.68 5.528,-19.877 6.122,-18.843C6.716,-17.809 7.013,-16.621 7.013,-15.279C7.013,-13.871 6.677,-12.518 6.006,-11.22C5.335,-9.922 4.241,-8.558 2.723,-7.128C1.205,-5.698 -0.841,-4.125 -3.415,-2.409L-3.415,-2.376C-1.963,-2.442 -0.874,-2.475 -0.148,-2.475L7.475,-2.475L7.475,0L-7.177,0L-7.177,-2.145Z" style="fill:white;fill-rule:nonzero;"/>
                            </g>
                        </g>
                        <g id="xtick_5">
                            <g id="mbd6c9962174" serif:id="mbd6c996217" transform="matrix(1,0,0,1,631.037,197.048)">
                                <path d="M0,0L0,9" style="fill:rgb(38,38,38);fill-rule:nonzero;stroke:white;stroke-width:1.88px;"/>
                            </g>
                            <g id="text_5" transform="matrix(1,0,0,1,631.037,234.669)">
                                <path d="M8.498,-5.709L4.637,-5.709L4.637,0L1.996,0L1.996,-5.709L-8.63,-5.709L-8.63,-7.656L1.304,-21.78L4.637,-21.78L4.637,-7.986L8.498,-7.986L8.498,-5.709ZM-5.825,-7.986L1.996,-7.986L1.996,-16.137L2.128,-19.635L2.063,-19.635C1.512,-18.513 0.786,-17.303 -0.116,-16.005L-5.825,-7.986Z" style="fill:white;fill-rule:nonzero;"/>
                            </g>
                        </g>
                    </g>
                    <g id="m4c33dcf12f" transform="matrix(1,0,0,1,0,248.428)">
                        <path d="M46.636,-70.501L46.636,-70.5L655.364,-70.5L655.364,-70.501L650.571,-70.503L645.777,-70.508L640.984,-70.519L636.191,-70.536L631.398,-70.561L626.605,-70.59L621.812,-70.618L617.019,-70.641L612.225,-70.66L607.432,-70.682L602.639,-70.718L597.846,-70.779L593.053,-70.877L588.26,-71.01L583.467,-71.175L578.674,-71.372L573.88,-71.612L569.087,-71.919L564.294,-72.312L559.501,-72.792L554.708,-73.33L549.915,-73.887L545.122,-74.434L540.329,-74.973L535.535,-75.54L530.742,-76.198L525.949,-77.022L521.156,-78.099L516.363,-79.519L511.57,-81.351L506.777,-83.605L501.984,-86.205L497.19,-89.007L492.397,-91.881L487.604,-94.77L482.811,-97.694L478.018,-100.711L473.225,-103.88L468.432,-107.272L463.639,-110.978L458.845,-115.134L454.052,-119.918L449.259,-125.479L444.466,-131.787L439.673,-138.515L434.88,-145.11L430.087,-151.083L425.293,-156.299L420.5,-161.044L415.707,-165.81L410.914,-170.941L406.121,-176.386L401.328,-181.75L396.535,-186.611L391.742,-190.85L386.948,-194.701L382.155,-198.496L377.362,-202.338L372.569,-205.985L367.776,-209.01L362.983,-211.064L358.19,-212.066L353.397,-212.205L348.603,-211.79L343.81,-211.046L339.017,-210.003L334.224,-208.51L329.431,-206.375L324.638,-203.531L319.845,-200.11L315.052,-196.351L310.258,-192.405L305.465,-188.2L300.672,-183.502L295.879,-178.1L291.086,-171.947L286.293,-165.173L281.5,-158.019L276.707,-150.79L271.913,-143.843L267.12,-137.524L262.327,-132.039L257.534,-127.351L252.741,-123.19L247.948,-119.198L243.155,-115.1L238.361,-110.799L233.568,-106.371L228.775,-101.996L223.982,-97.874L219.189,-94.158L214.396,-90.925L209.603,-88.184L204.81,-85.901L200.016,-84.025L195.223,-82.489L190.43,-81.199L185.637,-80.052L180.844,-78.965L176.051,-77.908L171.258,-76.911L166.465,-76.023L161.671,-75.264L156.878,-74.598L152.085,-73.963L147.292,-73.316L142.499,-72.672L137.706,-72.088L132.913,-71.627L128.12,-71.323L123.326,-71.159L118.533,-71.086L113.74,-71.046L108.947,-71L104.154,-70.937L99.361,-70.865L94.568,-70.798L89.775,-70.74L84.981,-70.692L80.188,-70.647L75.395,-70.606L70.602,-70.569L65.809,-70.54L61.016,-70.52L56.223,-70.508L51.429,-70.503L46.636,-70.501Z" style="fill:rgb(26,158,120);fill-opacity:0.980392;fill-rule:nonzero;"/>
                    </g>
                    <path id="line2d_6" d="M46.636,177.927L75.395,177.822L118.533,177.341L128.12,177.105L132.913,176.8L137.706,176.34L147.292,175.112L161.671,173.164L166.465,172.405L176.051,170.519L185.637,168.376L190.43,167.229L195.223,165.939L200.016,164.402L204.81,162.527L209.603,160.244L214.396,157.502L219.189,154.27L223.982,150.554L228.775,146.432L243.155,133.327L257.534,121.077L262.327,116.388L267.12,110.904L271.913,104.584L276.707,97.638L286.293,83.254L291.086,76.481L295.879,70.327L300.672,64.925L305.465,60.228L310.258,56.023L315.052,52.076L319.845,48.317L324.638,44.896L329.431,42.053L334.224,39.918L339.017,38.425L343.81,37.382L348.603,36.638L353.397,36.222L358.19,36.362L362.983,37.363L367.776,39.417L372.569,42.442L377.362,46.09L391.742,57.578L396.535,61.817L401.328,66.678L415.707,82.618L425.293,92.129L430.087,97.344L434.88,103.318L449.259,122.949L454.052,128.51L458.845,133.294L463.639,137.45L468.432,141.156L473.225,144.547L478.018,147.717L487.604,153.658L501.984,162.223L506.777,164.822L511.57,167.077L516.363,168.909L521.156,170.328L525.949,171.405L530.742,172.23L540.329,173.455L564.294,176.115L573.88,176.816L583.467,177.252L597.846,177.648L617.019,177.787L655.364,177.927" style="fill:none;"/>
                    <path id="patch_3" d="M16.2,197.048L685.8,197.048" style="fill:none;stroke:white;stroke-width:1.88px;stroke-linecap:square;"/>
                    <g id="text_6" transform="matrix(1,0,0,1,490.964,32.9681)">
                        <path d="M11.052,-23.76L11.052,0L8.172,0L8.172,-17.424C8.172,-17.928 8.196,-18.852 8.244,-20.196C7.428,-19.404 6.48,-18.714 5.4,-18.126C4.32,-17.538 3.216,-17.112 2.088,-16.848L1.332,-19.476C1.908,-19.548 2.688,-19.818 3.672,-20.286C4.656,-20.754 5.604,-21.306 6.516,-21.942C7.428,-22.578 8.1,-23.184 8.532,-23.76L11.052,-23.76Z" style="fill:white;fill-rule:nonzero;"/>
                        <path d="M19.512,-4.32C20.208,-4.32 20.772,-4.104 21.204,-3.672C21.636,-3.24 21.852,-2.676 21.852,-1.98C21.852,-1.284 21.636,-0.72 21.204,-0.288C20.772,0.144 20.208,0.36 19.512,0.36C18.816,0.36 18.252,0.144 17.82,-0.288C17.388,-0.72 17.172,-1.284 17.172,-1.98C17.172,-2.676 17.388,-3.24 17.82,-3.672C18.252,-4.104 18.816,-4.32 19.512,-4.32Z" style="fill:white;fill-rule:nonzero;"/>
                        <path d="M34.992,-24.12C36.936,-24.12 38.598,-23.604 39.978,-22.572C41.358,-21.54 42.402,-20.106 43.11,-18.27C43.818,-16.434 44.172,-14.304 44.172,-11.88C44.172,-7.896 43.392,-4.86 41.832,-2.772C40.272,-0.684 38.004,0.36 35.028,0.36C32.892,0.36 31.158,-0.084 29.826,-0.972C28.494,-1.86 27.48,-3.204 26.784,-5.004L29.628,-6.516C30.06,-5.1 30.654,-4.05 31.41,-3.366C32.166,-2.682 33.36,-2.34 34.992,-2.34C37.368,-2.34 39.054,-3.24 40.05,-5.04C41.046,-6.84 41.544,-9.444 41.544,-12.852L41.544,-13.176L41.4,-13.176C41.064,-11.592 40.266,-10.452 39.006,-9.756C37.746,-9.06 36.336,-8.712 34.776,-8.712C32.376,-8.712 30.45,-9.408 28.998,-10.8C27.546,-12.192 26.82,-14.064 26.82,-16.416C26.82,-18.768 27.558,-20.64 29.034,-22.032C30.51,-23.424 32.496,-24.12 34.992,-24.12ZM35.028,-21.348C33.396,-21.348 32.124,-20.91 31.212,-20.034C30.3,-19.158 29.844,-17.94 29.844,-16.38C29.844,-14.868 30.3,-13.674 31.212,-12.798C32.124,-11.922 33.396,-11.484 35.028,-11.484C36.564,-11.484 37.812,-11.94 38.772,-12.852C39.732,-13.764 40.212,-14.94 40.212,-16.38C40.212,-17.868 39.738,-19.068 38.79,-19.98C37.842,-20.892 36.588,-21.348 35.028,-21.348Z" style="fill:white;fill-rule:nonzero;"/>
                        <path d="M58.572,-24.12C60.468,-24.12 62.016,-23.724 63.216,-22.932C64.416,-22.14 65.388,-20.868 66.132,-19.116L63.468,-17.856C62.7,-20.232 61.008,-21.42 58.392,-21.42C57.144,-21.42 56.034,-20.976 55.062,-20.088C54.09,-19.2 53.334,-17.988 52.794,-16.452C52.254,-14.916 51.984,-13.212 51.984,-11.34L51.984,-10.692L52.128,-10.692C52.488,-12.108 53.304,-13.188 54.576,-13.932C55.848,-14.676 57.204,-15.048 58.644,-15.048C61.068,-15.048 63.006,-14.352 64.458,-12.96C65.91,-11.568 66.636,-9.696 66.636,-7.344C66.636,-4.992 65.898,-3.12 64.422,-1.728C62.946,-0.336 60.96,0.36 58.464,0.36C56.52,0.36 54.858,-0.162 53.478,-1.206C52.098,-2.25 51.054,-3.69 50.346,-5.526C49.638,-7.362 49.284,-9.48 49.284,-11.88C49.284,-14.472 49.686,-16.686 50.49,-18.522C51.294,-20.358 52.398,-21.75 53.802,-22.698C55.206,-23.646 56.796,-24.12 58.572,-24.12ZM58.428,-12.276C56.892,-12.276 55.644,-11.82 54.684,-10.908C53.724,-9.996 53.244,-8.82 53.244,-7.38C53.244,-5.892 53.718,-4.692 54.666,-3.78C55.614,-2.868 56.868,-2.412 58.428,-2.412C60.06,-2.412 61.332,-2.85 62.244,-3.726C63.156,-4.602 63.612,-5.82 63.612,-7.38C63.612,-8.892 63.156,-10.086 62.244,-10.962C61.332,-11.838 60.06,-12.276 58.428,-12.276Z" style="fill:white;fill-rule:nonzero;"/>
                    </g>
                    <g id="text_7" transform="matrix(1,0,0,1,210.818,32.9681)">
                        <rect x="-82.62" y="-10.908" width="11.88" height="2.988" style="fill:white;"/>
                        <path d="M-57.924,-23.76L-57.924,0L-60.804,0L-60.804,-17.424C-60.804,-17.928 -60.78,-18.852 -60.732,-20.196C-61.548,-19.404 -62.496,-18.714 -63.576,-18.126C-64.656,-17.538 -65.76,-17.112 -66.888,-16.848L-67.644,-19.476C-67.068,-19.548 -66.288,-19.818 -65.304,-20.286C-64.32,-20.754 -63.372,-21.306 -62.46,-21.942C-61.548,-22.578 -60.876,-23.184 -60.444,-23.76L-57.924,-23.76Z" style="fill:white;fill-rule:nonzero;"/>
                        <path d="M-49.464,-4.32C-48.768,-4.32 -48.204,-4.104 -47.772,-3.672C-47.34,-3.24 -47.124,-2.676 -47.124,-1.98C-47.124,-1.284 -47.34,-0.72 -47.772,-0.288C-48.204,0.144 -48.768,0.36 -49.464,0.36C-50.16,0.36 -50.724,0.144 -51.156,-0.288C-51.588,-0.72 -51.804,-1.284 -51.804,-1.98C-51.804,-2.676 -51.588,-3.24 -51.156,-3.672C-50.724,-4.104 -50.16,-4.32 -49.464,-4.32Z" style="fill:white;fill-rule:nonzero;"/>
                        <path d="M-33.984,-24.12C-32.04,-24.12 -30.378,-23.604 -28.998,-22.572C-27.618,-21.54 -26.574,-20.106 -25.866,-18.27C-25.158,-16.434 -24.804,-14.304 -24.804,-11.88C-24.804,-7.896 -25.584,-4.86 -27.144,-2.772C-28.704,-0.684 -30.972,0.36 -33.948,0.36C-36.084,0.36 -37.818,-0.084 -39.15,-0.972C-40.482,-1.86 -41.496,-3.204 -42.192,-5.004L-39.348,-6.516C-38.916,-5.1 -38.322,-4.05 -37.566,-3.366C-36.81,-2.682 -35.616,-2.34 -33.984,-2.34C-31.608,-2.34 -29.922,-3.24 -28.926,-5.04C-27.93,-6.84 -27.432,-9.444 -27.432,-12.852L-27.432,-13.176L-27.576,-13.176C-27.912,-11.592 -28.71,-10.452 -29.97,-9.756C-31.23,-9.06 -32.64,-8.712 -34.2,-8.712C-36.6,-8.712 -38.526,-9.408 -39.978,-10.8C-41.43,-12.192 -42.156,-14.064 -42.156,-16.416C-42.156,-18.768 -41.418,-20.64 -39.942,-22.032C-38.466,-23.424 -36.48,-24.12 -33.984,-24.12ZM-33.948,-21.348C-35.58,-21.348 -36.852,-20.91 -37.764,-20.034C-38.676,-19.158 -39.132,-17.94 -39.132,-16.38C-39.132,-14.868 -38.676,-13.674 -37.764,-12.798C-36.852,-11.922 -35.58,-11.484 -33.948,-11.484C-32.412,-11.484 -31.164,-11.94 -30.204,-12.852C-29.244,-13.764 -28.764,-14.94 -28.764,-16.38C-28.764,-17.868 -29.238,-19.068 -30.186,-19.98C-31.134,-20.892 -32.388,-21.348 -33.948,-21.348Z" style="fill:white;fill-rule:nonzero;"/>
                        <path d="M-10.404,-24.12C-8.508,-24.12 -6.96,-23.724 -5.76,-22.932C-4.56,-22.14 -3.588,-20.868 -2.844,-19.116L-5.508,-17.856C-6.276,-20.232 -7.968,-21.42 -10.584,-21.42C-11.832,-21.42 -12.942,-20.976 -13.914,-20.088C-14.886,-19.2 -15.642,-17.988 -16.182,-16.452C-16.722,-14.916 -16.992,-13.212 -16.992,-11.34L-16.992,-10.692L-16.848,-10.692C-16.488,-12.108 -15.672,-13.188 -14.4,-13.932C-13.128,-14.676 -11.772,-15.048 -10.332,-15.048C-7.908,-15.048 -5.97,-14.352 -4.518,-12.96C-3.066,-11.568 -2.34,-9.696 -2.34,-7.344C-2.34,-4.992 -3.078,-3.12 -4.554,-1.728C-6.03,-0.336 -8.016,0.36 -10.512,0.36C-12.456,0.36 -14.118,-0.162 -15.498,-1.206C-16.878,-2.25 -17.922,-3.69 -18.63,-5.526C-19.338,-7.362 -19.692,-9.48 -19.692,-11.88C-19.692,-14.472 -19.29,-16.686 -18.486,-18.522C-17.682,-20.358 -16.578,-21.75 -15.174,-22.698C-13.77,-23.646 -12.18,-24.12 -10.404,-24.12ZM-10.548,-12.276C-12.084,-12.276 -13.332,-11.82 -14.292,-10.908C-15.252,-9.996 -15.732,-8.82 -15.732,-7.38C-15.732,-5.892 -15.258,-4.692 -14.31,-3.78C-13.362,-2.868 -12.108,-2.412 -10.548,-2.412C-8.916,-2.412 -7.644,-2.85 -6.732,-3.726C-5.82,-4.602 -5.364,-5.82 -5.364,-7.38C-5.364,-8.892 -5.82,-10.086 -6.732,-10.962C-7.644,-11.838 -8.916,-12.276 -10.548,-12.276Z" style="fill:white;fill-rule:nonzero;"/>
                    </g>
                    <g id="text_8" transform="matrix(1,0,0,1,350.9,144.196)">
                        <path d="M-73.48,-13.4C-72.4,-13.4 -71.477,-13.113 -70.71,-12.54C-69.943,-11.967 -69.363,-11.17 -68.97,-10.15C-68.577,-9.13 -68.38,-7.947 -68.38,-6.6C-68.38,-4.387 -68.813,-2.7 -69.68,-1.54C-70.547,-0.38 -71.807,0.2 -73.46,0.2C-74.647,0.2 -75.61,-0.047 -76.35,-0.54C-77.09,-1.033 -77.653,-1.78 -78.04,-2.78L-76.46,-3.62C-76.22,-2.833 -75.89,-2.25 -75.47,-1.87C-75.05,-1.49 -74.387,-1.3 -73.48,-1.3C-72.16,-1.3 -71.223,-1.8 -70.67,-2.8C-70.117,-3.8 -69.84,-5.247 -69.84,-7.14L-69.84,-7.32L-69.92,-7.32C-70.107,-6.44 -70.55,-5.807 -71.25,-5.42C-71.95,-5.033 -72.733,-4.84 -73.6,-4.84C-74.933,-4.84 -76.003,-5.227 -76.81,-6C-77.617,-6.773 -78.02,-7.813 -78.02,-9.12C-78.02,-10.427 -77.61,-11.467 -76.79,-12.24C-75.97,-13.013 -74.867,-13.4 -73.48,-13.4ZM-73.46,-11.86C-74.367,-11.86 -75.073,-11.617 -75.58,-11.13C-76.087,-10.643 -76.34,-9.967 -76.34,-9.1C-76.34,-8.26 -76.087,-7.597 -75.58,-7.11C-75.073,-6.623 -74.367,-6.38 -73.46,-6.38C-72.607,-6.38 -71.913,-6.633 -71.38,-7.14C-70.847,-7.647 -70.58,-8.3 -70.58,-9.1C-70.58,-9.927 -70.843,-10.593 -71.37,-11.1C-71.897,-11.607 -72.593,-11.86 -73.46,-11.86Z" style="fill:white;fill-rule:nonzero;"/>
                        <path d="M-60.74,-8.46C-59.487,-8.46 -58.48,-8.07 -57.72,-7.29C-56.96,-6.51 -56.58,-5.48 -56.58,-4.2C-56.58,-2.827 -56.98,-1.75 -57.78,-0.97C-58.58,-0.19 -59.687,0.2 -61.1,0.2C-62.287,0.2 -63.25,-0.057 -63.99,-0.57C-64.73,-1.083 -65.3,-1.833 -65.7,-2.82L-64.14,-3.64C-63.913,-2.867 -63.577,-2.283 -63.13,-1.89C-62.683,-1.497 -62.027,-1.3 -61.16,-1.3C-60.253,-1.3 -59.54,-1.547 -59.02,-2.04C-58.5,-2.533 -58.24,-3.213 -58.24,-4.08C-58.24,-5.013 -58.48,-5.727 -58.96,-6.22C-59.44,-6.713 -60.133,-6.96 -61.04,-6.96C-62.413,-6.96 -63.393,-6.533 -63.98,-5.68L-65.4,-5.68L-64.6,-13.2L-57.18,-13.2L-57.18,-11.7L-63.24,-11.7L-63.76,-7.54L-63.78,-7.36L-63.76,-7.36C-63.053,-8.093 -62.047,-8.46 -60.74,-8.46Z" style="fill:white;fill-rule:nonzero;"/>
                        <path d="M-51.34,-13.4C-50.367,-13.4 -49.593,-13.07 -49.02,-12.41C-48.447,-11.75 -48.16,-10.867 -48.16,-9.76C-48.16,-8.653 -48.447,-7.77 -49.02,-7.11C-49.593,-6.45 -50.367,-6.12 -51.34,-6.12C-52.313,-6.12 -53.087,-6.45 -53.66,-7.11C-54.233,-7.77 -54.52,-8.653 -54.52,-9.76C-54.52,-10.867 -54.233,-11.75 -53.66,-12.41C-53.087,-13.07 -52.313,-13.4 -51.34,-13.4ZM-43.32,-13.2L-41.8,-13.2L-50.2,0L-51.72,0L-43.32,-13.2ZM-51.34,-12.14C-51.9,-12.14 -52.333,-11.933 -52.64,-11.52C-52.947,-11.107 -53.1,-10.52 -53.1,-9.76C-53.1,-9 -52.947,-8.413 -52.64,-8C-52.333,-7.587 -51.9,-7.38 -51.34,-7.38C-50.78,-7.38 -50.347,-7.587 -50.04,-8C-49.733,-8.413 -49.58,-9 -49.58,-9.76C-49.58,-10.52 -49.733,-11.107 -50.04,-11.52C-50.347,-11.933 -50.78,-12.14 -51.34,-12.14ZM-42.18,-7.08C-41.207,-7.08 -40.433,-6.75 -39.86,-6.09C-39.287,-5.43 -39,-4.547 -39,-3.44C-39,-2.333 -39.287,-1.45 -39.86,-0.79C-40.433,-0.13 -41.207,0.2 -42.18,0.2C-43.153,0.2 -43.927,-0.13 -44.5,-0.79C-45.073,-1.45 -45.36,-2.333 -45.36,-3.44C-45.36,-4.547 -45.073,-5.43 -44.5,-6.09C-43.927,-6.75 -43.153,-7.08 -42.18,-7.08ZM-42.18,-5.82C-42.74,-5.82 -43.173,-5.613 -43.48,-5.2C-43.787,-4.787 -43.94,-4.2 -43.94,-3.44C-43.94,-2.68 -43.787,-2.093 -43.48,-1.68C-43.173,-1.267 -42.74,-1.06 -42.18,-1.06C-41.62,-1.06 -41.187,-1.267 -40.88,-1.68C-40.573,-2.093 -40.42,-2.68 -40.42,-3.44C-40.42,-4.2 -40.573,-4.787 -40.88,-5.2C-41.187,-5.613 -41.62,-5.82 -42.18,-5.82Z" style="fill:white;fill-rule:nonzero;"/>
                        <path d="M-18.58,-3.38C-18.993,-2.26 -19.673,-1.383 -20.62,-0.75C-21.567,-0.117 -22.66,0.2 -23.9,0.2C-25.14,0.2 -26.22,-0.077 -27.14,-0.63C-28.06,-1.183 -28.77,-1.97 -29.27,-2.99C-29.77,-4.01 -30.02,-5.213 -30.02,-6.6C-30.02,-7.973 -29.77,-9.173 -29.27,-10.2C-28.77,-11.227 -28.06,-12.017 -27.14,-12.57C-26.22,-13.123 -25.153,-13.4 -23.94,-13.4C-22.673,-13.4 -21.61,-13.14 -20.75,-12.62C-19.89,-12.1 -19.247,-11.333 -18.82,-10.32L-20.4,-9.58C-20.693,-10.353 -21.12,-10.933 -21.68,-11.32C-22.24,-11.707 -22.953,-11.9 -23.82,-11.9C-24.727,-11.9 -25.52,-11.69 -26.2,-11.27C-26.88,-10.85 -27.407,-10.24 -27.78,-9.44C-28.153,-8.64 -28.34,-7.693 -28.34,-6.6C-28.34,-4.947 -27.943,-3.65 -27.15,-2.71C-26.357,-1.77 -25.273,-1.3 -23.9,-1.3C-23.007,-1.3 -22.233,-1.527 -21.58,-1.98C-20.927,-2.433 -20.46,-3.1 -20.18,-3.98L-18.58,-3.38Z" style="fill:white;fill-rule:nonzero;"/>
                        <path d="M-11.58,-10.2C-10.073,-10.2 -8.89,-9.74 -8.03,-8.82C-7.17,-7.9 -6.74,-6.627 -6.74,-5C-6.74,-3.373 -7.17,-2.1 -8.03,-1.18C-8.89,-0.26 -10.073,0.2 -11.58,0.2C-13.087,0.2 -14.27,-0.26 -15.13,-1.18C-15.99,-2.1 -16.42,-3.373 -16.42,-5C-16.42,-6.627 -15.99,-7.9 -15.13,-8.82C-14.27,-9.74 -13.087,-10.2 -11.58,-10.2ZM-11.58,-8.82C-12.593,-8.82 -13.387,-8.48 -13.96,-7.8C-14.533,-7.12 -14.82,-6.187 -14.82,-5C-14.82,-3.813 -14.533,-2.88 -13.96,-2.2C-13.387,-1.52 -12.593,-1.18 -11.58,-1.18C-10.567,-1.18 -9.773,-1.52 -9.2,-2.2C-8.627,-2.88 -8.34,-3.813 -8.34,-5C-8.34,-6.187 -8.627,-7.12 -9.2,-7.8C-9.773,-8.48 -10.567,-8.82 -11.58,-8.82Z" style="fill:white;fill-rule:nonzero;"/>
                        <path d="M1.22,-10.2C2.353,-10.2 3.287,-9.873 4.02,-9.22C4.753,-8.567 5.12,-7.627 5.12,-6.4L5.12,0L3.52,0L3.52,-5.84C3.52,-6.88 3.297,-7.633 2.85,-8.1C2.403,-8.567 1.807,-8.8 1.06,-8.8C0.527,-8.8 0.027,-8.683 -0.44,-8.45C-0.907,-8.217 -1.29,-7.837 -1.59,-7.31C-1.89,-6.783 -2.04,-6.12 -2.04,-5.32L-2.04,0L-3.64,0L-3.64,-10L-2.24,-10L-2.14,-8.44C-1.807,-9.04 -1.347,-9.483 -0.76,-9.77C-0.173,-10.057 0.487,-10.2 1.22,-10.2Z" style="fill:white;fill-rule:nonzero;"/>
                        <path d="M10.98,-10L14.32,-10L14.32,-8.62L10.98,-8.62L10.98,0L9.38,0L9.38,-8.62L7.38,-8.62L7.38,-10L9.38,-10L9.38,-11.68C9.38,-12.6 9.66,-13.333 10.22,-13.88C10.78,-14.427 11.593,-14.7 12.66,-14.7C13.02,-14.7 13.35,-14.66 13.65,-14.58C13.95,-14.5 14.187,-14.387 14.36,-14.24L13.94,-12.94C13.62,-13.14 13.24,-13.24 12.8,-13.24C11.587,-13.24 10.98,-12.667 10.98,-11.52L10.98,-10ZM17.26,-11.92C16.9,-11.92 16.61,-12.03 16.39,-12.25C16.17,-12.47 16.06,-12.76 16.06,-13.12C16.06,-13.48 16.17,-13.77 16.39,-13.99C16.61,-14.21 16.9,-14.32 17.26,-14.32C17.62,-14.32 17.91,-14.21 18.13,-13.99C18.35,-13.77 18.46,-13.48 18.46,-13.12C18.46,-12.76 18.35,-12.47 18.13,-12.25C17.91,-12.03 17.62,-11.92 17.26,-11.92ZM18.06,0L16.46,0L16.46,-10L18.06,-10L18.06,0Z" style="fill:white;fill-rule:nonzero;"/>
                        <path d="M30.66,-14.6L30.66,0L29.26,0L29.16,-1.74C28.867,-1.153 28.417,-0.683 27.81,-0.33C27.203,0.023 26.513,0.2 25.74,0.2C24.34,0.2 23.23,-0.263 22.41,-1.19C21.59,-2.117 21.18,-3.387 21.18,-5C21.18,-6.613 21.59,-7.883 22.41,-8.81C23.23,-9.737 24.34,-10.2 25.74,-10.2C26.473,-10.2 27.13,-10.04 27.71,-9.72C28.29,-9.4 28.74,-8.973 29.06,-8.44L29.06,-14.6L30.66,-14.6ZM25.92,-1.2C26.88,-1.2 27.643,-1.533 28.21,-2.2C28.777,-2.867 29.06,-3.76 29.06,-4.88L29.06,-5.12C29.06,-6.24 28.777,-7.133 28.21,-7.8C27.643,-8.467 26.88,-8.8 25.92,-8.8C24.947,-8.8 24.18,-8.457 23.62,-7.77C23.06,-7.083 22.78,-6.16 22.78,-5C22.78,-3.84 23.06,-2.917 23.62,-2.23C24.18,-1.543 24.947,-1.2 25.92,-1.2Z" style="fill:white;fill-rule:nonzero;"/>
                        <path d="M42.96,-5.52C42.96,-5.147 42.933,-4.773 42.88,-4.4L35.34,-4.4C35.433,-3.387 35.77,-2.6 36.35,-2.04C36.93,-1.48 37.68,-1.2 38.6,-1.2C39.333,-1.2 39.943,-1.327 40.43,-1.58C40.917,-1.833 41.247,-2.2 41.42,-2.68L42.76,-1.98C42.36,-1.273 41.827,-0.733 41.16,-0.36C40.493,0.013 39.64,0.2 38.6,0.2C37.093,0.2 35.91,-0.26 35.05,-1.18C34.19,-2.1 33.76,-3.373 33.76,-5C33.76,-6.627 34.17,-7.9 34.99,-8.82C35.81,-9.74 36.973,-10.2 38.48,-10.2C39.413,-10.2 40.22,-9.993 40.9,-9.58C41.58,-9.167 42.093,-8.607 42.44,-7.9C42.787,-7.193 42.96,-6.4 42.96,-5.52ZM38.48,-8.8C37.6,-8.8 36.89,-8.54 36.35,-8.02C35.81,-7.5 35.48,-6.767 35.36,-5.82L41.42,-5.82C41.313,-6.753 41.007,-7.483 40.5,-8.01C39.993,-8.537 39.32,-8.8 38.48,-8.8Z" style="fill:white;fill-rule:nonzero;"/>
                        <path d="M50.86,-10.2C51.993,-10.2 52.927,-9.873 53.66,-9.22C54.393,-8.567 54.76,-7.627 54.76,-6.4L54.76,0L53.16,0L53.16,-5.84C53.16,-6.88 52.937,-7.633 52.49,-8.1C52.043,-8.567 51.447,-8.8 50.7,-8.8C50.167,-8.8 49.667,-8.683 49.2,-8.45C48.733,-8.217 48.35,-7.837 48.05,-7.31C47.75,-6.783 47.6,-6.12 47.6,-5.32L47.6,0L46,0L46,-10L47.4,-10L47.5,-8.44C47.833,-9.04 48.293,-9.483 48.88,-9.77C49.467,-10.057 50.127,-10.2 50.86,-10.2Z" style="fill:white;fill-rule:nonzero;"/>
                        <path d="M62.6,-10.2C63.6,-10.2 64.443,-9.97 65.13,-9.51C65.817,-9.05 66.353,-8.393 66.74,-7.54L65.22,-6.82C64.793,-8.14 63.907,-8.8 62.56,-8.8C61.56,-8.8 60.777,-8.463 60.21,-7.79C59.643,-7.117 59.36,-6.187 59.36,-5C59.36,-3.813 59.643,-2.883 60.21,-2.21C60.777,-1.537 61.56,-1.2 62.56,-1.2C63.333,-1.2 63.957,-1.377 64.43,-1.73C64.903,-2.083 65.213,-2.593 65.36,-3.26L66.84,-2.74C66.493,-1.807 65.96,-1.083 65.24,-0.57C64.52,-0.057 63.64,0.2 62.6,0.2C61.093,0.2 59.91,-0.26 59.05,-1.18C58.19,-2.1 57.76,-3.373 57.76,-5C57.76,-6.627 58.19,-7.9 59.05,-8.82C59.91,-9.74 61.093,-10.2 62.6,-10.2Z" style="fill:white;fill-rule:nonzero;"/>
                        <path d="M78.24,-5.52C78.24,-5.147 78.213,-4.773 78.16,-4.4L70.62,-4.4C70.713,-3.387 71.05,-2.6 71.63,-2.04C72.21,-1.48 72.96,-1.2 73.88,-1.2C74.613,-1.2 75.223,-1.327 75.71,-1.58C76.197,-1.833 76.527,-2.2 76.7,-2.68L78.04,-1.98C77.64,-1.273 77.107,-0.733 76.44,-0.36C75.773,0.013 74.92,0.2 73.88,0.2C72.373,0.2 71.19,-0.26 70.33,-1.18C69.47,-2.1 69.04,-3.373 69.04,-5C69.04,-6.627 69.45,-7.9 70.27,-8.82C71.09,-9.74 72.253,-10.2 73.76,-10.2C74.693,-10.2 75.5,-9.993 76.18,-9.58C76.86,-9.167 77.373,-8.607 77.72,-7.9C78.067,-7.193 78.24,-6.4 78.24,-5.52ZM73.76,-8.8C72.88,-8.8 72.17,-8.54 71.63,-8.02C71.09,-7.5 70.76,-6.767 70.64,-5.82L76.7,-5.82C76.593,-6.753 76.287,-7.483 75.78,-8.01C75.273,-8.537 74.6,-8.8 73.76,-8.8Z" style="fill:white;fill-rule:nonzero;"/>
                        <rect x="-34.74" y="6.8" width="1.6" height="13.2" style="fill:white;"/>
                        <path d="M-24.36,9.8C-23.227,9.8 -22.293,10.127 -21.56,10.78C-20.827,11.433 -20.46,12.373 -20.46,13.6L-20.46,20L-22.06,20L-22.06,14.16C-22.06,13.12 -22.283,12.367 -22.73,11.9C-23.177,11.433 -23.773,11.2 -24.52,11.2C-25.053,11.2 -25.553,11.317 -26.02,11.55C-26.487,11.783 -26.87,12.163 -27.17,12.69C-27.47,13.217 -27.62,13.88 -27.62,14.68L-27.62,20L-29.22,20L-29.22,10L-27.82,10L-27.72,11.56C-27.387,10.96 -26.927,10.517 -26.34,10.23C-25.753,9.943 -25.093,9.8 -24.36,9.8Z" style="fill:white;fill-rule:nonzero;"/>
                        <path d="M-10.86,19.3C-11.527,19.9 -12.387,20.2 -13.44,20.2C-14.253,20.2 -14.917,19.98 -15.43,19.54C-15.943,19.1 -16.207,18.427 -16.22,17.52L-16.22,11.38L-18.22,11.38L-18.22,10L-16.22,10L-16.22,7.6L-14.62,7.16L-14.62,10L-10.92,10L-10.92,11.38L-14.62,11.38L-14.62,17.24C-14.62,17.72 -14.483,18.083 -14.21,18.33C-13.937,18.577 -13.573,18.7 -13.12,18.7C-12.48,18.7 -11.913,18.453 -11.42,17.96L-10.86,19.3Z" style="fill:white;fill-rule:nonzero;"/>
                        <path d="M-0.02,14.48C-0.02,14.853 -0.047,15.227 -0.1,15.6L-7.64,15.6C-7.547,16.613 -7.21,17.4 -6.63,17.96C-6.05,18.52 -5.3,18.8 -4.38,18.8C-3.647,18.8 -3.037,18.673 -2.55,18.42C-2.063,18.167 -1.733,17.8 -1.56,17.32L-0.22,18.02C-0.62,18.727 -1.153,19.267 -1.82,19.64C-2.487,20.013 -3.34,20.2 -4.38,20.2C-5.887,20.2 -7.07,19.74 -7.93,18.82C-8.79,17.9 -9.22,16.627 -9.22,15C-9.22,13.373 -8.81,12.1 -7.99,11.18C-7.17,10.26 -6.007,9.8 -4.5,9.8C-3.567,9.8 -2.76,10.007 -2.08,10.42C-1.4,10.833 -0.887,11.393 -0.54,12.1C-0.193,12.807 -0.02,13.6 -0.02,14.48ZM-4.5,11.2C-5.38,11.2 -6.09,11.46 -6.63,11.98C-7.17,12.5 -7.5,13.233 -7.62,14.18L-1.56,14.18C-1.667,13.247 -1.973,12.517 -2.48,11.99C-2.987,11.463 -3.66,11.2 -4.5,11.2Z" style="fill:white;fill-rule:nonzero;"/>
                        <path d="M7.74,9.8C8.22,9.8 8.587,9.867 8.84,10L8.52,11.56C8.2,11.387 7.78,11.3 7.26,11.3C6.833,11.3 6.417,11.423 6.01,11.67C5.603,11.917 5.27,12.29 5.01,12.79C4.75,13.29 4.62,13.893 4.62,14.6L4.62,20L3.02,20L3.02,10L4.32,10L4.54,11.64C5.1,10.413 6.167,9.8 7.74,9.8Z" style="fill:white;fill-rule:nonzero;"/>
                        <path d="M19.48,10L15.32,20L13.72,20L9.56,10L11.38,10L14.54,18.38L17.8,10L19.48,10Z" style="fill:white;fill-rule:nonzero;"/>
                        <path d="M29.52,18.84C29.787,18.84 30.053,18.807 30.32,18.74L30.22,20C29.847,20.133 29.447,20.2 29.02,20.2C28.5,20.2 28.09,20.087 27.79,19.86C27.49,19.633 27.3,19.253 27.22,18.72C26.913,19.187 26.463,19.55 25.87,19.81C25.277,20.07 24.653,20.2 24,20.2C23.013,20.2 22.2,19.97 21.56,19.51C20.92,19.05 20.6,18.387 20.6,17.52C20.6,16.76 20.933,16.103 21.6,15.55C22.267,14.997 23.233,14.613 24.5,14.4L27.16,13.96L27.16,13.4C27.16,12.733 26.953,12.2 26.54,11.8C26.127,11.4 25.553,11.2 24.82,11.2C24.153,11.2 23.577,11.36 23.09,11.68C22.603,12 22.227,12.473 21.96,13.1L20.78,12.24C21.047,11.493 21.543,10.9 22.27,10.46C22.997,10.02 23.847,9.8 24.82,9.8C26.007,9.8 26.96,10.087 27.68,10.66C28.4,11.233 28.76,12.08 28.76,13.2L28.76,18.12C28.76,18.36 28.82,18.54 28.94,18.66C29.06,18.78 29.253,18.84 29.52,18.84ZM24.08,18.8C24.92,18.8 25.643,18.6 26.25,18.2C26.857,17.8 27.16,17.28 27.16,16.64L27.16,15.26L24.92,15.68C24.027,15.84 23.36,16.07 22.92,16.37C22.48,16.67 22.26,17.053 22.26,17.52C22.26,17.933 22.42,18.25 22.74,18.47C23.06,18.69 23.507,18.8 24.08,18.8Z" style="fill:white;fill-rule:nonzero;"/>
                        <path d="M34.16,17.32C34.16,17.827 34.237,18.177 34.39,18.37C34.543,18.563 34.827,18.66 35.24,18.66C35.52,18.66 35.763,18.64 35.97,18.6C36.177,18.56 36.42,18.487 36.7,18.38L36.44,19.92C36,20.107 35.507,20.2 34.96,20.2C34.147,20.2 33.543,19.98 33.15,19.54C32.757,19.1 32.56,18.427 32.56,17.52L32.56,5.4L34.16,5.4L34.16,17.32Z" style="fill:white;fill-rule:nonzero;"/>
                    </g>
                    <path id="line2d_8" d="M488.163,196.048L488.163,32.968" style="fill:none;stroke:rgb(76,114,176);stroke-width:2.25px;stroke-linecap:round;"/>
                    <path id="line2d_9" d="M213.62,196.048L213.62,32.968" style="fill:none;stroke:rgb(76,114,176);stroke-width:2.25px;stroke-linecap:round;"/>
                    <path id="line2d_11" d="M213.62,177.928L488.163,177.928" style="fill:rgb(255,243,243);fill-rule:nonzero;stroke:white;stroke-width:5px;stroke-linecap:round;"/>
                    <g id="m025e6ba51d" transform="matrix(1,0,0,1,350.891,177.928)">
                        <path d="M0,7.5C1.989,7.5 3.897,6.71 5.303,5.303C6.71,3.897 7.5,1.989 7.5,0C7.5,-1.989 6.71,-3.897 5.303,-5.303C3.897,-6.71 1.989,-7.5 0,-7.5C-1.989,-7.5 -3.897,-6.71 -5.303,-5.303C-6.71,-3.897 -7.5,-1.989 -7.5,0C-7.5,1.989 -6.71,3.897 -5.303,5.303C-3.897,6.71 -1.989,7.5 0,7.5Z" style="fill:rgb(249,249,249);fill-rule:nonzero;stroke:white;stroke-width:1px;"/>
                    </g>
                </g>
                <path id="line2d_7" d="M350.891,196.048L350.891,32.968" style="fill:none;stroke:white;stroke-width:0.5px;stroke-linecap:round;"/>
            </g>
        </g>
    </g>
</svg>
