<?xml version="1.0" encoding="UTF-8" standalone="no"?>
<!DOCTYPE svg PUBLIC "-//W3C//DTD SVG 1.1//EN" "http://www.w3.org/Graphics/SVG/1.1/DTD/svg11.dtd">
<svg width="100%" height="100%" viewBox="0 0 2837 3306" version="1.1" xmlns="http://www.w3.org/2000/svg" xmlns:xlink="http://www.w3.org/1999/xlink" xml:space="preserve" xmlns:serif="http://www.serif.com/" style="fill-rule:evenodd;clip-rule:evenodd;stroke-linecap:round;">
    <g transform="matrix(4.16667,0,0,4.16667,0,0)">
        <g id="Artboard1" transform="matrix(1,0,0,1,-104.712,32.2592)">
            <rect x="104.712" y="-32.259" width="680.674" height="793.207" style="fill:none;"/>
            <clipPath id="_clip1">
                <rect x="104.712" y="-32.259" width="680.674" height="793.207"/>
            </clipPath>
            <g clip-path="url(#_clip1)">
                <g transform="matrix(0.960213,0,0,1.0754,56.8084,-49.8834)">
                    <rect x="-7.427" y="-8.151" width="805.149" height="778.69" style="fill:rgb(20,36,46);"/>
                </g>
                <g id="figure_1" transform="matrix(1,0,0,1,0.711968,0.740833)">
                    <g id="null">
                        <g id="m59ebab6803" transform="matrix(1,0,0,4.00379,0,1544.88)">
                            <path d="M319.194,-260.982L319.194,-260.981L617.15,-260.981L617.15,-260.982L614.803,-260.984L612.457,-260.986L610.111,-260.992L607.765,-261.003L605.419,-261.021L603.073,-261.048L600.727,-261.087L598.381,-261.138L596.035,-261.198L593.688,-261.264L591.342,-261.332L588.996,-261.401L586.65,-261.47L584.304,-261.543L581.958,-261.625L579.612,-261.725L577.266,-261.85L574.92,-262.005L572.573,-262.194L570.227,-262.418L567.881,-262.678L565.535,-262.975L563.189,-263.314L560.843,-263.704L558.497,-264.152L556.151,-264.665L553.805,-265.235L551.458,-265.849L549.112,-266.482L546.766,-267.11L544.42,-267.718L542.074,-268.3L539.728,-268.865L537.382,-269.429L535.036,-270.015L532.69,-270.642L530.343,-271.324L527.997,-272.058L525.651,-272.831L523.305,-273.619L520.959,-274.394L518.613,-275.138L516.267,-275.848L513.921,-276.534L511.575,-277.219L509.228,-277.916L506.882,-278.624L504.536,-279.322L502.19,-279.974L499.844,-280.55L497.498,-281.038L495.152,-281.449L492.806,-281.809L490.46,-282.149L488.113,-282.488L485.767,-282.829L483.421,-283.154L481.075,-283.435L478.729,-283.639L476.383,-283.735L474.037,-283.698L471.691,-283.517L469.345,-283.196L466.998,-282.76L464.652,-282.243L462.306,-281.695L459.96,-281.158L457.614,-280.664L455.268,-280.218L452.922,-279.796L450.576,-279.359L448.23,-278.86L445.883,-278.267L443.537,-277.571L441.191,-276.789L438.845,-275.954L436.499,-275.11L434.153,-274.289L431.807,-273.513L429.461,-272.781L427.115,-272.079L424.769,-271.387L422.422,-270.688L420.076,-269.974L417.73,-269.249L415.384,-268.526L413.038,-267.818L410.692,-267.139L408.346,-266.5L406,-265.907L403.654,-265.366L401.307,-264.881L398.961,-264.453L396.615,-264.084L394.269,-263.77L391.923,-263.506L389.577,-263.28L387.231,-263.08L384.885,-262.893L382.539,-262.71L380.192,-262.527L377.846,-262.346L375.5,-262.172L373.154,-262.011L370.808,-261.869L368.462,-261.747L366.116,-261.64L363.77,-261.545L361.424,-261.456L359.077,-261.373L356.731,-261.296L354.385,-261.227L352.039,-261.171L349.693,-261.126L347.347,-261.093L345.001,-261.069L342.655,-261.05L340.309,-261.035L337.962,-261.022L335.616,-261.011L333.27,-261.001L330.924,-260.994L328.578,-260.988L326.232,-260.985L323.886,-260.983L321.54,-260.982L319.194,-260.982Z" style="fill:rgb(192,192,192);fill-opacity:0.247059;fill-rule:nonzero;"/>
                        </g>
                        <g id="Artboard2" transform="matrix(1,0,0,0.195451,103.806,395.217)">
                            <rect x="215.194" y="433.581" width="87.178" height="99.385" style="fill:none;"/>
                            <clipPath id="_clip2">
                                <rect x="215.194" y="433.581" width="87.178" height="99.385"/>
                            </clipPath>
                            <g clip-path="url(#_clip2)">
                                <g id="m59ebab68031" serif:id="m59ebab6803" transform="matrix(1,0,0,20.4849,-103.806,5882.12)">
                                    <path d="M319.194,-260.982L319.194,-260.981L617.15,-260.981L617.15,-260.982L614.803,-260.984L612.457,-260.986L610.111,-260.992L607.765,-261.003L605.419,-261.021L603.073,-261.048L600.727,-261.087L598.381,-261.138L596.035,-261.198L593.688,-261.264L591.342,-261.332L588.996,-261.401L586.65,-261.47L584.304,-261.543L581.958,-261.625L579.612,-261.725L577.266,-261.85L574.92,-262.005L572.573,-262.194L570.227,-262.418L567.881,-262.678L565.535,-262.975L563.189,-263.314L560.843,-263.704L558.497,-264.152L556.151,-264.665L553.805,-265.235L551.458,-265.849L549.112,-266.482L546.766,-267.11L544.42,-267.718L542.074,-268.3L539.728,-268.865L537.382,-269.429L535.036,-270.015L532.69,-270.642L530.343,-271.324L527.997,-272.058L525.651,-272.831L523.305,-273.619L520.959,-274.394L518.613,-275.138L516.267,-275.848L513.921,-276.534L511.575,-277.219L509.228,-277.916L506.882,-278.624L504.536,-279.322L502.19,-279.974L499.844,-280.55L497.498,-281.038L495.152,-281.449L492.806,-281.809L490.46,-282.149L488.113,-282.488L485.767,-282.829L483.421,-283.154L481.075,-283.435L478.729,-283.639L476.383,-283.735L474.037,-283.698L471.691,-283.517L469.345,-283.196L466.998,-282.76L464.652,-282.243L462.306,-281.695L459.96,-281.158L457.614,-280.664L455.268,-280.218L452.922,-279.796L450.576,-279.359L448.23,-278.86L445.883,-278.267L443.537,-277.571L441.191,-276.789L438.845,-275.954L436.499,-275.11L434.153,-274.289L431.807,-273.513L429.461,-272.781L427.115,-272.079L424.769,-271.387L422.422,-270.688L420.076,-269.974L417.73,-269.249L415.384,-268.526L413.038,-267.818L410.692,-267.139L408.346,-266.5L406,-265.907L403.654,-265.366L401.307,-264.881L398.961,-264.453L396.615,-264.084L394.269,-263.77L391.923,-263.506L389.577,-263.28L387.231,-263.08L384.885,-262.893L382.539,-262.71L380.192,-262.527L377.846,-262.346L375.5,-262.172L373.154,-262.011L370.808,-261.869L368.462,-261.747L366.116,-261.64L363.77,-261.545L361.424,-261.456L359.077,-261.373L356.731,-261.296L354.385,-261.227L352.039,-261.171L349.693,-261.126L347.347,-261.093L345.001,-261.069L342.655,-261.05L340.309,-261.035L337.962,-261.022L335.616,-261.011L333.27,-261.001L330.924,-260.994L328.578,-260.988L326.232,-260.985L323.886,-260.983L321.54,-260.982L319.194,-260.982Z" style="fill:rgb(242,18,18);fill-opacity:0.247059;fill-rule:nonzero;"/>
                                </g>
                            </g>
                        </g>
                        <g id="line2d_18" transform="matrix(1,0,0,1.75,0,-374.975)">
                            <path d="M476.705,499.967L476.705,395.596" style="fill:none;stroke:rgb(26,158,120);stroke-width:3.51px;"/>
                        </g>
                        <g id="line2d_19" transform="matrix(1,0,0,1.75,0,-374.975)">
                            <path d="M408.766,499.967L408.766,395.596" style="fill:none;stroke:rgb(217,95,2);stroke-width:3.51px;"/>
                        </g>
                        <g id="null-label" serif:id="null label" transform="matrix(1,0,0,1,643.495,476.994)">
                            <path d="M-78.025,0L-82.354,0L-89.341,-12.151L-89.44,-12.151C-89.301,-10.005 -89.231,-8.474 -89.231,-7.559L-89.231,0L-92.274,0L-92.274,-16.062L-87.979,-16.062L-81.002,-4.032L-80.925,-4.032C-81.035,-6.119 -81.09,-7.595 -81.09,-8.459L-81.09,-16.062L-78.025,-16.062L-78.025,0Z" style="fill:white;fill-rule:nonzero;"/>
                            <path d="M-65.544,0L-65.995,-1.571L-66.171,-1.571C-66.53,-1 -67.039,-0.558 -67.698,-0.247C-68.357,0.064 -69.108,0.22 -69.95,0.22C-71.393,0.22 -72.48,-0.167 -73.213,-0.939C-73.945,-1.712 -74.312,-2.823 -74.312,-4.274L-74.312,-12.283L-70.961,-12.283L-70.961,-5.109C-70.961,-4.222 -70.803,-3.558 -70.488,-3.115C-70.173,-2.672 -69.672,-2.45 -68.983,-2.45C-68.046,-2.45 -67.368,-2.763 -66.951,-3.389C-66.533,-4.016 -66.324,-5.054 -66.324,-6.504L-66.324,-12.283L-62.974,-12.283L-62.974,0L-65.544,0Z" style="fill:white;fill-rule:nonzero;"/>
                            <rect x="-59.458" y="-17.095" width="3.351" height="17.095" style="fill:white;fill-rule:nonzero;"/>
                            <rect x="-52.592" y="-17.095" width="3.351" height="17.095" style="fill:white;fill-rule:nonzero;"/>
                            <path d="M-26.29,-8.185C-26.29,-5.541 -27.043,-3.516 -28.548,-2.109C-30.053,-0.703 -32.227,0 -35.068,0L-39.617,0L-39.617,-16.062L-34.574,-16.062C-31.952,-16.062 -29.916,-15.37 -28.466,-13.986C-27.015,-12.601 -26.29,-10.668 -26.29,-8.185ZM-29.828,-8.097C-29.828,-11.547 -31.351,-13.271 -34.398,-13.271L-36.211,-13.271L-36.211,-2.813L-34.75,-2.813C-31.469,-2.813 -29.828,-4.574 -29.828,-8.097Z" style="fill:white;fill-rule:nonzero;"/>
                            <path d="M-23.368,-15.458C-23.368,-16.549 -22.76,-17.095 -21.544,-17.095C-20.328,-17.095 -19.72,-16.549 -19.72,-15.458C-19.72,-14.938 -19.872,-14.533 -20.176,-14.244C-20.48,-13.954 -20.936,-13.81 -21.544,-13.81C-22.76,-13.81 -23.368,-14.359 -23.368,-15.458ZM-19.874,0L-23.225,0L-23.225,-12.283L-19.874,-12.283L-19.874,0Z" style="fill:white;fill-rule:nonzero;"/>
                            <path d="M-7.789,-3.647C-7.789,-2.388 -8.227,-1.428 -9.102,-0.769C-9.977,-0.11 -11.287,0.22 -13.03,0.22C-13.923,0.22 -14.685,0.159 -15.315,0.038C-15.945,-0.082 -16.534,-0.26 -17.084,-0.494L-17.084,-3.263C-16.461,-2.97 -15.76,-2.725 -14.98,-2.527C-14.2,-2.329 -13.513,-2.23 -12.92,-2.23C-11.704,-2.23 -11.096,-2.582 -11.096,-3.285C-11.096,-3.549 -11.177,-3.763 -11.338,-3.928C-11.499,-4.092 -11.777,-4.279 -12.173,-4.488C-12.568,-4.697 -13.096,-4.94 -13.755,-5.219C-14.7,-5.614 -15.394,-5.98 -15.837,-6.317C-16.28,-6.654 -16.602,-7.04 -16.804,-7.476C-17.005,-7.912 -17.106,-8.448 -17.106,-9.086C-17.106,-10.177 -16.683,-11.021 -15.837,-11.618C-14.991,-12.215 -13.792,-12.513 -12.239,-12.513C-10.759,-12.513 -9.32,-12.191 -7.921,-11.547L-8.932,-9.13C-9.547,-9.393 -10.122,-9.609 -10.657,-9.778C-11.191,-9.946 -11.737,-10.031 -12.294,-10.031C-13.282,-10.031 -13.777,-9.763 -13.777,-9.229C-13.777,-8.928 -13.618,-8.668 -13.299,-8.448C-12.98,-8.229 -12.283,-7.903 -11.206,-7.471C-10.247,-7.083 -9.543,-6.72 -9.097,-6.383C-8.65,-6.046 -8.32,-5.658 -8.108,-5.219C-7.896,-4.779 -7.789,-4.255 -7.789,-3.647Z" style="fill:white;fill-rule:nonzero;"/>
                            <path d="M0,-2.45C0.586,-2.45 1.289,-2.578 2.109,-2.834L2.109,-0.341C1.274,0.033 0.249,0.22 -0.967,0.22C-2.307,0.22 -3.283,-0.119 -3.895,-0.797C-4.506,-1.474 -4.812,-2.49 -4.812,-3.845L-4.812,-9.767L-6.416,-9.767L-6.416,-11.184L-4.57,-12.305L-3.604,-14.897L-1.461,-14.897L-1.461,-12.283L1.978,-12.283L1.978,-9.767L-1.461,-9.767L-1.461,-3.845C-1.461,-3.369 -1.328,-3.018 -1.06,-2.791C-0.793,-2.563 -0.439,-2.45 0,-2.45Z" style="fill:white;fill-rule:nonzero;"/>
                            <path d="M11.448,-12.513C11.902,-12.513 12.279,-12.48 12.579,-12.415L12.327,-9.272C12.056,-9.346 11.726,-9.382 11.338,-9.382C10.269,-9.382 9.435,-9.108 8.839,-8.558C8.242,-8.009 7.943,-7.24 7.943,-6.251L7.943,0L4.592,0L4.592,-12.283L7.13,-12.283L7.625,-10.217L7.789,-10.217C8.17,-10.906 8.685,-11.461 9.333,-11.882C9.981,-12.303 10.686,-12.513 11.448,-12.513Z" style="fill:white;fill-rule:nonzero;"/>
                            <path d="M14.667,-15.458C14.667,-16.549 15.275,-17.095 16.49,-17.095C17.706,-17.095 18.314,-16.549 18.314,-15.458C18.314,-14.938 18.162,-14.533 17.858,-14.244C17.554,-13.954 17.098,-13.81 16.49,-13.81C15.275,-13.81 14.667,-14.359 14.667,-15.458ZM18.16,0L14.81,0L14.81,-12.283L18.16,-12.283L18.16,0Z" style="fill:white;fill-rule:nonzero;"/>
                            <path d="M28.51,-12.513C29.96,-12.513 31.095,-11.948 31.915,-10.816C32.736,-9.684 33.146,-8.134 33.146,-6.163C33.146,-4.135 32.723,-2.563 31.877,-1.45C31.031,-0.337 29.879,0.22 28.422,0.22C26.979,0.22 25.847,-0.304 25.027,-1.351L24.796,-1.351L24.236,0L21.676,0L21.676,-17.095L25.027,-17.095L25.027,-13.118C25.027,-12.612 24.983,-11.803 24.895,-10.69L25.027,-10.69C25.811,-11.906 26.971,-12.513 28.51,-12.513ZM27.433,-9.833C26.605,-9.833 26.001,-9.578 25.62,-9.069C25.239,-8.56 25.042,-7.72 25.027,-6.548L25.027,-6.185C25.027,-4.867 25.223,-3.922 25.615,-3.351C26.006,-2.78 26.627,-2.494 27.477,-2.494C28.165,-2.494 28.713,-2.811 29.119,-3.444C29.526,-4.078 29.729,-4.999 29.729,-6.207C29.729,-7.416 29.524,-8.322 29.114,-8.926C28.704,-9.531 28.143,-9.833 27.433,-9.833Z" style="fill:white;fill-rule:nonzero;"/>
                            <path d="M44.615,0L44.165,-1.571L43.989,-1.571C43.63,-1 43.121,-0.558 42.462,-0.247C41.803,0.064 41.052,0.22 40.21,0.22C38.767,0.22 37.679,-0.167 36.947,-0.939C36.215,-1.712 35.848,-2.823 35.848,-4.274L35.848,-12.283L39.199,-12.283L39.199,-5.109C39.199,-4.222 39.357,-3.558 39.672,-3.115C39.987,-2.672 40.488,-2.45 41.177,-2.45C42.114,-2.45 42.792,-2.763 43.209,-3.389C43.627,-4.016 43.835,-5.054 43.835,-6.504L43.835,-12.283L47.186,-12.283L47.186,0L44.615,0Z" style="fill:white;fill-rule:nonzero;"/>
                            <path d="M55.876,-2.45C56.462,-2.45 57.166,-2.578 57.986,-2.834L57.986,-0.341C57.151,0.033 56.125,0.22 54.91,0.22C53.569,0.22 52.593,-0.119 51.982,-0.797C51.37,-1.474 51.064,-2.49 51.064,-3.845L51.064,-9.767L49.46,-9.767L49.46,-11.184L51.306,-12.305L52.273,-14.897L54.415,-14.897L54.415,-12.283L57.854,-12.283L57.854,-9.767L54.415,-9.767L54.415,-3.845C54.415,-3.369 54.549,-3.018 54.816,-2.791C55.084,-2.563 55.437,-2.45 55.876,-2.45Z" style="fill:white;fill-rule:nonzero;"/>
                            <path d="M60.326,-15.458C60.326,-16.549 60.934,-17.095 62.15,-17.095C63.365,-17.095 63.973,-16.549 63.973,-15.458C63.973,-14.938 63.821,-14.533 63.517,-14.244C63.214,-13.954 62.758,-13.81 62.15,-13.81C60.934,-13.81 60.326,-14.359 60.326,-15.458ZM63.82,0L60.469,0L60.469,-12.283L63.82,-12.283L63.82,0Z" style="fill:white;fill-rule:nonzero;"/>
                            <path d="M70.005,-6.163C70.005,-4.948 70.204,-4.028 70.604,-3.406C71.003,-2.783 71.653,-2.472 72.554,-2.472C73.447,-2.472 74.09,-2.781 74.482,-3.4C74.874,-4.019 75.07,-4.94 75.07,-6.163C75.07,-7.379 74.872,-8.291 74.476,-8.899C74.081,-9.507 73.433,-9.811 72.532,-9.811C71.638,-9.811 70.994,-9.509 70.598,-8.904C70.203,-8.3 70.005,-7.386 70.005,-6.163ZM78.497,-6.163C78.497,-4.164 77.97,-2.6 76.915,-1.472C75.861,-0.344 74.392,0.22 72.51,0.22C71.331,0.22 70.291,-0.038 69.39,-0.555C68.489,-1.071 67.797,-1.813 67.313,-2.78C66.83,-3.746 66.588,-4.874 66.588,-6.163C66.588,-8.17 67.112,-9.73 68.159,-10.844C69.207,-11.957 70.679,-12.513 72.576,-12.513C73.755,-12.513 74.795,-12.257 75.696,-11.744C76.597,-11.232 77.289,-10.496 77.772,-9.536C78.256,-8.577 78.497,-7.452 78.497,-6.163Z" style="fill:white;fill-rule:nonzero;"/>
                            <path d="M92.604,0L89.253,0L89.253,-7.174C89.253,-8.06 89.095,-8.725 88.781,-9.168C88.466,-9.611 87.964,-9.833 87.275,-9.833C86.338,-9.833 85.66,-9.52 85.243,-8.893C84.825,-8.267 84.617,-7.229 84.617,-5.779L84.617,0L81.266,0L81.266,-12.283L83.826,-12.283L84.276,-10.712L84.463,-10.712C84.836,-11.305 85.351,-11.754 86.006,-12.057C86.662,-12.361 87.407,-12.513 88.242,-12.513C89.67,-12.513 90.754,-12.127 91.494,-11.354C92.234,-10.582 92.604,-9.467 92.604,-8.009L92.604,0Z" style="fill:white;fill-rule:nonzero;"/>
                        </g>
                    </g>
                    <g id="samples">
                        <g id="matplotlib.axis_1">
                            <g id="xtick_1">
                                <g id="mb23dc95d68" transform="matrix(1,0,0,1,136.182,317.317)">
                                    <path d="M0,0L0,9" style="fill:white;fill-rule:nonzero;stroke:white;stroke-width:1.88px;stroke-linecap:butt;"/>
                                </g>
                                <g id="text_2" transform="matrix(1,0,0,1,136.182,346.989)">
                                    <rect x="-10.746" y="-7.966" width="9.678" height="1.39" style="fill:white;fill-rule:nonzero;"/>
                                    <path d="M11.38,-3.384L9.195,-3.384L9.195,0L7.593,0L7.593,-3.384L0.433,-3.384L0.433,-4.844L7.422,-14.804L9.195,-14.804L9.195,-4.904L11.38,-4.904L11.38,-3.384ZM7.593,-4.904L7.593,-9.799C7.593,-10.759 7.627,-11.843 7.694,-13.052L7.614,-13.052C7.291,-12.407 6.989,-11.873 6.707,-11.451L2.105,-4.904L7.593,-4.904Z" style="fill:white;fill-rule:nonzero;"/>
                                </g>
                            </g>
                            <g id="xtick_2">
                                <g id="mb23dc95d681" serif:id="mb23dc95d68" transform="matrix(1,0,0,1,214.959,317.317)">
                                    <path d="M0,0L0,9" style="fill:white;fill-rule:nonzero;stroke:white;stroke-width:1.88px;stroke-linecap:butt;"/>
                                </g>
                                <g id="text_3" transform="matrix(1,0,0,1,214.959,346.989)">
                                    <rect x="-10.746" y="-7.966" width="9.678" height="1.39" style="fill:white;fill-rule:nonzero;"/>
                                    <path d="M10.685,0L1.007,0L1.007,-1.44L4.884,-5.338C6.066,-6.533 6.845,-7.385 7.221,-7.896C7.597,-8.406 7.879,-8.903 8.067,-9.386C8.255,-9.869 8.349,-10.39 8.349,-10.947C8.349,-11.732 8.11,-12.355 7.634,-12.815C7.157,-13.275 6.496,-13.505 5.65,-13.505C5.039,-13.505 4.46,-13.404 3.913,-13.203C3.365,-13.001 2.756,-12.635 2.085,-12.105L1.198,-13.243C2.555,-14.371 4.032,-14.935 5.63,-14.935C7.013,-14.935 8.097,-14.581 8.882,-13.873C9.668,-13.164 10.061,-12.213 10.061,-11.017C10.061,-10.084 9.799,-9.161 9.275,-8.248C8.752,-7.335 7.771,-6.18 6.335,-4.784L3.112,-1.631L3.112,-1.551L10.685,-1.551L10.685,0Z" style="fill:white;fill-rule:nonzero;"/>
                                </g>
                            </g>
                            <g id="xtick_3">
                                <g id="mb23dc95d682" serif:id="mb23dc95d68" transform="matrix(1,0,0,1,293.735,317.317)">
                                    <path d="M0,0L0,9" style="fill:white;fill-rule:nonzero;stroke:white;stroke-width:1.88px;stroke-linecap:butt;"/>
                                </g>
                                <g id="text_4" transform="matrix(1,0,0,1,293.735,346.989)">
                                    <path d="M4.869,-7.382C4.869,-4.837 4.468,-2.937 3.666,-1.682C2.863,-0.426 1.637,0.201 -0.015,0.201C-1.6,0.201 -2.805,-0.441 -3.631,-1.727C-4.456,-3.013 -4.869,-4.898 -4.869,-7.382C-4.869,-9.947 -4.47,-11.85 -3.671,-13.092C-2.872,-14.334 -1.653,-14.955 -0.015,-14.955C1.583,-14.955 2.796,-14.307 3.625,-13.011C4.455,-11.716 4.869,-9.839 4.869,-7.382ZM-3.177,-7.382C-3.177,-5.24 -2.926,-3.681 -2.422,-2.704C-1.918,-1.727 -1.116,-1.239 -0.015,-1.239C1.099,-1.239 1.907,-1.734 2.407,-2.724C2.907,-3.714 3.157,-5.267 3.157,-7.382C3.157,-9.497 2.907,-11.046 2.407,-12.03C1.907,-13.013 1.099,-13.505 -0.015,-13.505C-1.116,-13.505 -1.918,-13.02 -2.422,-12.05C-2.926,-11.08 -3.177,-9.524 -3.177,-7.382Z" style="fill:white;fill-rule:nonzero;"/>
                                </g>
                            </g>
                            <g id="xtick_4">
                                <g id="mb23dc95d683" serif:id="mb23dc95d68" transform="matrix(1,0,0,1,372.511,317.317)">
                                    <path d="M0,0L0,9" style="fill:white;fill-rule:nonzero;stroke:white;stroke-width:1.88px;stroke-linecap:butt;"/>
                                </g>
                                <g id="text_5" transform="matrix(1,0,0,1,372.511,346.989)">
                                    <path d="M4.789,0L-4.889,0L-4.889,-1.44L-1.012,-5.338C0.17,-6.533 0.948,-7.385 1.324,-7.896C1.7,-8.406 1.982,-8.903 2.17,-9.386C2.358,-9.869 2.452,-10.39 2.452,-10.947C2.452,-11.732 2.214,-12.355 1.737,-12.815C1.261,-13.275 0.599,-13.505 -0.247,-13.505C-0.858,-13.505 -1.437,-13.404 -1.984,-13.203C-2.531,-13.001 -3.14,-12.635 -3.812,-12.105L-4.698,-13.243C-3.342,-14.371 -1.865,-14.935 -0.267,-14.935C1.116,-14.935 2.2,-14.581 2.986,-13.873C3.772,-13.164 4.164,-12.213 4.164,-11.017C4.164,-10.084 3.902,-9.161 3.379,-8.248C2.855,-7.335 1.875,-6.18 0.438,-4.784L-2.785,-1.631L-2.785,-1.551L4.789,-1.551L4.789,0Z" style="fill:white;fill-rule:nonzero;"/>
                                </g>
                            </g>
                            <g id="xtick_5">
                                <g id="mb23dc95d684" serif:id="mb23dc95d68" transform="matrix(1,0,0,1,451.288,317.317)">
                                    <path d="M0,0L0,9" style="fill:white;fill-rule:nonzero;stroke:white;stroke-width:1.88px;stroke-linecap:butt;"/>
                                </g>
                                <g id="text_6" transform="matrix(1,0,0,1,451.288,346.989)">
                                    <path d="M5.484,-3.384L3.298,-3.384L3.298,0L1.697,0L1.697,-3.384L-5.463,-3.384L-5.463,-4.844L1.526,-14.804L3.298,-14.804L3.298,-4.904L5.484,-4.904L5.484,-3.384ZM1.697,-4.904L1.697,-9.799C1.697,-10.759 1.73,-11.843 1.798,-13.052L1.717,-13.052C1.395,-12.407 1.093,-11.873 0.811,-11.451L-3.792,-4.904L1.697,-4.904Z" style="fill:white;fill-rule:nonzero;"/>
                                </g>
                            </g>
                            <g id="xtick_6">
                                <g id="mb23dc95d685" serif:id="mb23dc95d68" transform="matrix(1,0,0,1,530.064,317.317)">
                                    <path d="M0,0L0,9" style="fill:white;fill-rule:nonzero;stroke:white;stroke-width:1.88px;stroke-linecap:butt;"/>
                                </g>
                                <g id="text_7" transform="matrix(1,0,0,1,530.064,346.989)">
                                    <path d="M-4.718,-6.294C-4.718,-9.188 -4.156,-11.351 -3.031,-12.785C-1.907,-14.218 -0.243,-14.935 1.959,-14.935C2.717,-14.935 3.315,-14.871 3.751,-14.744L3.751,-13.304C3.234,-13.471 2.644,-13.555 1.979,-13.555C0.401,-13.555 -0.804,-13.064 -1.637,-12.08C-2.469,-11.096 -2.926,-9.55 -3.006,-7.442L-2.885,-7.442C-2.147,-8.597 -0.979,-9.174 0.619,-9.174C1.942,-9.174 2.984,-8.775 3.746,-7.976C4.508,-7.177 4.889,-6.093 4.889,-4.723C4.889,-3.192 4.471,-1.989 3.636,-1.113C2.8,-0.237 1.67,0.201 0.247,0.201C-1.277,0.201 -2.486,-0.371 -3.379,-1.516C-4.272,-2.66 -4.718,-4.253 -4.718,-6.294ZM0.227,-1.219C1.18,-1.219 1.92,-1.519 2.447,-2.12C2.974,-2.721 3.238,-3.589 3.238,-4.723C3.238,-5.697 2.993,-6.462 2.503,-7.019C2.012,-7.577 1.281,-7.855 0.307,-7.855C-0.297,-7.855 -0.851,-7.731 -1.355,-7.483C-1.858,-7.234 -2.259,-6.892 -2.558,-6.455C-2.857,-6.019 -3.006,-5.566 -3.006,-5.096C-3.006,-4.404 -2.872,-3.76 -2.603,-3.162C-2.335,-2.565 -1.954,-2.091 -1.46,-1.742C-0.967,-1.393 -0.405,-1.219 0.227,-1.219Z" style="fill:white;fill-rule:nonzero;"/>
                                </g>
                            </g>
                            <g id="xtick_7">
                                <g id="mb23dc95d686" serif:id="mb23dc95d68" transform="matrix(1,0,0,1,608.841,317.317)">
                                    <path d="M0,0L0,9" style="fill:white;fill-rule:nonzero;stroke:white;stroke-width:1.88px;stroke-linecap:butt;"/>
                                </g>
                                <g id="text_8" transform="matrix(1,0,0,1,608.841,346.989)">
                                    <path d="M-0.015,-14.935C1.328,-14.935 2.392,-14.623 3.177,-13.998C3.963,-13.374 4.356,-12.511 4.356,-11.41C4.356,-10.685 4.131,-10.024 3.681,-9.426C3.231,-8.829 2.513,-8.285 1.526,-7.795C2.721,-7.224 3.57,-6.625 4.074,-5.997C4.577,-5.369 4.829,-4.643 4.829,-3.817C4.829,-2.595 4.403,-1.62 3.55,-0.891C2.697,-0.163 1.529,0.201 0.045,0.201C-1.526,0.201 -2.734,-0.143 -3.58,-0.831C-4.426,-1.519 -4.849,-2.494 -4.849,-3.756C-4.849,-5.442 -3.822,-6.754 -1.767,-7.694C-2.694,-8.218 -3.359,-8.783 -3.761,-9.391C-4.164,-9.999 -4.366,-10.678 -4.366,-11.43C-4.366,-12.498 -3.971,-13.349 -3.182,-13.983C-2.393,-14.618 -1.338,-14.935 -0.015,-14.935ZM-3.197,-3.716C-3.197,-2.91 -2.917,-2.283 -2.357,-1.833C-1.796,-1.383 -1.009,-1.158 0.005,-1.158C1.005,-1.158 1.784,-1.393 2.341,-1.863C2.899,-2.333 3.177,-2.978 3.177,-3.797C3.177,-4.448 2.915,-5.027 2.392,-5.534C1.868,-6.041 0.955,-6.533 -0.347,-7.009C-1.348,-6.58 -2.073,-6.105 -2.523,-5.584C-2.973,-5.064 -3.197,-4.441 -3.197,-3.716ZM-0.035,-13.575C-0.874,-13.575 -1.532,-13.374 -2.009,-12.971C-2.486,-12.568 -2.724,-12.031 -2.724,-11.36C-2.724,-10.742 -2.526,-10.212 -2.13,-9.769C-1.734,-9.326 -1.002,-8.882 0.065,-8.439C1.026,-8.842 1.705,-9.275 2.105,-9.738C2.504,-10.202 2.704,-10.742 2.704,-11.36C2.704,-12.038 2.461,-12.577 1.974,-12.976C1.487,-13.376 0.817,-13.575 -0.035,-13.575Z" style="fill:white;fill-rule:nonzero;"/>
                                </g>
                            </g>
                            <g id="xtick_8">
                                <g id="mb23dc95d687" serif:id="mb23dc95d68" transform="matrix(1,0,0,1,687.617,317.317)">
                                    <path d="M0,0L0,9" style="fill:white;fill-rule:nonzero;stroke:white;stroke-width:1.88px;stroke-linecap:butt;"/>
                                </g>
                                <g id="text_9" transform="matrix(1,0,0,1,687.617,346.989)">
                                    <path d="M-4.592,0L-6.224,0L-6.224,-10.494C-6.224,-11.367 -6.197,-12.192 -6.143,-12.971C-6.284,-12.83 -6.442,-12.682 -6.617,-12.528C-6.791,-12.374 -7.59,-11.719 -9.013,-10.564L-9.9,-11.712L-6.002,-14.724L-4.592,-14.724L-4.592,0Z" style="fill:white;fill-rule:nonzero;"/>
                                    <path d="M10.766,-7.382C10.766,-4.837 10.365,-2.937 9.562,-1.682C8.76,-0.426 7.533,0.201 5.881,0.201C4.297,0.201 3.092,-0.441 2.266,-1.727C1.44,-3.013 1.027,-4.898 1.027,-7.382C1.027,-9.947 1.427,-11.85 2.226,-13.092C3.025,-14.334 4.243,-14.955 5.881,-14.955C7.479,-14.955 8.693,-14.307 9.522,-13.011C10.351,-11.716 10.766,-9.839 10.766,-7.382ZM2.719,-7.382C2.719,-5.24 2.971,-3.681 3.474,-2.704C3.978,-1.727 4.78,-1.239 5.881,-1.239C6.996,-1.239 7.803,-1.734 8.303,-2.724C8.804,-3.714 9.054,-5.267 9.054,-7.382C9.054,-9.497 8.804,-11.046 8.303,-12.03C7.803,-13.013 6.996,-13.505 5.881,-13.505C4.78,-13.505 3.978,-13.02 3.474,-12.05C2.971,-11.08 2.719,-9.524 2.719,-7.382Z" style="fill:white;fill-rule:nonzero;"/>
                                </g>
                            </g>
                            <g id="xtick_9">
                                <g id="mb23dc95d688" serif:id="mb23dc95d68" transform="matrix(1,0,0,1,766.394,317.317)">
                                    <path d="M0,0L0,9" style="fill:white;fill-rule:nonzero;stroke:white;stroke-width:1.88px;stroke-linecap:butt;"/>
                                </g>
                                <g id="text_10" transform="matrix(1,0,0,1,766.394,346.989)">
                                    <path d="M-4.592,0L-6.224,0L-6.224,-10.494C-6.224,-11.367 -6.197,-12.192 -6.143,-12.971C-6.284,-12.83 -6.442,-12.682 -6.617,-12.528C-6.791,-12.374 -7.59,-11.719 -9.013,-10.564L-9.9,-11.712L-6.002,-14.724L-4.592,-14.724L-4.592,0Z" style="fill:white;fill-rule:nonzero;"/>
                                    <path d="M10.685,0L1.007,0L1.007,-1.44L4.884,-5.338C6.066,-6.533 6.845,-7.385 7.221,-7.896C7.597,-8.406 7.879,-8.903 8.067,-9.386C8.255,-9.869 8.349,-10.39 8.349,-10.947C8.349,-11.732 8.11,-12.355 7.634,-12.815C7.157,-13.275 6.496,-13.505 5.65,-13.505C5.039,-13.505 4.46,-13.404 3.913,-13.203C3.365,-13.001 2.756,-12.635 2.085,-12.105L1.198,-13.243C2.555,-14.371 4.032,-14.935 5.63,-14.935C7.013,-14.935 8.097,-14.581 8.882,-13.873C9.668,-13.164 10.061,-12.213 10.061,-11.017C10.061,-10.084 9.799,-9.161 9.275,-8.248C8.752,-7.335 7.771,-6.18 6.335,-4.784L3.112,-1.631L3.112,-1.551L10.685,-1.551L10.685,0Z" style="fill:white;fill-rule:nonzero;"/>
                                </g>
                            </g>
                            <g id="_--Tumour-Size" serif:id="∆ Tumour Size" transform="matrix(1,0,0,1,668.975,380.474)">
                                <path d="M-79.437,0L-81.326,0L-78.283,-14.403L-82.744,-14.403L-82.381,-16.062L-71.559,-16.062L-71.889,-14.403L-76.371,-14.403L-79.437,0Z" style="fill:white;fill-rule:nonzero;"/>
                                <path d="M-69.747,-12.041L-71.395,-4.406C-71.526,-3.754 -71.592,-3.245 -71.592,-2.878C-71.592,-1.831 -71.054,-1.307 -69.977,-1.307C-69.333,-1.307 -68.699,-1.527 -68.077,-1.967C-67.454,-2.406 -66.905,-3.036 -66.429,-3.856C-65.953,-4.677 -65.59,-5.665 -65.341,-6.823L-64.243,-12.041L-62.419,-12.041L-64.957,0L-66.484,0L-66.242,-2.23L-66.374,-2.23C-67.092,-1.315 -67.776,-0.677 -68.428,-0.319C-69.08,0.04 -69.754,0.22 -70.45,0.22C-71.387,0.22 -72.123,-0.035 -72.658,-0.544C-73.193,-1.053 -73.46,-1.78 -73.46,-2.725C-73.46,-3.179 -73.38,-3.809 -73.218,-4.614L-71.614,-12.041L-69.747,-12.041Z" style="fill:white;fill-rule:nonzero;"/>
                                <path d="M-54.069,0L-52.443,-7.603C-52.311,-8.291 -52.245,-8.785 -52.245,-9.086C-52.245,-9.598 -52.359,-9.998 -52.586,-10.283C-52.813,-10.569 -53.201,-10.712 -53.751,-10.712C-54.366,-10.712 -54.965,-10.492 -55.547,-10.052C-56.129,-9.613 -56.642,-8.985 -57.085,-8.168C-57.528,-7.352 -57.87,-6.368 -58.112,-5.219L-59.222,0L-61.068,0L-58.497,-12.041L-56.97,-12.041L-57.211,-9.811L-57.101,-9.811C-56.464,-10.682 -55.829,-11.309 -55.195,-11.689C-54.562,-12.07 -53.908,-12.261 -53.234,-12.261C-52.407,-12.261 -51.769,-12.023 -51.323,-11.547C-50.876,-11.071 -50.612,-10.408 -50.532,-9.558L-50.444,-9.558C-49.814,-10.474 -49.144,-11.153 -48.433,-11.596C-47.723,-12.039 -47.005,-12.261 -46.28,-12.261C-45.35,-12.261 -44.63,-12.012 -44.121,-11.514C-43.612,-11.016 -43.358,-10.291 -43.358,-9.338C-43.358,-8.84 -43.438,-8.188 -43.599,-7.383L-45.181,0L-47.049,0L-45.423,-7.603C-45.276,-8.364 -45.203,-8.899 -45.203,-9.207C-45.203,-9.661 -45.33,-10.025 -45.582,-10.3C-45.835,-10.574 -46.232,-10.712 -46.774,-10.712C-47.368,-10.712 -47.953,-10.499 -48.532,-10.074C-49.111,-9.65 -49.618,-9.047 -50.054,-8.267C-50.49,-7.487 -50.821,-6.563 -51.048,-5.493L-52.224,0L-54.069,0Z" style="fill:white;fill-rule:nonzero;"/>
                                <path d="M-35.03,-12.195C-33.638,-12.195 -32.54,-11.783 -31.734,-10.959C-30.928,-10.135 -30.526,-9.001 -30.526,-7.559C-30.526,-6.182 -30.789,-4.882 -31.317,-3.658C-31.844,-2.435 -32.558,-1.49 -33.459,-0.824C-34.36,-0.157 -35.378,0.176 -36.513,0.176C-37.919,0.176 -39.022,-0.238 -39.82,-1.066C-40.618,-1.893 -41.017,-3.025 -41.017,-4.46C-41.017,-5.852 -40.75,-7.161 -40.215,-8.388C-39.681,-9.615 -38.959,-10.556 -38.051,-11.212C-37.143,-11.867 -36.136,-12.195 -35.03,-12.195ZM-32.437,-7.811C-32.437,-8.654 -32.666,-9.337 -33.124,-9.86C-33.582,-10.384 -34.202,-10.646 -34.986,-10.646C-35.784,-10.646 -36.5,-10.375 -37.134,-9.833C-37.767,-9.291 -38.258,-8.538 -38.606,-7.575C-38.954,-6.612 -39.128,-5.541 -39.128,-4.362C-39.128,-3.402 -38.895,-2.661 -38.43,-2.137C-37.965,-1.613 -37.297,-1.351 -36.425,-1.351C-35.663,-1.351 -34.979,-1.619 -34.371,-2.153C-33.763,-2.688 -33.289,-3.448 -32.948,-4.433C-32.607,-5.418 -32.437,-6.544 -32.437,-7.811Z" style="fill:white;fill-rule:nonzero;"/>
                                <path d="M-24.516,-12.041L-26.164,-4.406C-26.296,-3.754 -26.362,-3.245 -26.362,-2.878C-26.362,-1.831 -25.823,-1.307 -24.747,-1.307C-24.102,-1.307 -23.469,-1.527 -22.846,-1.967C-22.224,-2.406 -21.674,-3.036 -21.198,-3.856C-20.722,-4.677 -20.359,-5.665 -20.11,-6.823L-19.012,-12.041L-17.188,-12.041L-19.726,0L-21.253,0L-21.011,-2.23L-21.143,-2.23C-21.861,-1.315 -22.546,-0.677 -23.198,-0.319C-23.849,0.04 -24.523,0.22 -25.219,0.22C-26.157,0.22 -26.893,-0.035 -27.427,-0.544C-27.962,-1.053 -28.229,-1.78 -28.229,-2.725C-28.229,-3.179 -28.149,-3.809 -27.988,-4.614L-26.384,-12.041L-24.516,-12.041Z" style="fill:white;fill-rule:nonzero;"/>
                                <path d="M-8.223,-12.261C-7.718,-12.261 -7.278,-12.209 -6.905,-12.107L-7.3,-10.459C-7.689,-10.554 -8.073,-10.602 -8.454,-10.602C-9.12,-10.602 -9.745,-10.382 -10.327,-9.943C-10.909,-9.503 -11.418,-8.893 -11.854,-8.113C-12.29,-7.333 -12.61,-6.467 -12.816,-5.515L-13.991,0L-15.837,0L-13.266,-12.041L-11.739,-12.041L-11.981,-9.811L-11.871,-9.811C-11.343,-10.507 -10.908,-11.006 -10.563,-11.31C-10.219,-11.614 -9.858,-11.849 -9.481,-12.014C-9.104,-12.178 -8.685,-12.261 -8.223,-12.261Z" style="fill:white;fill-rule:nonzero;"/>
                                <path d="M8.3,-4.658C8.3,-3.113 7.786,-1.913 6.757,-1.06C5.728,-0.207 4.279,0.22 2.411,0.22C1.635,0.22 0.952,0.167 0.363,0.06C-0.227,-0.046 -0.782,-0.223 -1.302,-0.472L-1.302,-2.34C-0.115,-1.725 1.13,-1.417 2.433,-1.417C3.62,-1.417 4.561,-1.694 5.257,-2.247C5.953,-2.8 6.301,-3.56 6.301,-4.526C6.301,-5.098 6.108,-5.601 5.724,-6.037C5.339,-6.473 4.623,-6.987 3.576,-7.581C2.47,-8.203 1.703,-8.826 1.274,-9.448C0.846,-10.071 0.632,-10.807 0.632,-11.656C0.632,-13.026 1.115,-14.141 2.082,-15.002C3.049,-15.862 4.319,-16.293 5.894,-16.293C6.619,-16.293 7.295,-16.223 7.921,-16.084C8.547,-15.945 9.208,-15.707 9.904,-15.37L9.179,-13.722C8.696,-14 8.154,-14.22 7.553,-14.381C6.953,-14.542 6.4,-14.623 5.894,-14.623C4.913,-14.623 4.124,-14.368 3.527,-13.859C2.93,-13.35 2.631,-12.66 2.631,-11.788C2.631,-11.393 2.693,-11.054 2.818,-10.772C2.943,-10.49 3.14,-10.225 3.411,-9.976C3.682,-9.727 4.202,-9.379 4.971,-8.932C6.048,-8.287 6.775,-7.782 7.152,-7.416C7.529,-7.05 7.815,-6.645 8.009,-6.202C8.203,-5.759 8.3,-5.244 8.3,-4.658Z" style="fill:white;fill-rule:nonzero;"/>
                                <path d="M12.057,0L10.212,0L12.783,-12.041L14.628,-12.041L12.057,0ZM13.299,-15.117C13.299,-15.527 13.416,-15.862 13.651,-16.122C13.885,-16.382 14.189,-16.512 14.562,-16.512C15.207,-16.512 15.529,-16.183 15.529,-15.524C15.529,-15.121 15.406,-14.78 15.161,-14.502C14.916,-14.224 14.632,-14.084 14.31,-14.084C14.017,-14.084 13.775,-14.174 13.585,-14.354C13.394,-14.533 13.299,-14.788 13.299,-15.117Z" style="fill:white;fill-rule:nonzero;"/>
                                <path d="M22.857,0L14.958,0L15.211,-1.285L22.835,-10.668L17.573,-10.668L17.869,-12.041L25.087,-12.041L24.769,-10.503L17.298,-1.373L23.132,-1.373L22.857,0Z" style="fill:white;fill-rule:nonzero;"/>
                                <path d="M30.668,0.22C29.321,0.22 28.262,-0.179 27.493,-0.978C26.724,-1.776 26.34,-2.882 26.34,-4.296C26.34,-5.673 26.613,-6.993 27.158,-8.256C27.704,-9.52 28.427,-10.503 29.328,-11.206C30.229,-11.909 31.221,-12.261 32.305,-12.261C33.426,-12.261 34.268,-12.017 34.832,-11.53C35.396,-11.043 35.678,-10.364 35.678,-9.492C35.678,-8.174 35.07,-7.139 33.854,-6.389C32.639,-5.638 30.899,-5.262 28.636,-5.262L28.273,-5.262L28.229,-4.384C28.229,-3.424 28.455,-2.675 28.905,-2.137C29.355,-1.599 30.053,-1.329 30.998,-1.329C31.459,-1.329 31.934,-1.395 32.421,-1.527C32.908,-1.659 33.514,-1.901 34.239,-2.252L34.239,-0.648C33.55,-0.326 32.943,-0.101 32.415,0.027C31.888,0.156 31.306,0.22 30.668,0.22ZM32.195,-10.69C31.441,-10.69 30.732,-10.345 30.07,-9.657C29.407,-8.969 28.9,-8.013 28.548,-6.79L28.68,-6.79C30.35,-6.79 31.63,-7.007 32.52,-7.443C33.409,-7.879 33.854,-8.511 33.854,-9.338C33.854,-9.727 33.721,-10.049 33.453,-10.305C33.186,-10.562 32.767,-10.69 32.195,-10.69Z" style="fill:white;fill-rule:nonzero;"/>
                                <path d="M43.105,-2.988C43.105,-5.471 43.544,-7.767 44.423,-9.877C45.302,-11.986 46.708,-14.048 48.642,-16.062L50.367,-16.062C48.565,-14.084 47.205,-11.997 46.285,-9.8C45.366,-7.603 44.907,-5.339 44.907,-3.01C44.907,-0.527 45.324,1.663 46.159,3.56L44.72,3.56C43.643,1.611 43.105,-0.571 43.105,-2.988Z" style="fill:white;fill-rule:nonzero;"/>
                                <path d="M54.179,0.22C52.758,0.22 51.656,-0.172 50.872,-0.956C50.089,-1.74 49.697,-2.845 49.697,-4.274C49.697,-5.739 49.968,-7.09 50.51,-8.328C51.052,-9.565 51.801,-10.53 52.756,-11.223C53.712,-11.915 54.787,-12.261 55.981,-12.261C56.984,-12.261 57.966,-12.074 58.925,-11.7L58.409,-10.151C57.53,-10.525 56.728,-10.712 56.003,-10.712C55.182,-10.712 54.434,-10.432 53.756,-9.871C53.079,-9.311 52.548,-8.531 52.163,-7.531C51.779,-6.531 51.586,-5.446 51.586,-4.274C51.586,-3.336 51.83,-2.607 52.317,-2.087C52.804,-1.567 53.476,-1.307 54.333,-1.307C54.86,-1.307 55.358,-1.381 55.827,-1.527C56.296,-1.674 56.757,-1.846 57.211,-2.043L57.211,-0.472C56.303,-0.011 55.292,0.22 54.179,0.22Z" style="fill:white;fill-rule:nonzero;"/>
                                <path d="M66.396,0L68.022,-7.603C68.154,-8.291 68.22,-8.785 68.22,-9.086C68.22,-9.598 68.106,-9.998 67.879,-10.283C67.652,-10.569 67.264,-10.712 66.714,-10.712C66.099,-10.712 65.5,-10.492 64.918,-10.052C64.336,-9.613 63.823,-8.985 63.38,-8.168C62.937,-7.352 62.595,-6.368 62.353,-5.219L61.243,0L59.398,0L61.968,-12.041L63.495,-12.041L63.254,-9.811L63.364,-9.811C64.001,-10.682 64.636,-11.309 65.27,-11.689C65.903,-12.07 66.557,-12.261 67.231,-12.261C68.058,-12.261 68.696,-12.023 69.142,-11.547C69.589,-11.071 69.853,-10.408 69.933,-9.558L70.021,-9.558C70.651,-10.474 71.321,-11.153 72.032,-11.596C72.742,-12.039 73.46,-12.261 74.185,-12.261C75.115,-12.261 75.835,-12.012 76.344,-11.514C76.853,-11.016 77.108,-10.291 77.108,-9.338C77.108,-8.84 77.027,-8.188 76.866,-7.383L75.284,0L73.416,0L75.042,-7.603C75.189,-8.364 75.262,-8.899 75.262,-9.207C75.262,-9.661 75.135,-10.025 74.883,-10.3C74.63,-10.574 74.233,-10.712 73.691,-10.712C73.098,-10.712 72.512,-10.499 71.933,-10.074C71.354,-9.65 70.847,-9.047 70.411,-8.267C69.976,-7.487 69.644,-6.563 69.417,-5.493L68.242,0L66.396,0Z" style="fill:white;fill-rule:nonzero;"/>
                                <path d="M83.864,-9.492C83.864,-6.995 83.419,-4.689 82.529,-2.576C81.639,-0.463 80.239,1.582 78.327,3.56L76.613,3.56C80.246,-0.476 82.062,-4.827 82.062,-9.492C82.062,-11.99 81.649,-14.18 80.821,-16.062L82.26,-16.062C83.329,-14.092 83.864,-11.902 83.864,-9.492Z" style="fill:white;fill-rule:nonzero;"/>
                            </g>
                        </g>
                        <path id="line2d_16" d="M476.705,317.317L476.705,212.946" style="fill:none;stroke:rgb(26,158,120);stroke-width:5px;"/>
                        <g id="line2d_17" transform="matrix(1,0,0,0.58189,0,116.309)">
                            <path d="M408.766,278.178L408.766,343.41" style="fill:none;stroke:rgb(217,95,2);stroke-width:6.11px;"/>
                        </g>
                        <path id="patch_5" d="M136.182,317.317L766.394,317.317" style="fill:none;stroke:white;stroke-width:1.88px;stroke-linecap:square;"/>
                        <g id="PathCollection_1">
                            <g id="C0_0_26a68d540e" transform="matrix(1,0,0,1,174.564,239.039)">
                                <path d="M0,4C1.061,4 2.078,3.579 2.828,2.828C3.579,2.078 4,1.061 4,0C4,-1.061 3.579,-2.078 2.828,-2.828C2.078,-3.579 1.061,-4 0,-4C-1.061,-4 -2.078,-3.579 -2.828,-2.828C-3.579,-2.078 -4,-1.061 -4,0C-4,1.061 -3.579,2.078 -2.828,2.828C-2.078,3.579 -1.061,4 0,4Z" style="fill:rgb(26,158,120);fill-rule:nonzero;"/>
                            </g>
                            <g id="C0_0_26a68d540e1" serif:id="C0_0_26a68d540e" transform="matrix(1,0,0,1,288.747,239.039)">
                                <path d="M0,4C1.061,4 2.078,3.579 2.828,2.828C3.579,2.078 4,1.061 4,0C4,-1.061 3.579,-2.078 2.828,-2.828C2.078,-3.579 1.061,-4 0,-4C-1.061,-4 -2.078,-3.579 -2.828,-2.828C-3.579,-2.078 -4,-1.061 -4,0C-4,1.061 -3.579,2.078 -2.828,2.828C-2.078,3.579 -1.061,4 0,4Z" style="fill:rgb(26,158,120);fill-rule:nonzero;"/>
                            </g>
                            <g id="C0_0_26a68d540e2" serif:id="C0_0_26a68d540e" transform="matrix(1,0,0,1,291.106,231.012)">
                                <path d="M0,4C1.061,4 2.078,3.579 2.828,2.828C3.579,2.078 4,1.061 4,0C4,-1.061 3.579,-2.078 2.828,-2.828C2.078,-3.579 1.061,-4 0,-4C-1.061,-4 -2.078,-3.579 -2.828,-2.828C-3.579,-2.078 -4,-1.061 -4,0C-4,1.061 -3.579,2.078 -2.828,2.828C-2.078,3.579 -1.061,4 0,4Z" style="fill:rgb(26,158,120);fill-rule:nonzero;"/>
                            </g>
                            <g id="C0_0_26a68d540e3" serif:id="C0_0_26a68d540e" transform="matrix(1,0,0,1,345.643,239.039)">
                                <path d="M0,4C1.061,4 2.078,3.579 2.828,2.828C3.579,2.078 4,1.061 4,0C4,-1.061 3.579,-2.078 2.828,-2.828C2.078,-3.579 1.061,-4 0,-4C-1.061,-4 -2.078,-3.579 -2.828,-2.828C-3.579,-2.078 -4,-1.061 -4,0C-4,1.061 -3.579,2.078 -2.828,2.828C-2.078,3.579 -1.061,4 0,4Z" style="fill:rgb(26,158,120);fill-rule:nonzero;"/>
                            </g>
                            <g id="C0_0_26a68d540e4" serif:id="C0_0_26a68d540e" transform="matrix(1,0,0,1,413.59,239.039)">
                                <path d="M0,4C1.061,4 2.078,3.579 2.828,2.828C3.579,2.078 4,1.061 4,0C4,-1.061 3.579,-2.078 2.828,-2.828C2.078,-3.579 1.061,-4 0,-4C-1.061,-4 -2.078,-3.579 -2.828,-2.828C-3.579,-2.078 -4,-1.061 -4,0C-4,1.061 -3.579,2.078 -2.828,2.828C-2.078,3.579 -1.061,4 0,4Z" style="fill:rgb(26,158,120);fill-rule:nonzero;"/>
                            </g>
                            <g id="C0_0_26a68d540e5" serif:id="C0_0_26a68d540e" transform="matrix(1,0,0,1,421.682,239.039)">
                                <path d="M0,4C1.061,4 2.078,3.579 2.828,2.828C3.579,2.078 4,1.061 4,0C4,-1.061 3.579,-2.078 2.828,-2.828C2.078,-3.579 1.061,-4 0,-4C-1.061,-4 -2.078,-3.579 -2.828,-2.828C-3.579,-2.078 -4,-1.061 -4,0C-4,1.061 -3.579,2.078 -2.828,2.828C-2.078,3.579 -1.061,4 0,4Z" style="fill:rgb(26,158,120);fill-rule:nonzero;"/>
                            </g>
                            <g id="C0_0_26a68d540e6" serif:id="C0_0_26a68d540e" transform="matrix(1,0,0,1,421.814,230.64)">
                                <path d="M0,4C1.061,4 2.078,3.579 2.828,2.828C3.579,2.078 4,1.061 4,0C4,-1.061 3.579,-2.078 2.828,-2.828C2.078,-3.579 1.061,-4 0,-4C-1.061,-4 -2.078,-3.579 -2.828,-2.828C-3.579,-2.078 -4,-1.061 -4,0C-4,1.061 -3.579,2.078 -2.828,2.828C-2.078,3.579 -1.061,4 0,4Z" style="fill:rgb(26,158,120);fill-rule:nonzero;"/>
                            </g>
                            <g id="C0_0_26a68d540e7" serif:id="C0_0_26a68d540e" transform="matrix(1,0,0,1,452.963,239.039)">
                                <path d="M0,4C1.061,4 2.078,3.579 2.828,2.828C3.579,2.078 4,1.061 4,0C4,-1.061 3.579,-2.078 2.828,-2.828C2.078,-3.579 1.061,-4 0,-4C-1.061,-4 -2.078,-3.579 -2.828,-2.828C-3.579,-2.078 -4,-1.061 -4,0C-4,1.061 -3.579,2.078 -2.828,2.828C-2.078,3.579 -1.061,4 0,4Z" style="fill:rgb(26,158,120);fill-rule:nonzero;"/>
                            </g>
                            <g id="C0_0_26a68d540e8" serif:id="C0_0_26a68d540e" transform="matrix(1,0,0,1,459.9,234.855)">
                                <path d="M0,4C1.061,4 2.078,3.579 2.828,2.828C3.579,2.078 4,1.061 4,0C4,-1.061 3.579,-2.078 2.828,-2.828C2.078,-3.579 1.061,-4 0,-4C-1.061,-4 -2.078,-3.579 -2.828,-2.828C-3.579,-2.078 -4,-1.061 -4,0C-4,1.061 -3.579,2.078 -2.828,2.828C-2.078,3.579 -1.061,4 0,4Z" style="fill:rgb(26,158,120);fill-rule:nonzero;"/>
                            </g>
                            <g id="C0_0_26a68d540e9" serif:id="C0_0_26a68d540e" transform="matrix(1,0,0,1,488.912,239.039)">
                                <path d="M0,4C1.061,4 2.078,3.579 2.828,2.828C3.579,2.078 4,1.061 4,0C4,-1.061 3.579,-2.078 2.828,-2.828C2.078,-3.579 1.061,-4 0,-4C-1.061,-4 -2.078,-3.579 -2.828,-2.828C-3.579,-2.078 -4,-1.061 -4,0C-4,1.061 -3.579,2.078 -2.828,2.828C-2.078,3.579 -1.061,4 0,4Z" style="fill:rgb(26,158,120);fill-rule:nonzero;"/>
                            </g>
                            <g id="C0_0_26a68d540e10" serif:id="C0_0_26a68d540e" transform="matrix(1,0,0,1,491.136,230.97)">
                                <path d="M0,4C1.061,4 2.078,3.579 2.828,2.828C3.579,2.078 4,1.061 4,0C4,-1.061 3.579,-2.078 2.828,-2.828C2.078,-3.579 1.061,-4 0,-4C-1.061,-4 -2.078,-3.579 -2.828,-2.828C-3.579,-2.078 -4,-1.061 -4,0C-4,1.061 -3.579,2.078 -2.828,2.828C-2.078,3.579 -1.061,4 0,4Z" style="fill:rgb(26,158,120);fill-rule:nonzero;"/>
                            </g>
                            <g id="C0_0_26a68d540e11" serif:id="C0_0_26a68d540e" transform="matrix(1,0,0,1,506.781,239.039)">
                                <path d="M0,4C1.061,4 2.078,3.579 2.828,2.828C3.579,2.078 4,1.061 4,0C4,-1.061 3.579,-2.078 2.828,-2.828C2.078,-3.579 1.061,-4 0,-4C-1.061,-4 -2.078,-3.579 -2.828,-2.828C-3.579,-2.078 -4,-1.061 -4,0C-4,1.061 -3.579,2.078 -2.828,2.828C-2.078,3.579 -1.061,4 0,4Z" style="fill:rgb(26,158,120);fill-rule:nonzero;"/>
                            </g>
                            <g id="C0_0_26a68d540e12" serif:id="C0_0_26a68d540e" transform="matrix(1,0,0,1,552.925,239.039)">
                                <path d="M0,4C1.061,4 2.078,3.579 2.828,2.828C3.579,2.078 4,1.061 4,0C4,-1.061 3.579,-2.078 2.828,-2.828C2.078,-3.579 1.061,-4 0,-4C-1.061,-4 -2.078,-3.579 -2.828,-2.828C-3.579,-2.078 -4,-1.061 -4,0C-4,1.061 -3.579,2.078 -2.828,2.828C-2.078,3.579 -1.061,4 0,4Z" style="fill:rgb(26,158,120);fill-rule:nonzero;"/>
                            </g>
                            <g id="C0_0_26a68d540e13" serif:id="C0_0_26a68d540e" transform="matrix(1,0,0,1,562.005,239.039)">
                                <path d="M0,4C1.061,4 2.078,3.579 2.828,2.828C3.579,2.078 4,1.061 4,0C4,-1.061 3.579,-2.078 2.828,-2.828C2.078,-3.579 1.061,-4 0,-4C-1.061,-4 -2.078,-3.579 -2.828,-2.828C-3.579,-2.078 -4,-1.061 -4,0C-4,1.061 -3.579,2.078 -2.828,2.828C-2.078,3.579 -1.061,4 0,4Z" style="fill:rgb(26,158,120);fill-rule:nonzero;"/>
                            </g>
                            <g id="C0_0_26a68d540e14" serif:id="C0_0_26a68d540e" transform="matrix(1,0,0,1,578.841,239.039)">
                                <path d="M0,4C1.061,4 2.078,3.579 2.828,2.828C3.579,2.078 4,1.061 4,0C4,-1.061 3.579,-2.078 2.828,-2.828C2.078,-3.579 1.061,-4 0,-4C-1.061,-4 -2.078,-3.579 -2.828,-2.828C-3.579,-2.078 -4,-1.061 -4,0C-4,1.061 -3.579,2.078 -2.828,2.828C-2.078,3.579 -1.061,4 0,4Z" style="fill:rgb(26,158,120);fill-rule:nonzero;"/>
                            </g>
                            <g id="C0_0_26a68d540e15" serif:id="C0_0_26a68d540e" transform="matrix(1,0,0,1,580.105,230.744)">
                                <path d="M0,4C1.061,4 2.078,3.579 2.828,2.828C3.579,2.078 4,1.061 4,0C4,-1.061 3.579,-2.078 2.828,-2.828C2.078,-3.579 1.061,-4 0,-4C-1.061,-4 -2.078,-3.579 -2.828,-2.828C-3.579,-2.078 -4,-1.061 -4,0C-4,1.061 -3.579,2.078 -2.828,2.828C-2.078,3.579 -1.061,4 0,4Z" style="fill:rgb(26,158,120);fill-rule:nonzero;"/>
                            </g>
                            <g id="C0_0_26a68d540e16" serif:id="C0_0_26a68d540e" transform="matrix(1,0,0,1,581.475,246.971)">
                                <path d="M0,4C1.061,4 2.078,3.579 2.828,2.828C3.579,2.078 4,1.061 4,0C4,-1.061 3.579,-2.078 2.828,-2.828C2.078,-3.579 1.061,-4 0,-4C-1.061,-4 -2.078,-3.579 -2.828,-2.828C-3.579,-2.078 -4,-1.061 -4,0C-4,1.061 -3.579,2.078 -2.828,2.828C-2.078,3.579 -1.061,4 0,4Z" style="fill:rgb(26,158,120);fill-rule:nonzero;"/>
                            </g>
                            <g id="C0_0_26a68d540e17" serif:id="C0_0_26a68d540e" transform="matrix(1,0,0,1,616.416,239.039)">
                                <path d="M0,4C1.061,4 2.078,3.579 2.828,2.828C3.579,2.078 4,1.061 4,0C4,-1.061 3.579,-2.078 2.828,-2.828C2.078,-3.579 1.061,-4 0,-4C-1.061,-4 -2.078,-3.579 -2.828,-2.828C-3.579,-2.078 -4,-1.061 -4,0C-4,1.061 -3.579,2.078 -2.828,2.828C-2.078,3.579 -1.061,4 0,4Z" style="fill:rgb(26,158,120);fill-rule:nonzero;"/>
                            </g>
                            <g id="C0_0_26a68d540e18" serif:id="C0_0_26a68d540e" transform="matrix(1,0,0,1,639.067,239.039)">
                                <path d="M0,4C1.061,4 2.078,3.579 2.828,2.828C3.579,2.078 4,1.061 4,0C4,-1.061 3.579,-2.078 2.828,-2.828C2.078,-3.579 1.061,-4 0,-4C-1.061,-4 -2.078,-3.579 -2.828,-2.828C-3.579,-2.078 -4,-1.061 -4,0C-4,1.061 -3.579,2.078 -2.828,2.828C-2.078,3.579 -1.061,4 0,4Z" style="fill:rgb(26,158,120);fill-rule:nonzero;"/>
                            </g>
                            <g id="C0_0_26a68d540e19" serif:id="C0_0_26a68d540e" transform="matrix(1,0,0,1,666.418,239.039)">
                                <path d="M0,4C1.061,4 2.078,3.579 2.828,2.828C3.579,2.078 4,1.061 4,0C4,-1.061 3.579,-2.078 2.828,-2.828C2.078,-3.579 1.061,-4 0,-4C-1.061,-4 -2.078,-3.579 -2.828,-2.828C-3.579,-2.078 -4,-1.061 -4,0C-4,1.061 -3.579,2.078 -2.828,2.828C-2.078,3.579 -1.061,4 0,4Z" style="fill:rgb(26,158,120);fill-rule:nonzero;"/>
                            </g>
                        </g>
                        <g id="PathCollection_2">
                            <g id="C1_0_4167c47b69" transform="matrix(1,0,0,1,160.227,291.224)">
                                <path d="M0,4C1.061,4 2.078,3.579 2.828,2.828C3.579,2.078 4,1.061 4,0C4,-1.061 3.579,-2.078 2.828,-2.828C2.078,-3.579 1.061,-4 0,-4C-1.061,-4 -2.078,-3.579 -2.828,-2.828C-3.579,-2.078 -4,-1.061 -4,0C-4,1.061 -3.579,2.078 -2.828,2.828C-2.078,3.579 -1.061,4 0,4Z" style="fill:rgb(217,95,2);fill-rule:nonzero;"/>
                            </g>
                            <g id="C1_0_4167c47b691" serif:id="C1_0_4167c47b69" transform="matrix(1,0,0,1,230.074,291.224)">
                                <path d="M0,4C1.061,4 2.078,3.579 2.828,2.828C3.579,2.078 4,1.061 4,0C4,-1.061 3.579,-2.078 2.828,-2.828C2.078,-3.579 1.061,-4 0,-4C-1.061,-4 -2.078,-3.579 -2.828,-2.828C-3.579,-2.078 -4,-1.061 -4,0C-4,1.061 -3.579,2.078 -2.828,2.828C-2.078,3.579 -1.061,4 0,4Z" style="fill:rgb(217,95,2);fill-rule:nonzero;"/>
                            </g>
                            <g id="C1_0_4167c47b692" serif:id="C1_0_4167c47b69" transform="matrix(1,0,0,1,311.855,291.224)">
                                <path d="M0,4C1.061,4 2.078,3.579 2.828,2.828C3.579,2.078 4,1.061 4,0C4,-1.061 3.579,-2.078 2.828,-2.828C2.078,-3.579 1.061,-4 0,-4C-1.061,-4 -2.078,-3.579 -2.828,-2.828C-3.579,-2.078 -4,-1.061 -4,0C-4,1.061 -3.579,2.078 -2.828,2.828C-2.078,3.579 -1.061,4 0,4Z" style="fill:rgb(217,95,2);fill-rule:nonzero;"/>
                            </g>
                            <g id="C1_0_4167c47b693" serif:id="C1_0_4167c47b69" transform="matrix(1,0,0,1,332.002,291.224)">
                                <path d="M0,4C1.061,4 2.078,3.579 2.828,2.828C3.579,2.078 4,1.061 4,0C4,-1.061 3.579,-2.078 2.828,-2.828C2.078,-3.579 1.061,-4 0,-4C-1.061,-4 -2.078,-3.579 -2.828,-2.828C-3.579,-2.078 -4,-1.061 -4,0C-4,1.061 -3.579,2.078 -2.828,2.828C-2.078,3.579 -1.061,4 0,4Z" style="fill:rgb(217,95,2);fill-rule:nonzero;"/>
                            </g>
                            <g id="C1_0_4167c47b694" serif:id="C1_0_4167c47b69" transform="matrix(1,0,0,1,342.635,291.224)">
                                <path d="M0,4C1.061,4 2.078,3.579 2.828,2.828C3.579,2.078 4,1.061 4,0C4,-1.061 3.579,-2.078 2.828,-2.828C2.078,-3.579 1.061,-4 0,-4C-1.061,-4 -2.078,-3.579 -2.828,-2.828C-3.579,-2.078 -4,-1.061 -4,0C-4,1.061 -3.579,2.078 -2.828,2.828C-2.078,3.579 -1.061,4 0,4Z" style="fill:rgb(217,95,2);fill-rule:nonzero;"/>
                            </g>
                            <g id="C1_0_4167c47b695" serif:id="C1_0_4167c47b69" transform="matrix(1,0,0,1,348.913,286.019)">
                                <path d="M0,4C1.061,4 2.078,3.579 2.828,2.828C3.579,2.078 4,1.061 4,0C4,-1.061 3.579,-2.078 2.828,-2.828C2.078,-3.579 1.061,-4 0,-4C-1.061,-4 -2.078,-3.579 -2.828,-2.828C-3.579,-2.078 -4,-1.061 -4,0C-4,1.061 -3.579,2.078 -2.828,2.828C-2.078,3.579 -1.061,4 0,4Z" style="fill:rgb(217,95,2);fill-rule:nonzero;"/>
                            </g>
                            <g id="C1_0_4167c47b696" serif:id="C1_0_4167c47b69" transform="matrix(1,0,0,1,349.64,295.281)">
                                <path d="M0,4C1.061,4 2.078,3.579 2.828,2.828C3.579,2.078 4,1.061 4,0C4,-1.061 3.579,-2.078 2.828,-2.828C2.078,-3.579 1.061,-4 0,-4C-1.061,-4 -2.078,-3.579 -2.828,-2.828C-3.579,-2.078 -4,-1.061 -4,0C-4,1.061 -3.579,2.078 -2.828,2.828C-2.078,3.579 -1.061,4 0,4Z" style="fill:rgb(217,95,2);fill-rule:nonzero;"/>
                            </g>
                            <g id="C1_0_4167c47b697" serif:id="C1_0_4167c47b69" transform="matrix(1,0,0,1,355.274,301.246)">
                                <path d="M0,4C1.061,4 2.078,3.579 2.828,2.828C3.579,2.078 4,1.061 4,0C4,-1.061 3.579,-2.078 2.828,-2.828C2.078,-3.579 1.061,-4 0,-4C-1.061,-4 -2.078,-3.579 -2.828,-2.828C-3.579,-2.078 -4,-1.061 -4,0C-4,1.061 -3.579,2.078 -2.828,2.828C-2.078,3.579 -1.061,4 0,4Z" style="fill:rgb(217,95,2);fill-rule:nonzero;"/>
                            </g>
                            <g id="C1_0_4167c47b698" serif:id="C1_0_4167c47b69" transform="matrix(1,0,0,1,356.632,291.224)">
                                <path d="M0,4C1.061,4 2.078,3.579 2.828,2.828C3.579,2.078 4,1.061 4,0C4,-1.061 3.579,-2.078 2.828,-2.828C2.078,-3.579 1.061,-4 0,-4C-1.061,-4 -2.078,-3.579 -2.828,-2.828C-3.579,-2.078 -4,-1.061 -4,0C-4,1.061 -3.579,2.078 -2.828,2.828C-2.078,3.579 -1.061,4 0,4Z" style="fill:rgb(217,95,2);fill-rule:nonzero;"/>
                            </g>
                            <g id="C1_0_4167c47b699" serif:id="C1_0_4167c47b69" transform="matrix(1,0,0,1,367.747,291.224)">
                                <path d="M0,4C1.061,4 2.078,3.579 2.828,2.828C3.579,2.078 4,1.061 4,0C4,-1.061 3.579,-2.078 2.828,-2.828C2.078,-3.579 1.061,-4 0,-4C-1.061,-4 -2.078,-3.579 -2.828,-2.828C-3.579,-2.078 -4,-1.061 -4,0C-4,1.061 -3.579,2.078 -2.828,2.828C-2.078,3.579 -1.061,4 0,4Z" style="fill:rgb(217,95,2);fill-rule:nonzero;"/>
                            </g>
                            <g id="C1_0_4167c47b6910" serif:id="C1_0_4167c47b69" transform="matrix(1,0,0,1,387.02,291.224)">
                                <path d="M0,4C1.061,4 2.078,3.579 2.828,2.828C3.579,2.078 4,1.061 4,0C4,-1.061 3.579,-2.078 2.828,-2.828C2.078,-3.579 1.061,-4 0,-4C-1.061,-4 -2.078,-3.579 -2.828,-2.828C-3.579,-2.078 -4,-1.061 -4,0C-4,1.061 -3.579,2.078 -2.828,2.828C-2.078,3.579 -1.061,4 0,4Z" style="fill:rgb(217,95,2);fill-rule:nonzero;"/>
                            </g>
                            <g id="C1_0_4167c47b6911" serif:id="C1_0_4167c47b69" transform="matrix(1,0,0,1,433.994,291.224)">
                                <path d="M0,4C1.061,4 2.078,3.579 2.828,2.828C3.579,2.078 4,1.061 4,0C4,-1.061 3.579,-2.078 2.828,-2.828C2.078,-3.579 1.061,-4 0,-4C-1.061,-4 -2.078,-3.579 -2.828,-2.828C-3.579,-2.078 -4,-1.061 -4,0C-4,1.061 -3.579,2.078 -2.828,2.828C-2.078,3.579 -1.061,4 0,4Z" style="fill:rgb(217,95,2);fill-rule:nonzero;"/>
                            </g>
                            <g id="C1_0_4167c47b6912" serif:id="C1_0_4167c47b69" transform="matrix(1,0,0,1,467.96,291.224)">
                                <path d="M0,4C1.061,4 2.078,3.579 2.828,2.828C3.579,2.078 4,1.061 4,0C4,-1.061 3.579,-2.078 2.828,-2.828C2.078,-3.579 1.061,-4 0,-4C-1.061,-4 -2.078,-3.579 -2.828,-2.828C-3.579,-2.078 -4,-1.061 -4,0C-4,1.061 -3.579,2.078 -2.828,2.828C-2.078,3.579 -1.061,4 0,4Z" style="fill:rgb(217,95,2);fill-rule:nonzero;"/>
                            </g>
                            <g id="C1_0_4167c47b6913" serif:id="C1_0_4167c47b69" transform="matrix(1,0,0,1,482.514,291.224)">
                                <path d="M0,4C1.061,4 2.078,3.579 2.828,2.828C3.579,2.078 4,1.061 4,0C4,-1.061 3.579,-2.078 2.828,-2.828C2.078,-3.579 1.061,-4 0,-4C-1.061,-4 -2.078,-3.579 -2.828,-2.828C-3.579,-2.078 -4,-1.061 -4,0C-4,1.061 -3.579,2.078 -2.828,2.828C-2.078,3.579 -1.061,4 0,4Z" style="fill:rgb(217,95,2);fill-rule:nonzero;"/>
                            </g>
                            <g id="C1_0_4167c47b6914" serif:id="C1_0_4167c47b69" transform="matrix(1,0,0,1,495.13,291.224)">
                                <path d="M0,4C1.061,4 2.078,3.579 2.828,2.828C3.579,2.078 4,1.061 4,0C4,-1.061 3.579,-2.078 2.828,-2.828C2.078,-3.579 1.061,-4 0,-4C-1.061,-4 -2.078,-3.579 -2.828,-2.828C-3.579,-2.078 -4,-1.061 -4,0C-4,1.061 -3.579,2.078 -2.828,2.828C-2.078,3.579 -1.061,4 0,4Z" style="fill:rgb(217,95,2);fill-rule:nonzero;"/>
                            </g>
                            <g id="C1_0_4167c47b6915" serif:id="C1_0_4167c47b69" transform="matrix(1,0,0,1,502.876,289.128)">
                                <path d="M0,4C1.061,4 2.078,3.579 2.828,2.828C3.579,2.078 4,1.061 4,0C4,-1.061 3.579,-2.078 2.828,-2.828C2.078,-3.579 1.061,-4 0,-4C-1.061,-4 -2.078,-3.579 -2.828,-2.828C-3.579,-2.078 -4,-1.061 -4,0C-4,1.061 -3.579,2.078 -2.828,2.828C-2.078,3.579 -1.061,4 0,4Z" style="fill:rgb(217,95,2);fill-rule:nonzero;"/>
                            </g>
                            <g id="C1_0_4167c47b6916" serif:id="C1_0_4167c47b69" transform="matrix(1,0,0,1,517.476,291.224)">
                                <path d="M0,4C1.061,4 2.078,3.579 2.828,2.828C3.579,2.078 4,1.061 4,0C4,-1.061 3.579,-2.078 2.828,-2.828C2.078,-3.579 1.061,-4 0,-4C-1.061,-4 -2.078,-3.579 -2.828,-2.828C-3.579,-2.078 -4,-1.061 -4,0C-4,1.061 -3.579,2.078 -2.828,2.828C-2.078,3.579 -1.061,4 0,4Z" style="fill:rgb(217,95,2);fill-rule:nonzero;"/>
                            </g>
                            <g id="C1_0_4167c47b6917" serif:id="C1_0_4167c47b69" transform="matrix(1,0,0,1,521.7,284.091)">
                                <path d="M0,4C1.061,4 2.078,3.579 2.828,2.828C3.579,2.078 4,1.061 4,0C4,-1.061 3.579,-2.078 2.828,-2.828C2.078,-3.579 1.061,-4 0,-4C-1.061,-4 -2.078,-3.579 -2.828,-2.828C-3.579,-2.078 -4,-1.061 -4,0C-4,1.061 -3.579,2.078 -2.828,2.828C-2.078,3.579 -1.061,4 0,4Z" style="fill:rgb(217,95,2);fill-rule:nonzero;"/>
                            </g>
                            <g id="C1_0_4167c47b6918" serif:id="C1_0_4167c47b69" transform="matrix(1,0,0,1,589.804,291.224)">
                                <path d="M0,4C1.061,4 2.078,3.579 2.828,2.828C3.579,2.078 4,1.061 4,0C4,-1.061 3.579,-2.078 2.828,-2.828C2.078,-3.579 1.061,-4 0,-4C-1.061,-4 -2.078,-3.579 -2.828,-2.828C-3.579,-2.078 -4,-1.061 -4,0C-4,1.061 -3.579,2.078 -2.828,2.828C-2.078,3.579 -1.061,4 0,4Z" style="fill:rgb(217,95,2);fill-rule:nonzero;"/>
                            </g>
                            <g id="C1_0_4167c47b6919" serif:id="C1_0_4167c47b69" transform="matrix(1,0,0,1,621.845,291.224)">
                                <path d="M0,4C1.061,4 2.078,3.579 2.828,2.828C3.579,2.078 4,1.061 4,0C4,-1.061 3.579,-2.078 2.828,-2.828C2.078,-3.579 1.061,-4 0,-4C-1.061,-4 -2.078,-3.579 -2.828,-2.828C-3.579,-2.078 -4,-1.061 -4,0C-4,1.061 -3.579,2.078 -2.828,2.828C-2.078,3.579 -1.061,4 0,4Z" style="fill:rgb(217,95,2);fill-rule:nonzero;"/>
                            </g>
                        </g>
                        <g id="text_14" transform="matrix(1,0,0,1,431.594,206.946)">
                            <path d="M-35.327,-4.46C-35.327,-3.01 -35.848,-1.868 -36.892,-1.033C-37.936,-0.198 -39.388,0.22 -41.248,0.22C-42.962,0.22 -44.478,-0.103 -45.797,-0.747L-45.797,-3.911C-44.713,-3.428 -43.795,-3.087 -43.044,-2.889C-42.294,-2.692 -41.607,-2.593 -40.984,-2.593C-40.237,-2.593 -39.664,-2.736 -39.265,-3.021C-38.866,-3.307 -38.666,-3.732 -38.666,-4.296C-38.666,-4.611 -38.754,-4.891 -38.93,-5.136C-39.106,-5.381 -39.364,-5.618 -39.705,-5.845C-40.045,-6.072 -40.739,-6.434 -41.786,-6.932C-42.768,-7.394 -43.504,-7.837 -43.995,-8.262C-44.485,-8.687 -44.877,-9.181 -45.17,-9.745C-45.463,-10.309 -45.61,-10.968 -45.61,-11.722C-45.61,-13.143 -45.128,-14.26 -44.165,-15.073C-43.202,-15.886 -41.871,-16.293 -40.172,-16.293C-39.337,-16.293 -38.54,-16.194 -37.782,-15.996C-37.024,-15.798 -36.231,-15.52 -35.403,-15.161L-36.502,-12.513C-37.359,-12.865 -38.068,-13.11 -38.628,-13.25C-39.188,-13.389 -39.739,-13.458 -40.281,-13.458C-40.926,-13.458 -41.42,-13.308 -41.765,-13.008C-42.109,-12.708 -42.281,-12.316 -42.281,-11.832C-42.281,-11.532 -42.211,-11.27 -42.072,-11.047C-41.933,-10.823 -41.711,-10.607 -41.407,-10.399C-41.104,-10.19 -40.384,-9.814 -39.249,-9.272C-37.747,-8.555 -36.718,-7.835 -36.161,-7.114C-35.605,-6.392 -35.327,-5.508 -35.327,-4.46Z" style="fill:white;fill-rule:nonzero;"/>
                            <path d="M-24.879,0L-25.527,-1.67L-25.615,-1.67C-26.179,-0.959 -26.759,-0.467 -27.356,-0.192C-27.953,0.082 -28.731,0.22 -29.691,0.22C-30.87,0.22 -31.798,-0.117 -32.476,-0.791C-33.153,-1.465 -33.492,-2.424 -33.492,-3.669C-33.492,-4.973 -33.036,-5.934 -32.124,-6.553C-31.212,-7.172 -29.837,-7.515 -27.999,-7.581L-25.867,-7.646L-25.867,-8.185C-25.867,-9.43 -26.505,-10.052 -27.779,-10.052C-28.76,-10.052 -29.914,-9.756 -31.24,-9.163L-32.349,-11.426C-30.936,-12.166 -29.368,-12.535 -27.647,-12.535C-25.999,-12.535 -24.736,-12.177 -23.857,-11.459C-22.978,-10.741 -22.538,-9.65 -22.538,-8.185L-22.538,0L-24.879,0ZM-25.867,-5.691L-27.164,-5.647C-28.138,-5.618 -28.863,-5.442 -29.339,-5.12C-29.815,-4.797 -30.053,-4.307 -30.053,-3.647C-30.053,-2.703 -29.511,-2.23 -28.427,-2.23C-27.651,-2.23 -27.03,-2.454 -26.565,-2.9C-26.1,-3.347 -25.867,-3.94 -25.867,-4.68L-25.867,-5.691Z" style="fill:white;fill-rule:nonzero;"/>
                            <path d="M-8.091,0L-11.442,0L-11.442,-7.174C-11.442,-8.06 -11.591,-8.725 -11.887,-9.168C-12.184,-9.611 -12.651,-9.833 -13.288,-9.833C-14.145,-9.833 -14.767,-9.518 -15.156,-8.888C-15.544,-8.258 -15.738,-7.222 -15.738,-5.779L-15.738,0L-19.089,0L-19.089,-12.283L-16.529,-12.283L-16.078,-10.712L-15.892,-10.712C-15.562,-11.276 -15.086,-11.717 -14.464,-12.036C-13.841,-12.354 -13.127,-12.513 -12.321,-12.513C-10.483,-12.513 -9.238,-11.913 -8.586,-10.712L-8.289,-10.712C-7.96,-11.283 -7.474,-11.726 -6.833,-12.041C-6.193,-12.356 -5.469,-12.513 -4.664,-12.513C-3.272,-12.513 -2.219,-12.156 -1.505,-11.442C-0.791,-10.728 -0.434,-9.584 -0.434,-8.009L-0.434,0L-3.796,0L-3.796,-7.174C-3.796,-8.06 -3.944,-8.725 -4.241,-9.168C-4.537,-9.611 -5.004,-9.833 -5.641,-9.833C-6.462,-9.833 -7.075,-9.54 -7.482,-8.954C-7.888,-8.368 -8.091,-7.438 -8.091,-6.163L-8.091,0Z" style="fill:white;fill-rule:nonzero;"/>
                            <path d="M9.75,0.22C8.307,0.22 7.176,-0.304 6.356,-1.351L6.18,-1.351C6.297,-0.326 6.356,0.267 6.356,0.428L6.356,5.405L3.005,5.405L3.005,-12.283L5.729,-12.283L6.202,-10.69L6.356,-10.69C7.139,-11.906 8.3,-12.513 9.838,-12.513C11.288,-12.513 12.424,-11.953 13.244,-10.833C14.064,-9.712 14.474,-8.156 14.474,-6.163C14.474,-4.852 14.282,-3.713 13.898,-2.747C13.513,-1.78 12.966,-1.044 12.255,-0.538C11.545,-0.033 10.71,0.22 9.75,0.22ZM8.762,-9.833C7.934,-9.833 7.33,-9.578 6.949,-9.069C6.568,-8.56 6.37,-7.72 6.356,-6.548L6.356,-6.185C6.356,-4.867 6.552,-3.922 6.943,-3.351C7.335,-2.78 7.956,-2.494 8.806,-2.494C10.307,-2.494 11.058,-3.732 11.058,-6.207C11.058,-7.416 10.873,-8.322 10.503,-8.926C10.133,-9.531 9.553,-9.833 8.762,-9.833Z" style="fill:white;fill-rule:nonzero;"/>
                            <rect x="17.243" y="-17.095" width="3.351" height="17.095" style="fill:white;fill-rule:nonzero;"/>
                            <path d="M29.196,-10.129C28.486,-10.129 27.929,-9.904 27.526,-9.454C27.123,-9.003 26.893,-8.364 26.834,-7.537L31.536,-7.537C31.522,-8.364 31.306,-9.003 30.888,-9.454C30.471,-9.904 29.907,-10.129 29.196,-10.129ZM29.669,0.22C27.691,0.22 26.146,-0.326 25.032,-1.417C23.919,-2.509 23.362,-4.054 23.362,-6.053C23.362,-8.112 23.877,-9.703 24.906,-10.827C25.935,-11.951 27.358,-12.513 29.174,-12.513C30.91,-12.513 32.261,-12.019 33.228,-11.03C34.195,-10.042 34.678,-8.676 34.678,-6.932L34.678,-5.306L26.757,-5.306C26.794,-4.354 27.076,-3.611 27.603,-3.076C28.13,-2.542 28.87,-2.274 29.822,-2.274C30.562,-2.274 31.262,-2.351 31.921,-2.505C32.58,-2.659 33.268,-2.904 33.986,-3.241L33.986,-0.648C33.4,-0.355 32.774,-0.137 32.108,0.005C31.441,0.148 30.628,0.22 29.669,0.22Z" style="fill:white;fill-rule:nonzero;"/>
                            <path d="M45.972,-3.647C45.972,-2.388 45.535,-1.428 44.659,-0.769C43.784,-0.11 42.475,0.22 40.732,0.22C39.838,0.22 39.077,0.159 38.447,0.038C37.817,-0.082 37.227,-0.26 36.678,-0.494L36.678,-3.263C37.3,-2.97 38.002,-2.725 38.782,-2.527C39.562,-2.329 40.248,-2.23 40.842,-2.23C42.057,-2.23 42.665,-2.582 42.665,-3.285C42.665,-3.549 42.585,-3.763 42.424,-3.928C42.263,-4.092 41.984,-4.279 41.589,-4.488C41.193,-4.697 40.666,-4.94 40.007,-5.219C39.062,-5.614 38.368,-5.98 37.925,-6.317C37.482,-6.654 37.159,-7.04 36.958,-7.476C36.757,-7.912 36.656,-8.448 36.656,-9.086C36.656,-10.177 37.079,-11.021 37.925,-11.618C38.771,-12.215 39.97,-12.513 41.523,-12.513C43.002,-12.513 44.442,-12.191 45.84,-11.547L44.83,-9.13C44.214,-9.393 43.64,-9.609 43.105,-9.778C42.57,-9.946 42.025,-10.031 41.468,-10.031C40.479,-10.031 39.985,-9.763 39.985,-9.229C39.985,-8.928 40.144,-8.668 40.463,-8.448C40.781,-8.229 41.479,-7.903 42.556,-7.471C43.515,-7.083 44.218,-6.72 44.665,-6.383C45.112,-6.046 45.441,-5.658 45.654,-5.219C45.866,-4.779 45.972,-4.255 45.972,-3.647Z" style="fill:white;fill-rule:nonzero;"/>
                        </g>
                    </g>
                    <g id="population" transform="matrix(1,0,0,1,0,21)">
                        <rect id="patch_2" x="96.794" y="30.296" width="669.6" height="104.371" style="fill:none;"/>
                        <g id="PolyCollection_1" transform="matrix(1,0,0,0.838225,0,21.7859)">
                            <path d="M-274.385,134.667L-274.385,134.668L1236.62,134.668L1236.62,134.667L1224.72,134.665L1212.82,134.661L1200.92,134.652L1189.03,134.638L1177.13,134.623L1165.23,134.611L1153.33,134.609L1141.43,134.618L1129.54,134.633L1117.64,134.648L1105.74,134.658L1093.84,134.663L1081.95,134.663L1070.05,134.658L1058.15,134.648L1046.25,134.63L1034.36,134.606L1022.46,134.571L1010.56,134.518L998.663,134.428L986.765,134.288L974.867,134.1L962.97,133.879L951.072,133.643L939.174,133.397L927.277,133.138L915.379,132.871L903.481,132.612L891.584,132.37L879.686,132.115L867.789,131.774L855.891,131.264L843.993,130.516L832.096,129.494L820.198,128.185L808.3,126.613L796.403,124.848L784.505,122.995L772.607,121.141L760.71,119.318L748.812,117.487L736.914,115.555L725.017,113.386L713.119,110.819L701.222,107.723L689.324,104.076L677.426,99.985L665.529,95.641L653.631,91.211L641.733,86.775L629.836,82.307L617.938,77.719L606.04,72.945L594.143,68.018L582.245,63.088L570.348,58.378L558.45,54.114L546.552,50.476L534.655,47.519L522.757,45.153L510.859,43.201L498.962,41.51L487.064,40.023L475.166,38.799L463.269,37.942L451.371,37.499L439.473,37.401L427.576,37.592L415.678,38.233L403.781,39.701L391.883,42.255L379.985,45.681L368.088,49.354L356.19,52.7L344.292,55.612L332.395,58.429L320.497,61.597L308.599,65.367L296.702,69.738L284.804,74.542L272.907,79.545L261.009,84.523L249.111,89.315L237.214,93.835L225.316,98.054L213.418,101.968L201.521,105.58L189.623,108.888L177.725,111.882L165.828,114.556L153.93,116.925L142.033,119.054L130.135,121.043L118.237,122.979L106.34,124.872L94.442,126.643L82.544,128.171L70.647,129.37L58.749,130.244L46.851,130.883L34.954,131.411L23.056,131.914L11.158,132.41L-0.739,132.862L-12.637,133.232L-24.534,133.513L-36.432,133.729L-48.33,133.915L-60.227,134.087L-72.125,134.246L-84.023,134.379L-95.92,134.48L-107.818,134.544L-119.716,134.577L-131.613,134.589L-143.511,134.594L-155.408,134.597L-167.306,134.599L-179.204,134.599L-191.101,134.6L-202.999,134.608L-214.897,134.622L-226.794,134.638L-238.692,134.652L-250.59,134.661L-262.487,134.665L-274.385,134.667Z" style="fill:rgb(26,158,118);fill-opacity:0.360784;fill-rule:nonzero;"/>
                        </g>
                        <g id="PolyCollection_2" transform="matrix(1,0,0,0.820225,0,24.2099)">
                            <path d="M-233.924,134.666L-233.924,134.668L1150.34,134.668L1150.34,134.667L1139.44,134.665L1128.54,134.662L1117.64,134.655L1106.75,134.644L1095.85,134.63L1084.94,134.617L1074.05,134.609L1063.15,134.611L1052.25,134.619L1041.35,134.63L1030.45,134.634L1019.55,134.625L1008.65,134.6L997.747,134.56L986.848,134.51L975.948,134.461L965.048,134.417L954.148,134.378L943.249,134.333L932.349,134.267L921.449,134.166L910.549,134.018L899.65,133.821L888.75,133.58L877.85,133.3L866.95,132.983L856.051,132.617L845.151,132.182L834.251,131.663L823.351,131.055L812.452,130.368L801.552,129.619L790.652,128.817L779.753,127.938L768.853,126.917L757.953,125.675L747.053,124.162L736.154,122.372L725.254,120.316L714.354,117.985L703.454,115.368L692.555,112.502L681.655,109.499L670.755,106.491L659.855,103.533L648.956,100.557L638.056,97.425L627.156,94.039L616.256,90.418L605.357,86.677L594.457,82.927L583.557,79.183L572.657,75.353L561.758,71.342L550.858,67.16L539.958,62.964L529.058,58.982L518.159,55.386L507.259,52.227L496.359,49.45L485.459,46.964L474.56,44.704L463.66,42.645L452.76,40.787L441.86,39.128L430.961,37.661L420.061,36.428L409.161,35.561L398.262,35.267L387.362,35.721L376.462,36.985L365.562,38.998L354.663,41.65L343.763,44.839L332.863,48.458L321.963,52.353L311.064,56.312L300.164,60.11L289.264,63.58L278.364,66.706L267.465,69.66L256.565,72.739L245.665,76.201L234.765,80.101L223.866,84.279L212.966,88.491L202.066,92.557L191.166,96.406L180.267,100.017L169.367,103.366L158.467,106.426L147.567,109.202L136.668,111.742L125.768,114.115L114.868,116.379L103.968,118.567L93.069,120.675L82.169,122.657L71.269,124.432L60.369,125.941L49.47,127.188L38.57,128.238L27.67,129.155L16.771,129.967L5.871,130.657L-5.029,131.213L-15.929,131.663L-26.828,132.064L-37.728,132.469L-48.628,132.891L-59.528,133.297L-70.427,133.646L-81.327,133.91L-92.227,134.092L-103.127,134.21L-114.026,134.287L-124.926,134.34L-135.826,134.381L-146.726,134.422L-157.625,134.469L-168.525,134.521L-179.425,134.571L-190.325,134.612L-201.224,134.64L-212.124,134.656L-223.024,134.663L-233.924,134.666Z" style="fill:rgb(217,92,2);fill-opacity:0.388235;fill-rule:nonzero;"/>
                        </g>
                        <path id="line2d_3" d="M451.288,134.668L451.288,30.296" style="fill:none;stroke:rgb(26,158,120);stroke-width:2px;stroke-linecap:butt;stroke-dasharray:2,3.3;"/>
                        <path id="line2d_4" d="M411.9,134.668L411.9,30.296" style="fill:none;stroke:rgb(217,95,2);stroke-width:2px;stroke-linecap:butt;stroke-dasharray:2,3.3;"/>
                        <g id="text_1" transform="matrix(1,0,0,1,431.594,6.29648)">
                            <path d="M-143.394,0L-144.558,-3.823L-150.414,-3.823L-151.578,0L-155.248,0L-149.579,-16.128L-145.415,-16.128L-139.724,0L-143.394,0ZM-145.371,-6.68C-146.448,-10.144 -147.054,-12.103 -147.189,-12.557C-147.325,-13.011 -147.422,-13.37 -147.48,-13.634C-147.722,-12.697 -148.414,-10.378 -149.557,-6.68L-145.371,-6.68Z" style="fill:white;fill-rule:nonzero;"/>
                            <rect x="-137.966" y="-17.095" width="3.351" height="17.095" style="fill:white;fill-rule:nonzero;"/>
                            <rect x="-131.1" y="-17.095" width="3.351" height="17.095" style="fill:white;fill-rule:nonzero;"/>
                            <path d="M-111.929,0L-115.334,0L-115.334,-13.228L-119.696,-13.228L-119.696,-16.062L-107.567,-16.062L-107.567,-13.228L-111.929,-13.228L-111.929,0Z" style="fill:white;fill-rule:nonzero;"/>
                            <path d="M-97.778,0L-98.229,-1.571L-98.405,-1.571C-98.763,-1 -99.272,-0.558 -99.932,-0.247C-100.591,0.064 -101.342,0.22 -102.184,0.22C-103.627,0.22 -104.714,-0.167 -105.447,-0.939C-106.179,-1.712 -106.545,-2.823 -106.545,-4.274L-106.545,-12.283L-103.195,-12.283L-103.195,-5.109C-103.195,-4.222 -103.037,-3.558 -102.722,-3.115C-102.407,-2.672 -101.906,-2.45 -101.217,-2.45C-100.28,-2.45 -99.602,-2.763 -99.185,-3.389C-98.767,-4.016 -98.558,-5.054 -98.558,-6.504L-98.558,-12.283L-95.208,-12.283L-95.208,0L-97.778,0Z" style="fill:white;fill-rule:nonzero;"/>
                            <path d="M-80.695,0L-84.045,0L-84.045,-7.174C-84.045,-8.06 -84.194,-8.725 -84.49,-9.168C-84.787,-9.611 -85.254,-9.833 -85.891,-9.833C-86.748,-9.833 -87.371,-9.518 -87.759,-8.888C-88.147,-8.258 -88.341,-7.222 -88.341,-5.779L-88.341,0L-91.692,0L-91.692,-12.283L-89.132,-12.283L-88.682,-10.712L-88.495,-10.712C-88.165,-11.276 -87.689,-11.717 -87.067,-12.036C-86.444,-12.354 -85.73,-12.513 -84.924,-12.513C-83.086,-12.513 -81.841,-11.913 -81.189,-10.712L-80.892,-10.712C-80.563,-11.283 -80.078,-11.726 -79.437,-12.041C-78.796,-12.356 -78.073,-12.513 -77.267,-12.513C-75.875,-12.513 -74.822,-12.156 -74.108,-11.442C-73.394,-10.728 -73.037,-9.584 -73.037,-8.009L-73.037,0L-76.399,0L-76.399,-7.174C-76.399,-8.06 -76.547,-8.725 -76.844,-9.168C-77.141,-9.611 -77.607,-9.833 -78.245,-9.833C-79.065,-9.833 -79.678,-9.54 -80.085,-8.954C-80.491,-8.368 -80.695,-7.438 -80.695,-6.163L-80.695,0Z" style="fill:white;fill-rule:nonzero;"/>
                            <path d="M-66.929,-6.163C-66.929,-4.948 -66.729,-4.028 -66.33,-3.406C-65.931,-2.783 -65.281,-2.472 -64.38,-2.472C-63.486,-2.472 -62.844,-2.781 -62.452,-3.4C-62.06,-4.019 -61.864,-4.94 -61.864,-6.163C-61.864,-7.379 -62.062,-8.291 -62.457,-8.899C-62.853,-9.507 -63.501,-9.811 -64.402,-9.811C-65.295,-9.811 -65.94,-9.509 -66.335,-8.904C-66.731,-8.3 -66.929,-7.386 -66.929,-6.163ZM-58.436,-6.163C-58.436,-4.164 -58.964,-2.6 -60.018,-1.472C-61.073,-0.344 -62.542,0.22 -64.424,0.22C-65.603,0.22 -66.643,-0.038 -67.544,-0.555C-68.445,-1.071 -69.137,-1.813 -69.62,-2.78C-70.104,-3.746 -70.345,-4.874 -70.345,-6.163C-70.345,-8.17 -69.822,-9.73 -68.774,-10.844C-67.727,-11.957 -66.255,-12.513 -64.358,-12.513C-63.179,-12.513 -62.139,-12.257 -61.238,-11.744C-60.337,-11.232 -59.645,-10.496 -59.161,-9.536C-58.678,-8.577 -58.436,-7.452 -58.436,-6.163Z" style="fill:white;fill-rule:nonzero;"/>
                            <path d="M-46.967,0L-47.417,-1.571L-47.593,-1.571C-47.952,-1 -48.461,-0.558 -49.12,-0.247C-49.779,0.064 -50.53,0.22 -51.372,0.22C-52.815,0.22 -53.903,-0.167 -54.635,-0.939C-55.367,-1.712 -55.734,-2.823 -55.734,-4.274L-55.734,-12.283L-52.383,-12.283L-52.383,-5.109C-52.383,-4.222 -52.225,-3.558 -51.91,-3.115C-51.595,-2.672 -51.094,-2.45 -50.405,-2.45C-49.468,-2.45 -48.79,-2.763 -48.373,-3.389C-47.955,-4.016 -47.747,-5.054 -47.747,-6.504L-47.747,-12.283L-44.396,-12.283L-44.396,0L-46.967,0Z" style="fill:white;fill-rule:nonzero;"/>
                            <path d="M-34.025,-12.513C-33.571,-12.513 -33.193,-12.48 -32.893,-12.415L-33.146,-9.272C-33.417,-9.346 -33.746,-9.382 -34.135,-9.382C-35.204,-9.382 -36.037,-9.108 -36.634,-8.558C-37.231,-8.009 -37.529,-7.24 -37.529,-6.251L-37.529,0L-40.88,0L-40.88,-12.283L-38.342,-12.283L-37.848,-10.217L-37.683,-10.217C-37.302,-10.906 -36.788,-11.461 -36.14,-11.882C-35.491,-12.303 -34.786,-12.513 -34.025,-12.513Z" style="fill:white;fill-rule:nonzero;"/>
                            <path d="M-22.094,-3.647C-22.094,-2.388 -22.531,-1.428 -23.406,-0.769C-24.282,-0.11 -25.591,0.22 -27.334,0.22C-28.228,0.22 -28.989,0.159 -29.619,0.038C-30.249,-0.082 -30.839,-0.26 -31.388,-0.494L-31.388,-3.263C-30.765,-2.97 -30.064,-2.725 -29.284,-2.527C-28.504,-2.329 -27.817,-2.23 -27.224,-2.23C-26.008,-2.23 -25.4,-2.582 -25.4,-3.285C-25.4,-3.549 -25.481,-3.763 -25.642,-3.928C-25.803,-4.092 -26.082,-4.279 -26.477,-4.488C-26.873,-4.697 -27.4,-4.94 -28.059,-5.219C-29.004,-5.614 -29.698,-5.98 -30.141,-6.317C-30.584,-6.654 -30.906,-7.04 -31.108,-7.476C-31.309,-7.912 -31.41,-8.448 -31.41,-9.086C-31.41,-10.177 -30.987,-11.021 -30.141,-11.618C-29.295,-12.215 -28.096,-12.513 -26.543,-12.513C-25.063,-12.513 -23.624,-12.191 -22.225,-11.547L-23.236,-9.13C-23.851,-9.393 -24.426,-9.609 -24.961,-9.778C-25.496,-9.946 -26.041,-10.031 -26.598,-10.031C-27.587,-10.031 -28.081,-9.763 -28.081,-9.229C-28.081,-8.928 -27.922,-8.668 -27.603,-8.448C-27.285,-8.229 -26.587,-7.903 -25.51,-7.471C-24.551,-7.083 -23.848,-6.72 -23.401,-6.383C-22.954,-6.046 -22.625,-5.658 -22.412,-5.219C-22.2,-4.779 -22.094,-4.255 -22.094,-3.647Z" style="fill:white;fill-rule:nonzero;"/>
                            <path d="M-13.777,-15.458C-13.777,-16.549 -13.169,-17.095 -11.953,-17.095C-10.737,-17.095 -10.129,-16.549 -10.129,-15.458C-10.129,-14.938 -10.281,-14.533 -10.585,-14.244C-10.889,-13.954 -11.345,-13.81 -11.953,-13.81C-13.169,-13.81 -13.777,-14.359 -13.777,-15.458ZM-10.283,0L-13.634,0L-13.634,-12.283L-10.283,-12.283L-10.283,0Z" style="fill:white;fill-rule:nonzero;"/>
                            <path d="M4.57,0L1.219,0L1.219,-7.174C1.219,-8.06 1.062,-8.725 0.747,-9.168C0.432,-9.611 -0.07,-9.833 -0.758,-9.833C-1.696,-9.833 -2.373,-9.52 -2.791,-8.893C-3.208,-8.267 -3.417,-7.229 -3.417,-5.779L-3.417,0L-6.768,0L-6.768,-12.283L-4.208,-12.283L-3.757,-10.712L-3.571,-10.712C-3.197,-11.305 -2.682,-11.754 -2.027,-12.057C-1.371,-12.361 -0.626,-12.513 0.209,-12.513C1.637,-12.513 2.721,-12.127 3.461,-11.354C4.2,-10.582 4.57,-9.467 4.57,-8.009L4.57,0Z" style="fill:white;fill-rule:nonzero;"/>
                            <path d="M19.039,-2.45C19.625,-2.45 20.328,-2.578 21.149,-2.834L21.149,-0.341C20.314,0.033 19.288,0.22 18.073,0.22C16.732,0.22 15.756,-0.119 15.145,-0.797C14.533,-1.474 14.227,-2.49 14.227,-3.845L14.227,-9.767L12.623,-9.767L12.623,-11.184L14.469,-12.305L15.436,-14.897L17.578,-14.897L17.578,-12.283L21.017,-12.283L21.017,-9.767L17.578,-9.767L17.578,-3.845C17.578,-3.369 17.712,-3.018 17.979,-2.791C18.246,-2.563 18.6,-2.45 19.039,-2.45Z" style="fill:white;fill-rule:nonzero;"/>
                            <path d="M34.969,0L31.619,0L31.619,-7.174C31.619,-8.947 30.959,-9.833 29.641,-9.833C28.704,-9.833 28.026,-9.514 27.609,-8.877C27.191,-8.24 26.982,-7.207 26.982,-5.779L26.982,0L23.632,0L23.632,-17.095L26.982,-17.095L26.982,-13.612C26.982,-13.341 26.957,-12.704 26.906,-11.7L26.829,-10.712L27.004,-10.712C27.751,-11.913 28.938,-12.513 30.564,-12.513C32.007,-12.513 33.102,-12.125 33.849,-11.349C34.596,-10.573 34.969,-9.459 34.969,-8.009L34.969,0Z" style="fill:white;fill-rule:nonzero;"/>
                            <path d="M43.506,-10.129C42.795,-10.129 42.239,-9.904 41.836,-9.454C41.433,-9.003 41.202,-8.364 41.144,-7.537L45.846,-7.537C45.831,-8.364 45.615,-9.003 45.198,-9.454C44.78,-9.904 44.216,-10.129 43.506,-10.129ZM43.978,0.22C42.001,0.22 40.455,-0.326 39.342,-1.417C38.229,-2.509 37.672,-4.054 37.672,-6.053C37.672,-8.112 38.187,-9.703 39.216,-10.827C40.245,-11.951 41.667,-12.513 43.484,-12.513C45.22,-12.513 46.571,-12.019 47.538,-11.03C48.505,-10.042 48.988,-8.676 48.988,-6.932L48.988,-5.306L41.067,-5.306C41.104,-4.354 41.385,-3.611 41.913,-3.076C42.44,-2.542 43.18,-2.274 44.132,-2.274C44.872,-2.274 45.571,-2.351 46.23,-2.505C46.89,-2.659 47.578,-2.904 48.296,-3.241L48.296,-0.648C47.71,-0.355 47.084,-0.137 46.417,0.005C45.751,0.148 44.938,0.22 43.978,0.22Z" style="fill:white;fill-rule:nonzero;"/>
                            <path d="M70.895,-16.062L70.895,-5.669C70.895,-4.482 70.629,-3.442 70.098,-2.549C69.567,-1.655 68.8,-0.97 67.797,-0.494C66.793,-0.018 65.607,0.22 64.237,0.22C62.172,0.22 60.568,-0.309 59.425,-1.368C58.282,-2.426 57.711,-3.875 57.711,-5.713L57.711,-16.062L61.106,-16.062L61.106,-6.229C61.106,-4.991 61.355,-4.083 61.853,-3.505C62.351,-2.926 63.175,-2.637 64.325,-2.637C65.438,-2.637 66.246,-2.928 66.747,-3.51C67.249,-4.092 67.5,-5.006 67.5,-6.251L67.5,-16.062L70.895,-16.062Z" style="fill:white;fill-rule:nonzero;"/>
                            <path d="M85.902,0L82.551,0L82.551,-7.174C82.551,-8.06 82.394,-8.725 82.079,-9.168C81.764,-9.611 81.262,-9.833 80.574,-9.833C79.636,-9.833 78.959,-9.52 78.541,-8.893C78.124,-8.267 77.915,-7.229 77.915,-5.779L77.915,0L74.564,0L74.564,-12.283L77.124,-12.283L77.574,-10.712L77.761,-10.712C78.135,-11.305 78.649,-11.754 79.305,-12.057C79.96,-12.361 80.706,-12.513 81.541,-12.513C82.969,-12.513 84.053,-12.127 84.792,-11.354C85.532,-10.582 85.902,-9.467 85.902,-8.009L85.902,0Z" style="fill:white;fill-rule:nonzero;"/>
                            <path d="M89.209,-15.458C89.209,-16.549 89.817,-17.095 91.033,-17.095C92.249,-17.095 92.856,-16.549 92.856,-15.458C92.856,-14.938 92.704,-14.533 92.401,-14.244C92.097,-13.954 91.641,-13.81 91.033,-13.81C89.817,-13.81 89.209,-14.359 89.209,-15.458ZM92.703,0L89.352,0L89.352,-12.283L92.703,-12.283L92.703,0Z" style="fill:white;fill-rule:nonzero;"/>
                            <path d="M99.141,0L94.46,-12.283L97.965,-12.283L100.338,-5.284C100.602,-4.398 100.767,-3.56 100.833,-2.769L100.898,-2.769C100.935,-3.472 101.1,-4.31 101.393,-5.284L103.755,-12.283L107.26,-12.283L102.579,0L99.141,0Z" style="fill:white;fill-rule:nonzero;"/>
                            <path d="M114.104,-10.129C113.394,-10.129 112.837,-9.904 112.434,-9.454C112.031,-9.003 111.801,-8.364 111.742,-7.537L116.444,-7.537C116.429,-8.364 116.213,-9.003 115.796,-9.454C115.378,-9.904 114.814,-10.129 114.104,-10.129ZM114.576,0.22C112.599,0.22 111.053,-0.326 109.94,-1.417C108.827,-2.509 108.27,-4.054 108.27,-6.053C108.27,-8.112 108.785,-9.703 109.814,-10.827C110.843,-11.951 112.266,-12.513 114.082,-12.513C115.818,-12.513 117.169,-12.019 118.136,-11.03C119.103,-10.042 119.586,-8.676 119.586,-6.932L119.586,-5.306L111.665,-5.306C111.702,-4.354 111.984,-3.611 112.511,-3.076C113.038,-2.542 113.778,-2.274 114.73,-2.274C115.47,-2.274 116.169,-2.351 116.829,-2.505C117.488,-2.659 118.176,-2.904 118.894,-3.241L118.894,-0.648C118.308,-0.355 117.682,-0.137 117.015,0.005C116.349,0.148 115.536,0.22 114.576,0.22Z" style="fill:white;fill-rule:nonzero;"/>
                            <path d="M129.166,-12.513C129.62,-12.513 129.998,-12.48 130.298,-12.415L130.045,-9.272C129.774,-9.346 129.445,-9.382 129.056,-9.382C127.987,-9.382 127.154,-9.108 126.557,-8.558C125.96,-8.009 125.662,-7.24 125.662,-6.251L125.662,0L122.311,0L122.311,-12.283L124.849,-12.283L125.343,-10.217L125.508,-10.217C125.889,-10.906 126.403,-11.461 127.051,-11.882C127.7,-12.303 128.405,-12.513 129.166,-12.513Z" style="fill:white;fill-rule:nonzero;"/>
                            <path d="M141.097,-3.647C141.097,-2.388 140.66,-1.428 139.785,-0.769C138.909,-0.11 137.6,0.22 135.857,0.22C134.963,0.22 134.202,0.159 133.572,0.038C132.942,-0.082 132.352,-0.26 131.803,-0.494L131.803,-3.263C132.426,-2.97 133.127,-2.725 133.907,-2.527C134.687,-2.329 135.374,-2.23 135.967,-2.23C137.183,-2.23 137.791,-2.582 137.791,-3.285C137.791,-3.549 137.71,-3.763 137.549,-3.928C137.388,-4.092 137.109,-4.279 136.714,-4.488C136.318,-4.697 135.791,-4.94 135.132,-5.219C134.187,-5.614 133.493,-5.98 133.05,-6.317C132.607,-6.654 132.285,-7.04 132.083,-7.476C131.882,-7.912 131.781,-8.448 131.781,-9.086C131.781,-10.177 132.204,-11.021 133.05,-11.618C133.896,-12.215 135.095,-12.513 136.648,-12.513C138.127,-12.513 139.567,-12.191 140.966,-11.547L139.955,-9.13C139.34,-9.393 138.765,-9.609 138.23,-9.778C137.695,-9.946 137.15,-10.031 136.593,-10.031C135.604,-10.031 135.11,-9.763 135.11,-9.229C135.11,-8.928 135.269,-8.668 135.588,-8.448C135.906,-8.229 136.604,-7.903 137.681,-7.471C138.64,-7.083 139.343,-6.72 139.79,-6.383C140.237,-6.046 140.566,-5.658 140.779,-5.219C140.991,-4.779 141.097,-4.255 141.097,-3.647Z" style="fill:white;fill-rule:nonzero;"/>
                            <path d="M148.799,-10.129C148.088,-10.129 147.532,-9.904 147.129,-9.454C146.726,-9.003 146.495,-8.364 146.437,-7.537L151.139,-7.537C151.124,-8.364 150.908,-9.003 150.491,-9.454C150.073,-9.904 149.509,-10.129 148.799,-10.129ZM149.271,0.22C147.294,0.22 145.748,-0.326 144.635,-1.417C143.522,-2.509 142.965,-4.054 142.965,-6.053C142.965,-8.112 143.48,-9.703 144.509,-10.827C145.538,-11.951 146.96,-12.513 148.777,-12.513C150.513,-12.513 151.864,-12.019 152.831,-11.03C153.798,-10.042 154.281,-8.676 154.281,-6.932L154.281,-5.306L146.36,-5.306C146.396,-4.354 146.678,-3.611 147.206,-3.076C147.733,-2.542 148.473,-2.274 149.425,-2.274C150.165,-2.274 150.864,-2.351 151.523,-2.505C152.183,-2.659 152.871,-2.904 153.589,-3.241L153.589,-0.648C153.003,-0.355 152.377,-0.137 151.71,0.005C151.044,0.148 150.231,0.22 149.271,0.22Z" style="fill:white;fill-rule:nonzero;"/>
                        </g>
                        <g id="PLACEBO" transform="matrix(1,0,0,1,351.273,56.234)">
                            <path d="M-64.232,-10.433C-64.232,-8.943 -64.74,-7.796 -65.757,-6.994C-66.774,-6.192 -68.23,-5.791 -70.123,-5.791L-71.855,-5.791L-71.855,0L-73.567,0L-73.567,-14.724L-69.75,-14.724C-66.071,-14.724 -64.232,-13.293 -64.232,-10.433ZM-71.855,-7.261L-70.314,-7.261C-68.797,-7.261 -67.699,-7.506 -67.021,-7.996C-66.343,-8.486 -66.004,-9.272 -66.004,-10.353C-66.004,-11.326 -66.323,-12.051 -66.961,-12.528C-67.599,-13.005 -68.592,-13.243 -69.942,-13.243L-71.855,-13.243L-71.855,-7.261Z" style="fill:rgb(217,95,2);fill-rule:nonzero;"/>
                            <rect x="-61.402" y="-15.67" width="1.672" height="15.67" style="fill:rgb(217,95,2);fill-rule:nonzero;"/>
                            <path d="M-49.397,0L-49.73,-1.571L-49.81,-1.571C-50.361,-0.88 -50.91,-0.411 -51.457,-0.166C-52.004,0.079 -52.687,0.201 -53.506,0.201C-54.601,0.201 -55.458,-0.081 -56.079,-0.645C-56.7,-1.208 -57.011,-2.011 -57.011,-3.051C-57.011,-5.28 -55.228,-6.449 -51.663,-6.556L-49.79,-6.617L-49.79,-7.301C-49.79,-8.167 -49.976,-8.807 -50.349,-9.22C-50.722,-9.633 -51.317,-9.839 -52.137,-9.839C-53.056,-9.839 -54.097,-9.557 -55.258,-8.993L-55.772,-10.272C-55.228,-10.568 -54.632,-10.799 -53.985,-10.967C-53.337,-11.135 -52.687,-11.219 -52.036,-11.219C-50.72,-11.219 -49.745,-10.927 -49.11,-10.343C-48.476,-9.759 -48.159,-8.822 -48.159,-7.533L-48.159,0L-49.397,0ZM-53.174,-1.178C-52.133,-1.178 -51.316,-1.464 -50.722,-2.034C-50.127,-2.605 -49.83,-3.404 -49.83,-4.431L-49.83,-5.428L-51.502,-5.358C-52.831,-5.311 -53.79,-5.104 -54.377,-4.738C-54.965,-4.372 -55.258,-3.803 -55.258,-3.031C-55.258,-2.427 -55.076,-1.967 -54.71,-1.652C-54.344,-1.336 -53.832,-1.178 -53.174,-1.178Z" style="fill:rgb(217,95,2);fill-rule:nonzero;"/>
                            <path d="M-40.303,0.201C-41.901,0.201 -43.138,-0.29 -44.014,-1.274C-44.891,-2.258 -45.329,-3.649 -45.329,-5.448C-45.329,-7.295 -44.884,-8.721 -43.994,-9.728C-43.105,-10.735 -41.837,-11.239 -40.193,-11.239C-39.662,-11.239 -39.132,-11.182 -38.601,-11.068C-38.071,-10.954 -37.655,-10.819 -37.353,-10.665L-37.866,-9.245C-38.235,-9.393 -38.638,-9.515 -39.075,-9.613C-39.511,-9.71 -39.897,-9.759 -40.233,-9.759C-42.475,-9.759 -43.596,-8.329 -43.596,-5.468C-43.596,-4.112 -43.323,-3.072 -42.776,-2.346C-42.229,-1.621 -41.418,-1.259 -40.344,-1.259C-39.424,-1.259 -38.481,-1.457 -37.514,-1.853L-37.514,-0.373C-38.252,0.01 -39.182,0.201 -40.303,0.201Z" style="fill:rgb(217,95,2);fill-rule:nonzero;"/>
                            <path d="M-30.233,0.201C-31.864,0.201 -33.151,-0.295 -34.095,-1.289C-35.038,-2.283 -35.51,-3.662 -35.51,-5.428C-35.51,-7.207 -35.072,-8.621 -34.195,-9.668C-33.319,-10.715 -32.143,-11.239 -30.666,-11.239C-29.283,-11.239 -28.188,-10.784 -27.383,-9.874C-26.577,-8.965 -26.174,-7.765 -26.174,-6.274L-26.174,-5.217L-33.777,-5.217C-33.744,-3.921 -33.417,-2.937 -32.796,-2.266C-32.175,-1.595 -31.3,-1.259 -30.172,-1.259C-28.984,-1.259 -27.809,-1.507 -26.647,-2.004L-26.647,-0.514C-27.238,-0.258 -27.797,-0.076 -28.324,0.035C-28.851,0.146 -29.487,0.201 -30.233,0.201ZM-30.686,-9.839C-31.572,-9.839 -32.279,-9.55 -32.806,-8.973C-33.333,-8.396 -33.643,-7.597 -33.737,-6.576L-27.967,-6.576C-27.967,-7.63 -28.202,-8.438 -28.672,-8.998C-29.142,-9.559 -29.813,-9.839 -30.686,-9.839Z" style="fill:rgb(217,95,2);fill-rule:nonzero;"/>
                            <path d="M-18.188,-11.219C-16.738,-11.219 -15.611,-10.724 -14.809,-9.733C-14.007,-8.743 -13.606,-7.342 -13.606,-5.529C-13.606,-3.716 -14.01,-2.308 -14.819,-1.304C-15.628,-0.3 -16.751,0.201 -18.188,0.201C-18.906,0.201 -19.563,0.069 -20.157,-0.196C-20.751,-0.462 -21.249,-0.869 -21.652,-1.42L-21.773,-1.42L-22.126,0L-23.324,0L-23.324,-15.67L-21.652,-15.67L-21.652,-11.863C-21.652,-11.011 -21.679,-10.245 -21.733,-9.567L-21.652,-9.567C-20.873,-10.668 -19.719,-11.219 -18.188,-11.219ZM-18.43,-9.819C-19.571,-9.819 -20.393,-9.492 -20.897,-8.837C-21.4,-8.183 -21.652,-7.08 -21.652,-5.529C-21.652,-3.978 -21.394,-2.868 -20.877,-2.2C-20.36,-1.532 -19.531,-1.198 -18.389,-1.198C-17.362,-1.198 -16.597,-1.573 -16.093,-2.321C-15.59,-3.07 -15.338,-4.146 -15.338,-5.549C-15.338,-6.986 -15.59,-8.057 -16.093,-8.762C-16.597,-9.467 -17.375,-9.819 -18.43,-9.819Z" style="fill:rgb(217,95,2);fill-rule:nonzero;"/>
                            <path d="M-1.158,-5.529C-1.158,-3.73 -1.611,-2.325 -2.518,-1.314C-3.424,-0.304 -4.676,0.201 -6.274,0.201C-7.261,0.201 -8.137,-0.03 -8.903,-0.493C-9.668,-0.957 -10.259,-1.621 -10.675,-2.487C-11.091,-3.354 -11.299,-4.367 -11.299,-5.529C-11.299,-7.328 -10.85,-8.73 -9.95,-9.733C-9.05,-10.737 -7.802,-11.239 -6.204,-11.239C-4.659,-11.239 -3.432,-10.725 -2.523,-9.698C-1.613,-8.671 -1.158,-7.281 -1.158,-5.529ZM-9.567,-5.529C-9.567,-4.119 -9.285,-3.045 -8.721,-2.306C-8.157,-1.568 -7.328,-1.198 -6.234,-1.198C-5.139,-1.198 -4.309,-1.566 -3.741,-2.301C-3.174,-3.036 -2.89,-4.112 -2.89,-5.529C-2.89,-6.932 -3.174,-7.998 -3.741,-8.726C-4.309,-9.455 -5.146,-9.819 -6.254,-9.819C-7.348,-9.819 -8.174,-9.46 -8.731,-8.741C-9.289,-8.023 -9.567,-6.952 -9.567,-5.529Z" style="fill:rgb(217,95,2);fill-rule:nonzero;"/>
                        </g>
                        <g id="DRUG" transform="matrix(1,0,0,1,587.746,51.4806)">
                            <path d="M-33.636,-7.503C-33.636,-5.072 -34.296,-3.214 -35.615,-1.929C-36.935,-0.643 -38.833,0 -41.31,0L-45.389,0L-45.389,-14.724L-40.877,-14.724C-38.588,-14.724 -36.809,-14.089 -35.54,-12.82C-34.271,-11.551 -33.636,-9.779 -33.636,-7.503ZM-35.449,-7.442C-35.449,-9.362 -35.931,-10.809 -36.894,-11.783C-37.858,-12.756 -39.29,-13.243 -41.19,-13.243L-43.677,-13.243L-43.677,-1.48L-41.592,-1.48C-39.551,-1.48 -38.017,-1.982 -36.99,-2.986C-35.963,-3.99 -35.449,-5.475 -35.449,-7.442Z" style="fill:rgb(26,158,120);fill-rule:nonzero;"/>
                            <path d="M-25.57,-11.239C-25.08,-11.239 -24.64,-11.199 -24.25,-11.118L-24.482,-9.567C-24.939,-9.668 -25.341,-9.718 -25.691,-9.718C-26.584,-9.718 -27.347,-9.356 -27.982,-8.631C-28.616,-7.906 -28.933,-7.003 -28.933,-5.922L-28.933,0L-30.605,0L-30.605,-11.038L-29.225,-11.038L-29.034,-8.993L-28.954,-8.993C-28.544,-9.712 -28.051,-10.266 -27.473,-10.655C-26.896,-11.044 -26.261,-11.239 -25.57,-11.239Z" style="fill:rgb(26,158,120);fill-rule:nonzero;"/>
                            <path d="M-20.615,-11.038L-20.615,-3.877C-20.615,-2.978 -20.41,-2.306 -20.001,-1.863C-19.591,-1.42 -18.95,-1.198 -18.077,-1.198C-16.922,-1.198 -16.078,-1.514 -15.544,-2.145C-15.011,-2.776 -14.744,-3.807 -14.744,-5.237L-14.744,-11.038L-13.072,-11.038L-13.072,0L-14.452,0L-14.693,-1.48L-14.784,-1.48C-15.126,-0.937 -15.601,-0.52 -16.209,-0.232C-16.817,0.057 -17.51,0.201 -18.289,0.201C-19.631,0.201 -20.637,-0.117 -21.305,-0.755C-21.973,-1.393 -22.307,-2.414 -22.307,-3.817L-22.307,-11.038L-20.615,-11.038Z" style="fill:rgb(26,158,120);fill-rule:nonzero;"/>
                            <path d="M-0.493,-11.038L-0.493,-9.98L-2.538,-9.738C-2.35,-9.503 -2.182,-9.196 -2.034,-8.817C-1.887,-8.438 -1.813,-8.01 -1.813,-7.533C-1.813,-6.452 -2.182,-5.589 -2.921,-4.945C-3.659,-4.3 -4.673,-3.978 -5.962,-3.978C-6.291,-3.978 -6.6,-4.005 -6.888,-4.059C-7.6,-3.683 -7.956,-3.209 -7.956,-2.639C-7.956,-2.336 -7.832,-2.113 -7.583,-1.969C-7.335,-1.824 -6.909,-1.752 -6.304,-1.752L-4.351,-1.752C-3.156,-1.752 -2.237,-1.501 -1.596,-0.997C-0.955,-0.493 -0.634,0.238 -0.634,1.198C-0.634,2.42 -1.125,3.352 -2.105,3.993C-3.085,4.634 -4.515,4.955 -6.395,4.955C-7.838,4.955 -8.951,4.686 -9.733,4.149C-10.516,3.612 -10.907,2.853 -10.907,1.873C-10.907,1.202 -10.692,0.621 -10.262,0.131C-9.832,-0.359 -9.228,-0.692 -8.449,-0.866C-8.731,-0.994 -8.968,-1.192 -9.159,-1.46C-9.351,-1.729 -9.446,-2.041 -9.446,-2.397C-9.446,-2.8 -9.339,-3.152 -9.124,-3.454C-8.909,-3.756 -8.57,-4.048 -8.107,-4.33C-8.678,-4.565 -9.143,-4.965 -9.502,-5.529C-9.861,-6.093 -10.041,-6.737 -10.041,-7.462C-10.041,-8.671 -9.678,-9.603 -8.953,-10.257C-8.228,-10.912 -7.201,-11.239 -5.871,-11.239C-5.294,-11.239 -4.774,-11.172 -4.31,-11.038L-0.493,-11.038ZM-9.295,1.853C-9.295,2.451 -9.044,2.904 -8.54,3.213C-8.036,3.521 -7.315,3.676 -6.375,3.676C-4.972,3.676 -3.933,3.466 -3.258,3.046C-2.583,2.627 -2.246,2.058 -2.246,1.339C-2.246,0.742 -2.43,0.327 -2.8,0.096C-3.169,-0.136 -3.864,-0.252 -4.884,-0.252L-6.888,-0.252C-7.647,-0.252 -8.238,-0.07 -8.661,0.292C-9.084,0.655 -9.295,1.175 -9.295,1.853ZM-8.389,-7.503C-8.389,-6.731 -8.171,-6.147 -7.734,-5.75C-7.298,-5.354 -6.69,-5.156 -5.912,-5.156C-4.28,-5.156 -3.464,-5.948 -3.464,-7.533C-3.464,-9.191 -4.29,-10.02 -5.942,-10.02C-6.727,-10.02 -7.332,-9.809 -7.755,-9.386C-8.177,-8.963 -8.389,-8.335 -8.389,-7.503Z" style="fill:rgb(26,158,120);fill-rule:nonzero;"/>
                        </g>
                    </g>
                </g>
            </g>
        </g>
    </g>
</svg>
