<?xml version="1.0" encoding="UTF-8" standalone="no"?>
<!DOCTYPE svg PUBLIC "-//W3C//DTD SVG 1.1//EN" "http://www.w3.org/Graphics/SVG/1.1/DTD/svg11.dtd">
<svg width="100%" height="100%" viewBox="0 0 4423 1862" version="1.1" xmlns="http://www.w3.org/2000/svg" xmlns:xlink="http://www.w3.org/1999/xlink" xml:space="preserve" xmlns:serif="http://www.serif.com/" style="fill-rule:evenodd;clip-rule:evenodd;">
    <g transform="matrix(4.16667,0,0,4.16667,0,0)">
        <g id="figure_1">
            <rect id="patch_1" x="0" y="0" width="1061.31" height="446.811" style="fill:none;"/>
            <g id="axes_1">
                <rect id="patch_2" x="40.71" y="16.2" width="295.412" height="380.52" style="fill:none;"/>
                <g id="matplotlib.axis_1">
                    <g id="xtick_1">
                        <g id="m7d15f69dc5" transform="matrix(1,0,0,1,77.6364,406.72)">
                            <path d="M0,0L0,9" style="fill:white;fill-rule:nonzero;stroke:white;stroke-width:1.88px;"/>
                        </g>
                        <g id="text_1" transform="matrix(1,0,0,1,77.6364,434.764)">
                            <text x="-5.93px" y="0px" style="font-family:'Karla-Regular', 'Karla';font-size:20.625px;fill:white;">A</text>
                        </g>
                    </g>
                    <g id="xtick_2">
                        <g id="m7d15f69dc51" serif:id="m7d15f69dc5" transform="matrix(1,0,0,1,151.489,406.72)">
                            <path d="M0,0L0,9" style="fill:white;fill-rule:nonzero;stroke:white;stroke-width:1.88px;"/>
                        </g>
                        <g id="text_2" transform="matrix(1,0,0,1,151.489,434.764)">
                            <text x="-6.414px" y="0px" style="font-family:'Karla-Regular', 'Karla';font-size:20.625px;fill:white;">B</text>
                        </g>
                    </g>
                    <g id="xtick_3">
                        <g id="m7d15f69dc52" serif:id="m7d15f69dc5" transform="matrix(1,0,0,1,225.342,406.72)">
                            <path d="M0,0L0,9" style="fill:white;fill-rule:nonzero;stroke:white;stroke-width:1.88px;"/>
                        </g>
                        <g id="text_3" transform="matrix(1,0,0,1,225.342,434.764)">
                            <text x="-6.322px" y="0px" style="font-family:'Karla-Regular', 'Karla';font-size:20.625px;fill:white;">C</text>
                        </g>
                    </g>
                    <g id="xtick_4">
                        <g id="m7d15f69dc53" serif:id="m7d15f69dc5" transform="matrix(1,0,0,1,299.195,406.72)">
                            <path d="M0,0L0,9" style="fill:white;fill-rule:nonzero;stroke:white;stroke-width:1.88px;"/>
                        </g>
                        <g id="text_4" transform="matrix(1,0,0,1,299.195,434.764)">
                            <text x="-6.817px" y="0px" style="font-family:'Karla-Regular', 'Karla';font-size:20.625px;fill:white;">D</text>
                        </g>
                    </g>
                </g>
                <g id="matplotlib.axis_2">
                    <g id="ytick_1">
                        <g id="m4bfe5c39f9" transform="matrix(1,0,0,1,40.71,396.72)">
                            <path d="M0,0L-9,0" style="fill:white;fill-rule:nonzero;stroke:white;stroke-width:1.88px;"/>
                        </g>
                        <g id="text_5" transform="matrix(1,0,0,1,26.71,403.742)">
                            <text x="-12.251px" y="0px" style="font-family:'Karla-Regular', 'Karla';font-size:20.625px;fill:white;">0</text>
                        </g>
                    </g>
                    <g id="ytick_2">
                        <g id="m4bfe5c39f91" serif:id="m4bfe5c39f9" transform="matrix(1,0,0,1,40.71,354.44)">
                            <path d="M0,0L-9,0" style="fill:white;fill-rule:nonzero;stroke:white;stroke-width:1.88px;"/>
                        </g>
                        <g id="text_6" transform="matrix(1,0,0,1,26.71,361.462)">
                            <text x="-11.962px" y="0px" style="font-family:'Karla-Regular', 'Karla';font-size:20.625px;fill:white;">2</text>
                        </g>
                    </g>
                    <g id="ytick_3">
                        <g id="m4bfe5c39f92" serif:id="m4bfe5c39f9" transform="matrix(1,0,0,1,40.71,312.16)">
                            <path d="M0,0L-9,0" style="fill:white;fill-rule:nonzero;stroke:white;stroke-width:1.88px;"/>
                        </g>
                        <g id="text_7" transform="matrix(1,0,0,1,26.71,319.182)">
                            <text x="-11.529px" y="0px" style="font-family:'Karla-Regular', 'Karla';font-size:20.625px;fill:white;">4</text>
                        </g>
                    </g>
                    <g id="ytick_4">
                        <g id="m4bfe5c39f93" serif:id="m4bfe5c39f9" transform="matrix(1,0,0,1,40.71,269.88)">
                            <path d="M0,0L-9,0" style="fill:white;fill-rule:nonzero;stroke:white;stroke-width:1.88px;"/>
                        </g>
                        <g id="text_8" transform="matrix(1,0,0,1,26.71,276.902)">
                            <text x="-11.818px" y="0px" style="font-family:'Karla-Regular', 'Karla';font-size:20.625px;fill:white;">6</text>
                        </g>
                    </g>
                    <g id="ytick_5">
                        <g id="m4bfe5c39f94" serif:id="m4bfe5c39f9" transform="matrix(1,0,0,1,40.71,227.6)">
                            <path d="M0,0L-9,0" style="fill:white;fill-rule:nonzero;stroke:white;stroke-width:1.88px;"/>
                        </g>
                        <g id="text_9" transform="matrix(1,0,0,1,26.71,234.622)">
                            <text x="-12.684px" y="0px" style="font-family:'Karla-Regular', 'Karla';font-size:20.625px;fill:white;">8</text>
                        </g>
                    </g>
                    <g id="ytick_6">
                        <g id="m4bfe5c39f95" serif:id="m4bfe5c39f9" transform="matrix(1,0,0,1,40.71,185.32)">
                            <path d="M0,0L-9,0" style="fill:white;fill-rule:nonzero;stroke:white;stroke-width:1.88px;"/>
                        </g>
                        <g id="text_10" transform="matrix(1,0,0,1,26.71,192.342)">
                            <text x="-19.078px" y="0px" style="font-family:'Karla-Regular', 'Karla';font-size:20.625px;fill:white;">10</text>
                        </g>
                    </g>
                    <g id="ytick_7">
                        <g id="m4bfe5c39f96" serif:id="m4bfe5c39f9" transform="matrix(1,0,0,1,40.71,143.04)">
                            <path d="M0,0L-9,0" style="fill:white;fill-rule:nonzero;stroke:white;stroke-width:1.88px;"/>
                        </g>
                        <g id="text_11" transform="matrix(1,0,0,1,26.71,150.062)">
                            <text x="-18.789px" y="0px" style="font-family:'Karla-Regular', 'Karla';font-size:20.625px;fill:white;">12</text>
                        </g>
                    </g>
                    <g id="ytick_8">
                        <g id="m4bfe5c39f97" serif:id="m4bfe5c39f9" transform="matrix(1,0,0,1,40.71,100.76)">
                            <path d="M0,0L-9,0" style="fill:white;fill-rule:nonzero;stroke:white;stroke-width:1.88px;"/>
                        </g>
                        <g id="text_12" transform="matrix(1,0,0,1,26.71,107.782)">
                            <text x="-18.356px" y="0px" style="font-family:'Karla-Regular', 'Karla';font-size:20.625px;fill:white;">14</text>
                        </g>
                    </g>
                    <g id="ytick_9">
                        <g id="m4bfe5c39f98" serif:id="m4bfe5c39f9" transform="matrix(1,0,0,1,40.71,58.48)">
                            <path d="M0,0L-9,0" style="fill:white;fill-rule:nonzero;stroke:white;stroke-width:1.88px;"/>
                        </g>
                        <g id="text_13" transform="matrix(1,0,0,1,26.71,65.5022)">
                            <text x="-18.645px" y="0px" style="font-family:'Karla-Regular', 'Karla';font-size:20.625px;fill:white;">16</text>
                        </g>
                    </g>
                    <g id="ytick_10">
                        <g id="m4bfe5c39f99" serif:id="m4bfe5c39f9" transform="matrix(1,0,0,1,40.71,16.2)">
                            <path d="M0,0L-9,0" style="fill:white;fill-rule:nonzero;stroke:white;stroke-width:1.88px;"/>
                        </g>
                        <g id="text_14" transform="matrix(1,0,0,1,26.71,23.2222)">
                            <text x="-19.511px" y="0px" style="font-family:'Karla-Regular', 'Karla';font-size:20.625px;fill:white;">18</text>
                        </g>
                    </g>
                </g>
                <rect id="patch_3" x="48.095" y="185.32" width="59.082" height="211.4" style="fill:rgb(150,200,148);fill-rule:nonzero;"/>
                <rect id="patch_4" x="121.948" y="185.32" width="59.082" height="211.4" style="fill:rgb(150,200,148);fill-rule:nonzero;"/>
                <rect id="patch_5" x="195.801" y="185.32" width="59.082" height="211.4" style="fill:rgb(150,200,148);fill-rule:nonzero;"/>
                <rect id="patch_6" x="269.654" y="185.32" width="59.082" height="211.4" style="fill:rgb(150,200,148);fill-rule:nonzero;"/>
                <path id="line2d_15" d="M77.636,238.17L77.636,132.47" style="fill:none;stroke:rgb(217,217,217);stroke-width:4.05px;stroke-linecap:round;"/>
                <path id="line2d_16" d="M151.489,238.17L151.489,132.47" style="fill:none;stroke:rgb(217,217,217);stroke-width:4.05px;stroke-linecap:round;"/>
                <path id="line2d_17" d="M225.342,238.17L225.342,132.47" style="fill:none;stroke:rgb(217,217,217);stroke-width:4.05px;stroke-linecap:round;"/>
                <path id="line2d_18" d="M299.195,238.17L299.195,132.47" style="fill:none;stroke:rgb(217,217,217);stroke-width:4.05px;stroke-linecap:round;"/>
                <path id="patch_7" d="M40.71,396.72L40.71,16.2" style="fill:none;stroke:white;stroke-width:1.88px;stroke-linecap:square;"/>
                <path id="patch_8" d="M77.636,406.72L299.195,406.72" style="fill:none;stroke:white;stroke-width:1.88px;stroke-linecap:square;"/>
            </g>
            <g id="axes_2">
                <rect id="patch_9" x="395.204" y="16.2" width="295.412" height="380.52" style="fill:none;"/>
                <g id="matplotlib.axis_3">
                    <g id="xtick_5">
                        <g id="m7d15f69dc54" serif:id="m7d15f69dc5" transform="matrix(1,0,0,1,432.131,406.72)">
                            <path d="M0,0L0,9" style="fill:white;fill-rule:nonzero;stroke:white;stroke-width:1.88px;"/>
                        </g>
                        <g id="text_15" transform="matrix(1,0,0,1,432.131,434.764)">
                            <text x="-5.93px" y="0px" style="font-family:'Karla-Regular', 'Karla';font-size:20.625px;fill:white;">A</text>
                        </g>
                    </g>
                    <g id="xtick_6">
                        <g id="m7d15f69dc55" serif:id="m7d15f69dc5" transform="matrix(1,0,0,1,505.983,406.72)">
                            <path d="M0,0L0,9" style="fill:white;fill-rule:nonzero;stroke:white;stroke-width:1.88px;"/>
                        </g>
                        <g id="text_16" transform="matrix(1,0,0,1,505.983,434.764)">
                            <text x="-6.414px" y="0px" style="font-family:'Karla-Regular', 'Karla';font-size:20.625px;fill:white;">B</text>
                        </g>
                    </g>
                    <g id="xtick_7">
                        <g id="m7d15f69dc56" serif:id="m7d15f69dc5" transform="matrix(1,0,0,1,579.836,406.72)">
                            <path d="M0,0L0,9" style="fill:white;fill-rule:nonzero;stroke:white;stroke-width:1.88px;"/>
                        </g>
                        <g id="text_17" transform="matrix(1,0,0,1,579.836,434.764)">
                            <text x="-6.322px" y="0px" style="font-family:'Karla-Regular', 'Karla';font-size:20.625px;fill:white;">C</text>
                        </g>
                    </g>
                    <g id="xtick_8">
                        <g id="m7d15f69dc57" serif:id="m7d15f69dc5" transform="matrix(1,0,0,1,653.689,406.72)">
                            <path d="M0,0L0,9" style="fill:white;fill-rule:nonzero;stroke:white;stroke-width:1.88px;"/>
                        </g>
                        <g id="text_18" transform="matrix(1,0,0,1,653.689,434.764)">
                            <text x="-6.817px" y="0px" style="font-family:'Karla-Regular', 'Karla';font-size:20.625px;fill:white;">D</text>
                        </g>
                    </g>
                </g>
                <g id="matplotlib.axis_4">
                    <g id="ytick_11">
                        <g id="m4bfe5c39f910" serif:id="m4bfe5c39f9" transform="matrix(1,0,0,1,395.204,396.72)">
                            <path d="M0,0L-9,0" style="fill:white;fill-rule:nonzero;stroke:white;stroke-width:1.88px;"/>
                        </g>
                        <g id="text_19" transform="matrix(1,0,0,1,381.204,403.742)">
                            <text x="-12.251px" y="0px" style="font-family:'Karla-Regular', 'Karla';font-size:20.625px;fill:white;">0</text>
                        </g>
                    </g>
                    <g id="ytick_12">
                        <g id="m4bfe5c39f911" serif:id="m4bfe5c39f9" transform="matrix(1,0,0,1,395.204,354.44)">
                            <path d="M0,0L-9,0" style="fill:white;fill-rule:nonzero;stroke:white;stroke-width:1.88px;"/>
                        </g>
                        <g id="text_20" transform="matrix(1,0,0,1,381.204,361.462)">
                            <text x="-11.962px" y="0px" style="font-family:'Karla-Regular', 'Karla';font-size:20.625px;fill:white;">2</text>
                        </g>
                    </g>
                    <g id="ytick_13">
                        <g id="m4bfe5c39f912" serif:id="m4bfe5c39f9" transform="matrix(1,0,0,1,395.204,312.16)">
                            <path d="M0,0L-9,0" style="fill:white;fill-rule:nonzero;stroke:white;stroke-width:1.88px;"/>
                        </g>
                        <g id="text_21" transform="matrix(1,0,0,1,381.204,319.182)">
                            <text x="-11.529px" y="0px" style="font-family:'Karla-Regular', 'Karla';font-size:20.625px;fill:white;">4</text>
                        </g>
                    </g>
                    <g id="ytick_14">
                        <g id="m4bfe5c39f913" serif:id="m4bfe5c39f9" transform="matrix(1,0,0,1,395.204,269.88)">
                            <path d="M0,0L-9,0" style="fill:white;fill-rule:nonzero;stroke:white;stroke-width:1.88px;"/>
                        </g>
                        <g id="text_22" transform="matrix(1,0,0,1,381.204,276.902)">
                            <text x="-11.818px" y="0px" style="font-family:'Karla-Regular', 'Karla';font-size:20.625px;fill:white;">6</text>
                        </g>
                    </g>
                    <g id="ytick_15">
                        <g id="m4bfe5c39f914" serif:id="m4bfe5c39f9" transform="matrix(1,0,0,1,395.204,227.6)">
                            <path d="M0,0L-9,0" style="fill:white;fill-rule:nonzero;stroke:white;stroke-width:1.88px;"/>
                        </g>
                        <g id="text_23" transform="matrix(1,0,0,1,381.204,234.622)">
                            <text x="-12.684px" y="0px" style="font-family:'Karla-Regular', 'Karla';font-size:20.625px;fill:white;">8</text>
                        </g>
                    </g>
                    <g id="ytick_16">
                        <g id="m4bfe5c39f915" serif:id="m4bfe5c39f9" transform="matrix(1,0,0,1,395.204,185.32)">
                            <path d="M0,0L-9,0" style="fill:white;fill-rule:nonzero;stroke:white;stroke-width:1.88px;"/>
                        </g>
                        <g id="text_24" transform="matrix(1,0,0,1,381.204,192.342)">
                            <text x="-19.078px" y="0px" style="font-family:'Karla-Regular', 'Karla';font-size:20.625px;fill:white;">10</text>
                        </g>
                    </g>
                    <g id="ytick_17">
                        <g id="m4bfe5c39f916" serif:id="m4bfe5c39f9" transform="matrix(1,0,0,1,395.204,143.04)">
                            <path d="M0,0L-9,0" style="fill:white;fill-rule:nonzero;stroke:white;stroke-width:1.88px;"/>
                        </g>
                        <g id="text_25" transform="matrix(1,0,0,1,381.204,150.062)">
                            <text x="-18.789px" y="0px" style="font-family:'Karla-Regular', 'Karla';font-size:20.625px;fill:white;">12</text>
                        </g>
                    </g>
                    <g id="ytick_18">
                        <g id="m4bfe5c39f917" serif:id="m4bfe5c39f9" transform="matrix(1,0,0,1,395.204,100.76)">
                            <path d="M0,0L-9,0" style="fill:white;fill-rule:nonzero;stroke:white;stroke-width:1.88px;"/>
                        </g>
                        <g id="text_26" transform="matrix(1,0,0,1,381.204,107.782)">
                            <text x="-18.356px" y="0px" style="font-family:'Karla-Regular', 'Karla';font-size:20.625px;fill:white;">14</text>
                        </g>
                    </g>
                    <g id="ytick_19">
                        <g id="m4bfe5c39f918" serif:id="m4bfe5c39f9" transform="matrix(1,0,0,1,395.204,58.48)">
                            <path d="M0,0L-9,0" style="fill:white;fill-rule:nonzero;stroke:white;stroke-width:1.88px;"/>
                        </g>
                        <g id="text_27" transform="matrix(1,0,0,1,381.204,65.5022)">
                            <text x="-18.645px" y="0px" style="font-family:'Karla-Regular', 'Karla';font-size:20.625px;fill:white;">16</text>
                        </g>
                    </g>
                    <g id="ytick_20">
                        <g id="m4bfe5c39f919" serif:id="m4bfe5c39f9" transform="matrix(1,0,0,1,395.204,16.2)">
                            <path d="M0,0L-9,0" style="fill:white;fill-rule:nonzero;stroke:white;stroke-width:1.88px;"/>
                        </g>
                        <g id="text_28" transform="matrix(1,0,0,1,381.204,23.2222)">
                            <text x="-19.511px" y="0px" style="font-family:'Karla-Regular', 'Karla';font-size:20.625px;fill:white;">18</text>
                        </g>
                    </g>
                </g>
                <rect id="patch_10" x="402.589" y="171.529" width="59.082" height="55.975" style="fill:rgb(150,200,148);fill-rule:nonzero;stroke:white;stroke-width:2px;"/>
                <rect id="patch_11" x="476.442" y="140.735" width="59.082" height="64.752" style="fill:rgb(150,200,148);fill-rule:nonzero;stroke:white;stroke-width:2px;"/>
                <rect id="patch_12" x="550.295" y="159.067" width="59.082" height="54.513" style="fill:rgb(150,200,148);fill-rule:nonzero;stroke:white;stroke-width:2px;"/>
                <rect id="patch_13" x="624.148" y="139.659" width="59.082" height="89.419" style="fill:rgb(150,200,148);fill-rule:nonzero;stroke:white;stroke-width:2px;"/>
                <path id="line2d_33" d="M432.131,227.504L432.131,229.539" style="fill:none;stroke:white;stroke-width:2.25px;stroke-linecap:round;"/>
                <path id="line2d_34" d="M432.131,171.529L432.131,88.168" style="fill:none;stroke:white;stroke-width:2.25px;stroke-linecap:round;"/>
                <path id="line2d_35" d="M417.36,229.539L446.901,229.539" style="fill:none;stroke:white;stroke-width:2.25px;stroke-linecap:round;"/>
                <path id="line2d_36" d="M417.36,88.168L446.901,88.168" style="fill:none;stroke:white;stroke-width:2.25px;stroke-linecap:round;"/>
                <path id="line2d_38" d="M505.983,205.488L505.983,215.583" style="fill:none;stroke:white;stroke-width:2.25px;stroke-linecap:round;"/>
                <path id="line2d_39" d="M505.983,140.735L505.983,126.584" style="fill:none;stroke:white;stroke-width:2.25px;stroke-linecap:round;"/>
                <path id="line2d_40" d="M491.213,215.583L520.754,215.583" style="fill:none;stroke:white;stroke-width:2.25px;stroke-linecap:round;"/>
                <path id="line2d_41" d="M491.213,126.584L520.754,126.584" style="fill:none;stroke:white;stroke-width:2.25px;stroke-linecap:round;"/>
                <g id="m89034235a5" transform="matrix(1,0,0,1,505.983,310.648)">
                    <path d="M0,3.536L2.121,0L0,-3.536L-2.121,0L0,3.536Z" style="fill:white;fill-rule:nonzero;stroke:white;stroke-width:1px;"/>
                </g>
                <path id="line2d_43" d="M579.836,213.58L579.836,276.49" style="fill:none;stroke:white;stroke-width:2.25px;stroke-linecap:round;"/>
                <path id="line2d_44" d="M579.836,159.067L579.836,110.588" style="fill:none;stroke:white;stroke-width:2.25px;stroke-linecap:round;"/>
                <path id="line2d_45" d="M565.066,276.49L594.607,276.49" style="fill:none;stroke:white;stroke-width:2.25px;stroke-linecap:round;"/>
                <path id="line2d_46" d="M565.066,110.588L594.607,110.588" style="fill:none;stroke:white;stroke-width:2.25px;stroke-linecap:round;"/>
                <g id="m89034235a51" serif:id="m89034235a5" transform="matrix(1,0,0,1,579.836,45.6965)">
                    <path d="M0,3.536L2.121,0L0,-3.536L-2.121,0L0,3.536Z" style="fill:white;fill-rule:nonzero;stroke:white;stroke-width:1px;"/>
                </g>
                <path id="line2d_48" d="M653.689,229.077L653.689,311.366" style="fill:none;stroke:white;stroke-width:2.25px;stroke-linecap:round;"/>
                <path id="line2d_49" d="M653.689,139.659L653.689,99.219" style="fill:none;stroke:white;stroke-width:2.25px;stroke-linecap:round;"/>
                <path id="line2d_50" d="M638.919,311.366L668.46,311.366" style="fill:none;stroke:white;stroke-width:2.25px;stroke-linecap:round;"/>
                <path id="line2d_51" d="M638.919,99.219L668.46,99.219" style="fill:none;stroke:white;stroke-width:2.25px;stroke-linecap:round;"/>
                <path id="line2d_53" d="M402.589,209.859L461.672,209.859" style="fill:none;stroke:white;stroke-width:2.25px;stroke-linecap:round;"/>
                <path id="line2d_54" d="M476.442,185.987L535.525,185.987" style="fill:none;stroke:white;stroke-width:2.25px;stroke-linecap:round;"/>
                <path id="line2d_55" d="M550.295,195.782L609.378,195.782" style="fill:none;stroke:white;stroke-width:2.25px;stroke-linecap:round;"/>
                <path id="line2d_56" d="M624.148,174.353L683.231,174.353" style="fill:none;stroke:white;stroke-width:2.25px;stroke-linecap:round;"/>
                <path id="patch_14" d="M395.204,396.72L395.204,16.2" style="fill:none;stroke:white;stroke-width:1.88px;stroke-linecap:square;"/>
                <path id="patch_15" d="M432.131,406.72L653.689,406.72" style="fill:none;stroke:white;stroke-width:1.88px;stroke-linecap:square;"/>
            </g>
            <rect id="patch_16" x="749.698" y="16.2" width="295.412" height="380.52" style="fill:none;"/>
        </g>
    </g>
</svg>
