<?xml version="1.0" encoding="UTF-8" standalone="no"?>
<!DOCTYPE svg PUBLIC "-//W3C//DTD SVG 1.1//EN" "http://www.w3.org/Graphics/SVG/1.1/DTD/svg11.dtd">
<svg width="100%" height="100%" viewBox="0 0 386 444" version="1.1" xmlns="http://www.w3.org/2000/svg" xmlns:xlink="http://www.w3.org/1999/xlink" xml:space="preserve" xmlns:serif="http://www.serif.com/" style="fill-rule:evenodd;clip-rule:evenodd;">
    <g id="Artboard1" transform="matrix(1,0,0,1,-9.11135,-0.838483)">
        <rect x="9.111" y="0.838" width="385.107" height="443.578" style="fill:none;"/>
        <g transform="matrix(1.07551,0,0,1.07551,-25.7385,-17.8042)">
            <g transform="matrix(-1.7935,0,0,1.7935,65.0929,316.836)">
                <path d="M-5.94,0L0,0" style="fill:white;fill-rule:nonzero;stroke:white;stroke-width:0.32px;"/>
            </g>
            <g transform="matrix(-0.858586,0,0,1.7935,71.0929,265.36)">
                <path d="M-5.94,0L0,0" style="fill:white;fill-rule:nonzero;stroke:white;stroke-width:0.41px;"/>
            </g>
            <g transform="matrix(-1.7935,0,0,1.7935,65.0929,213.883)">
                <path d="M-5.94,0L0,0" style="fill:white;fill-rule:nonzero;stroke:white;stroke-width:0.32px;"/>
            </g>
            <g transform="matrix(-0.858586,0,0,1.7935,71.0929,162.406)">
                <path d="M-5.94,0L0,0" style="fill:white;fill-rule:nonzero;stroke:white;stroke-width:0.41px;"/>
            </g>
            <g transform="matrix(-1.7935,0,0,1.7935,65.0929,110.928)">
                <path d="M-5.94,0L0,0" style="fill:white;fill-rule:nonzero;stroke:white;stroke-width:0.32px;"/>
            </g>
            <g transform="matrix(0,-1.65376,-1.7935,0,230.178,225.915)">
                <path d="M-86.106,86.106L86.106,86.106" style="fill:white;fill-rule:nonzero;stroke:white;stroke-width:0.34px;stroke-linecap:square;"/>
            </g>
            <g transform="matrix(3.78134,0,0,1.7935,75.655,368.313)">
                <path d="M0,0L38.67,0" style="fill:white;fill-rule:nonzero;stroke:white;stroke-width:0.2px;stroke-linecap:square;"/>
            </g>
            <g id="Contrast-Axes" serif:id="Contrast Axes">
                <g transform="matrix(1.93285,0,0,1.7935,249.025,368.313)">
                    <path d="M0,0L38.67,0" style="fill:white;fill-rule:nonzero;stroke:white;stroke-width:0.31px;stroke-linecap:square;"/>
                </g>
                <g transform="matrix(0.899471,0,0,1.7935,323.873,277.31)">
                    <path d="M0,0L5.67,0" style="fill:white;fill-rule:nonzero;stroke:white;stroke-width:0.41px;"/>
                </g>
                <g transform="matrix(1.7935,0,0,1.7935,323.873,225.835)">
                    <path d="M0,0L5.67,0" style="fill:white;fill-rule:nonzero;stroke:white;stroke-width:0.32px;"/>
                </g>
                <g transform="matrix(0.899471,0,0,1.7935,323.873,174.357)">
                    <path d="M0,0L5.67,0" style="fill:white;fill-rule:nonzero;stroke:white;stroke-width:0.41px;"/>
                </g>
                <g transform="matrix(1.7935,0,0,1.7935,263.092,182.381)">
                    <path d="M0,48.301L-0.072,48.301L-0.072,0L-0.023,0L-0.017,0.488L-0.015,0.976L-0.015,1.463L-0.014,1.951L-0.01,2.44L0,2.927L0.021,3.415L0.056,3.904L0.109,4.392L0.184,4.879L0.283,5.366L0.396,5.855L0.52,6.342L0.646,6.83L0.784,7.319L0.953,7.807L1.183,8.294L1.491,8.782L1.883,9.271L2.341,9.757L2.839,10.245L3.35,10.734L3.852,11.221L4.338,11.709L4.811,12.197L5.285,12.686L5.781,13.173L6.324,13.661L6.937,14.149L7.634,14.636L8.415,15.124L9.268,15.613L10.174,16.101L11.122,16.588L12.114,17.076L13.144,17.565L14.185,18.052L15.196,18.539L16.128,19.028L16.96,19.516L17.7,20.003L18.388,20.491L19.071,20.98L19.789,21.467L20.545,21.955L21.291,22.444L21.94,22.93L22.4,23.418L22.605,23.906L22.541,24.395L22.243,24.882L21.777,25.37L21.221,25.859L20.635,26.346L20.045,26.834L19.444,27.322L18.791,27.81L18.05,28.297L17.218,28.785L16.332,29.274L15.45,29.761L14.611,30.249L13.819,30.738L13.025,31.226L12.173,31.712L11.234,32.2L10.226,32.689L9.208,33.176L8.246,33.664L7.375,34.153L6.603,34.641L5.918,35.128L5.305,35.616L4.75,36.104L4.246,36.591L3.781,37.079L3.352,37.568L2.959,38.055L2.594,38.543L2.249,39.031L1.92,39.52L1.61,40.007L1.325,40.494L1.079,40.983L0.875,41.47L0.713,41.958L0.581,42.447L0.467,42.935L0.367,43.422L0.278,43.91L0.206,44.398L0.151,44.885L0.113,45.373L0.084,45.862L0.063,46.35L0.047,46.837L0.03,47.325L0.015,47.814L0,48.301Z" style="fill:rgb(161,175,181);fill-rule:nonzero;"/>
                </g>
                <g transform="matrix(0,-2.84763,-1.7935,0,401.088,245.04)">
                    <path d="M-43.053,43.053L43.053,43.053" style="fill:white;fill-rule:nonzero;stroke:white;stroke-width:0.24px;stroke-linecap:square;"/>
                </g>
                <g transform="matrix(1.7935,0,0,1.7935,323.873,122.878)">
                    <path d="M0,0L5.669,0" style="fill:white;fill-rule:nonzero;stroke:white;stroke-width:0.32px;"/>
                </g>
                <g id="P---arrow" serif:id="P + arrow">
                    <g id="P-VALUE-ARROW" serif:id="P VALUE ARROW">
                        <g transform="matrix(1.7935,0,0,1.7935,262.963,170.376)">
                            <path d="M0,5.129C0.632,3.425 1.711,1.311 2.854,0L0,1.032L-2.853,0C-1.71,1.311 -0.632,3.425 0,5.129" style="fill:rgb(242,13,13);fill-rule:nonzero;stroke:rgb(242,13,13);stroke-width:0.86px;stroke-linejoin:round;stroke-miterlimit:1.41421;"/>
                        </g>
                        <g transform="matrix(0,-1.7935,-1.7935,0,269.884,166.16)">
                            <path d="M-3.859,3.859L3.859,3.859" style="fill:rgb(242,13,13);fill-rule:nonzero;stroke:rgb(242,13,13);stroke-width:0.86px;"/>
                        </g>
                    </g>
                    <g transform="matrix(1.7935,0,0,1.7935,-107.514,-642.542)">
                        <text x="203.258px" y="445.253px" style="font-family:'NotoSans-BoldItalic', 'Noto Sans', sans-serif;font-weight:700;font-style:italic;font-size:9.921px;fill:rgb(242,13,13);">P</text>
                    </g>
                </g>
                <g transform="matrix(1.7935,0,0,1.7935,-107.741,-642.542)">
                    <text x="250.538px" y="488.432px" style="font-family:'WorkSans-Regular', 'Work Sans';font-size:11.339px;fill:white;">0</text>
                </g>
                <g transform="matrix(1.7935,0,0,1.7935,-104.52,-642.542)">
                    <text x="250.318px" y="430.272px" style="font-family:'WorkSans-Regular', 'Work Sans';font-size:11.339px;fill:white;">1</text>
                </g>
                <g transform="matrix(0,-1.7935,1.7935,0,-102.846,-529.628)">
                    <text x="-479.891px" y="271.164px" style="font-family:'LucidaGrande', 'Lucida Grande', sans-serif;font-weight:500;font-size:9.874px;fill:white;">Δ</text>
                    <text x="-470.176px" y="271.164px" style="font-family:'WorkSans-Regular', 'Work Sans';font-size:9.874px;fill:white;">(Mean Difference)</text>
                </g>
                <g id="control-mean" serif:id="control mean">
                    <g transform="matrix(1.7935,0,0,1.7935,210.908,225.835)">
                        <path d="M0,0L62.986,0" style="fill:none;stroke:rgb(26,158,120);stroke-width:0.97px;stroke-linecap:round;"/>
                    </g>
                    <g id="control-mean1" serif:id="control mean" transform="matrix(1.7935,0,0,1.7935,126.184,225.835)">
                        <path d="M0,0L47.239,0" style="fill:none;stroke:rgb(26,158,120);stroke-width:0.97px;stroke-linecap:round;"/>
                    </g>
                </g>
                <g id="test-mean" serif:id="test mean">
                    <g transform="matrix(1.7935,0,0,1.7935,210.908,201.309)">
                        <path d="M0,0L62.986,0" style="fill:white;fill-rule:nonzero;stroke:rgb(217,95,2);stroke-width:0.97px;stroke-linecap:round;"/>
                    </g>
                    <g id="test-mean1" serif:id="test mean" transform="matrix(0.988857,0,0,1.7935,195.337,201.309)">
                        <path d="M0,0L15.746,0" style="fill:white;fill-rule:nonzero;stroke:rgb(217,95,2);stroke-width:1.2px;stroke-linecap:round;"/>
                    </g>
                </g>
                <g transform="matrix(1.7935,0,0,1.7935,92.8188,-374.226)">
                    <text x="99.329px" y="424.363px" style="font-family:'WorkSans-Regular', 'Work Sans';font-size:6.97px;fill:white;">Null</text>
                    <text x="86.077px" y="434.121px" style="font-family:'WorkSans-Regular', 'Work Sans';font-size:6.97px;fill:white;">Distribution</text>
                </g>
                <g transform="matrix(1.7935,0,0,1.7935,-110.245,-436.082)">
                    <text x="250.318px" y="430.272px" style="font-family:'WorkSans-Regular', 'Work Sans';font-size:11.339px;fill:white;">-1</text>
                </g>
                <g transform="matrix(1.78666,0,0,1.7935,323.85,328.768)">
                    <path d="M0,0L5.67,0" style="fill:white;fill-rule:nonzero;stroke:white;stroke-width:0.32px;"/>
                </g>
                <g id="P-curve" serif:id="P curve" transform="matrix(1.7935,0,0,1.7935,268.761,182.381)">
                    <path d="M0,10.554L-0.322,10.245L-0.821,9.757L-1.278,9.271L-1.67,8.783L-1.979,8.294L-2.21,7.807L-2.379,7.319L-2.516,6.83L-2.643,6.342L-2.766,5.855L-2.879,5.366L-2.977,4.879L-3.053,4.392L-3.106,3.904L-3.141,3.415L-3.161,2.927L-3.172,2.44L-3.175,1.951L-3.178,1.463L-3.178,0.976L-3.178,0.489L-3.185,0L-3.233,0L-3.233,10.554L0,10.554Z" style="fill:rgb(242,13,13);fill-rule:nonzero;stroke:rgb(242,13,13);stroke-width:0.15px;"/>
                </g>
            </g>
            <g>
                <g transform="matrix(1.7935,0,0,1.7935,126.185,325.327)">
                    <path d="M0,4.752C0.63,4.752 1.235,4.502 1.68,4.056C2.126,3.611 2.376,3.006 2.376,2.376C2.376,1.746 2.126,1.142 1.68,0.696C1.235,0.25 0.63,0 0,0C-0.63,0 -1.234,0.25 -1.68,0.696C-2.125,1.142 -2.376,1.746 -2.376,2.376C-2.376,3.006 -2.125,3.611 -1.68,4.056C-1.234,4.502 -0.63,4.752 0,4.752" style="fill:rgb(26,158,120);fill-rule:nonzero;"/>
                </g>
                <g transform="matrix(1.7935,0,0,1.7935,126.185,291.156)">
                    <path d="M0,4.752C0.63,4.752 1.235,4.501 1.68,4.056C2.126,3.609 2.376,3.006 2.376,2.376C2.376,1.745 2.126,1.141 1.68,0.694C1.235,0.25 0.63,0 0,0C-0.63,0 -1.234,0.25 -1.68,0.694C-2.125,1.141 -2.376,1.745 -2.376,2.376C-2.376,3.006 -2.125,3.609 -1.68,4.056C-1.234,4.501 -0.63,4.752 0,4.752" style="fill:rgb(26,158,120);fill-rule:nonzero;"/>
                </g>
                <g transform="matrix(1.7935,0,0,1.7935,121.235,284.055)">
                    <path d="M0,4.752C0.63,4.752 1.235,4.502 1.68,4.056C2.126,3.609 2.376,3.006 2.376,2.376C2.376,1.746 2.126,1.141 1.68,0.695C1.235,0.25 0.63,0 0,0C-0.63,0 -1.235,0.25 -1.68,0.695C-2.126,1.141 -2.376,1.746 -2.376,2.376C-2.376,3.006 -2.126,3.609 -1.68,4.056C-1.235,4.502 -0.63,4.752 0,4.752" style="fill:rgb(26,158,120);fill-rule:nonzero;"/>
                </g>
                <g transform="matrix(1.7935,0,0,1.7935,126.185,276.123)">
                    <path d="M0,4.752C0.63,4.752 1.235,4.501 1.68,4.056C2.126,3.609 2.376,3.006 2.376,2.376C2.376,1.745 2.126,1.141 1.68,0.695C1.235,0.25 0.63,0 0,0C-0.63,0 -1.234,0.25 -1.68,0.695C-2.125,1.141 -2.376,1.745 -2.376,2.376C-2.376,3.006 -2.125,3.609 -1.68,4.056C-1.234,4.501 -0.63,4.752 0,4.752" style="fill:rgb(26,158,120);fill-rule:nonzero;"/>
                </g>
                <g transform="matrix(1.7935,0,0,1.7935,123.109,268.117)">
                    <path d="M0,4.753C0.63,4.753 1.234,4.503 1.68,4.058C2.125,3.611 2.376,3.008 2.376,2.376C2.376,1.746 2.125,1.143 1.68,0.696C1.234,0.251 0.63,0 0,0C-0.63,0 -1.235,0.251 -1.68,0.696C-2.126,1.143 -2.376,1.746 -2.376,2.376C-2.376,3.008 -2.126,3.611 -1.68,4.058C-1.235,4.503 -0.63,4.753 0,4.753" style="fill:rgb(26,158,120);fill-rule:nonzero;"/>
                </g>
                <g transform="matrix(1.7935,0,0,1.7935,126.185,256.408)">
                    <path d="M0,4.752C0.63,4.752 1.235,4.501 1.68,4.056C2.126,3.609 2.376,3.006 2.376,2.376C2.376,1.745 2.126,1.141 1.68,0.694C1.235,0.25 0.63,0 0,0C-0.63,0 -1.234,0.25 -1.68,0.694C-2.125,1.141 -2.376,1.745 -2.376,2.376C-2.376,3.006 -2.125,3.609 -1.68,4.056C-1.234,4.501 -0.63,4.752 0,4.752" style="fill:rgb(26,158,120);fill-rule:nonzero;"/>
                </g>
                <g transform="matrix(1.7935,0,0,1.7935,117.383,254.874)">
                    <path d="M0,4.752C0.63,4.752 1.235,4.502 1.68,4.057C2.126,3.611 2.376,3.006 2.376,2.376C2.376,1.746 2.126,1.143 1.68,0.696C1.235,0.251 0.63,0 0,0C-0.63,0 -1.234,0.251 -1.68,0.696C-2.126,1.143 -2.376,1.746 -2.376,2.376C-2.376,3.006 -2.126,3.611 -1.68,4.057C-1.234,4.502 -0.63,4.752 0,4.752" style="fill:rgb(26,158,120);fill-rule:nonzero;"/>
                </g>
                <g transform="matrix(1.7935,0,0,1.7935,134.99,254.874)">
                    <path d="M0,4.752C0.63,4.752 1.234,4.502 1.68,4.057C2.125,3.61 2.376,3.006 2.376,2.376C2.376,1.746 2.125,1.142 1.68,0.696C1.234,0.25 0.63,0 0,0C-0.631,0 -1.235,0.25 -1.681,0.696C-2.126,1.142 -2.376,1.746 -2.376,2.376C-2.376,3.006 -2.126,3.61 -1.681,4.057C-1.235,4.502 -0.631,4.752 0,4.752" style="fill:rgb(26,158,120);fill-rule:nonzero;"/>
                </g>
                <g transform="matrix(1.7935,0,0,1.7935,109.186,251.452)">
                    <path d="M0,4.752C0.63,4.752 1.235,4.502 1.68,4.057C2.126,3.611 2.376,3.007 2.376,2.376C2.376,1.746 2.126,1.143 1.68,0.696C1.235,0.251 0.63,0 0,0C-0.63,0 -1.234,0.251 -1.68,0.696C-2.125,1.143 -2.376,1.746 -2.376,2.376C-2.376,3.007 -2.125,3.611 -1.68,4.057C-1.234,4.502 -0.63,4.752 0,4.752" style="fill:rgb(26,158,120);fill-rule:nonzero;"/>
                </g>
                <g transform="matrix(1.7935,0,0,1.7935,126.185,236.54)">
                    <path d="M0,4.752C0.63,4.752 1.235,4.502 1.68,4.056C2.126,3.611 2.376,3.006 2.376,2.376C2.376,1.746 2.126,1.142 1.68,0.696C1.235,0.251 0.63,0 0,0C-0.63,0 -1.234,0.251 -1.68,0.696C-2.125,1.142 -2.376,1.746 -2.376,2.376C-2.376,3.006 -2.125,3.611 -1.68,4.056C-1.234,4.502 -0.63,4.752 0,4.752" style="fill:rgb(26,158,120);fill-rule:nonzero;"/>
                </g>
                <g transform="matrix(1.7935,0,0,1.7935,118.685,231.893)">
                    <path d="M0,4.752C0.63,4.752 1.235,4.501 1.68,4.056C2.126,3.609 2.376,3.006 2.376,2.376C2.376,1.746 2.126,1.141 1.68,0.695C1.235,0.25 0.63,0 0,0C-0.63,0 -1.234,0.25 -1.68,0.695C-2.126,1.141 -2.376,1.746 -2.376,2.376C-2.376,3.006 -2.126,3.609 -1.68,4.056C-1.234,4.501 -0.63,4.752 0,4.752" style="fill:rgb(26,158,120);fill-rule:nonzero;"/>
                </g>
                <g transform="matrix(1.7935,0,0,1.7935,133.463,231.579)">
                    <path d="M0,4.753C0.63,4.753 1.234,4.502 1.68,4.057C2.125,3.61 2.376,3.007 2.376,2.377C2.376,1.745 2.125,1.142 1.68,0.696C1.234,0.25 0.63,0 0,0C-0.63,0 -1.235,0.25 -1.68,0.696C-2.126,1.142 -2.376,1.745 -2.376,2.377C-2.376,3.007 -2.126,3.61 -1.68,4.057C-1.235,4.502 -0.63,4.753 0,4.753" style="fill:rgb(26,158,120);fill-rule:nonzero;"/>
                </g>
                <g transform="matrix(1.7935,0,0,1.7935,142.411,231.455)">
                    <path d="M0,4.752C0.63,4.752 1.234,4.502 1.68,4.056C2.126,3.61 2.376,3.006 2.376,2.376C2.376,1.746 2.126,1.142 1.68,0.696C1.234,0.251 0.63,0 0,0C-0.63,0 -1.235,0.251 -1.68,0.696C-2.126,1.142 -2.376,1.746 -2.376,2.376C-2.376,3.006 -2.126,3.61 -1.68,4.056C-1.235,4.502 -0.63,4.752 0,4.752" style="fill:rgb(26,158,120);fill-rule:nonzero;"/>
                </g>
                <g transform="matrix(1.7935,0,0,1.7935,110.001,229.835)">
                    <path d="M0,4.752C0.63,4.752 1.234,4.502 1.68,4.057C2.126,3.611 2.376,3.006 2.376,2.376C2.376,1.746 2.126,1.143 1.68,0.696C1.234,0.25 0.63,0 0,0C-0.63,0 -1.235,0.25 -1.68,0.696C-2.126,1.143 -2.376,1.746 -2.376,2.376C-2.376,3.006 -2.126,3.611 -1.68,4.057C-1.235,4.502 -0.63,4.752 0,4.752" style="fill:rgb(26,158,120);fill-rule:nonzero;"/>
                </g>
                <g transform="matrix(1.7935,0,0,1.7935,126.185,226.054)">
                    <path d="M0,4.752C0.63,4.752 1.235,4.501 1.68,4.056C2.126,3.609 2.376,3.006 2.376,2.376C2.376,1.744 2.126,1.141 1.68,0.695C1.235,0.25 0.63,0 0,0C-0.63,0 -1.234,0.25 -1.68,0.695C-2.125,1.141 -2.376,1.744 -2.376,2.376C-2.376,3.006 -2.125,3.609 -1.68,4.056C-1.234,4.501 -0.63,4.752 0,4.752" style="fill:rgb(26,158,120);fill-rule:nonzero;"/>
                </g>
                <g transform="matrix(1.7935,0,0,1.7935,134.218,222.293)">
                    <path d="M0,4.752C0.63,4.752 1.234,4.502 1.68,4.057C2.125,3.611 2.376,3.006 2.376,2.376C2.376,1.746 2.125,1.143 1.68,0.696C1.234,0.251 0.63,0 0,0C-0.63,0 -1.235,0.251 -1.68,0.696C-2.126,1.143 -2.376,1.746 -2.376,2.376C-2.376,3.006 -2.126,3.611 -1.68,4.057C-1.235,4.502 -0.63,4.752 0,4.752" style="fill:rgb(26,158,120);fill-rule:nonzero;"/>
                </g>
                <g transform="matrix(1.7935,0,0,1.7935,119.363,220.538)">
                    <path d="M0,4.752C0.63,4.752 1.235,4.501 1.68,4.056C2.126,3.609 2.376,3.006 2.376,2.376C2.376,1.745 2.126,1.141 1.68,0.694C1.235,0.25 0.63,0 0,0C-0.63,0 -1.234,0.25 -1.68,0.694C-2.125,1.141 -2.376,1.745 -2.376,2.376C-2.376,3.006 -2.125,3.609 -1.68,4.056C-1.234,4.501 -0.63,4.752 0,4.752" style="fill:rgb(26,158,120);fill-rule:nonzero;"/>
                </g>
                <g transform="matrix(1.7935,0,0,1.7935,110.867,217.862)">
                    <path d="M0,4.752C0.63,4.752 1.234,4.501 1.68,4.056C2.126,3.61 2.376,3.006 2.376,2.376C2.376,1.746 2.126,1.141 1.68,0.696C1.234,0.25 0.63,0 0,0C-0.63,0 -1.235,0.25 -1.68,0.696C-2.126,1.141 -2.376,1.746 -2.376,2.376C-2.376,3.006 -2.126,3.61 -1.68,4.056C-1.235,4.501 -0.63,4.752 0,4.752" style="fill:rgb(26,158,120);fill-rule:nonzero;"/>
                </g>
                <g transform="matrix(1.7935,0,0,1.7935,126.185,207.691)">
                    <path d="M0,4.752C0.63,4.752 1.235,4.501 1.68,4.056C2.126,3.609 2.376,3.006 2.376,2.376C2.376,1.746 2.126,1.141 1.68,0.696C1.235,0.25 0.63,0 0,0C-0.63,0 -1.234,0.25 -1.68,0.696C-2.125,1.141 -2.376,1.746 -2.376,2.376C-2.376,3.006 -2.125,3.609 -1.68,4.056C-1.234,4.501 -0.63,4.752 0,4.752" style="fill:rgb(26,158,120);fill-rule:nonzero;"/>
                </g>
                <g transform="matrix(1.7935,0,0,1.7935,117.279,206.877)">
                    <path d="M0,4.752C0.63,4.752 1.234,4.502 1.68,4.056C2.125,3.611 2.376,3.006 2.376,2.376C2.376,1.746 2.125,1.142 1.68,0.696C1.234,0.25 0.63,0 0,0C-0.631,0 -1.235,0.25 -1.681,0.696C-2.126,1.142 -2.376,1.746 -2.376,2.376C-2.376,3.006 -2.126,3.611 -1.681,4.056C-1.235,4.502 -0.631,4.752 0,4.752" style="fill:rgb(26,158,120);fill-rule:nonzero;"/>
                </g>
                <g transform="matrix(1.7935,0,0,1.7935,134.675,204.998)">
                    <path d="M0,4.752C0.63,4.752 1.235,4.501 1.68,4.056C2.126,3.609 2.376,3.006 2.376,2.376C2.376,1.746 2.126,1.141 1.68,0.696C1.235,0.25 0.63,0 0,0C-0.63,0 -1.234,0.25 -1.68,0.696C-2.125,1.141 -2.376,1.746 -2.376,2.376C-2.376,3.006 -2.125,3.609 -1.68,4.056C-1.234,4.501 -0.63,4.752 0,4.752" style="fill:rgb(26,158,120);fill-rule:nonzero;"/>
                </g>
                <g transform="matrix(1.7935,0,0,1.7935,109.126,203.363)">
                    <path d="M0,4.752C0.63,4.752 1.234,4.501 1.68,4.056C2.126,3.61 2.376,3.006 2.376,2.376C2.376,1.745 2.126,1.141 1.68,0.695C1.234,0.25 0.63,0 0,0C-0.63,0 -1.235,0.25 -1.68,0.695C-2.126,1.141 -2.376,1.745 -2.376,2.376C-2.376,3.006 -2.126,3.61 -1.68,4.056C-1.235,4.501 -0.63,4.752 0,4.752" style="fill:rgb(26,158,120);fill-rule:nonzero;"/>
                </g>
                <g transform="matrix(1.7935,0,0,1.7935,126.185,196.251)">
                    <path d="M0,4.752C0.63,4.752 1.235,4.501 1.68,4.056C2.126,3.609 2.376,3.006 2.376,2.376C2.376,1.745 2.126,1.141 1.68,0.694C1.235,0.25 0.63,0 0,0C-0.63,0 -1.234,0.25 -1.68,0.694C-2.125,1.141 -2.376,1.745 -2.376,2.376C-2.376,3.006 -2.125,3.609 -1.68,4.056C-1.234,4.501 -0.63,4.752 0,4.752" style="fill:rgb(26,158,120);fill-rule:nonzero;"/>
                </g>
                <g transform="matrix(1.7935,0,0,1.7935,117.599,193.846)">
                    <path d="M0,4.752C0.631,4.752 1.235,4.502 1.681,4.056C2.126,3.609 2.376,3.006 2.376,2.376C2.376,1.745 2.126,1.141 1.681,0.695C1.235,0.25 0.631,0 0,0C-0.63,0 -1.234,0.25 -1.68,0.695C-2.125,1.141 -2.376,1.745 -2.376,2.376C-2.376,3.006 -2.125,3.609 -1.68,4.056C-1.234,4.502 -0.63,4.752 0,4.752" style="fill:rgb(26,158,120);fill-rule:nonzero;"/>
                </g>
                <g transform="matrix(1.7935,0,0,1.7935,132.857,190.569)">
                    <path d="M0,4.752C0.63,4.752 1.234,4.502 1.68,4.056C2.125,3.609 2.376,3.006 2.376,2.376C2.376,1.746 2.125,1.141 1.68,0.695C1.234,0.25 0.63,0 0,0C-0.63,0 -1.235,0.25 -1.68,0.695C-2.126,1.141 -2.376,1.746 -2.376,2.376C-2.376,3.006 -2.126,3.609 -1.68,4.056C-1.235,4.502 -0.63,4.752 0,4.752" style="fill:rgb(26,158,120);fill-rule:nonzero;"/>
                </g>
                <g transform="matrix(1.7935,0,0,1.7935,126.185,156.748)">
                    <path d="M0,4.752C0.63,4.752 1.235,4.501 1.68,4.056C2.126,3.61 2.376,3.006 2.376,2.376C2.376,1.746 2.126,1.142 1.68,0.696C1.235,0.25 0.63,0 0,0C-0.63,0 -1.234,0.25 -1.68,0.696C-2.125,1.142 -2.376,1.746 -2.376,2.376C-2.376,3.006 -2.125,3.61 -1.68,4.056C-1.234,4.501 -0.63,4.752 0,4.752" style="fill:rgb(26,158,120);fill-rule:nonzero;"/>
                </g>
                <g transform="matrix(1.7935,0,0,1.7935,118.075,153.149)">
                    <path d="M0,4.752C0.63,4.752 1.234,4.501 1.68,4.056C2.125,3.61 2.376,3.006 2.376,2.376C2.376,1.746 2.125,1.141 1.68,0.696C1.234,0.25 0.63,0 0,0C-0.631,0 -1.235,0.25 -1.681,0.696C-2.126,1.141 -2.376,1.746 -2.376,2.376C-2.376,3.006 -2.126,3.61 -1.681,4.056C-1.235,4.501 -0.631,4.752 0,4.752" style="fill:rgb(26,158,120);fill-rule:nonzero;"/>
                </g>
                <g transform="matrix(1.7935,0,0,1.7935,126.185,144.681)">
                    <path d="M0,4.752C0.63,4.752 1.235,4.501 1.68,4.056C2.126,3.609 2.376,3.006 2.376,2.376C2.376,1.746 2.126,1.141 1.68,0.695C1.235,0.25 0.63,0 0,0C-0.63,0 -1.234,0.25 -1.68,0.695C-2.125,1.141 -2.376,1.746 -2.376,2.376C-2.376,3.006 -2.125,3.609 -1.68,4.056C-1.234,4.501 -0.63,4.752 0,4.752" style="fill:rgb(26,158,120);fill-rule:nonzero;"/>
                </g>
                <g transform="matrix(1.7935,0,0,1.7935,118.12,140.988)">
                    <path d="M0,4.752C0.63,4.752 1.234,4.501 1.68,4.057C2.126,3.61 2.376,3.006 2.376,2.376C2.376,1.745 2.126,1.142 1.68,0.696C1.234,0.25 0.63,0 0,0C-0.63,0 -1.235,0.25 -1.68,0.696C-2.126,1.142 -2.376,1.745 -2.376,2.376C-2.376,3.006 -2.126,3.61 -1.68,4.057C-1.235,4.501 -0.63,4.752 0,4.752" style="fill:rgb(26,158,120);fill-rule:nonzero;"/>
                </g>
                <g transform="matrix(1.7935,0,0,1.7935,131.148,137.587)">
                    <path d="M0,4.752C0.63,4.752 1.235,4.502 1.68,4.056C2.126,3.61 2.376,3.006 2.376,2.376C2.376,1.746 2.126,1.142 1.68,0.695C1.235,0.25 0.63,0 0,0C-0.63,0 -1.234,0.25 -1.68,0.695C-2.126,1.142 -2.376,1.746 -2.376,2.376C-2.376,3.006 -2.126,3.61 -1.68,4.056C-1.234,4.502 -0.63,4.752 0,4.752" style="fill:rgb(26,158,120);fill-rule:nonzero;"/>
                </g>
            </g>
            <g>
                <g transform="matrix(1.7935,0,0,1.7935,195.539,307.828)">
                    <path d="M0,4.752C0.63,4.752 1.234,4.502 1.68,4.056C2.125,3.609 2.376,3.006 2.376,2.376C2.376,1.746 2.125,1.141 1.68,0.696C1.234,0.25 0.63,0 0,0C-0.63,0 -1.235,0.25 -1.68,0.696C-2.126,1.141 -2.376,1.746 -2.376,2.376C-2.376,3.006 -2.126,3.609 -1.68,4.056C-1.235,4.502 -0.63,4.752 0,4.752" style="fill:rgb(217,95,2);fill-rule:nonzero;"/>
                </g>
                <g transform="matrix(1.7935,0,0,1.7935,195.539,293.704)">
                    <path d="M0,4.752C0.63,4.752 1.234,4.502 1.68,4.056C2.125,3.609 2.376,3.006 2.376,2.376C2.376,1.746 2.125,1.141 1.68,0.696C1.234,0.25 0.63,0 0,0C-0.63,0 -1.235,0.25 -1.68,0.696C-2.126,1.141 -2.376,1.746 -2.376,2.376C-2.376,3.006 -2.126,3.609 -1.68,4.056C-1.235,4.502 -0.63,4.752 0,4.752" style="fill:rgb(217,95,2);fill-rule:nonzero;"/>
                </g>
                <g transform="matrix(1.7935,0,0,1.7935,195.539,264.297)">
                    <path d="M0,4.752C0.63,4.752 1.234,4.502 1.68,4.057C2.125,3.611 2.376,3.006 2.376,2.376C2.376,1.746 2.125,1.143 1.68,0.696C1.234,0.25 0.63,0 0,0C-0.63,0 -1.235,0.25 -1.68,0.696C-2.126,1.143 -2.376,1.746 -2.376,2.376C-2.376,3.006 -2.126,3.611 -1.68,4.057C-1.235,4.502 -0.63,4.752 0,4.752" style="fill:rgb(217,95,2);fill-rule:nonzero;"/>
                </g>
                <g transform="matrix(1.7935,0,0,1.7935,195.539,246.127)">
                    <path d="M0,4.752C0.63,4.752 1.234,4.501 1.68,4.057C2.125,3.61 2.376,3.006 2.376,2.376C2.376,1.745 2.125,1.142 1.68,0.695C1.234,0.25 0.63,0 0,0C-0.63,0 -1.235,0.25 -1.68,0.695C-2.126,1.142 -2.376,1.745 -2.376,2.376C-2.376,3.006 -2.126,3.61 -1.68,4.057C-1.235,4.501 -0.63,4.752 0,4.752" style="fill:rgb(217,95,2);fill-rule:nonzero;"/>
                </g>
                <g transform="matrix(1.7935,0,0,1.7935,195.539,233.243)">
                    <path d="M0,4.752C0.63,4.752 1.234,4.501 1.68,4.056C2.125,3.609 2.376,3.006 2.376,2.376C2.376,1.746 2.125,1.141 1.68,0.695C1.234,0.25 0.63,0 0,0C-0.63,0 -1.235,0.25 -1.68,0.695C-2.126,1.141 -2.376,1.746 -2.376,2.376C-2.376,3.006 -2.126,3.609 -1.68,4.056C-1.235,4.501 -0.63,4.752 0,4.752" style="fill:rgb(217,95,2);fill-rule:nonzero;"/>
                </g>
                <g transform="matrix(1.7935,0,0,1.7935,186.616,232.609)">
                    <path d="M0,4.752C0.63,4.752 1.234,4.501 1.68,4.057C2.126,3.61 2.376,3.006 2.376,2.376C2.376,1.746 2.126,1.142 1.68,0.696C1.234,0.25 0.63,0 0,0C-0.63,0 -1.235,0.25 -1.68,0.696C-2.126,1.142 -2.376,1.746 -2.376,2.376C-2.376,3.006 -2.126,3.61 -1.68,4.057C-1.235,4.501 -0.63,4.752 0,4.752" style="fill:rgb(217,95,2);fill-rule:nonzero;"/>
                </g>
                <g transform="matrix(1.7935,0,0,1.7935,201.274,226.7)">
                    <path d="M0,4.752C0.631,4.752 1.235,4.501 1.681,4.057C2.126,3.61 2.376,3.006 2.376,2.376C2.376,1.746 2.126,1.142 1.681,0.696C1.235,0.25 0.631,0 0,0C-0.63,0 -1.234,0.25 -1.68,0.696C-2.125,1.142 -2.376,1.746 -2.376,2.376C-2.376,3.006 -2.125,3.61 -1.68,4.057C-1.234,4.501 -0.63,4.752 0,4.752" style="fill:rgb(217,95,2);fill-rule:nonzero;"/>
                </g>
                <g transform="matrix(1.7935,0,0,1.7935,192.774,224.034)">
                    <path d="M0,4.752C0.631,4.752 1.235,4.501 1.681,4.056C2.126,3.609 2.376,3.006 2.376,2.376C2.376,1.745 2.126,1.141 1.681,0.695C1.235,0.25 0.631,0 0,0C-0.63,0 -1.234,0.25 -1.68,0.695C-2.125,1.141 -2.376,1.745 -2.376,2.376C-2.376,3.006 -2.125,3.609 -1.68,4.056C-1.234,4.501 -0.63,4.752 0,4.752" style="fill:rgb(217,95,2);fill-rule:nonzero;"/>
                </g>
                <g transform="matrix(1.7935,0,0,1.7935,184.785,220.197)">
                    <path d="M0,4.752C0.63,4.752 1.234,4.501 1.68,4.057C2.126,3.61 2.376,3.006 2.376,2.376C2.376,1.746 2.126,1.142 1.68,0.696C1.234,0.25 0.63,0 0,0C-0.63,0 -1.235,0.25 -1.68,0.696C-2.126,1.142 -2.376,1.746 -2.376,2.376C-2.376,3.006 -2.126,3.61 -1.68,4.057C-1.235,4.501 -0.63,4.752 0,4.752" style="fill:rgb(217,95,2);fill-rule:nonzero;"/>
                </g>
                <g transform="matrix(1.7935,0,0,1.7935,198.358,217.372)">
                    <path d="M0,4.752C0.63,4.752 1.235,4.501 1.68,4.057C2.126,3.61 2.376,3.007 2.376,2.376C2.376,1.746 2.126,1.142 1.68,0.696C1.235,0.25 0.63,0 0,0C-0.63,0 -1.234,0.25 -1.68,0.696C-2.126,1.142 -2.376,1.746 -2.376,2.376C-2.376,3.007 -2.126,3.61 -1.68,4.057C-1.234,4.501 -0.63,4.752 0,4.752" style="fill:rgb(217,95,2);fill-rule:nonzero;"/>
                </g>
                <g transform="matrix(1.7935,0,0,1.7935,207.307,217.309)">
                    <path d="M0,4.752C0.63,4.752 1.234,4.502 1.68,4.056C2.125,3.61 2.376,3.007 2.376,2.376C2.376,1.745 2.125,1.142 1.68,0.695C1.234,0.251 0.63,0 0,0C-0.631,0 -1.235,0.251 -1.681,0.695C-2.126,1.142 -2.376,1.745 -2.376,2.376C-2.376,3.007 -2.126,3.61 -1.681,4.056C-1.235,4.502 -0.631,4.752 0,4.752" style="fill:rgb(217,95,2);fill-rule:nonzero;"/>
                </g>
                <g transform="matrix(1.7935,0,0,1.7935,190.884,212.685)">
                    <path d="M0,4.752C0.63,4.752 1.234,4.502 1.68,4.056C2.125,3.61 2.376,3.006 2.376,2.376C2.376,1.746 2.125,1.142 1.68,0.695C1.234,0.251 0.63,0 0,0C-0.63,0 -1.235,0.251 -1.68,0.695C-2.126,1.142 -2.376,1.746 -2.376,2.376C-2.376,3.006 -2.126,3.61 -1.68,4.056C-1.235,4.502 -0.63,4.752 0,4.752" style="fill:rgb(217,95,2);fill-rule:nonzero;"/>
                </g>
                <g transform="matrix(1.7935,0,0,1.7935,200.829,209.18)">
                    <path d="M0,4.752C0.63,4.752 1.235,4.502 1.68,4.057C2.126,3.61 2.376,3.007 2.376,2.376C2.376,1.746 2.126,1.142 1.68,0.695C1.235,0.251 0.63,0 0,0C-0.63,0 -1.234,0.251 -1.68,0.695C-2.125,1.142 -2.376,1.746 -2.376,2.376C-2.376,3.007 -2.125,3.61 -1.68,4.057C-1.234,4.502 -0.63,4.752 0,4.752" style="fill:rgb(217,95,2);fill-rule:nonzero;"/>
                </g>
                <g transform="matrix(1.7935,0,0,1.7935,195.539,200.167)">
                    <path d="M0,4.752C0.63,4.752 1.234,4.502 1.68,4.056C2.125,3.611 2.376,3.006 2.376,2.376C2.376,1.746 2.125,1.143 1.68,0.696C1.234,0.251 0.63,0 0,0C-0.63,0 -1.235,0.251 -1.68,0.696C-2.126,1.143 -2.376,1.746 -2.376,2.376C-2.376,3.006 -2.126,3.611 -1.68,4.056C-1.235,4.502 -0.63,4.752 0,4.752" style="fill:rgb(217,95,2);fill-rule:nonzero;"/>
                </g>
                <g transform="matrix(1.7935,0,0,1.7935,187.259,196.934)">
                    <path d="M0,4.752C0.63,4.752 1.235,4.502 1.68,4.056C2.126,3.611 2.376,3.006 2.376,2.376C2.376,1.746 2.126,1.141 1.68,0.696C1.235,0.25 0.63,0 0,0C-0.63,0 -1.234,0.25 -1.68,0.696C-2.125,1.141 -2.376,1.746 -2.376,2.376C-2.376,3.006 -2.125,3.611 -1.68,4.056C-1.234,4.502 -0.63,4.752 0,4.752" style="fill:rgb(217,95,2);fill-rule:nonzero;"/>
                </g>
                <g transform="matrix(1.7935,0,0,1.7935,195.539,187.565)">
                    <path d="M0,4.752C0.63,4.752 1.234,4.502 1.68,4.056C2.125,3.61 2.376,3.006 2.376,2.376C2.376,1.745 2.125,1.142 1.68,0.695C1.234,0.251 0.63,0 0,0C-0.63,0 -1.235,0.251 -1.68,0.695C-2.126,1.142 -2.376,1.745 -2.376,2.376C-2.376,3.006 -2.126,3.61 -1.68,4.056C-1.235,4.502 -0.63,4.752 0,4.752" style="fill:rgb(217,95,2);fill-rule:nonzero;"/>
                </g>
                <g transform="matrix(1.7935,0,0,1.7935,187.133,184.639)">
                    <path d="M0,4.752C0.63,4.752 1.235,4.502 1.68,4.057C2.126,3.611 2.376,3.007 2.376,2.376C2.376,1.746 2.126,1.143 1.68,0.696C1.235,0.251 0.63,0 0,0C-0.63,0 -1.234,0.251 -1.68,0.696C-2.125,1.143 -2.376,1.746 -2.376,2.376C-2.376,3.007 -2.125,3.611 -1.68,4.057C-1.234,4.502 -0.63,4.752 0,4.752" style="fill:rgb(217,95,2);fill-rule:nonzero;"/>
                </g>
                <g transform="matrix(1.7935,0,0,1.7935,201.742,181.421)">
                    <path d="M0,4.752C0.63,4.752 1.235,4.502 1.68,4.057C2.126,3.611 2.376,3.006 2.376,2.376C2.376,1.746 2.126,1.143 1.68,0.696C1.235,0.25 0.63,0 0,0C-0.63,0 -1.234,0.25 -1.68,0.696C-2.126,1.143 -2.376,1.746 -2.376,2.376C-2.376,3.006 -2.126,3.611 -1.68,4.057C-1.234,4.502 -0.63,4.752 0,4.752" style="fill:rgb(217,95,2);fill-rule:nonzero;"/>
                </g>
                <g transform="matrix(1.7935,0,0,1.7935,210.592,180.167)">
                    <path d="M0,4.752C0.63,4.752 1.235,4.502 1.68,4.056C2.126,3.61 2.376,3.006 2.376,2.376C2.376,1.745 2.126,1.142 1.68,0.695C1.235,0.25 0.63,0 0,0C-0.63,0 -1.234,0.25 -1.68,0.695C-2.125,1.142 -2.376,1.745 -2.376,2.376C-2.376,3.006 -2.125,3.61 -1.68,4.056C-1.234,4.502 -0.63,4.752 0,4.752" style="fill:rgb(217,95,2);fill-rule:nonzero;"/>
                </g>
                <g transform="matrix(1.7935,0,0,1.7935,180.108,179.361)">
                    <path d="M0,4.752C0.63,4.752 1.235,4.502 1.68,4.056C2.126,3.609 2.376,3.006 2.376,2.376C2.376,1.746 2.126,1.141 1.68,0.695C1.235,0.25 0.63,0 0,0C-0.63,0 -1.234,0.25 -1.68,0.695C-2.126,1.141 -2.376,1.746 -2.376,2.376C-2.376,3.006 -2.126,3.609 -1.68,4.056C-1.234,4.502 -0.63,4.752 0,4.752" style="fill:rgb(217,95,2);fill-rule:nonzero;"/>
                </g>
                <g transform="matrix(1.7935,0,0,1.7935,195.539,175.485)">
                    <path d="M0,4.752C0.63,4.752 1.234,4.502 1.68,4.056C2.125,3.611 2.376,3.006 2.376,2.376C2.376,1.746 2.125,1.142 1.68,0.696C1.234,0.25 0.63,0 0,0C-0.63,0 -1.235,0.25 -1.68,0.696C-2.126,1.142 -2.376,1.746 -2.376,2.376C-2.376,3.006 -2.126,3.611 -1.68,4.056C-1.235,4.502 -0.63,4.752 0,4.752" style="fill:rgb(217,95,2);fill-rule:nonzero;"/>
                </g>
                <g transform="matrix(1.7935,0,0,1.7935,192.36,167.518)">
                    <path d="M0,4.752C0.63,4.752 1.235,4.502 1.68,4.057C2.126,3.611 2.376,3.006 2.376,2.376C2.376,1.746 2.126,1.143 1.68,0.696C1.235,0.25 0.63,0 0,0C-0.63,0 -1.235,0.25 -1.68,0.696C-2.126,1.143 -2.376,1.746 -2.376,2.376C-2.376,3.006 -2.126,3.611 -1.68,4.057C-1.235,4.502 -0.63,4.752 0,4.752" style="fill:rgb(217,95,2);fill-rule:nonzero;"/>
                </g>
                <g transform="matrix(1.7935,0,0,1.7935,198.372,161.206)">
                    <path d="M0,4.752C0.63,4.752 1.234,4.501 1.68,4.056C2.125,3.609 2.376,3.006 2.376,2.376C2.376,1.746 2.125,1.141 1.68,0.695C1.234,0.25 0.63,0 0,0C-0.631,0 -1.235,0.25 -1.68,0.695C-2.126,1.141 -2.376,1.746 -2.376,2.376C-2.376,3.006 -2.126,3.609 -1.68,4.056C-1.235,4.501 -0.631,4.752 0,4.752" style="fill:rgb(217,95,2);fill-rule:nonzero;"/>
                </g>
                <g transform="matrix(1.7935,0,0,1.7935,190.195,157.741)">
                    <path d="M0,4.752C0.63,4.752 1.234,4.501 1.68,4.057C2.125,3.61 2.376,3.007 2.376,2.376C2.376,1.745 2.125,1.142 1.68,0.695C1.234,0.25 0.63,0 0,0C-0.63,0 -1.235,0.25 -1.68,0.695C-2.126,1.142 -2.376,1.745 -2.376,2.376C-2.376,3.007 -2.126,3.61 -1.68,4.057C-1.235,4.501 -0.63,4.752 0,4.752" style="fill:rgb(217,95,2);fill-rule:nonzero;"/>
                </g>
                <g transform="matrix(1.7935,0,0,1.7935,206.405,157.45)">
                    <path d="M0,4.752C0.63,4.752 1.234,4.502 1.68,4.056C2.125,3.609 2.376,3.006 2.376,2.376C2.376,1.745 2.125,1.141 1.68,0.695C1.234,0.25 0.63,0 0,0C-0.63,0 -1.235,0.25 -1.68,0.695C-2.126,1.141 -2.376,1.745 -2.376,2.376C-2.376,3.006 -2.126,3.609 -1.68,4.056C-1.235,4.502 -0.63,4.752 0,4.752" style="fill:rgb(217,95,2);fill-rule:nonzero;"/>
                </g>
                <g transform="matrix(1.7935,0,0,1.7935,181.402,156.156)">
                    <path d="M0,4.752C0.63,4.752 1.235,4.501 1.68,4.057C2.126,3.61 2.376,3.006 2.376,2.376C2.376,1.746 2.126,1.142 1.68,0.696C1.235,0.25 0.63,0 0,0C-0.63,0 -1.234,0.25 -1.68,0.696C-2.126,1.142 -2.376,1.746 -2.376,2.376C-2.376,3.006 -2.126,3.61 -1.68,4.057C-1.234,4.501 -0.63,4.752 0,4.752" style="fill:rgb(217,95,2);fill-rule:nonzero;"/>
                </g>
                <g transform="matrix(1.7935,0,0,1.7935,195.539,151.102)">
                    <path d="M0,4.752C0.63,4.752 1.234,4.502 1.68,4.056C2.125,3.61 2.376,3.006 2.376,2.376C2.376,1.745 2.125,1.142 1.68,0.695C1.234,0.25 0.63,0 0,0C-0.63,0 -1.235,0.25 -1.68,0.695C-2.126,1.142 -2.376,1.745 -2.376,2.376C-2.376,3.006 -2.126,3.61 -1.68,4.056C-1.235,4.502 -0.63,4.752 0,4.752" style="fill:rgb(217,95,2);fill-rule:nonzero;"/>
                </g>
                <g transform="matrix(1.7935,0,0,1.7935,192.895,142.959)">
                    <path d="M0,4.752C0.63,4.752 1.235,4.502 1.68,4.056C2.126,3.61 2.376,3.007 2.376,2.376C2.376,1.746 2.126,1.142 1.68,0.695C1.235,0.251 0.63,0 0,0C-0.63,0 -1.234,0.251 -1.68,0.695C-2.126,1.142 -2.376,1.746 -2.376,2.376C-2.376,3.007 -2.126,3.61 -1.68,4.056C-1.234,4.502 -0.63,4.752 0,4.752" style="fill:rgb(217,95,2);fill-rule:nonzero;"/>
                </g>
                <g transform="matrix(1.7935,0,0,1.7935,195.539,124.975)">
                    <path d="M0,4.752C0.63,4.752 1.234,4.502 1.68,4.056C2.125,3.611 2.376,3.006 2.376,2.376C2.376,1.746 2.125,1.142 1.68,0.696C1.234,0.25 0.63,0 0,0C-0.63,0 -1.235,0.25 -1.68,0.696C-2.126,1.142 -2.376,1.746 -2.376,2.376C-2.376,3.006 -2.126,3.611 -1.68,4.056C-1.235,4.502 -0.63,4.752 0,4.752" style="fill:rgb(217,95,2);fill-rule:nonzero;"/>
                </g>
                <g transform="matrix(1.7935,0,0,1.7935,195.539,101.321)">
                    <path d="M0,4.753C0.63,4.753 1.234,4.503 1.68,4.058C2.125,3.611 2.376,3.008 2.376,2.376C2.376,1.746 2.125,1.143 1.68,0.696C1.234,0.251 0.63,0 0,0C-0.63,0 -1.235,0.251 -1.68,0.696C-2.126,1.143 -2.376,1.746 -2.376,2.376C-2.376,3.008 -2.126,3.611 -1.68,4.058C-1.235,4.503 -0.63,4.753 0,4.753" style="fill:rgb(217,95,2);fill-rule:nonzero;"/>
                </g>
            </g>
            <g transform="matrix(1.7935,0,0,1.7935,-107.514,-642.542)">
                <text x="85.461px" y="539.172px" style="font-family:'WorkSans-Regular', 'Work Sans';font-size:11.339px;fill:white;">2</text>
            </g>
            <g transform="matrix(1.7935,0,0,1.7935,-107.514,-642.542)">
                <text x="85.461px" y="481.768px" style="font-family:'WorkSans-Regular', 'Work Sans';font-size:11.339px;fill:white;">3</text>
            </g>
            <g transform="matrix(1.7935,0,0,1.7935,-107.514,-642.542)">
                <text x="85.461px" y="424.363px" style="font-family:'WorkSans-Regular', 'Work Sans';font-size:11.339px;fill:white;">4</text>
            </g>
            <g transform="matrix(1.7935,0,0,1.7935,-65.0277,-374.226)">
                <text x="93.444px" y="424.363px" style="font-family:'WorkSans-Regular', 'Work Sans';font-size:6.97px;fill:white;">Control</text>
                <text x="94.939px" y="434.121px" style="font-family:'WorkSans-Regular', 'Work Sans';font-size:6.97px;fill:white;">N = 30</text>
            </g>
            <g transform="matrix(1.7935,0,0,1.7935,3.92241,-374.226)">
                <text x="98.751px" y="424.363px" style="font-family:'WorkSans-Regular', 'Work Sans';font-size:6.97px;fill:white;">Test</text>
                <text x="94.939px" y="434.121px" style="font-family:'WorkSans-Regular', 'Work Sans';font-size:6.97px;fill:white;">N = 30</text>
            </g>
        </g>
    </g>
</svg>
