<?xml version="1.0" encoding="UTF-8" standalone="no"?>
<!DOCTYPE svg PUBLIC "-//W3C//DTD SVG 1.1//EN" "http://www.w3.org/Graphics/SVG/1.1/DTD/svg11.dtd">
<svg width="100%" height="100%" viewBox="0 0 3084 1271" version="1.1" xmlns="http://www.w3.org/2000/svg" xmlns:xlink="http://www.w3.org/1999/xlink" xml:space="preserve" xmlns:serif="http://www.serif.com/" style="fill-rule:evenodd;clip-rule:evenodd;stroke-miterlimit:10;">
    <g transform="matrix(4.16667,0,0,4.16667,0,0)">
        <g transform="matrix(4.16667,0,0,4.16667,0,0)">
            <path d="M15.987,35.235L171.893,35.235" style="fill:none;stroke:white;stroke-width:0.91px;"/>
            <path d="M25.909,50.287L25.909,22.564" style="fill:none;stroke:rgb(153,153,255);stroke-width:0.91px;"/>
            <path d="M28.743,54.454L28.743,23.953" style="fill:none;stroke:rgb(153,153,255);stroke-width:0.91px;"/>
            <path d="M31.578,44.447L31.578,16.384" style="fill:none;stroke:rgb(153,153,255);stroke-width:0.91px;"/>
            <path d="M34.413,62.816L34.413,38.041" style="fill:none;stroke:rgb(205,0,92);stroke-width:0.91px;"/>
            <path d="M37.247,43.937L37.247,13.663" style="fill:none;stroke:rgb(153,153,255);stroke-width:0.91px;"/>
            <path d="M40.082,53.915L40.082,25.37" style="fill:none;stroke:rgb(153,153,255);stroke-width:0.91px;"/>
            <path d="M42.917,41.981L42.917,9.694" style="fill:none;stroke:rgb(153,153,255);stroke-width:0.91px;"/>
            <path d="M45.751,60.123L45.751,33.902" style="fill:none;stroke:rgb(153,153,255);stroke-width:0.91px;"/>
            <path d="M48.586,39.6L48.586,10.517" style="fill:none;stroke:rgb(153,153,255);stroke-width:0.91px;"/>
            <path d="M51.42,41.556L51.42,13.38" style="fill:none;stroke:rgb(153,153,255);stroke-width:0.91px;"/>
            <path d="M54.255,50.513L54.255,22.28" style="fill:none;stroke:rgb(153,153,255);stroke-width:0.91px;"/>
            <path d="M57.09,51.364L57.09,24.633" style="fill:none;stroke:rgb(153,153,255);stroke-width:0.91px;"/>
            <path d="M59.924,44.872L59.924,20.494" style="fill:none;stroke:rgb(153,153,255);stroke-width:0.91px;"/>
            <path d="M62.759,54.964L62.759,28.318" style="fill:none;stroke:rgb(153,153,255);stroke-width:0.91px;"/>
            <path d="M65.594,48.274L65.594,18.34" style="fill:none;stroke:rgb(153,153,255);stroke-width:0.91px;"/>
            <path d="M68.428,31.465L68.428,5.669" style="fill:none;stroke:rgb(205,0,92);stroke-width:0.91px;"/>
            <path d="M71.263,55.899L71.263,28.8" style="fill:none;stroke:rgb(153,153,255);stroke-width:0.91px;"/>
            <path d="M74.098,47.452L74.098,21.515" style="fill:none;stroke:rgb(153,153,255);stroke-width:0.91px;"/>
            <path d="M76.932,65.594L76.932,34.554" style="fill:none;stroke:rgb(153,153,255);stroke-width:0.91px;"/>
            <path d="M79.767,52.072L79.767,23.131" style="fill:none;stroke:rgb(153,153,255);stroke-width:0.91px;"/>
            <path d="M82.602,44.986L82.602,19.417" style="fill:none;stroke:rgb(153,153,255);stroke-width:0.91px;"/>
            <path d="M85.436,46.743L85.436,15.789" style="fill:none;stroke:rgb(153,153,255);stroke-width:0.91px;"/>
            <path d="M88.271,39.061L88.271,9.099" style="fill:none;stroke:rgb(153,153,255);stroke-width:0.91px;"/>
            <path d="M91.106,54.369L91.106,28.46" style="fill:none;stroke:rgb(153,153,255);stroke-width:0.91px;"/>
            <path d="M93.94,39.317L93.94,12.699" style="fill:none;stroke:rgb(153,153,255);stroke-width:0.91px;"/>
            <path d="M96.775,45.553L96.775,18.879" style="fill:none;stroke:rgb(153,153,255);stroke-width:0.91px;"/>
            <path d="M99.609,43.767L99.609,14.513" style="fill:none;stroke:rgb(153,153,255);stroke-width:0.91px;"/>
            <path d="M102.444,48.529L102.444,20.013" style="fill:none;stroke:rgb(153,153,255);stroke-width:0.91px;"/>
            <path d="M105.279,58.11L105.279,25.087" style="fill:none;stroke:rgb(153,153,255);stroke-width:0.91px;"/>
            <path d="M108.113,41.896L108.113,14.91" style="fill:none;stroke:rgb(153,153,255);stroke-width:0.91px;"/>
            <path d="M110.948,55.786L110.948,29.991" style="fill:none;stroke:rgb(153,153,255);stroke-width:0.91px;"/>
            <path d="M113.783,43.115L113.783,16.101" style="fill:none;stroke:rgb(153,153,255);stroke-width:0.91px;"/>
            <path d="M116.617,47.452L116.617,19.757" style="fill:none;stroke:rgb(153,153,255);stroke-width:0.91px;"/>
            <path d="M119.452,36L119.452,10.148" style="fill:none;stroke:rgb(153,153,255);stroke-width:0.91px;"/>
            <path d="M122.287,46.573L122.287,20.92" style="fill:none;stroke:rgb(153,153,255);stroke-width:0.91px;"/>
            <path d="M125.121,52.753L125.121,21.742" style="fill:none;stroke:rgb(153,153,255);stroke-width:0.91px;"/>
            <path d="M127.956,56.948L127.956,29.112" style="fill:none;stroke:rgb(153,153,255);stroke-width:0.91px;"/>
            <path d="M130.791,46.488L130.791,20.466" style="fill:none;stroke:rgb(153,153,255);stroke-width:0.91px;"/>
            <path d="M133.625,53.036L133.625,25.115" style="fill:none;stroke:rgb(153,153,255);stroke-width:0.91px;"/>
            <path d="M136.46,67.38L136.46,39.855" style="fill:none;stroke:rgb(205,0,92);stroke-width:0.91px;"/>
            <path d="M139.294,40.394L139.294,12.416" style="fill:none;stroke:rgb(153,153,255);stroke-width:0.91px;"/>
            <path d="M142.129,51.307L142.129,25.115" style="fill:none;stroke:rgb(153,153,255);stroke-width:0.91px;"/>
            <path d="M144.964,39.543L144.964,8.022" style="fill:none;stroke:rgb(153,153,255);stroke-width:0.91px;"/>
            <path d="M147.798,59.272L147.798,27.865" style="fill:none;stroke:rgb(153,153,255);stroke-width:0.91px;"/>
            <path d="M150.633,53.32L150.633,26.929" style="fill:none;stroke:rgb(153,153,255);stroke-width:0.91px;"/>
            <path d="M153.468,42.605L153.468,17.717" style="fill:none;stroke:rgb(153,153,255);stroke-width:0.91px;"/>
            <path d="M156.302,39.94L156.302,12.586" style="fill:none;stroke:rgb(153,153,255);stroke-width:0.91px;"/>
            <path d="M159.137,50.457L159.137,24.605" style="fill:none;stroke:rgb(153,153,255);stroke-width:0.91px;"/>
            <path d="M161.972,57.373L161.972,30.728" style="fill:none;stroke:rgb(153,153,255);stroke-width:0.91px;"/>
            <path d="M164.806,51.109L164.806,22.11" style="fill:none;stroke:rgb(153,153,255);stroke-width:0.91px;"/>
            <g transform="matrix(1,0,0,1,11.7354,38.0693)">
                <path d="M-2.048,-0.919C-2.717,-0.203 -3.298,0.155 -3.792,0.155C-4.11,0.155 -4.405,0.033 -4.678,-0.21L-4.678,0.083C-4.678,0.423 -4.627,0.764 -4.523,1.107C-4.405,1.487 -4.346,1.738 -4.346,1.86C-4.346,2.03 -4.4,2.17 -4.507,2.281C-4.614,2.392 -4.747,2.447 -4.905,2.447C-5.068,2.447 -5.197,2.383 -5.293,2.253C-5.389,2.124 -5.437,1.969 -5.437,1.788C-5.437,1.655 -5.389,1.415 -5.293,1.069C-5.182,0.685 -5.127,0.312 -5.127,-0.05L-5.127,-5.071L-4.213,-5.071L-4.213,-1.788C-4.213,-1.456 -4.185,-1.212 -4.127,-1.057C-4.07,-0.902 -3.969,-0.776 -3.823,-0.678C-3.677,-0.58 -3.512,-0.531 -3.327,-0.531C-2.999,-0.531 -2.573,-0.757 -2.048,-1.207L-2.048,-5.071L-1.129,-5.071L-1.129,-1.224C-1.129,-0.899 -1.096,-0.675 -1.03,-0.551C-0.963,-0.427 -0.851,-0.365 -0.692,-0.365C-0.441,-0.365 -0.279,-0.611 -0.205,-1.102L-0.006,-1.102C-0.076,-0.264 -0.43,0.155 -1.069,0.155C-1.345,0.155 -1.575,0.062 -1.758,-0.125C-1.941,-0.311 -2.037,-0.576 -2.048,-0.919Z" style="fill:white;fill-rule:nonzero;"/>
            </g>
        </g>
    </g>
</svg>
