<?xml version="1.0" encoding="UTF-8" standalone="no"?>
<!DOCTYPE svg PUBLIC "-//W3C//DTD SVG 1.1//EN" "http://www.w3.org/Graphics/SVG/1.1/DTD/svg11.dtd">
<svg width="100%" height="100%" viewBox="0 0 386 444" version="1.1" xmlns="http://www.w3.org/2000/svg" xmlns:xlink="http://www.w3.org/1999/xlink" xml:space="preserve" xmlns:serif="http://www.serif.com/" style="fill-rule:evenodd;clip-rule:evenodd;">
    <g id="Artboard1" transform="matrix(1,0,0,1,-9.11135,-0.838483)">
        <rect x="9.111" y="0.838" width="385.107" height="443.578" style="fill:none;"/>
        <g transform="matrix(1.07551,0,0,1.07551,-25.7385,-17.8042)">
            <g transform="matrix(-1.7935,0,0,1.7935,65.0929,316.836)">
                <path d="M-5.94,0L0,0" style="fill:white;fill-rule:nonzero;stroke:white;stroke-width:0.32px;"/>
            </g>
            <g transform="matrix(-0.858586,0,0,1.7935,71.0929,265.36)">
                <path d="M-5.94,0L0,0" style="fill:white;fill-rule:nonzero;stroke:white;stroke-width:0.41px;"/>
            </g>
            <g transform="matrix(-1.7935,0,0,1.7935,65.0929,213.883)">
                <path d="M-5.94,0L0,0" style="fill:white;fill-rule:nonzero;stroke:white;stroke-width:0.32px;"/>
            </g>
            <g transform="matrix(-0.858586,0,0,1.7935,71.0929,162.406)">
                <path d="M-5.94,0L0,0" style="fill:white;fill-rule:nonzero;stroke:white;stroke-width:0.41px;"/>
            </g>
            <g transform="matrix(-1.7935,0,0,1.7935,65.0929,110.928)">
                <path d="M-5.94,0L0,0" style="fill:white;fill-rule:nonzero;stroke:white;stroke-width:0.32px;"/>
            </g>
            <g transform="matrix(0,-1.65376,-1.7935,0,230.178,225.915)">
                <path d="M-86.106,86.106L86.106,86.106" style="fill:white;fill-rule:nonzero;stroke:white;stroke-width:0.34px;stroke-linecap:square;"/>
            </g>
            <g transform="matrix(3.78134,0,0,1.7935,75.655,368.313)">
                <path d="M0,0L38.67,0" style="fill:white;fill-rule:nonzero;stroke:white;stroke-width:0.2px;stroke-linecap:square;"/>
            </g>
            <g>
                <g transform="matrix(1.7935,0,0,1.7935,126.185,325.327)">
                    <path d="M0,4.752C0.63,4.752 1.235,4.502 1.68,4.056C2.126,3.611 2.376,3.006 2.376,2.376C2.376,1.746 2.126,1.142 1.68,0.696C1.235,0.25 0.63,0 0,0C-0.63,0 -1.234,0.25 -1.68,0.696C-2.125,1.142 -2.376,1.746 -2.376,2.376C-2.376,3.006 -2.125,3.611 -1.68,4.056C-1.234,4.502 -0.63,4.752 0,4.752" style="fill:rgb(26,158,120);fill-rule:nonzero;"/>
                </g>
                <g transform="matrix(1.7935,0,0,1.7935,126.185,291.156)">
                    <path d="M0,4.752C0.63,4.752 1.235,4.501 1.68,4.056C2.126,3.609 2.376,3.006 2.376,2.376C2.376,1.745 2.126,1.141 1.68,0.694C1.235,0.25 0.63,0 0,0C-0.63,0 -1.234,0.25 -1.68,0.694C-2.125,1.141 -2.376,1.745 -2.376,2.376C-2.376,3.006 -2.125,3.609 -1.68,4.056C-1.234,4.501 -0.63,4.752 0,4.752" style="fill:rgb(26,158,120);fill-rule:nonzero;"/>
                </g>
                <g transform="matrix(1.7935,0,0,1.7935,121.235,284.055)">
                    <path d="M0,4.752C0.63,4.752 1.235,4.502 1.68,4.056C2.126,3.609 2.376,3.006 2.376,2.376C2.376,1.746 2.126,1.141 1.68,0.695C1.235,0.25 0.63,0 0,0C-0.63,0 -1.235,0.25 -1.68,0.695C-2.126,1.141 -2.376,1.746 -2.376,2.376C-2.376,3.006 -2.126,3.609 -1.68,4.056C-1.235,4.502 -0.63,4.752 0,4.752" style="fill:rgb(26,158,120);fill-rule:nonzero;"/>
                </g>
                <g transform="matrix(1.7935,0,0,1.7935,126.185,276.123)">
                    <path d="M0,4.752C0.63,4.752 1.235,4.501 1.68,4.056C2.126,3.609 2.376,3.006 2.376,2.376C2.376,1.745 2.126,1.141 1.68,0.695C1.235,0.25 0.63,0 0,0C-0.63,0 -1.234,0.25 -1.68,0.695C-2.125,1.141 -2.376,1.745 -2.376,2.376C-2.376,3.006 -2.125,3.609 -1.68,4.056C-1.234,4.501 -0.63,4.752 0,4.752" style="fill:rgb(26,158,120);fill-rule:nonzero;"/>
                </g>
                <g transform="matrix(1.7935,0,0,1.7935,123.109,268.117)">
                    <path d="M0,4.753C0.63,4.753 1.234,4.503 1.68,4.058C2.125,3.611 2.376,3.008 2.376,2.376C2.376,1.746 2.125,1.143 1.68,0.696C1.234,0.251 0.63,0 0,0C-0.63,0 -1.235,0.251 -1.68,0.696C-2.126,1.143 -2.376,1.746 -2.376,2.376C-2.376,3.008 -2.126,3.611 -1.68,4.058C-1.235,4.503 -0.63,4.753 0,4.753" style="fill:rgb(26,158,120);fill-rule:nonzero;"/>
                </g>
                <g transform="matrix(1.7935,0,0,1.7935,126.185,256.408)">
                    <path d="M0,4.752C0.63,4.752 1.235,4.501 1.68,4.056C2.126,3.609 2.376,3.006 2.376,2.376C2.376,1.745 2.126,1.141 1.68,0.694C1.235,0.25 0.63,0 0,0C-0.63,0 -1.234,0.25 -1.68,0.694C-2.125,1.141 -2.376,1.745 -2.376,2.376C-2.376,3.006 -2.125,3.609 -1.68,4.056C-1.234,4.501 -0.63,4.752 0,4.752" style="fill:rgb(26,158,120);fill-rule:nonzero;"/>
                </g>
                <g transform="matrix(1.7935,0,0,1.7935,117.383,254.874)">
                    <path d="M0,4.752C0.63,4.752 1.235,4.502 1.68,4.057C2.126,3.611 2.376,3.006 2.376,2.376C2.376,1.746 2.126,1.143 1.68,0.696C1.235,0.251 0.63,0 0,0C-0.63,0 -1.234,0.251 -1.68,0.696C-2.126,1.143 -2.376,1.746 -2.376,2.376C-2.376,3.006 -2.126,3.611 -1.68,4.057C-1.234,4.502 -0.63,4.752 0,4.752" style="fill:rgb(26,158,120);fill-rule:nonzero;"/>
                </g>
                <g transform="matrix(1.7935,0,0,1.7935,134.99,254.874)">
                    <path d="M0,4.752C0.63,4.752 1.234,4.502 1.68,4.057C2.125,3.61 2.376,3.006 2.376,2.376C2.376,1.746 2.125,1.142 1.68,0.696C1.234,0.25 0.63,0 0,0C-0.631,0 -1.235,0.25 -1.681,0.696C-2.126,1.142 -2.376,1.746 -2.376,2.376C-2.376,3.006 -2.126,3.61 -1.681,4.057C-1.235,4.502 -0.631,4.752 0,4.752" style="fill:rgb(26,158,120);fill-rule:nonzero;"/>
                </g>
                <g transform="matrix(1.7935,0,0,1.7935,109.186,251.452)">
                    <path d="M0,4.752C0.63,4.752 1.235,4.502 1.68,4.057C2.126,3.611 2.376,3.007 2.376,2.376C2.376,1.746 2.126,1.143 1.68,0.696C1.235,0.251 0.63,0 0,0C-0.63,0 -1.234,0.251 -1.68,0.696C-2.125,1.143 -2.376,1.746 -2.376,2.376C-2.376,3.007 -2.125,3.611 -1.68,4.057C-1.234,4.502 -0.63,4.752 0,4.752" style="fill:rgb(26,158,120);fill-rule:nonzero;"/>
                </g>
                <g transform="matrix(1.7935,0,0,1.7935,126.185,236.54)">
                    <path d="M0,4.752C0.63,4.752 1.235,4.502 1.68,4.056C2.126,3.611 2.376,3.006 2.376,2.376C2.376,1.746 2.126,1.142 1.68,0.696C1.235,0.251 0.63,0 0,0C-0.63,0 -1.234,0.251 -1.68,0.696C-2.125,1.142 -2.376,1.746 -2.376,2.376C-2.376,3.006 -2.125,3.611 -1.68,4.056C-1.234,4.502 -0.63,4.752 0,4.752" style="fill:rgb(26,158,120);fill-rule:nonzero;"/>
                </g>
                <g transform="matrix(1.7935,0,0,1.7935,118.685,231.893)">
                    <path d="M0,4.752C0.63,4.752 1.235,4.501 1.68,4.056C2.126,3.609 2.376,3.006 2.376,2.376C2.376,1.746 2.126,1.141 1.68,0.695C1.235,0.25 0.63,0 0,0C-0.63,0 -1.234,0.25 -1.68,0.695C-2.126,1.141 -2.376,1.746 -2.376,2.376C-2.376,3.006 -2.126,3.609 -1.68,4.056C-1.234,4.501 -0.63,4.752 0,4.752" style="fill:rgb(26,158,120);fill-rule:nonzero;"/>
                </g>
                <g transform="matrix(1.7935,0,0,1.7935,133.463,231.579)">
                    <path d="M0,4.753C0.63,4.753 1.234,4.502 1.68,4.057C2.125,3.61 2.376,3.007 2.376,2.377C2.376,1.745 2.125,1.142 1.68,0.696C1.234,0.25 0.63,0 0,0C-0.63,0 -1.235,0.25 -1.68,0.696C-2.126,1.142 -2.376,1.745 -2.376,2.377C-2.376,3.007 -2.126,3.61 -1.68,4.057C-1.235,4.502 -0.63,4.753 0,4.753" style="fill:rgb(26,158,120);fill-rule:nonzero;"/>
                </g>
                <g transform="matrix(1.7935,0,0,1.7935,142.411,231.455)">
                    <path d="M0,4.752C0.63,4.752 1.234,4.502 1.68,4.056C2.126,3.61 2.376,3.006 2.376,2.376C2.376,1.746 2.126,1.142 1.68,0.696C1.234,0.251 0.63,0 0,0C-0.63,0 -1.235,0.251 -1.68,0.696C-2.126,1.142 -2.376,1.746 -2.376,2.376C-2.376,3.006 -2.126,3.61 -1.68,4.056C-1.235,4.502 -0.63,4.752 0,4.752" style="fill:rgb(26,158,120);fill-rule:nonzero;"/>
                </g>
                <g transform="matrix(1.7935,0,0,1.7935,110.001,229.835)">
                    <path d="M0,4.752C0.63,4.752 1.234,4.502 1.68,4.057C2.126,3.611 2.376,3.006 2.376,2.376C2.376,1.746 2.126,1.143 1.68,0.696C1.234,0.25 0.63,0 0,0C-0.63,0 -1.235,0.25 -1.68,0.696C-2.126,1.143 -2.376,1.746 -2.376,2.376C-2.376,3.006 -2.126,3.611 -1.68,4.057C-1.235,4.502 -0.63,4.752 0,4.752" style="fill:rgb(26,158,120);fill-rule:nonzero;"/>
                </g>
                <g transform="matrix(1.7935,0,0,1.7935,126.185,226.054)">
                    <path d="M0,4.752C0.63,4.752 1.235,4.501 1.68,4.056C2.126,3.609 2.376,3.006 2.376,2.376C2.376,1.744 2.126,1.141 1.68,0.695C1.235,0.25 0.63,0 0,0C-0.63,0 -1.234,0.25 -1.68,0.695C-2.125,1.141 -2.376,1.744 -2.376,2.376C-2.376,3.006 -2.125,3.609 -1.68,4.056C-1.234,4.501 -0.63,4.752 0,4.752" style="fill:rgb(26,158,120);fill-rule:nonzero;"/>
                </g>
                <g transform="matrix(1.7935,0,0,1.7935,134.218,222.293)">
                    <path d="M0,4.752C0.63,4.752 1.234,4.502 1.68,4.057C2.125,3.611 2.376,3.006 2.376,2.376C2.376,1.746 2.125,1.143 1.68,0.696C1.234,0.251 0.63,0 0,0C-0.63,0 -1.235,0.251 -1.68,0.696C-2.126,1.143 -2.376,1.746 -2.376,2.376C-2.376,3.006 -2.126,3.611 -1.68,4.057C-1.235,4.502 -0.63,4.752 0,4.752" style="fill:rgb(26,158,120);fill-rule:nonzero;"/>
                </g>
                <g transform="matrix(1.7935,0,0,1.7935,119.363,220.538)">
                    <path d="M0,4.752C0.63,4.752 1.235,4.501 1.68,4.056C2.126,3.609 2.376,3.006 2.376,2.376C2.376,1.745 2.126,1.141 1.68,0.694C1.235,0.25 0.63,0 0,0C-0.63,0 -1.234,0.25 -1.68,0.694C-2.125,1.141 -2.376,1.745 -2.376,2.376C-2.376,3.006 -2.125,3.609 -1.68,4.056C-1.234,4.501 -0.63,4.752 0,4.752" style="fill:rgb(26,158,120);fill-rule:nonzero;"/>
                </g>
                <g transform="matrix(1.7935,0,0,1.7935,110.867,217.862)">
                    <path d="M0,4.752C0.63,4.752 1.234,4.501 1.68,4.056C2.126,3.61 2.376,3.006 2.376,2.376C2.376,1.746 2.126,1.141 1.68,0.696C1.234,0.25 0.63,0 0,0C-0.63,0 -1.235,0.25 -1.68,0.696C-2.126,1.141 -2.376,1.746 -2.376,2.376C-2.376,3.006 -2.126,3.61 -1.68,4.056C-1.235,4.501 -0.63,4.752 0,4.752" style="fill:rgb(26,158,120);fill-rule:nonzero;"/>
                </g>
                <g transform="matrix(1.7935,0,0,1.7935,126.185,207.691)">
                    <path d="M0,4.752C0.63,4.752 1.235,4.501 1.68,4.056C2.126,3.609 2.376,3.006 2.376,2.376C2.376,1.746 2.126,1.141 1.68,0.696C1.235,0.25 0.63,0 0,0C-0.63,0 -1.234,0.25 -1.68,0.696C-2.125,1.141 -2.376,1.746 -2.376,2.376C-2.376,3.006 -2.125,3.609 -1.68,4.056C-1.234,4.501 -0.63,4.752 0,4.752" style="fill:rgb(26,158,120);fill-rule:nonzero;"/>
                </g>
                <g transform="matrix(1.7935,0,0,1.7935,117.279,206.877)">
                    <path d="M0,4.752C0.63,4.752 1.234,4.502 1.68,4.056C2.125,3.611 2.376,3.006 2.376,2.376C2.376,1.746 2.125,1.142 1.68,0.696C1.234,0.25 0.63,0 0,0C-0.631,0 -1.235,0.25 -1.681,0.696C-2.126,1.142 -2.376,1.746 -2.376,2.376C-2.376,3.006 -2.126,3.611 -1.681,4.056C-1.235,4.502 -0.631,4.752 0,4.752" style="fill:rgb(26,158,120);fill-rule:nonzero;"/>
                </g>
                <g transform="matrix(1.7935,0,0,1.7935,134.675,204.998)">
                    <path d="M0,4.752C0.63,4.752 1.235,4.501 1.68,4.056C2.126,3.609 2.376,3.006 2.376,2.376C2.376,1.746 2.126,1.141 1.68,0.696C1.235,0.25 0.63,0 0,0C-0.63,0 -1.234,0.25 -1.68,0.696C-2.125,1.141 -2.376,1.746 -2.376,2.376C-2.376,3.006 -2.125,3.609 -1.68,4.056C-1.234,4.501 -0.63,4.752 0,4.752" style="fill:rgb(26,158,120);fill-rule:nonzero;"/>
                </g>
                <g transform="matrix(1.7935,0,0,1.7935,109.126,203.363)">
                    <path d="M0,4.752C0.63,4.752 1.234,4.501 1.68,4.056C2.126,3.61 2.376,3.006 2.376,2.376C2.376,1.745 2.126,1.141 1.68,0.695C1.234,0.25 0.63,0 0,0C-0.63,0 -1.235,0.25 -1.68,0.695C-2.126,1.141 -2.376,1.745 -2.376,2.376C-2.376,3.006 -2.126,3.61 -1.68,4.056C-1.235,4.501 -0.63,4.752 0,4.752" style="fill:rgb(26,158,120);fill-rule:nonzero;"/>
                </g>
                <g transform="matrix(1.7935,0,0,1.7935,126.185,196.251)">
                    <path d="M0,4.752C0.63,4.752 1.235,4.501 1.68,4.056C2.126,3.609 2.376,3.006 2.376,2.376C2.376,1.745 2.126,1.141 1.68,0.694C1.235,0.25 0.63,0 0,0C-0.63,0 -1.234,0.25 -1.68,0.694C-2.125,1.141 -2.376,1.745 -2.376,2.376C-2.376,3.006 -2.125,3.609 -1.68,4.056C-1.234,4.501 -0.63,4.752 0,4.752" style="fill:rgb(26,158,120);fill-rule:nonzero;"/>
                </g>
                <g transform="matrix(1.7935,0,0,1.7935,117.599,193.846)">
                    <path d="M0,4.752C0.631,4.752 1.235,4.502 1.681,4.056C2.126,3.609 2.376,3.006 2.376,2.376C2.376,1.745 2.126,1.141 1.681,0.695C1.235,0.25 0.631,0 0,0C-0.63,0 -1.234,0.25 -1.68,0.695C-2.125,1.141 -2.376,1.745 -2.376,2.376C-2.376,3.006 -2.125,3.609 -1.68,4.056C-1.234,4.502 -0.63,4.752 0,4.752" style="fill:rgb(26,158,120);fill-rule:nonzero;"/>
                </g>
                <g transform="matrix(1.7935,0,0,1.7935,132.857,190.569)">
                    <path d="M0,4.752C0.63,4.752 1.234,4.502 1.68,4.056C2.125,3.609 2.376,3.006 2.376,2.376C2.376,1.746 2.125,1.141 1.68,0.695C1.234,0.25 0.63,0 0,0C-0.63,0 -1.235,0.25 -1.68,0.695C-2.126,1.141 -2.376,1.746 -2.376,2.376C-2.376,3.006 -2.126,3.609 -1.68,4.056C-1.235,4.502 -0.63,4.752 0,4.752" style="fill:rgb(26,158,120);fill-rule:nonzero;"/>
                </g>
                <g transform="matrix(1.7935,0,0,1.7935,126.185,156.748)">
                    <path d="M0,4.752C0.63,4.752 1.235,4.501 1.68,4.056C2.126,3.61 2.376,3.006 2.376,2.376C2.376,1.746 2.126,1.142 1.68,0.696C1.235,0.25 0.63,0 0,0C-0.63,0 -1.234,0.25 -1.68,0.696C-2.125,1.142 -2.376,1.746 -2.376,2.376C-2.376,3.006 -2.125,3.61 -1.68,4.056C-1.234,4.501 -0.63,4.752 0,4.752" style="fill:rgb(26,158,120);fill-rule:nonzero;"/>
                </g>
                <g transform="matrix(1.7935,0,0,1.7935,118.075,153.149)">
                    <path d="M0,4.752C0.63,4.752 1.234,4.501 1.68,4.056C2.125,3.61 2.376,3.006 2.376,2.376C2.376,1.746 2.125,1.141 1.68,0.696C1.234,0.25 0.63,0 0,0C-0.631,0 -1.235,0.25 -1.681,0.696C-2.126,1.141 -2.376,1.746 -2.376,2.376C-2.376,3.006 -2.126,3.61 -1.681,4.056C-1.235,4.501 -0.631,4.752 0,4.752" style="fill:rgb(26,158,120);fill-rule:nonzero;"/>
                </g>
                <g transform="matrix(1.7935,0,0,1.7935,126.185,144.681)">
                    <path d="M0,4.752C0.63,4.752 1.235,4.501 1.68,4.056C2.126,3.609 2.376,3.006 2.376,2.376C2.376,1.746 2.126,1.141 1.68,0.695C1.235,0.25 0.63,0 0,0C-0.63,0 -1.234,0.25 -1.68,0.695C-2.125,1.141 -2.376,1.746 -2.376,2.376C-2.376,3.006 -2.125,3.609 -1.68,4.056C-1.234,4.501 -0.63,4.752 0,4.752" style="fill:rgb(26,158,120);fill-rule:nonzero;"/>
                </g>
                <g transform="matrix(1.7935,0,0,1.7935,118.12,140.988)">
                    <path d="M0,4.752C0.63,4.752 1.234,4.501 1.68,4.057C2.126,3.61 2.376,3.006 2.376,2.376C2.376,1.745 2.126,1.142 1.68,0.696C1.234,0.25 0.63,0 0,0C-0.63,0 -1.235,0.25 -1.68,0.696C-2.126,1.142 -2.376,1.745 -2.376,2.376C-2.376,3.006 -2.126,3.61 -1.68,4.057C-1.235,4.501 -0.63,4.752 0,4.752" style="fill:rgb(26,158,120);fill-rule:nonzero;"/>
                </g>
                <g transform="matrix(1.7935,0,0,1.7935,131.148,137.587)">
                    <path d="M0,4.752C0.63,4.752 1.235,4.502 1.68,4.056C2.126,3.61 2.376,3.006 2.376,2.376C2.376,1.746 2.126,1.142 1.68,0.695C1.235,0.25 0.63,0 0,0C-0.63,0 -1.234,0.25 -1.68,0.695C-2.126,1.142 -2.376,1.746 -2.376,2.376C-2.376,3.006 -2.126,3.61 -1.68,4.056C-1.234,4.502 -0.63,4.752 0,4.752" style="fill:rgb(26,158,120);fill-rule:nonzero;"/>
                </g>
            </g>
            <g>
                <g transform="matrix(1.7935,0,0,1.7935,195.539,307.828)">
                    <path d="M0,4.752C0.63,4.752 1.234,4.502 1.68,4.056C2.125,3.609 2.376,3.006 2.376,2.376C2.376,1.746 2.125,1.141 1.68,0.696C1.234,0.25 0.63,0 0,0C-0.63,0 -1.235,0.25 -1.68,0.696C-2.126,1.141 -2.376,1.746 -2.376,2.376C-2.376,3.006 -2.126,3.609 -1.68,4.056C-1.235,4.502 -0.63,4.752 0,4.752" style="fill:rgb(217,95,2);fill-rule:nonzero;"/>
                </g>
                <g transform="matrix(1.7935,0,0,1.7935,195.539,293.704)">
                    <path d="M0,4.752C0.63,4.752 1.234,4.502 1.68,4.056C2.125,3.609 2.376,3.006 2.376,2.376C2.376,1.746 2.125,1.141 1.68,0.696C1.234,0.25 0.63,0 0,0C-0.63,0 -1.235,0.25 -1.68,0.696C-2.126,1.141 -2.376,1.746 -2.376,2.376C-2.376,3.006 -2.126,3.609 -1.68,4.056C-1.235,4.502 -0.63,4.752 0,4.752" style="fill:rgb(217,95,2);fill-rule:nonzero;"/>
                </g>
                <g transform="matrix(1.7935,0,0,1.7935,195.539,264.297)">
                    <path d="M0,4.752C0.63,4.752 1.234,4.502 1.68,4.057C2.125,3.611 2.376,3.006 2.376,2.376C2.376,1.746 2.125,1.143 1.68,0.696C1.234,0.25 0.63,0 0,0C-0.63,0 -1.235,0.25 -1.68,0.696C-2.126,1.143 -2.376,1.746 -2.376,2.376C-2.376,3.006 -2.126,3.611 -1.68,4.057C-1.235,4.502 -0.63,4.752 0,4.752" style="fill:rgb(217,95,2);fill-rule:nonzero;"/>
                </g>
                <g transform="matrix(1.7935,0,0,1.7935,195.539,246.127)">
                    <path d="M0,4.752C0.63,4.752 1.234,4.501 1.68,4.057C2.125,3.61 2.376,3.006 2.376,2.376C2.376,1.745 2.125,1.142 1.68,0.695C1.234,0.25 0.63,0 0,0C-0.63,0 -1.235,0.25 -1.68,0.695C-2.126,1.142 -2.376,1.745 -2.376,2.376C-2.376,3.006 -2.126,3.61 -1.68,4.057C-1.235,4.501 -0.63,4.752 0,4.752" style="fill:rgb(217,95,2);fill-rule:nonzero;"/>
                </g>
                <g transform="matrix(1.7935,0,0,1.7935,195.539,233.243)">
                    <path d="M0,4.752C0.63,4.752 1.234,4.501 1.68,4.056C2.125,3.609 2.376,3.006 2.376,2.376C2.376,1.746 2.125,1.141 1.68,0.695C1.234,0.25 0.63,0 0,0C-0.63,0 -1.235,0.25 -1.68,0.695C-2.126,1.141 -2.376,1.746 -2.376,2.376C-2.376,3.006 -2.126,3.609 -1.68,4.056C-1.235,4.501 -0.63,4.752 0,4.752" style="fill:rgb(217,95,2);fill-rule:nonzero;"/>
                </g>
                <g transform="matrix(1.7935,0,0,1.7935,186.616,232.609)">
                    <path d="M0,4.752C0.63,4.752 1.234,4.501 1.68,4.057C2.126,3.61 2.376,3.006 2.376,2.376C2.376,1.746 2.126,1.142 1.68,0.696C1.234,0.25 0.63,0 0,0C-0.63,0 -1.235,0.25 -1.68,0.696C-2.126,1.142 -2.376,1.746 -2.376,2.376C-2.376,3.006 -2.126,3.61 -1.68,4.057C-1.235,4.501 -0.63,4.752 0,4.752" style="fill:rgb(217,95,2);fill-rule:nonzero;"/>
                </g>
                <g transform="matrix(1.7935,0,0,1.7935,201.274,226.7)">
                    <path d="M0,4.752C0.631,4.752 1.235,4.501 1.681,4.057C2.126,3.61 2.376,3.006 2.376,2.376C2.376,1.746 2.126,1.142 1.681,0.696C1.235,0.25 0.631,0 0,0C-0.63,0 -1.234,0.25 -1.68,0.696C-2.125,1.142 -2.376,1.746 -2.376,2.376C-2.376,3.006 -2.125,3.61 -1.68,4.057C-1.234,4.501 -0.63,4.752 0,4.752" style="fill:rgb(217,95,2);fill-rule:nonzero;"/>
                </g>
                <g transform="matrix(1.7935,0,0,1.7935,192.774,224.034)">
                    <path d="M0,4.752C0.631,4.752 1.235,4.501 1.681,4.056C2.126,3.609 2.376,3.006 2.376,2.376C2.376,1.745 2.126,1.141 1.681,0.695C1.235,0.25 0.631,0 0,0C-0.63,0 -1.234,0.25 -1.68,0.695C-2.125,1.141 -2.376,1.745 -2.376,2.376C-2.376,3.006 -2.125,3.609 -1.68,4.056C-1.234,4.501 -0.63,4.752 0,4.752" style="fill:rgb(217,95,2);fill-rule:nonzero;"/>
                </g>
                <g transform="matrix(1.7935,0,0,1.7935,184.785,220.197)">
                    <path d="M0,4.752C0.63,4.752 1.234,4.501 1.68,4.057C2.126,3.61 2.376,3.006 2.376,2.376C2.376,1.746 2.126,1.142 1.68,0.696C1.234,0.25 0.63,0 0,0C-0.63,0 -1.235,0.25 -1.68,0.696C-2.126,1.142 -2.376,1.746 -2.376,2.376C-2.376,3.006 -2.126,3.61 -1.68,4.057C-1.235,4.501 -0.63,4.752 0,4.752" style="fill:rgb(217,95,2);fill-rule:nonzero;"/>
                </g>
                <g transform="matrix(1.7935,0,0,1.7935,198.358,217.372)">
                    <path d="M0,4.752C0.63,4.752 1.235,4.501 1.68,4.057C2.126,3.61 2.376,3.007 2.376,2.376C2.376,1.746 2.126,1.142 1.68,0.696C1.235,0.25 0.63,0 0,0C-0.63,0 -1.234,0.25 -1.68,0.696C-2.126,1.142 -2.376,1.746 -2.376,2.376C-2.376,3.007 -2.126,3.61 -1.68,4.057C-1.234,4.501 -0.63,4.752 0,4.752" style="fill:rgb(217,95,2);fill-rule:nonzero;"/>
                </g>
                <g transform="matrix(1.7935,0,0,1.7935,207.307,217.309)">
                    <path d="M0,4.752C0.63,4.752 1.234,4.502 1.68,4.056C2.125,3.61 2.376,3.007 2.376,2.376C2.376,1.745 2.125,1.142 1.68,0.695C1.234,0.251 0.63,0 0,0C-0.631,0 -1.235,0.251 -1.681,0.695C-2.126,1.142 -2.376,1.745 -2.376,2.376C-2.376,3.007 -2.126,3.61 -1.681,4.056C-1.235,4.502 -0.631,4.752 0,4.752" style="fill:rgb(217,95,2);fill-rule:nonzero;"/>
                </g>
                <g transform="matrix(1.7935,0,0,1.7935,190.884,212.685)">
                    <path d="M0,4.752C0.63,4.752 1.234,4.502 1.68,4.056C2.125,3.61 2.376,3.006 2.376,2.376C2.376,1.746 2.125,1.142 1.68,0.695C1.234,0.251 0.63,0 0,0C-0.63,0 -1.235,0.251 -1.68,0.695C-2.126,1.142 -2.376,1.746 -2.376,2.376C-2.376,3.006 -2.126,3.61 -1.68,4.056C-1.235,4.502 -0.63,4.752 0,4.752" style="fill:rgb(217,95,2);fill-rule:nonzero;"/>
                </g>
                <g transform="matrix(1.7935,0,0,1.7935,200.829,209.18)">
                    <path d="M0,4.752C0.63,4.752 1.235,4.502 1.68,4.057C2.126,3.61 2.376,3.007 2.376,2.376C2.376,1.746 2.126,1.142 1.68,0.695C1.235,0.251 0.63,0 0,0C-0.63,0 -1.234,0.251 -1.68,0.695C-2.125,1.142 -2.376,1.746 -2.376,2.376C-2.376,3.007 -2.125,3.61 -1.68,4.057C-1.234,4.502 -0.63,4.752 0,4.752" style="fill:rgb(217,95,2);fill-rule:nonzero;"/>
                </g>
                <g transform="matrix(1.7935,0,0,1.7935,195.539,200.167)">
                    <path d="M0,4.752C0.63,4.752 1.234,4.502 1.68,4.056C2.125,3.611 2.376,3.006 2.376,2.376C2.376,1.746 2.125,1.143 1.68,0.696C1.234,0.251 0.63,0 0,0C-0.63,0 -1.235,0.251 -1.68,0.696C-2.126,1.143 -2.376,1.746 -2.376,2.376C-2.376,3.006 -2.126,3.611 -1.68,4.056C-1.235,4.502 -0.63,4.752 0,4.752" style="fill:rgb(217,95,2);fill-rule:nonzero;"/>
                </g>
                <g transform="matrix(1.7935,0,0,1.7935,187.259,196.934)">
                    <path d="M0,4.752C0.63,4.752 1.235,4.502 1.68,4.056C2.126,3.611 2.376,3.006 2.376,2.376C2.376,1.746 2.126,1.141 1.68,0.696C1.235,0.25 0.63,0 0,0C-0.63,0 -1.234,0.25 -1.68,0.696C-2.125,1.141 -2.376,1.746 -2.376,2.376C-2.376,3.006 -2.125,3.611 -1.68,4.056C-1.234,4.502 -0.63,4.752 0,4.752" style="fill:rgb(217,95,2);fill-rule:nonzero;"/>
                </g>
                <g transform="matrix(1.7935,0,0,1.7935,195.539,187.565)">
                    <path d="M0,4.752C0.63,4.752 1.234,4.502 1.68,4.056C2.125,3.61 2.376,3.006 2.376,2.376C2.376,1.745 2.125,1.142 1.68,0.695C1.234,0.251 0.63,0 0,0C-0.63,0 -1.235,0.251 -1.68,0.695C-2.126,1.142 -2.376,1.745 -2.376,2.376C-2.376,3.006 -2.126,3.61 -1.68,4.056C-1.235,4.502 -0.63,4.752 0,4.752" style="fill:rgb(217,95,2);fill-rule:nonzero;"/>
                </g>
                <g transform="matrix(1.7935,0,0,1.7935,187.133,184.639)">
                    <path d="M0,4.752C0.63,4.752 1.235,4.502 1.68,4.057C2.126,3.611 2.376,3.007 2.376,2.376C2.376,1.746 2.126,1.143 1.68,0.696C1.235,0.251 0.63,0 0,0C-0.63,0 -1.234,0.251 -1.68,0.696C-2.125,1.143 -2.376,1.746 -2.376,2.376C-2.376,3.007 -2.125,3.611 -1.68,4.057C-1.234,4.502 -0.63,4.752 0,4.752" style="fill:rgb(217,95,2);fill-rule:nonzero;"/>
                </g>
                <g transform="matrix(1.7935,0,0,1.7935,201.742,181.421)">
                    <path d="M0,4.752C0.63,4.752 1.235,4.502 1.68,4.057C2.126,3.611 2.376,3.006 2.376,2.376C2.376,1.746 2.126,1.143 1.68,0.696C1.235,0.25 0.63,0 0,0C-0.63,0 -1.234,0.25 -1.68,0.696C-2.126,1.143 -2.376,1.746 -2.376,2.376C-2.376,3.006 -2.126,3.611 -1.68,4.057C-1.234,4.502 -0.63,4.752 0,4.752" style="fill:rgb(217,95,2);fill-rule:nonzero;"/>
                </g>
                <g transform="matrix(1.7935,0,0,1.7935,210.592,180.167)">
                    <path d="M0,4.752C0.63,4.752 1.235,4.502 1.68,4.056C2.126,3.61 2.376,3.006 2.376,2.376C2.376,1.745 2.126,1.142 1.68,0.695C1.235,0.25 0.63,0 0,0C-0.63,0 -1.234,0.25 -1.68,0.695C-2.125,1.142 -2.376,1.745 -2.376,2.376C-2.376,3.006 -2.125,3.61 -1.68,4.056C-1.234,4.502 -0.63,4.752 0,4.752" style="fill:rgb(217,95,2);fill-rule:nonzero;"/>
                </g>
                <g transform="matrix(1.7935,0,0,1.7935,180.108,179.361)">
                    <path d="M0,4.752C0.63,4.752 1.235,4.502 1.68,4.056C2.126,3.609 2.376,3.006 2.376,2.376C2.376,1.746 2.126,1.141 1.68,0.695C1.235,0.25 0.63,0 0,0C-0.63,0 -1.234,0.25 -1.68,0.695C-2.126,1.141 -2.376,1.746 -2.376,2.376C-2.376,3.006 -2.126,3.609 -1.68,4.056C-1.234,4.502 -0.63,4.752 0,4.752" style="fill:rgb(217,95,2);fill-rule:nonzero;"/>
                </g>
                <g transform="matrix(1.7935,0,0,1.7935,195.539,175.485)">
                    <path d="M0,4.752C0.63,4.752 1.234,4.502 1.68,4.056C2.125,3.611 2.376,3.006 2.376,2.376C2.376,1.746 2.125,1.142 1.68,0.696C1.234,0.25 0.63,0 0,0C-0.63,0 -1.235,0.25 -1.68,0.696C-2.126,1.142 -2.376,1.746 -2.376,2.376C-2.376,3.006 -2.126,3.611 -1.68,4.056C-1.235,4.502 -0.63,4.752 0,4.752" style="fill:rgb(217,95,2);fill-rule:nonzero;"/>
                </g>
                <g transform="matrix(1.7935,0,0,1.7935,192.36,167.518)">
                    <path d="M0,4.752C0.63,4.752 1.235,4.502 1.68,4.057C2.126,3.611 2.376,3.006 2.376,2.376C2.376,1.746 2.126,1.143 1.68,0.696C1.235,0.25 0.63,0 0,0C-0.63,0 -1.235,0.25 -1.68,0.696C-2.126,1.143 -2.376,1.746 -2.376,2.376C-2.376,3.006 -2.126,3.611 -1.68,4.057C-1.235,4.502 -0.63,4.752 0,4.752" style="fill:rgb(217,95,2);fill-rule:nonzero;"/>
                </g>
                <g transform="matrix(1.7935,0,0,1.7935,198.372,161.206)">
                    <path d="M0,4.752C0.63,4.752 1.234,4.501 1.68,4.056C2.125,3.609 2.376,3.006 2.376,2.376C2.376,1.746 2.125,1.141 1.68,0.695C1.234,0.25 0.63,0 0,0C-0.631,0 -1.235,0.25 -1.68,0.695C-2.126,1.141 -2.376,1.746 -2.376,2.376C-2.376,3.006 -2.126,3.609 -1.68,4.056C-1.235,4.501 -0.631,4.752 0,4.752" style="fill:rgb(217,95,2);fill-rule:nonzero;"/>
                </g>
                <g transform="matrix(1.7935,0,0,1.7935,190.195,157.741)">
                    <path d="M0,4.752C0.63,4.752 1.234,4.501 1.68,4.057C2.125,3.61 2.376,3.007 2.376,2.376C2.376,1.745 2.125,1.142 1.68,0.695C1.234,0.25 0.63,0 0,0C-0.63,0 -1.235,0.25 -1.68,0.695C-2.126,1.142 -2.376,1.745 -2.376,2.376C-2.376,3.007 -2.126,3.61 -1.68,4.057C-1.235,4.501 -0.63,4.752 0,4.752" style="fill:rgb(217,95,2);fill-rule:nonzero;"/>
                </g>
                <g transform="matrix(1.7935,0,0,1.7935,206.405,157.45)">
                    <path d="M0,4.752C0.63,4.752 1.234,4.502 1.68,4.056C2.125,3.609 2.376,3.006 2.376,2.376C2.376,1.745 2.125,1.141 1.68,0.695C1.234,0.25 0.63,0 0,0C-0.63,0 -1.235,0.25 -1.68,0.695C-2.126,1.141 -2.376,1.745 -2.376,2.376C-2.376,3.006 -2.126,3.609 -1.68,4.056C-1.235,4.502 -0.63,4.752 0,4.752" style="fill:rgb(217,95,2);fill-rule:nonzero;"/>
                </g>
                <g transform="matrix(1.7935,0,0,1.7935,181.402,156.156)">
                    <path d="M0,4.752C0.63,4.752 1.235,4.501 1.68,4.057C2.126,3.61 2.376,3.006 2.376,2.376C2.376,1.746 2.126,1.142 1.68,0.696C1.235,0.25 0.63,0 0,0C-0.63,0 -1.234,0.25 -1.68,0.696C-2.126,1.142 -2.376,1.746 -2.376,2.376C-2.376,3.006 -2.126,3.61 -1.68,4.057C-1.234,4.501 -0.63,4.752 0,4.752" style="fill:rgb(217,95,2);fill-rule:nonzero;"/>
                </g>
                <g transform="matrix(1.7935,0,0,1.7935,195.539,151.102)">
                    <path d="M0,4.752C0.63,4.752 1.234,4.502 1.68,4.056C2.125,3.61 2.376,3.006 2.376,2.376C2.376,1.745 2.125,1.142 1.68,0.695C1.234,0.25 0.63,0 0,0C-0.63,0 -1.235,0.25 -1.68,0.695C-2.126,1.142 -2.376,1.745 -2.376,2.376C-2.376,3.006 -2.126,3.61 -1.68,4.056C-1.235,4.502 -0.63,4.752 0,4.752" style="fill:rgb(217,95,2);fill-rule:nonzero;"/>
                </g>
                <g transform="matrix(1.7935,0,0,1.7935,192.895,142.959)">
                    <path d="M0,4.752C0.63,4.752 1.235,4.502 1.68,4.056C2.126,3.61 2.376,3.007 2.376,2.376C2.376,1.746 2.126,1.142 1.68,0.695C1.235,0.251 0.63,0 0,0C-0.63,0 -1.234,0.251 -1.68,0.695C-2.126,1.142 -2.376,1.746 -2.376,2.376C-2.376,3.007 -2.126,3.61 -1.68,4.056C-1.234,4.502 -0.63,4.752 0,4.752" style="fill:rgb(217,95,2);fill-rule:nonzero;"/>
                </g>
                <g transform="matrix(1.7935,0,0,1.7935,195.539,124.975)">
                    <path d="M0,4.752C0.63,4.752 1.234,4.502 1.68,4.056C2.125,3.611 2.376,3.006 2.376,2.376C2.376,1.746 2.125,1.142 1.68,0.696C1.234,0.25 0.63,0 0,0C-0.63,0 -1.235,0.25 -1.68,0.696C-2.126,1.142 -2.376,1.746 -2.376,2.376C-2.376,3.006 -2.126,3.611 -1.68,4.056C-1.235,4.502 -0.63,4.752 0,4.752" style="fill:rgb(217,95,2);fill-rule:nonzero;"/>
                </g>
                <g transform="matrix(1.7935,0,0,1.7935,195.539,101.321)">
                    <path d="M0,4.753C0.63,4.753 1.234,4.503 1.68,4.058C2.125,3.611 2.376,3.008 2.376,2.376C2.376,1.746 2.125,1.143 1.68,0.696C1.234,0.251 0.63,0 0,0C-0.63,0 -1.235,0.251 -1.68,0.696C-2.126,1.143 -2.376,1.746 -2.376,2.376C-2.376,3.008 -2.126,3.611 -1.68,4.058C-1.235,4.503 -0.63,4.753 0,4.753" style="fill:rgb(217,95,2);fill-rule:nonzero;"/>
                </g>
            </g>
            <g transform="matrix(1.7935,0,0,1.7935,-107.514,-642.542)">
                <text x="85.461px" y="539.172px" style="font-family:'WorkSans-Regular', 'Work Sans';font-size:11.339px;fill:white;">2</text>
            </g>
            <g transform="matrix(1.7935,0,0,1.7935,-107.514,-642.542)">
                <text x="85.461px" y="481.768px" style="font-family:'WorkSans-Regular', 'Work Sans';font-size:11.339px;fill:white;">3</text>
            </g>
            <g transform="matrix(1.7935,0,0,1.7935,-107.514,-642.542)">
                <text x="85.461px" y="424.363px" style="font-family:'WorkSans-Regular', 'Work Sans';font-size:11.339px;fill:white;">4</text>
            </g>
            <g transform="matrix(1.7935,0,0,1.7935,-65.0277,-374.226)">
                <text x="93.444px" y="424.363px" style="font-family:'WorkSans-Regular', 'Work Sans';font-size:6.97px;fill:white;">Control</text>
                <text x="94.939px" y="434.121px" style="font-family:'WorkSans-Regular', 'Work Sans';font-size:6.97px;fill:white;">N = 30</text>
            </g>
            <g transform="matrix(1.7935,0,0,1.7935,3.92241,-374.226)">
                <text x="98.751px" y="424.363px" style="font-family:'WorkSans-Regular', 'Work Sans';font-size:6.97px;fill:white;">Test</text>
                <text x="94.939px" y="434.121px" style="font-family:'WorkSans-Regular', 'Work Sans';font-size:6.97px;fill:white;">N = 30</text>
            </g>
        </g>
    </g>
</svg>
