<?xml version="1.0" encoding="UTF-8" standalone="no"?>
<!DOCTYPE svg PUBLIC "-//W3C//DTD SVG 1.1//EN" "http://www.w3.org/Graphics/SVG/1.1/DTD/svg11.dtd">
<svg width="100%" height="100%" viewBox="0 0 3132 1610" version="1.1" xmlns="http://www.w3.org/2000/svg" xmlns:xlink="http://www.w3.org/1999/xlink" xml:space="preserve" xmlns:serif="http://www.serif.com/" style="fill-rule:evenodd;clip-rule:evenodd;">
    <g transform="matrix(4.16667,0,0,4.16667,0,0)">
        <rect id="Artboard1" x="0" y="0" width="751.567" height="386.229" style="fill:none;"/>
        <clipPath id="_clip1">
            <rect id="Artboard11" serif:id="Artboard1" x="0" y="0" width="751.567" height="386.229"/>
        </clipPath>
        <g clip-path="url(#_clip1)">
            <g transform="matrix(1.05714,0,0,1.05714,-22.4952,-10.8906)">
                <g id="figure_1">
                    <g>
                        <g id="axes_1" transform="matrix(1.1123,0,0,0.853887,-91.682,2.14479)">
                            <rect id="patch_2" x="101.556" y="16.2" width="669.6" height="148.255" style="fill:none;"/>
                            <g id="mf6e3f458cf" transform="matrix(1,0,0,1,0,386.229)">
                                <path d="M131.993,-221.776L131.993,-221.775L697.19,-221.775L697.19,-221.776L692.74,-221.778L688.289,-221.785L683.839,-221.799L679.388,-221.824L674.938,-221.861L670.488,-221.902L666.037,-221.938L661.587,-221.961L657.137,-221.967L652.686,-221.962L648.236,-221.953L643.785,-221.952L639.335,-221.968L634.885,-222.012L630.434,-222.093L625.984,-222.212L621.534,-222.363L617.083,-222.537L612.633,-222.718L608.182,-222.898L603.732,-223.075L599.282,-223.277L594.831,-223.57L590.381,-224.044L585.931,-224.761L581.48,-225.696L577.03,-226.752L572.58,-227.839L568.129,-228.963L563.679,-230.229L559.228,-231.777L554.778,-233.697L550.328,-235.976L545.877,-238.5L541.427,-241.132L536.977,-243.798L532.526,-246.539L528.076,-249.483L523.625,-252.79L519.175,-256.605L514.725,-261.02L510.274,-266.038L505.824,-271.543L501.374,-277.342L496.923,-283.265L492.473,-289.26L488.022,-295.366L483.572,-301.617L479.122,-307.944L474.671,-314.163L470.221,-320.064L465.771,-325.532L461.32,-330.601L456.87,-335.409L452.419,-340.089L447.969,-344.655L443.519,-348.949L439.068,-352.713L434.618,-355.755L430.168,-358.045L425.717,-359.629L421.267,-360.484L416.816,-360.508L412.366,-359.63L407.916,-357.92L403.465,-355.596L399.015,-352.917L394.565,-349.971L390.114,-346.561L385.664,-342.363L381.214,-337.275L376.763,-331.593L372.313,-325.818L367.862,-320.299L363.412,-315.041L358.962,-309.807L354.511,-304.357L350.061,-298.625L345.611,-292.75L341.16,-286.988L336.71,-281.562L332.259,-276.541L327.809,-271.809L323.359,-267.159L318.908,-262.473L314.458,-257.824L310.008,-253.428L305.557,-249.473L301.107,-246.013L296.656,-242.965L292.206,-240.199L287.756,-237.619L283.305,-235.215L278.855,-233.054L274.405,-231.226L269.954,-229.763L265.504,-228.606L261.053,-227.642L256.603,-226.787L252.153,-226.016L247.702,-225.344L243.252,-224.771L238.802,-224.272L234.351,-223.82L229.901,-223.411L225.45,-223.061L221,-222.785L216.55,-222.58L212.099,-222.43L207.649,-222.322L203.199,-222.243L198.748,-222.178L194.298,-222.117L189.847,-222.055L185.397,-222L180.947,-221.958L176.496,-221.932L172.046,-221.917L167.596,-221.906L163.145,-221.89L158.695,-221.867L154.245,-221.84L149.794,-221.814L145.344,-221.795L140.893,-221.784L136.443,-221.778L131.993,-221.776Z" style="fill:rgb(26,158,120);fill-opacity:0.247059;fill-rule:nonzero;"/>
                            </g>
                            <g id="m1ec5a9b266" transform="matrix(1,0,0,1,0,386.229)">
                                <path d="M201.579,-221.776L201.579,-221.775L740.72,-221.775L740.72,-221.776L736.475,-221.778L732.23,-221.783L727.984,-221.794L723.739,-221.811L719.494,-221.834L715.249,-221.861L711.003,-221.889L706.758,-221.919L702.513,-221.955L698.268,-222.005L694.023,-222.073L689.777,-222.164L685.532,-222.282L681.287,-222.432L677.042,-222.606L672.797,-222.787L668.551,-222.952L664.306,-223.093L660.061,-223.24L655.816,-223.462L651.571,-223.85L647.325,-224.483L643.08,-225.389L638.835,-226.522L634.59,-227.774L630.345,-229.028L626.099,-230.218L621.854,-231.363L617.609,-232.561L613.364,-233.955L609.119,-235.676L604.873,-237.799L600.628,-240.328L596.383,-243.229L592.138,-246.491L587.892,-250.158L583.647,-254.277L579.402,-258.818L575.157,-263.619L570.912,-268.456L566.666,-273.165L562.421,-277.747L558.176,-282.359L553.931,-287.22L549.686,-292.504L545.44,-298.297L541.195,-304.575L536.95,-311.201L532.705,-317.907L528.46,-324.335L524.214,-330.155L519.969,-335.199L515.724,-339.518L511.479,-343.306L507.234,-346.758L502.988,-349.952L498.743,-352.845L494.498,-355.364L490.253,-357.52L486.008,-359.415L481.762,-361.105L477.517,-362.435L473.272,-362.97L469.027,-362.142L464.782,-359.559L460.536,-355.314L456.291,-350.038L452.046,-344.579L447.801,-339.481L443.555,-334.706L439.31,-329.832L435.065,-324.533L430.82,-318.885L426.575,-313.282L422.329,-308.114L418.084,-303.525L413.839,-299.391L409.594,-295.47L405.349,-291.556L401.103,-287.552L396.858,-283.455L392.613,-279.29L388.368,-275.038L384.123,-270.613L379.877,-265.926L375.632,-261.009L371.387,-256.072L367.142,-251.422L362.897,-247.308L358.651,-243.81L354.406,-240.849L350.161,-238.287L345.916,-236.034L341.671,-234.08L337.425,-232.449L333.18,-231.123L328.935,-230.007L324.69,-228.979L320.445,-227.963L316.199,-226.965L311.954,-226.039L307.709,-225.235L303.464,-224.567L299.218,-224.022L294.973,-223.577L290.728,-223.215L286.483,-222.933L282.238,-222.727L277.992,-222.586L273.747,-222.488L269.502,-222.406L265.257,-222.318L261.012,-222.214L256.766,-222.103L252.521,-222.002L248.276,-221.927L244.031,-221.885L239.786,-221.869L235.54,-221.866L231.295,-221.862L227.05,-221.849L222.805,-221.83L218.56,-221.809L214.314,-221.793L210.069,-221.783L205.824,-221.778L201.579,-221.776Z" style="fill:rgb(217,95,2);fill-opacity:0.247059;fill-rule:nonzero;"/>
                            </g>
                            <path id="line2d_1" d="M131.993,164.453L163.145,164.34L189.847,164.174L212.099,163.799L221,163.444L229.901,162.819L238.802,161.958L247.702,160.886L256.603,159.443L265.504,157.624L269.954,156.466L274.405,155.003L278.855,153.175L283.305,151.014L287.756,148.61L292.206,146.03L296.656,143.264L301.107,140.217L305.557,136.756L310.008,132.802L314.458,128.405L332.259,109.688L336.71,104.668L341.16,99.242L354.511,81.873L358.962,76.423L367.862,65.931L372.313,60.412L381.214,48.954L385.664,43.867L390.114,39.669L394.565,36.258L399.015,33.312L403.465,30.633L407.916,28.31L412.366,26.6L416.816,25.722L421.267,25.746L425.717,26.601L430.168,28.185L434.618,30.475L439.068,33.516L443.519,37.28L447.969,41.575L456.87,50.82L461.32,55.628L465.771,60.698L470.221,66.166L474.671,72.067L492.473,96.97L501.374,108.888L505.824,114.686L510.274,120.192L514.725,125.21L519.175,129.625L523.625,133.439L528.076,136.747L532.526,139.691L541.427,145.098L550.328,150.254L554.778,152.532L559.228,154.452L563.679,156L568.129,157.266L581.48,160.533L585.931,161.468L590.381,162.185L594.831,162.66L603.732,163.154L630.434,164.137L643.785,164.278L674.938,164.369L697.19,164.453" style="fill:none;"/>
                            <path id="line2d_2" d="M201.579,164.453L244.031,164.344L256.766,164.126L286.483,163.297L294.973,162.653L303.464,161.662L307.709,160.995L311.954,160.191L320.445,158.267L333.18,155.107L337.425,153.781L341.671,152.15L345.916,150.195L350.161,147.942L354.406,145.38L358.651,142.419L362.897,138.921L367.142,134.808L371.387,130.157L379.877,120.304L384.123,115.617L388.368,111.191L396.858,102.775L405.349,94.673L413.839,86.838L418.084,82.705L422.329,78.116L426.575,72.948L435.065,61.696L439.31,56.398L452.046,41.65L456.291,36.191L460.536,30.916L464.782,26.67L469.027,24.088L473.272,23.26L477.517,23.795L481.762,25.124L486.008,26.815L490.253,28.709L494.498,30.865L498.743,33.385L502.988,36.278L507.234,39.472L511.479,42.923L515.724,46.712L519.969,51.031L524.214,56.074L528.46,61.894L532.705,68.322L541.195,81.654L545.44,87.933L549.686,93.725L553.931,99.01L558.176,103.87L570.912,117.774L579.402,127.412L583.647,131.952L587.892,136.072L592.138,139.739L596.383,143.001L600.628,145.901L604.873,148.43L609.119,150.554L613.364,152.274L617.609,153.668L643.08,160.84L647.325,161.747L651.571,162.38L655.816,162.768L664.306,163.136L698.268,164.224L723.739,164.419L740.72,164.453" style="fill:none;"/>
                        </g>
                        <g id="axes_2" transform="matrix(1.1123,0,0,1.12168,-91.682,-36.874)">
                            <g id="matplotlib.axis_1" transform="matrix(1,0,0,1,0,-15)">
                                <g id="xtick_1">
                                    <g id="m87338aa87b" transform="matrix(1,0,0,1,173.144,342.36)">
                                        <path d="M0,0L0,9" style="fill:rgb(38,38,38);fill-rule:nonzero;stroke:white;stroke-width:1.88px;"/>
                                    </g>
                                    <g id="text_1" transform="matrix(1,0,0,1,173.144,373.213)">
                                        <rect x="-13.575" y="-8.762" width="12.029" height="1.856" style="fill:white;fill-rule:nonzero;"/>
                                        <path d="M13.848,-4.282L10.952,-4.282L10.952,0L8.972,0L8.972,-4.282L1.002,-4.282L1.002,-5.742L8.452,-16.335L10.952,-16.335L10.952,-5.989L13.848,-5.989L13.848,-4.282ZM3.106,-5.989L8.972,-5.989L8.972,-12.103L9.071,-14.726L9.021,-14.726C8.609,-13.885 8.064,-12.977 7.388,-12.004L3.106,-5.989Z" style="fill:white;fill-rule:nonzero;"/>
                                    </g>
                                </g>
                                <g id="xtick_2">
                                    <g id="m87338aa87b1" serif:id="m87338aa87b" transform="matrix(1,0,0,1,294.875,342.36)">
                                        <path d="M0,0L0,9" style="fill:rgb(38,38,38);fill-rule:nonzero;stroke:white;stroke-width:1.88px;"/>
                                    </g>
                                    <g id="text_2" transform="matrix(1,0,0,1,294.875,373.213)">
                                        <rect x="-12.845" y="-8.762" width="12.029" height="1.856" style="fill:white;fill-rule:nonzero;"/>
                                        <path d="M1.708,-1.609C3.968,-3.275 5.701,-4.649 6.905,-5.73C8.11,-6.81 8.972,-7.792 9.492,-8.675C10.011,-9.558 10.271,-10.486 10.271,-11.459C10.271,-12.433 9.958,-13.221 9.331,-13.823C8.704,-14.425 7.862,-14.726 6.806,-14.726C5.701,-14.726 4.806,-14.363 4.121,-13.637C3.436,-12.911 3.036,-11.929 2.921,-10.692L1.188,-11.732C1.403,-13.2 2.001,-14.376 2.982,-15.258C3.964,-16.141 5.264,-16.583 6.881,-16.583C7.97,-16.583 8.931,-16.368 9.764,-15.939C10.597,-15.51 11.237,-14.908 11.682,-14.132C12.128,-13.357 12.35,-12.466 12.35,-11.459C12.35,-10.403 12.099,-9.389 11.595,-8.415C11.092,-7.442 10.271,-6.419 9.133,-5.346C7.994,-4.274 6.46,-3.094 4.529,-1.807L4.529,-1.782C5.618,-1.831 6.435,-1.856 6.98,-1.856L12.697,-1.856L12.697,0L1.708,0L1.708,-1.609Z" style="fill:white;fill-rule:nonzero;"/>
                                    </g>
                                </g>
                                <g id="xtick_3">
                                    <g id="m87338aa87b2" serif:id="m87338aa87b" transform="matrix(1,0,0,1,416.605,342.36)">
                                        <path d="M0,0L0,9" style="fill:rgb(38,38,38);fill-rule:nonzero;stroke:white;stroke-width:1.88px;"/>
                                    </g>
                                    <g id="text_3" transform="matrix(1,0,0,1,416.605,373.213)">
                                        <path d="M0,0.248C-1.98,0.248 -3.49,-0.47 -4.529,-1.906C-5.569,-3.341 -6.089,-5.429 -6.089,-8.168C-6.089,-10.907 -5.569,-12.994 -4.529,-14.429C-3.49,-15.865 -1.98,-16.583 0,-16.583C1.98,-16.583 3.49,-15.865 4.529,-14.429C5.569,-12.994 6.089,-10.907 6.089,-8.168C6.089,-5.429 5.569,-3.341 4.529,-1.906C3.49,-0.47 1.98,0.248 0,0.248ZM0,-1.535C1.303,-1.535 2.302,-2.1 2.995,-3.23C3.688,-4.36 4.034,-6.006 4.034,-8.168C4.034,-10.329 3.688,-11.975 2.995,-13.105C2.302,-14.235 1.303,-14.801 0,-14.801C-1.303,-14.801 -2.302,-14.235 -2.995,-13.105C-3.688,-11.975 -4.034,-10.329 -4.034,-8.168C-4.034,-6.006 -3.688,-4.36 -2.995,-3.23C-2.302,-2.1 -1.303,-1.535 0,-1.535Z" style="fill:white;fill-rule:nonzero;"/>
                                    </g>
                                </g>
                                <g id="xtick_4">
                                    <g id="m87338aa87b3" serif:id="m87338aa87b" transform="matrix(1,0,0,1,538.335,342.36)">
                                        <path d="M0,0L0,9" style="fill:rgb(38,38,38);fill-rule:nonzero;stroke:white;stroke-width:1.88px;"/>
                                    </g>
                                    <g id="text_4" transform="matrix(1,0,0,1,538.335,373.213)">
                                        <path d="M-5.383,-1.609C-3.123,-3.275 -1.39,-4.649 -0.186,-5.73C1.019,-6.81 1.881,-7.792 2.401,-8.675C2.92,-9.558 3.18,-10.486 3.18,-11.459C3.18,-12.433 2.867,-13.221 2.24,-13.823C1.613,-14.425 0.771,-14.726 -0.285,-14.726C-1.39,-14.726 -2.285,-14.363 -2.97,-13.637C-3.655,-12.911 -4.055,-11.929 -4.17,-10.692L-5.903,-11.732C-5.688,-13.2 -5.09,-14.376 -4.108,-15.258C-3.127,-16.141 -1.827,-16.583 -0.21,-16.583C0.879,-16.583 1.84,-16.368 2.673,-15.939C3.506,-15.51 4.146,-14.908 4.591,-14.132C5.037,-13.357 5.259,-12.466 5.259,-11.459C5.259,-10.403 5.008,-9.389 4.505,-8.415C4.001,-7.442 3.18,-6.419 2.042,-5.346C0.903,-4.274 -0.631,-3.094 -2.562,-1.807L-2.562,-1.782C-1.473,-1.831 -0.656,-1.856 -0.111,-1.856L5.606,-1.856L5.606,0L-5.383,0L-5.383,-1.609Z" style="fill:white;fill-rule:nonzero;"/>
                                    </g>
                                </g>
                                <g id="xtick_5">
                                    <g id="m87338aa87b4" serif:id="m87338aa87b" transform="matrix(1,0,0,1,660.065,342.36)">
                                        <path d="M0,0L0,9" style="fill:rgb(38,38,38);fill-rule:nonzero;stroke:white;stroke-width:1.88px;"/>
                                    </g>
                                    <g id="text_5" transform="matrix(1,0,0,1,660.065,373.213)">
                                        <path d="M6.373,-4.282L3.477,-4.282L3.477,0L1.497,0L1.497,-4.282L-6.472,-4.282L-6.472,-5.742L0.978,-16.335L3.477,-16.335L3.477,-5.989L6.373,-5.989L6.373,-4.282ZM-4.368,-5.989L1.497,-5.989L1.497,-12.103L1.596,-14.726L1.547,-14.726C1.134,-13.885 0.59,-12.977 -0.087,-12.004L-4.368,-5.989Z" style="fill:white;fill-rule:nonzero;"/>
                                    </g>
                                </g>
                                <path id="patch_5" d="M173.144,342.36L660.065,342.36" style="fill:none;stroke:white;stroke-width:1.88px;stroke-linecap:square;"/>
                            </g>
                            <path id="line2d_10" d="M381.127,253.407L440.863,253.407" style="fill:none;stroke:rgb(26,158,120);stroke-width:4px;stroke-linecap:round;"/>
                            <g id="line2d_11">
                                <g id="m336c7d64fe" transform="matrix(1,0,0,1,410.616,253.407)">
                                    <path d="M0,6.364L6.364,0L0,-6.364L-6.364,0L0,6.364Z" style="fill:rgb(26,158,120);fill-rule:nonzero;stroke:rgb(26,158,120);stroke-width:1px;"/>
                                </g>
                                <g id="m336c7d64fe1" serif:id="m336c7d64fe" transform="matrix(1,0,0,1,410.616,253.407)">
                                    <path d="M0,6.364L6.364,0L0,-6.364L-6.364,0L0,6.364Z" style="fill:rgb(26,158,120);fill-rule:nonzero;stroke:rgb(26,158,120);stroke-width:1px;"/>
                                </g>
                            </g>
                            <g id="line2d_12" transform="matrix(1,0,0,1,0,-14)">
                                <path d="M449.723,327.535L494.106,327.535" style="fill:none;stroke:rgb(217,95,2);stroke-width:4px;stroke-linecap:round;"/>
                            </g>
                            <g id="line2d_13" transform="matrix(1,0,0,1,0,-14)">
                                <g id="m816c88b122" transform="matrix(1,0,0,1,471.653,327.535)">
                                    <path d="M0,6.364L6.364,0L0,-6.364L-6.364,0L0,6.364Z" style="fill:rgb(217,95,2);fill-rule:nonzero;stroke:rgb(217,95,2);stroke-width:1px;"/>
                                </g>
                                <g id="m816c88b1221" serif:id="m816c88b122" transform="matrix(1,0,0,1,471.653,327.535)">
                                    <path d="M0,6.364L6.364,0L0,-6.364L-6.364,0L0,6.364Z" style="fill:rgb(217,95,2);fill-rule:nonzero;stroke:rgb(217,95,2);stroke-width:1px;"/>
                                </g>
                            </g>
                            <g id="PathCollection_1">
                                <g id="C0_0_351f28227f" transform="matrix(1,0,0,1,292.455,231.169)">
                                    <path d="M0,4C1.061,4 2.078,3.579 2.828,2.828C3.579,2.078 4,1.061 4,0C4,-1.061 3.579,-2.078 2.828,-2.828C2.078,-3.579 1.061,-4 0,-4C-1.061,-4 -2.078,-3.579 -2.828,-2.828C-3.579,-2.078 -4,-1.061 -4,0C-4,1.061 -3.579,2.078 -2.828,2.828C-2.078,3.579 -1.061,4 0,4Z" style="fill:rgb(26,158,120);fill-rule:nonzero;"/>
                                </g>
                                <g id="C0_0_351f28227f1" serif:id="C0_0_351f28227f" transform="matrix(1,0,0,1,293.726,222.876)">
                                    <path d="M0,4C1.061,4 2.078,3.579 2.828,2.828C3.579,2.078 4,1.061 4,0C4,-1.061 3.579,-2.078 2.828,-2.828C2.078,-3.579 1.061,-4 0,-4C-1.061,-4 -2.078,-3.579 -2.828,-2.828C-3.579,-2.078 -4,-1.061 -4,0C-4,1.061 -3.579,2.078 -2.828,2.828C-2.078,3.579 -1.061,4 0,4Z" style="fill:rgb(26,158,120);fill-rule:nonzero;"/>
                                </g>
                                <g id="C0_0_351f28227f2" serif:id="C0_0_351f28227f" transform="matrix(1,0,0,1,329.525,231.169)">
                                    <path d="M0,4C1.061,4 2.078,3.579 2.828,2.828C3.579,2.078 4,1.061 4,0C4,-1.061 3.579,-2.078 2.828,-2.828C2.078,-3.579 1.061,-4 0,-4C-1.061,-4 -2.078,-3.579 -2.828,-2.828C-3.579,-2.078 -4,-1.061 -4,0C-4,1.061 -3.579,2.078 -2.828,2.828C-2.078,3.579 -1.061,4 0,4Z" style="fill:rgb(26,158,120);fill-rule:nonzero;"/>
                                </g>
                                <g id="C0_0_351f28227f3" serif:id="C0_0_351f28227f" transform="matrix(1,0,0,1,358.678,231.169)">
                                    <path d="M0,4C1.061,4 2.078,3.579 2.828,2.828C3.579,2.078 4,1.061 4,0C4,-1.061 3.579,-2.078 2.828,-2.828C2.078,-3.579 1.061,-4 0,-4C-1.061,-4 -2.078,-3.579 -2.828,-2.828C-3.579,-2.078 -4,-1.061 -4,0C-4,1.061 -3.579,2.078 -2.828,2.828C-2.078,3.579 -1.061,4 0,4Z" style="fill:rgb(26,158,120);fill-rule:nonzero;"/>
                                </g>
                                <g id="C0_0_351f28227f4" serif:id="C0_0_351f28227f" transform="matrix(1,0,0,1,361.195,223.196)">
                                    <path d="M0,4C1.061,4 2.078,3.579 2.828,2.828C3.579,2.078 4,1.061 4,0C4,-1.061 3.579,-2.078 2.828,-2.828C2.078,-3.579 1.061,-4 0,-4C-1.061,-4 -2.078,-3.579 -2.828,-2.828C-3.579,-2.078 -4,-1.061 -4,0C-4,1.061 -3.579,2.078 -2.828,2.828C-2.078,3.579 -1.061,4 0,4Z" style="fill:rgb(26,158,120);fill-rule:nonzero;"/>
                                </g>
                                <g id="C0_0_351f28227f5" serif:id="C0_0_351f28227f" transform="matrix(1,0,0,1,374.993,231.169)">
                                    <path d="M0,4C1.061,4 2.078,3.579 2.828,2.828C3.579,2.078 4,1.061 4,0C4,-1.061 3.579,-2.078 2.828,-2.828C2.078,-3.579 1.061,-4 0,-4C-1.061,-4 -2.078,-3.579 -2.828,-2.828C-3.579,-2.078 -4,-1.061 -4,0C-4,1.061 -3.579,2.078 -2.828,2.828C-2.078,3.579 -1.061,4 0,4Z" style="fill:rgb(26,158,120);fill-rule:nonzero;"/>
                                </g>
                                <g id="C0_0_351f28227f6" serif:id="C0_0_351f28227f" transform="matrix(1,0,0,1,383.1,231.169)">
                                    <path d="M0,4C1.061,4 2.078,3.579 2.828,2.828C3.579,2.078 4,1.061 4,0C4,-1.061 3.579,-2.078 2.828,-2.828C2.078,-3.579 1.061,-4 0,-4C-1.061,-4 -2.078,-3.579 -2.828,-2.828C-3.579,-2.078 -4,-1.061 -4,0C-4,1.061 -3.579,2.078 -2.828,2.828C-2.078,3.579 -1.061,4 0,4Z" style="fill:rgb(26,158,120);fill-rule:nonzero;"/>
                                </g>
                                <g id="C0_0_351f28227f7" serif:id="C0_0_351f28227f" transform="matrix(1,0,0,1,384.609,222.92)">
                                    <path d="M0,4C1.061,4 2.078,3.579 2.828,2.828C3.579,2.078 4,1.061 4,0C4,-1.061 3.579,-2.078 2.828,-2.828C2.078,-3.579 1.061,-4 0,-4C-1.061,-4 -2.078,-3.579 -2.828,-2.828C-3.579,-2.078 -4,-1.061 -4,0C-4,1.061 -3.579,2.078 -2.828,2.828C-2.078,3.579 -1.061,4 0,4Z" style="fill:rgb(26,158,120);fill-rule:nonzero;"/>
                                </g>
                                <g id="C0_0_351f28227f8" serif:id="C0_0_351f28227f" transform="matrix(1,0,0,1,391.096,230.901)">
                                    <path d="M0,4C1.061,4 2.078,3.579 2.828,2.828C3.579,2.078 4,1.061 4,0C4,-1.061 3.579,-2.078 2.828,-2.828C2.078,-3.579 1.061,-4 0,-4C-1.061,-4 -2.078,-3.579 -2.828,-2.828C-3.579,-2.078 -4,-1.061 -4,0C-4,1.061 -3.579,2.078 -2.828,2.828C-2.078,3.579 -1.061,4 0,4Z" style="fill:rgb(26,158,120);fill-rule:nonzero;"/>
                                </g>
                                <g id="C0_0_351f28227f9" serif:id="C0_0_351f28227f" transform="matrix(1,0,0,1,394.945,238.266)">
                                    <path d="M0,4C1.061,4 2.078,3.579 2.828,2.828C3.579,2.078 4,1.061 4,0C4,-1.061 3.579,-2.078 2.828,-2.828C2.078,-3.579 1.061,-4 0,-4C-1.061,-4 -2.078,-3.579 -2.828,-2.828C-3.579,-2.078 -4,-1.061 -4,0C-4,1.061 -3.579,2.078 -2.828,2.828C-2.078,3.579 -1.061,4 0,4Z" style="fill:rgb(26,158,120);fill-rule:nonzero;"/>
                                </g>
                                <g id="C0_0_351f28227f10" serif:id="C0_0_351f28227f" transform="matrix(1,0,0,1,396.51,224.717)">
                                    <path d="M0,4C1.061,4 2.078,3.579 2.828,2.828C3.579,2.078 4,1.061 4,0C4,-1.061 3.579,-2.078 2.828,-2.828C2.078,-3.579 1.061,-4 0,-4C-1.061,-4 -2.078,-3.579 -2.828,-2.828C-3.579,-2.078 -4,-1.061 -4,0C-4,1.061 -3.579,2.078 -2.828,2.828C-2.078,3.579 -1.061,4 0,4Z" style="fill:rgb(26,158,120);fill-rule:nonzero;"/>
                                </g>
                                <g id="C0_0_351f28227f11" serif:id="C0_0_351f28227f" transform="matrix(1,0,0,1,403.528,231.169)">
                                    <path d="M0,4C1.061,4 2.078,3.579 2.828,2.828C3.579,2.078 4,1.061 4,0C4,-1.061 3.579,-2.078 2.828,-2.828C2.078,-3.579 1.061,-4 0,-4C-1.061,-4 -2.078,-3.579 -2.828,-2.828C-3.579,-2.078 -4,-1.061 -4,0C-4,1.061 -3.579,2.078 -2.828,2.828C-2.078,3.579 -1.061,4 0,4Z" style="fill:rgb(26,158,120);fill-rule:nonzero;"/>
                                </g>
                                <g id="C0_0_351f28227f12" serif:id="C0_0_351f28227f" transform="matrix(1,0,0,1,434.463,231.169)">
                                    <path d="M0,4C1.061,4 2.078,3.579 2.828,2.828C3.579,2.078 4,1.061 4,0C4,-1.061 3.579,-2.078 2.828,-2.828C2.078,-3.579 1.061,-4 0,-4C-1.061,-4 -2.078,-3.579 -2.828,-2.828C-3.579,-2.078 -4,-1.061 -4,0C-4,1.061 -3.579,2.078 -2.828,2.828C-2.078,3.579 -1.061,4 0,4Z" style="fill:rgb(26,158,120);fill-rule:nonzero;"/>
                                </g>
                                <g id="C0_0_351f28227f13" serif:id="C0_0_351f28227f" transform="matrix(1,0,0,1,452.174,231.169)">
                                    <path d="M0,4C1.061,4 2.078,3.579 2.828,2.828C3.579,2.078 4,1.061 4,0C4,-1.061 3.579,-2.078 2.828,-2.828C2.078,-3.579 1.061,-4 0,-4C-1.061,-4 -2.078,-3.579 -2.828,-2.828C-3.579,-2.078 -4,-1.061 -4,0C-4,1.061 -3.579,2.078 -2.828,2.828C-2.078,3.579 -1.061,4 0,4Z" style="fill:rgb(26,158,120);fill-rule:nonzero;"/>
                                </g>
                                <g id="C0_0_351f28227f14" serif:id="C0_0_351f28227f" transform="matrix(1,0,0,1,452.958,222.81)">
                                    <path d="M0,4C1.061,4 2.078,3.579 2.828,2.828C3.579,2.078 4,1.061 4,0C4,-1.061 3.579,-2.078 2.828,-2.828C2.078,-3.579 1.061,-4 0,-4C-1.061,-4 -2.078,-3.579 -2.828,-2.828C-3.579,-2.078 -4,-1.061 -4,0C-4,1.061 -3.579,2.078 -2.828,2.828C-2.078,3.579 -1.061,4 0,4Z" style="fill:rgb(26,158,120);fill-rule:nonzero;"/>
                                </g>
                                <g id="C0_0_351f28227f15" serif:id="C0_0_351f28227f" transform="matrix(1,0,0,1,468.513,231.169)">
                                    <path d="M0,4C1.061,4 2.078,3.579 2.828,2.828C3.579,2.078 4,1.061 4,0C4,-1.061 3.579,-2.078 2.828,-2.828C2.078,-3.579 1.061,-4 0,-4C-1.061,-4 -2.078,-3.579 -2.828,-2.828C-3.579,-2.078 -4,-1.061 -4,0C-4,1.061 -3.579,2.078 -2.828,2.828C-2.078,3.579 -1.061,4 0,4Z" style="fill:rgb(26,158,120);fill-rule:nonzero;"/>
                                </g>
                                <g id="C0_0_351f28227f16" serif:id="C0_0_351f28227f" transform="matrix(1,0,0,1,485.015,231.169)">
                                    <path d="M0,4C1.061,4 2.078,3.579 2.828,2.828C3.579,2.078 4,1.061 4,0C4,-1.061 3.579,-2.078 2.828,-2.828C2.078,-3.579 1.061,-4 0,-4C-1.061,-4 -2.078,-3.579 -2.828,-2.828C-3.579,-2.078 -4,-1.061 -4,0C-4,1.061 -3.579,2.078 -2.828,2.828C-2.078,3.579 -1.061,4 0,4Z" style="fill:rgb(26,158,120);fill-rule:nonzero;"/>
                                </g>
                                <g id="C0_0_351f28227f17" serif:id="C0_0_351f28227f" transform="matrix(1,0,0,1,502.735,231.169)">
                                    <path d="M0,4C1.061,4 2.078,3.579 2.828,2.828C3.579,2.078 4,1.061 4,0C4,-1.061 3.579,-2.078 2.828,-2.828C2.078,-3.579 1.061,-4 0,-4C-1.061,-4 -2.078,-3.579 -2.828,-2.828C-3.579,-2.078 -4,-1.061 -4,0C-4,1.061 -3.579,2.078 -2.828,2.828C-2.078,3.579 -1.061,4 0,4Z" style="fill:rgb(26,158,120);fill-rule:nonzero;"/>
                                </g>
                                <g id="C0_0_351f28227f18" serif:id="C0_0_351f28227f" transform="matrix(1,0,0,1,505.961,223.482)">
                                    <path d="M0,4C1.061,4 2.078,3.579 2.828,2.828C3.579,2.078 4,1.061 4,0C4,-1.061 3.579,-2.078 2.828,-2.828C2.078,-3.579 1.061,-4 0,-4C-1.061,-4 -2.078,-3.579 -2.828,-2.828C-3.579,-2.078 -4,-1.061 -4,0C-4,1.061 -3.579,2.078 -2.828,2.828C-2.078,3.579 -1.061,4 0,4Z" style="fill:rgb(26,158,120);fill-rule:nonzero;"/>
                                </g>
                                <g id="C0_0_351f28227f19" serif:id="C0_0_351f28227f" transform="matrix(1,0,0,1,546.136,231.169)">
                                    <path d="M0,4C1.061,4 2.078,3.579 2.828,2.828C3.579,2.078 4,1.061 4,0C4,-1.061 3.579,-2.078 2.828,-2.828C2.078,-3.579 1.061,-4 0,-4C-1.061,-4 -2.078,-3.579 -2.828,-2.828C-3.579,-2.078 -4,-1.061 -4,0C-4,1.061 -3.579,2.078 -2.828,2.828C-2.078,3.579 -1.061,4 0,4Z" style="fill:rgb(26,158,120);fill-rule:nonzero;"/>
                                </g>
                            </g>
                            <g id="PathCollection_2" transform="matrix(1,0,0,1,0,-14)">
                                <g id="C1_0_3c8fab8ede" transform="matrix(1,0,0,1,390.436,305.296)">
                                    <path d="M0,4C1.061,4 2.078,3.579 2.828,2.828C3.579,2.078 4,1.061 4,0C4,-1.061 3.579,-2.078 2.828,-2.828C2.078,-3.579 1.061,-4 0,-4C-1.061,-4 -2.078,-3.579 -2.828,-2.828C-3.579,-2.078 -4,-1.061 -4,0C-4,1.061 -3.579,2.078 -2.828,2.828C-2.078,3.579 -1.061,4 0,4Z" style="fill:rgb(217,95,2);fill-rule:nonzero;"/>
                                </g>
                                <g id="C1_0_3c8fab8ede1" serif:id="C1_0_3c8fab8ede" transform="matrix(1,0,0,1,391.066,296.922)">
                                    <path d="M0,4C1.061,4 2.078,3.579 2.828,2.828C3.579,2.078 4,1.061 4,0C4,-1.061 3.579,-2.078 2.828,-2.828C2.078,-3.579 1.061,-4 0,-4C-1.061,-4 -2.078,-3.579 -2.828,-2.828C-3.579,-2.078 -4,-1.061 -4,0C-4,1.061 -3.579,2.078 -2.828,2.828C-2.078,3.579 -1.061,4 0,4Z" style="fill:rgb(217,95,2);fill-rule:nonzero;"/>
                                </g>
                                <g id="C1_0_3c8fab8ede2" serif:id="C1_0_3c8fab8ede" transform="matrix(1,0,0,1,392.689,313.356)">
                                    <path d="M0,4C1.061,4 2.078,3.579 2.828,2.828C3.579,2.078 4,1.061 4,0C4,-1.061 3.579,-2.078 2.828,-2.828C2.078,-3.579 1.061,-4 0,-4C-1.061,-4 -2.078,-3.579 -2.828,-2.828C-3.579,-2.078 -4,-1.061 -4,0C-4,1.061 -3.579,2.078 -2.828,2.828C-2.078,3.579 -1.061,4 0,4Z" style="fill:rgb(217,95,2);fill-rule:nonzero;"/>
                                </g>
                                <g id="C1_0_3c8fab8ede3" serif:id="C1_0_3c8fab8ede" transform="matrix(1,0,0,1,403.09,305.296)">
                                    <path d="M0,4C1.061,4 2.078,3.579 2.828,2.828C3.579,2.078 4,1.061 4,0C4,-1.061 3.579,-2.078 2.828,-2.828C2.078,-3.579 1.061,-4 0,-4C-1.061,-4 -2.078,-3.579 -2.828,-2.828C-3.579,-2.078 -4,-1.061 -4,0C-4,1.061 -3.579,2.078 -2.828,2.828C-2.078,3.579 -1.061,4 0,4Z" style="fill:rgb(217,95,2);fill-rule:nonzero;"/>
                                </g>
                                <g id="C1_0_3c8fab8ede4" serif:id="C1_0_3c8fab8ede" transform="matrix(1,0,0,1,431.855,305.296)">
                                    <path d="M0,4C1.061,4 2.078,3.579 2.828,2.828C3.579,2.078 4,1.061 4,0C4,-1.061 3.579,-2.078 2.828,-2.828C2.078,-3.579 1.061,-4 0,-4C-1.061,-4 -2.078,-3.579 -2.828,-2.828C-3.579,-2.078 -4,-1.061 -4,0C-4,1.061 -3.579,2.078 -2.828,2.828C-2.078,3.579 -1.061,4 0,4Z" style="fill:rgb(217,95,2);fill-rule:nonzero;"/>
                                </g>
                                <g id="C1_0_3c8fab8ede5" serif:id="C1_0_3c8fab8ede" transform="matrix(1,0,0,1,453.645,305.296)">
                                    <path d="M0,4C1.061,4 2.078,3.579 2.828,2.828C3.579,2.078 4,1.061 4,0C4,-1.061 3.579,-2.078 2.828,-2.828C2.078,-3.579 1.061,-4 0,-4C-1.061,-4 -2.078,-3.579 -2.828,-2.828C-3.579,-2.078 -4,-1.061 -4,0C-4,1.061 -3.579,2.078 -2.828,2.828C-2.078,3.579 -1.061,4 0,4Z" style="fill:rgb(217,95,2);fill-rule:nonzero;"/>
                                </g>
                                <g id="C1_0_3c8fab8ede6" serif:id="C1_0_3c8fab8ede" transform="matrix(1,0,0,1,459.14,299.192)">
                                    <path d="M0,4C1.061,4 2.078,3.579 2.828,2.828C3.579,2.078 4,1.061 4,0C4,-1.061 3.579,-2.078 2.828,-2.828C2.078,-3.579 1.061,-4 0,-4C-1.061,-4 -2.078,-3.579 -2.828,-2.828C-3.579,-2.078 -4,-1.061 -4,0C-4,1.061 -3.579,2.078 -2.828,2.828C-2.078,3.579 -1.061,4 0,4Z" style="fill:rgb(217,95,2);fill-rule:nonzero;"/>
                                </g>
                                <g id="C1_0_3c8fab8ede7" serif:id="C1_0_3c8fab8ede" transform="matrix(1,0,0,1,459.874,310.567)">
                                    <path d="M0,4C1.061,4 2.078,3.579 2.828,2.828C3.579,2.078 4,1.061 4,0C4,-1.061 3.579,-2.078 2.828,-2.828C2.078,-3.579 1.061,-4 0,-4C-1.061,-4 -2.078,-3.579 -2.828,-2.828C-3.579,-2.078 -4,-1.061 -4,0C-4,1.061 -3.579,2.078 -2.828,2.828C-2.078,3.579 -1.061,4 0,4Z" style="fill:rgb(217,95,2);fill-rule:nonzero;"/>
                                </g>
                                <g id="C1_0_3c8fab8ede8" serif:id="C1_0_3c8fab8ede" transform="matrix(1,0,0,1,466.98,305.296)">
                                    <path d="M0,4C1.061,4 2.078,3.579 2.828,2.828C3.579,2.078 4,1.061 4,0C4,-1.061 3.579,-2.078 2.828,-2.828C2.078,-3.579 1.061,-4 0,-4C-1.061,-4 -2.078,-3.579 -2.828,-2.828C-3.579,-2.078 -4,-1.061 -4,0C-4,1.061 -3.579,2.078 -2.828,2.828C-2.078,3.579 -1.061,4 0,4Z" style="fill:rgb(217,95,2);fill-rule:nonzero;"/>
                                </g>
                                <g id="C1_0_3c8fab8ede9" serif:id="C1_0_3c8fab8ede" transform="matrix(1,0,0,1,468.107,296.98)">
                                    <path d="M0,4C1.061,4 2.078,3.579 2.828,2.828C3.579,2.078 4,1.061 4,0C4,-1.061 3.579,-2.078 2.828,-2.828C2.078,-3.579 1.061,-4 0,-4C-1.061,-4 -2.078,-3.579 -2.828,-2.828C-3.579,-2.078 -4,-1.061 -4,0C-4,1.061 -3.579,2.078 -2.828,2.828C-2.078,3.579 -1.061,4 0,4Z" style="fill:rgb(217,95,2);fill-rule:nonzero;"/>
                                </g>
                                <g id="C1_0_3c8fab8ede10" serif:id="C1_0_3c8fab8ede" transform="matrix(1,0,0,1,476.298,305.296)">
                                    <path d="M0,4C1.061,4 2.078,3.579 2.828,2.828C3.579,2.078 4,1.061 4,0C4,-1.061 3.579,-2.078 2.828,-2.828C2.078,-3.579 1.061,-4 0,-4C-1.061,-4 -2.078,-3.579 -2.828,-2.828C-3.579,-2.078 -4,-1.061 -4,0C-4,1.061 -3.579,2.078 -2.828,2.828C-2.078,3.579 -1.061,4 0,4Z" style="fill:rgb(217,95,2);fill-rule:nonzero;"/>
                                </g>
                                <g id="C1_0_3c8fab8ede11" serif:id="C1_0_3c8fab8ede" transform="matrix(1,0,0,1,480.431,298.104)">
                                    <path d="M0,4C1.061,4 2.078,3.579 2.828,2.828C3.579,2.078 4,1.061 4,0C4,-1.061 3.579,-2.078 2.828,-2.828C2.078,-3.579 1.061,-4 0,-4C-1.061,-4 -2.078,-3.579 -2.828,-2.828C-3.579,-2.078 -4,-1.061 -4,0C-4,1.061 -3.579,2.078 -2.828,2.828C-2.078,3.579 -1.061,4 0,4Z" style="fill:rgb(217,95,2);fill-rule:nonzero;"/>
                                </g>
                                <g id="C1_0_3c8fab8ede12" serif:id="C1_0_3c8fab8ede" transform="matrix(1,0,0,1,480.855,312.2)">
                                    <path d="M0,4C1.061,4 2.078,3.579 2.828,2.828C3.579,2.078 4,1.061 4,0C4,-1.061 3.579,-2.078 2.828,-2.828C2.078,-3.579 1.061,-4 0,-4C-1.061,-4 -2.078,-3.579 -2.828,-2.828C-3.579,-2.078 -4,-1.061 -4,0C-4,1.061 -3.579,2.078 -2.828,2.828C-2.078,3.579 -1.061,4 0,4Z" style="fill:rgb(217,95,2);fill-rule:nonzero;"/>
                                </g>
                                <g id="C1_0_3c8fab8ede13" serif:id="C1_0_3c8fab8ede" transform="matrix(1,0,0,1,492.515,305.296)">
                                    <path d="M0,4C1.061,4 2.078,3.579 2.828,2.828C3.579,2.078 4,1.061 4,0C4,-1.061 3.579,-2.078 2.828,-2.828C2.078,-3.579 1.061,-4 0,-4C-1.061,-4 -2.078,-3.579 -2.828,-2.828C-3.579,-2.078 -4,-1.061 -4,0C-4,1.061 -3.579,2.078 -2.828,2.828C-2.078,3.579 -1.061,4 0,4Z" style="fill:rgb(217,95,2);fill-rule:nonzero;"/>
                                </g>
                                <g id="C1_0_3c8fab8ede14" serif:id="C1_0_3c8fab8ede" transform="matrix(1,0,0,1,493.774,297.001)">
                                    <path d="M0,4C1.061,4 2.078,3.579 2.828,2.828C3.579,2.078 4,1.061 4,0C4,-1.061 3.579,-2.078 2.828,-2.828C2.078,-3.579 1.061,-4 0,-4C-1.061,-4 -2.078,-3.579 -2.828,-2.828C-3.579,-2.078 -4,-1.061 -4,0C-4,1.061 -3.579,2.078 -2.828,2.828C-2.078,3.579 -1.061,4 0,4Z" style="fill:rgb(217,95,2);fill-rule:nonzero;"/>
                                </g>
                                <g id="C1_0_3c8fab8ede15" serif:id="C1_0_3c8fab8ede" transform="matrix(1,0,0,1,501.312,305.296)">
                                    <path d="M0,4C1.061,4 2.078,3.579 2.828,2.828C3.579,2.078 4,1.061 4,0C4,-1.061 3.579,-2.078 2.828,-2.828C2.078,-3.579 1.061,-4 0,-4C-1.061,-4 -2.078,-3.579 -2.828,-2.828C-3.579,-2.078 -4,-1.061 -4,0C-4,1.061 -3.579,2.078 -2.828,2.828C-2.078,3.579 -1.061,4 0,4Z" style="fill:rgb(217,95,2);fill-rule:nonzero;"/>
                                </g>
                                <g id="C1_0_3c8fab8ede16" serif:id="C1_0_3c8fab8ede" transform="matrix(1,0,0,1,523.829,305.296)">
                                    <path d="M0,4C1.061,4 2.078,3.579 2.828,2.828C3.579,2.078 4,1.061 4,0C4,-1.061 3.579,-2.078 2.828,-2.828C2.078,-3.579 1.061,-4 0,-4C-1.061,-4 -2.078,-3.579 -2.828,-2.828C-3.579,-2.078 -4,-1.061 -4,0C-4,1.061 -3.579,2.078 -2.828,2.828C-2.078,3.579 -1.061,4 0,4Z" style="fill:rgb(217,95,2);fill-rule:nonzero;"/>
                                </g>
                                <g id="C1_0_3c8fab8ede17" serif:id="C1_0_3c8fab8ede" transform="matrix(1,0,0,1,527.524,297.846)">
                                    <path d="M0,4C1.061,4 2.078,3.579 2.828,2.828C3.579,2.078 4,1.061 4,0C4,-1.061 3.579,-2.078 2.828,-2.828C2.078,-3.579 1.061,-4 0,-4C-1.061,-4 -2.078,-3.579 -2.828,-2.828C-3.579,-2.078 -4,-1.061 -4,0C-4,1.061 -3.579,2.078 -2.828,2.828C-2.078,3.579 -1.061,4 0,4Z" style="fill:rgb(217,95,2);fill-rule:nonzero;"/>
                                </g>
                                <g id="C1_0_3c8fab8ede18" serif:id="C1_0_3c8fab8ede" transform="matrix(1,0,0,1,567.59,305.296)">
                                    <path d="M0,4C1.061,4 2.078,3.579 2.828,2.828C3.579,2.078 4,1.061 4,0C4,-1.061 3.579,-2.078 2.828,-2.828C2.078,-3.579 1.061,-4 0,-4C-1.061,-4 -2.078,-3.579 -2.828,-2.828C-3.579,-2.078 -4,-1.061 -4,0C-4,1.061 -3.579,2.078 -2.828,2.828C-2.078,3.579 -1.061,4 0,4Z" style="fill:rgb(217,95,2);fill-rule:nonzero;"/>
                                </g>
                                <g id="C1_0_3c8fab8ede19" serif:id="C1_0_3c8fab8ede" transform="matrix(1,0,0,1,572.05,298.323)">
                                    <path d="M0,4C1.061,4 2.078,3.579 2.828,2.828C3.579,2.078 4,1.061 4,0C4,-1.061 3.579,-2.078 2.828,-2.828C2.078,-3.579 1.061,-4 0,-4C-1.061,-4 -2.078,-3.579 -2.828,-2.828C-3.579,-2.078 -4,-1.061 -4,0C-4,1.061 -3.579,2.078 -2.828,2.828C-2.078,3.579 -1.061,4 0,4Z" style="fill:rgb(217,95,2);fill-rule:nonzero;"/>
                                </g>
                            </g>
                        </g>
                        <g transform="matrix(1,0,0,1,-4,-2.84217e-14)">
                            <g id="ARROW-2" serif:id="ARROW 2" transform="matrix(-2.10953,-0.0128145,0.0128145,-2.10953,862.854,522.458)">
                                <g transform="matrix(1.92894,0,-1.73472e-18,1.92894,220.595,165.364)">
                                    <path d="M0,5.129C0.632,3.425 1.711,1.311 2.854,0L0,1.032L-2.853,0C-1.71,1.311 -0.632,3.425 0,5.129" style="fill:white;fill-rule:nonzero;stroke:white;stroke-width:0.15px;stroke-linejoin:round;stroke-miterlimit:1.41421;"/>
                                </g>
                                <g transform="matrix(1.73472e-18,-1.92894,-1.92894,0,228.038,160.828)">
                                    <path d="M-3.859,3.859L3.859,3.859" style="fill:white;fill-rule:nonzero;stroke:white;stroke-width:1.16px;"/>
                                </g>
                            </g>
                            <g transform="matrix(1,0,0,1,275.441,150.913)">
                                <path d="M150.565,8.876C150.241,8.876 149.98,8.777 149.782,8.579C149.584,8.381 149.485,8.12 149.485,7.796C149.485,7.472 149.584,7.211 149.782,7.013C149.98,6.815 150.241,6.716 150.565,6.716C150.889,6.716 151.15,6.815 151.348,7.013C151.546,7.211 151.645,7.472 151.645,7.796C151.645,8.12 151.546,8.381 151.348,8.579C151.15,8.777 150.889,8.876 150.565,8.876ZM151.285,19.604L149.845,19.604L149.845,10.604L151.285,10.604L151.285,19.604Z" style="fill:white;fill-rule:nonzero;"/>
                                <path d="M159.007,10.424C160.027,10.424 160.867,10.718 161.527,11.306C162.187,11.894 162.517,12.74 162.517,13.844L162.517,19.604L161.077,19.604L161.077,14.348C161.077,13.412 160.876,12.734 160.474,12.314C160.072,11.894 159.535,11.684 158.863,11.684C158.383,11.684 157.933,11.789 157.513,11.999C157.093,12.209 156.748,12.551 156.478,13.025C156.208,13.499 156.073,14.096 156.073,14.816L156.073,19.604L154.633,19.604L154.633,10.604L155.893,10.604L155.983,12.008C156.283,11.468 156.697,11.069 157.225,10.811C157.753,10.553 158.347,10.424 159.007,10.424Z" style="fill:white;fill-rule:nonzero;"/>
                                <path d="M167.791,10.604L170.797,10.604L170.797,11.846L167.791,11.846L167.791,19.604L166.351,19.604L166.351,11.846L164.551,11.846L164.551,10.604L166.351,10.604L166.351,9.092C166.351,8.264 166.603,7.604 167.107,7.112C167.611,6.62 168.343,6.374 169.303,6.374C169.627,6.374 169.924,6.41 170.194,6.482C170.464,6.554 170.677,6.656 170.833,6.788L170.455,7.958C170.167,7.778 169.825,7.688 169.429,7.688C168.337,7.688 167.791,8.204 167.791,9.236L167.791,10.604Z" style="fill:white;fill-rule:nonzero;"/>
                                <path d="M180.193,14.636C180.193,14.972 180.169,15.308 180.121,15.644L173.335,15.644C173.419,16.556 173.722,17.264 174.244,17.768C174.766,18.272 175.441,18.524 176.269,18.524C176.929,18.524 177.478,18.41 177.916,18.182C178.354,17.954 178.651,17.624 178.807,17.192L180.013,17.822C179.653,18.458 179.173,18.944 178.573,19.28C177.973,19.616 177.205,19.784 176.269,19.784C174.913,19.784 173.848,19.37 173.074,18.542C172.3,17.714 171.913,16.568 171.913,15.104C171.913,13.64 172.282,12.494 173.02,11.666C173.758,10.838 174.805,10.424 176.161,10.424C177.001,10.424 177.727,10.61 178.339,10.982C178.951,11.354 179.413,11.858 179.725,12.494C180.037,13.13 180.193,13.844 180.193,14.636ZM176.161,11.684C175.369,11.684 174.73,11.918 174.244,12.386C173.758,12.854 173.461,13.514 173.353,14.366L178.807,14.366C178.711,13.526 178.435,12.869 177.979,12.395C177.523,11.921 176.917,11.684 176.161,11.684Z" style="fill:white;fill-rule:nonzero;"/>
                                <path d="M187.177,10.424C187.609,10.424 187.939,10.484 188.167,10.604L187.879,12.008C187.591,11.852 187.213,11.774 186.745,11.774C186.361,11.774 185.986,11.885 185.62,12.107C185.254,12.329 184.954,12.665 184.72,13.115C184.486,13.565 184.369,14.108 184.369,14.744L184.369,19.604L182.929,19.604L182.929,10.604L184.099,10.604L184.297,12.08C184.801,10.976 185.761,10.424 187.177,10.424Z" style="fill:white;fill-rule:nonzero;"/>
                                <path d="M197.707,14.636C197.707,14.972 197.683,15.308 197.635,15.644L190.849,15.644C190.933,16.556 191.236,17.264 191.758,17.768C192.28,18.272 192.955,18.524 193.783,18.524C194.443,18.524 194.992,18.41 195.43,18.182C195.868,17.954 196.165,17.624 196.321,17.192L197.527,17.822C197.167,18.458 196.687,18.944 196.087,19.28C195.487,19.616 194.719,19.784 193.783,19.784C192.427,19.784 191.362,19.37 190.588,18.542C189.814,17.714 189.427,16.568 189.427,15.104C189.427,13.64 189.796,12.494 190.534,11.666C191.272,10.838 192.319,10.424 193.675,10.424C194.515,10.424 195.241,10.61 195.853,10.982C196.465,11.354 196.927,11.858 197.239,12.494C197.551,13.13 197.707,13.844 197.707,14.636ZM193.675,11.684C192.883,11.684 192.244,11.918 191.758,12.386C191.272,12.854 190.975,13.514 190.867,14.366L196.321,14.366C196.225,13.526 195.949,12.869 195.493,12.395C195.037,11.921 194.431,11.684 193.675,11.684Z" style="fill:white;fill-rule:nonzero;"/>
                                <path d="M204.817,10.424C205.837,10.424 206.677,10.718 207.337,11.306C207.997,11.894 208.327,12.74 208.327,13.844L208.327,19.604L206.887,19.604L206.887,14.348C206.887,13.412 206.686,12.734 206.284,12.314C205.882,11.894 205.345,11.684 204.673,11.684C204.193,11.684 203.743,11.789 203.323,11.999C202.903,12.209 202.558,12.551 202.288,13.025C202.018,13.499 201.883,14.096 201.883,14.816L201.883,19.604L200.443,19.604L200.443,10.604L201.703,10.604L201.793,12.008C202.093,11.468 202.507,11.069 203.035,10.811C203.563,10.553 204.157,10.424 204.817,10.424Z" style="fill:white;fill-rule:nonzero;"/>
                                <path d="M215.383,10.424C216.283,10.424 217.042,10.631 217.66,11.045C218.278,11.459 218.761,12.05 219.109,12.818L217.741,13.466C217.357,12.278 216.559,11.684 215.347,11.684C214.447,11.684 213.742,11.987 213.232,12.593C212.722,13.199 212.467,14.036 212.467,15.104C212.467,16.172 212.722,17.009 213.232,17.615C213.742,18.221 214.447,18.524 215.347,18.524C216.043,18.524 216.604,18.365 217.03,18.047C217.456,17.729 217.735,17.27 217.867,16.67L219.199,17.138C218.887,17.978 218.407,18.629 217.759,19.091C217.111,19.553 216.319,19.784 215.383,19.784C214.027,19.784 212.962,19.37 212.188,18.542C211.414,17.714 211.027,16.568 211.027,15.104C211.027,13.64 211.414,12.494 212.188,11.666C212.962,10.838 214.027,10.424 215.383,10.424Z" style="fill:white;fill-rule:nonzero;"/>
                                <path d="M229.459,14.636C229.459,14.972 229.435,15.308 229.387,15.644L222.601,15.644C222.685,16.556 222.988,17.264 223.51,17.768C224.032,18.272 224.707,18.524 225.535,18.524C226.195,18.524 226.744,18.41 227.182,18.182C227.62,17.954 227.917,17.624 228.073,17.192L229.279,17.822C228.919,18.458 228.439,18.944 227.839,19.28C227.239,19.616 226.471,19.784 225.535,19.784C224.179,19.784 223.114,19.37 222.34,18.542C221.566,17.714 221.179,16.568 221.179,15.104C221.179,13.64 221.548,12.494 222.286,11.666C223.024,10.838 224.071,10.424 225.427,10.424C226.267,10.424 226.993,10.61 227.605,10.982C228.217,11.354 228.679,11.858 228.991,12.494C229.303,13.13 229.459,13.844 229.459,14.636ZM225.427,11.684C224.635,11.684 223.996,11.918 223.51,12.386C223.024,12.854 222.727,13.514 222.619,14.366L228.073,14.366C227.977,13.526 227.701,12.869 227.245,12.395C226.789,11.921 226.183,11.684 225.427,11.684Z" style="fill:white;fill-rule:nonzero;"/>
                                <path d="M245.713,18.56C245.953,18.56 246.193,18.53 246.433,18.47L246.343,19.604C246.007,19.724 245.647,19.784 245.263,19.784C244.795,19.784 244.426,19.682 244.156,19.478C243.886,19.274 243.715,18.932 243.643,18.452C243.367,18.872 242.962,19.199 242.428,19.433C241.894,19.667 241.333,19.784 240.745,19.784C239.857,19.784 239.125,19.577 238.549,19.163C237.973,18.749 237.685,18.152 237.685,17.372C237.685,16.688 237.985,16.097 238.585,15.599C239.185,15.101 240.055,14.756 241.195,14.564L243.589,14.168L243.589,13.664C243.589,13.064 243.403,12.584 243.031,12.224C242.659,11.864 242.143,11.684 241.483,11.684C240.883,11.684 240.364,11.828 239.926,12.116C239.488,12.404 239.149,12.83 238.909,13.394L237.847,12.62C238.087,11.948 238.534,11.414 239.188,11.018C239.842,10.622 240.607,10.424 241.483,10.424C242.551,10.424 243.409,10.682 244.057,11.198C244.705,11.714 245.029,12.476 245.029,13.484L245.029,17.912C245.029,18.128 245.083,18.29 245.191,18.398C245.299,18.506 245.473,18.56 245.713,18.56ZM240.817,18.524C241.573,18.524 242.224,18.344 242.77,17.984C243.316,17.624 243.589,17.156 243.589,16.58L243.589,15.338L241.573,15.716C240.769,15.86 240.169,16.067 239.773,16.337C239.377,16.607 239.179,16.952 239.179,17.372C239.179,17.744 239.323,18.029 239.611,18.227C239.899,18.425 240.301,18.524 240.817,18.524Z" style="fill:white;fill-rule:nonzero;"/>
                                <path d="M252.895,10.424C253.915,10.424 254.755,10.718 255.415,11.306C256.075,11.894 256.405,12.74 256.405,13.844L256.405,19.604L254.965,19.604L254.965,14.348C254.965,13.412 254.764,12.734 254.362,12.314C253.96,11.894 253.423,11.684 252.751,11.684C252.271,11.684 251.821,11.789 251.401,11.999C250.981,12.209 250.636,12.551 250.366,13.025C250.096,13.499 249.961,14.096 249.961,14.816L249.961,19.604L248.521,19.604L248.521,10.604L249.781,10.604L249.871,12.008C250.171,11.468 250.585,11.069 251.113,10.811C251.641,10.553 252.235,10.424 252.895,10.424Z" style="fill:white;fill-rule:nonzero;"/>
                                <path d="M267.655,6.464L267.655,19.604L266.395,19.604L266.305,18.038C266.041,18.566 265.636,18.989 265.09,19.307C264.544,19.625 263.923,19.784 263.227,19.784C261.967,19.784 260.968,19.367 260.23,18.533C259.492,17.699 259.123,16.556 259.123,15.104C259.123,13.652 259.492,12.509 260.23,11.675C260.968,10.841 261.967,10.424 263.227,10.424C263.887,10.424 264.478,10.568 265,10.856C265.522,11.144 265.927,11.528 266.215,12.008L266.215,6.464L267.655,6.464ZM263.389,18.524C264.253,18.524 264.94,18.224 265.45,17.624C265.96,17.024 266.215,16.22 266.215,15.212L266.215,14.996C266.215,13.988 265.96,13.184 265.45,12.584C264.94,11.984 264.253,11.684 263.389,11.684C262.513,11.684 261.823,11.993 261.319,12.611C260.815,13.229 260.563,14.06 260.563,15.104C260.563,16.148 260.815,16.979 261.319,17.597C261.823,18.215 262.513,18.524 263.389,18.524Z" style="fill:white;fill-rule:nonzero;"/>
                                <path d="M161.734,32.636C161.734,32.972 161.71,33.308 161.662,33.644L154.876,33.644C154.96,34.556 155.263,35.264 155.785,35.768C156.307,36.272 156.982,36.524 157.81,36.524C158.47,36.524 159.019,36.41 159.457,36.182C159.895,35.954 160.192,35.624 160.348,35.192L161.554,35.822C161.194,36.458 160.714,36.944 160.114,37.28C159.514,37.616 158.746,37.784 157.81,37.784C156.454,37.784 155.389,37.37 154.615,36.542C153.841,35.714 153.454,34.568 153.454,33.104C153.454,31.64 153.823,30.494 154.561,29.666C155.299,28.838 156.346,28.424 157.702,28.424C158.542,28.424 159.268,28.61 159.88,28.982C160.492,29.354 160.954,29.858 161.266,30.494C161.578,31.13 161.734,31.844 161.734,32.636ZM157.702,29.684C156.91,29.684 156.271,29.918 155.785,30.386C155.299,30.854 155.002,31.514 154.894,32.366L160.348,32.366C160.252,31.526 159.976,30.869 159.52,30.395C159.064,29.921 158.458,29.684 157.702,29.684Z" style="fill:white;fill-rule:nonzero;"/>
                                <path d="M167.53,37.784C166.666,37.784 165.886,37.613 165.19,37.271C164.494,36.929 163.984,36.422 163.66,35.75L164.83,34.94C165.034,35.468 165.388,35.864 165.892,36.128C166.396,36.392 166.99,36.524 167.674,36.524C168.382,36.524 168.922,36.398 169.294,36.146C169.666,35.894 169.852,35.576 169.852,35.192C169.852,34.844 169.678,34.565 169.33,34.355C168.982,34.145 168.37,33.962 167.494,33.806C166.63,33.65 165.946,33.461 165.442,33.239C164.938,33.017 164.572,32.735 164.344,32.393C164.116,32.051 164.002,31.628 164.002,31.124C164.002,30.632 164.146,30.182 164.434,29.774C164.722,29.366 165.136,29.039 165.676,28.793C166.216,28.547 166.84,28.424 167.548,28.424C168.508,28.424 169.279,28.601 169.861,28.955C170.443,29.309 170.86,29.852 171.112,30.584L169.888,31.304C169.696,30.728 169.405,30.314 169.015,30.062C168.625,29.81 168.136,29.684 167.548,29.684C166.96,29.684 166.462,29.816 166.054,30.08C165.646,30.344 165.442,30.65 165.442,30.998C165.442,31.394 165.619,31.7 165.973,31.916C166.327,32.132 166.96,32.318 167.872,32.474C169.12,32.678 170.002,32.984 170.518,33.392C171.034,33.8 171.292,34.376 171.292,35.12C171.292,35.636 171.139,36.095 170.833,36.497C170.527,36.899 170.089,37.214 169.519,37.442C168.949,37.67 168.286,37.784 167.53,37.784Z" style="fill:white;fill-rule:nonzero;"/>
                                <path d="M179.464,36.974C178.864,37.514 178.09,37.784 177.142,37.784C176.41,37.784 175.813,37.586 175.351,37.19C174.889,36.794 174.652,36.188 174.64,35.372L174.64,29.846L172.84,29.846L172.84,28.604L174.64,28.604L174.64,26.444L176.08,26.048L176.08,28.604L179.41,28.604L179.41,29.846L176.08,29.846L176.08,35.12C176.08,35.552 176.203,35.879 176.449,36.101C176.695,36.323 177.022,36.434 177.43,36.434C178.006,36.434 178.516,36.212 178.96,35.768L179.464,36.974Z" style="fill:white;fill-rule:nonzero;"/>
                                <path d="M182.218,26.876C181.894,26.876 181.633,26.777 181.435,26.579C181.237,26.381 181.138,26.12 181.138,25.796C181.138,25.472 181.237,25.211 181.435,25.013C181.633,24.815 181.894,24.716 182.218,24.716C182.542,24.716 182.803,24.815 183.001,25.013C183.199,25.211 183.298,25.472 183.298,25.796C183.298,26.12 183.199,26.381 183.001,26.579C182.803,26.777 182.542,26.876 182.218,26.876ZM182.938,37.604L181.498,37.604L181.498,28.604L182.938,28.604L182.938,37.604Z" style="fill:white;fill-rule:nonzero;"/>
                                <path d="M196.744,28.424C197.344,28.424 197.905,28.547 198.427,28.793C198.949,29.039 199.372,29.42 199.696,29.936C200.02,30.452 200.182,31.088 200.182,31.844L200.182,37.604L198.742,37.604L198.742,31.988C198.742,31.208 198.547,30.629 198.157,30.251C197.767,29.873 197.254,29.684 196.618,29.684C196.138,29.684 195.697,29.801 195.295,30.035C194.893,30.269 194.569,30.611 194.323,31.061C194.077,31.511 193.954,32.048 193.954,32.672L193.954,37.604L192.514,37.604L192.514,31.988C192.514,31.208 192.319,30.629 191.929,30.251C191.539,29.873 191.026,29.684 190.39,29.684C189.958,29.684 189.538,29.795 189.13,30.017C188.722,30.239 188.386,30.584 188.122,31.052C187.858,31.52 187.726,32.102 187.726,32.798L187.726,37.604L186.286,37.604L186.286,28.604L187.546,28.604L187.636,30.008C187.948,29.48 188.359,29.084 188.869,28.82C189.379,28.556 189.928,28.424 190.516,28.424C191.176,28.424 191.785,28.574 192.343,28.874C192.901,29.174 193.324,29.612 193.612,30.188C193.876,29.612 194.308,29.174 194.908,28.874C195.508,28.574 196.12,28.424 196.744,28.424Z" style="fill:white;fill-rule:nonzero;"/>
                                <path d="M210.82,36.56C211.06,36.56 211.3,36.53 211.54,36.47L211.45,37.604C211.114,37.724 210.754,37.784 210.37,37.784C209.902,37.784 209.533,37.682 209.263,37.478C208.993,37.274 208.822,36.932 208.75,36.452C208.474,36.872 208.069,37.199 207.535,37.433C207.001,37.667 206.44,37.784 205.852,37.784C204.964,37.784 204.232,37.577 203.656,37.163C203.08,36.749 202.792,36.152 202.792,35.372C202.792,34.688 203.092,34.097 203.692,33.599C204.292,33.101 205.162,32.756 206.302,32.564L208.696,32.168L208.696,31.664C208.696,31.064 208.51,30.584 208.138,30.224C207.766,29.864 207.25,29.684 206.59,29.684C205.99,29.684 205.471,29.828 205.033,30.116C204.595,30.404 204.256,30.83 204.016,31.394L202.954,30.62C203.194,29.948 203.641,29.414 204.295,29.018C204.949,28.622 205.714,28.424 206.59,28.424C207.658,28.424 208.516,28.682 209.164,29.198C209.812,29.714 210.136,30.476 210.136,31.484L210.136,35.912C210.136,36.128 210.19,36.29 210.298,36.398C210.406,36.506 210.58,36.56 210.82,36.56ZM205.924,36.524C206.68,36.524 207.331,36.344 207.877,35.984C208.423,35.624 208.696,35.156 208.696,34.58L208.696,33.338L206.68,33.716C205.876,33.86 205.276,34.067 204.88,34.337C204.484,34.607 204.286,34.952 204.286,35.372C204.286,35.744 204.43,36.029 204.718,36.227C205.006,36.425 205.408,36.524 205.924,36.524Z" style="fill:white;fill-rule:nonzero;"/>
                                <path d="M218.776,36.974C218.176,37.514 217.402,37.784 216.454,37.784C215.722,37.784 215.125,37.586 214.663,37.19C214.201,36.794 213.964,36.188 213.952,35.372L213.952,29.846L212.152,29.846L212.152,28.604L213.952,28.604L213.952,26.444L215.392,26.048L215.392,28.604L218.722,28.604L218.722,29.846L215.392,29.846L215.392,35.12C215.392,35.552 215.515,35.879 215.761,36.101C216.007,36.323 216.334,36.434 216.742,36.434C217.318,36.434 217.828,36.212 218.272,35.768L218.776,36.974Z" style="fill:white;fill-rule:nonzero;"/>
                                <path d="M221.53,26.876C221.206,26.876 220.945,26.777 220.747,26.579C220.549,26.381 220.45,26.12 220.45,25.796C220.45,25.472 220.549,25.211 220.747,25.013C220.945,24.815 221.206,24.716 221.53,24.716C221.854,24.716 222.115,24.815 222.313,25.013C222.511,25.211 222.61,25.472 222.61,25.796C222.61,26.12 222.511,26.381 222.313,26.579C222.115,26.777 221.854,26.876 221.53,26.876ZM222.25,37.604L220.81,37.604L220.81,28.604L222.25,28.604L222.25,37.604Z" style="fill:white;fill-rule:nonzero;"/>
                                <path d="M229.396,28.424C230.752,28.424 231.817,28.838 232.591,29.666C233.365,30.494 233.752,31.64 233.752,33.104C233.752,34.568 233.365,35.714 232.591,36.542C231.817,37.37 230.752,37.784 229.396,37.784C228.04,37.784 226.975,37.37 226.201,36.542C225.427,35.714 225.04,34.568 225.04,33.104C225.04,31.64 225.427,30.494 226.201,29.666C226.975,28.838 228.04,28.424 229.396,28.424ZM229.396,29.666C228.484,29.666 227.77,29.972 227.254,30.584C226.738,31.196 226.48,32.036 226.48,33.104C226.48,34.172 226.738,35.012 227.254,35.624C227.77,36.236 228.484,36.542 229.396,36.542C230.308,36.542 231.022,36.236 231.538,35.624C232.054,35.012 232.312,34.172 232.312,33.104C232.312,32.036 232.054,31.196 231.538,30.584C231.022,29.972 230.308,29.666 229.396,29.666Z" style="fill:white;fill-rule:nonzero;"/>
                                <path d="M240.916,28.424C241.936,28.424 242.776,28.718 243.436,29.306C244.096,29.894 244.426,30.74 244.426,31.844L244.426,37.604L242.986,37.604L242.986,32.348C242.986,31.412 242.785,30.734 242.383,30.314C241.981,29.894 241.444,29.684 240.772,29.684C240.292,29.684 239.842,29.789 239.422,29.999C239.002,30.209 238.657,30.551 238.387,31.025C238.117,31.499 237.982,32.096 237.982,32.816L237.982,37.604L236.542,37.604L236.542,28.604L237.802,28.604L237.892,30.008C238.192,29.468 238.606,29.069 239.134,28.811C239.662,28.553 240.256,28.424 240.916,28.424Z" style="fill:white;fill-rule:nonzero;"/>
                                <path d="M250.564,25.544C251.728,25.544 252.676,25.82 253.408,26.372C254.14,26.924 254.506,27.668 254.506,28.604C254.506,29.6 254.194,30.377 253.57,30.935C252.946,31.493 252.13,31.826 251.122,31.934L251.122,33.86L249.628,33.86L249.628,31.16C250.84,30.98 251.704,30.71 252.22,30.35C252.736,29.99 252.994,29.468 252.994,28.784C252.994,28.196 252.778,27.734 252.346,27.398C251.914,27.062 251.284,26.894 250.456,26.894C249.664,26.894 249.019,27.113 248.521,27.551C248.023,27.989 247.726,28.586 247.63,29.342L246.352,28.604C246.556,27.668 247.03,26.924 247.774,26.372C248.518,25.82 249.448,25.544 250.564,25.544ZM250.348,35.444C250.696,35.444 250.978,35.552 251.194,35.768C251.41,35.984 251.518,36.266 251.518,36.614C251.518,36.962 251.41,37.244 251.194,37.46C250.978,37.676 250.696,37.784 250.348,37.784C250,37.784 249.718,37.676 249.502,37.46C249.286,37.244 249.178,36.962 249.178,36.614C249.178,36.266 249.286,35.984 249.502,35.768C249.718,35.552 250,35.444 250.348,35.444Z" style="fill:white;fill-rule:nonzero;"/>
                                <path d="M260.32,25.544C261.484,25.544 262.432,25.82 263.164,26.372C263.896,26.924 264.262,27.668 264.262,28.604C264.262,29.6 263.95,30.377 263.326,30.935C262.702,31.493 261.886,31.826 260.878,31.934L260.878,33.86L259.384,33.86L259.384,31.16C260.596,30.98 261.46,30.71 261.976,30.35C262.492,29.99 262.75,29.468 262.75,28.784C262.75,28.196 262.534,27.734 262.102,27.398C261.67,27.062 261.04,26.894 260.212,26.894C259.42,26.894 258.775,27.113 258.277,27.551C257.779,27.989 257.482,28.586 257.386,29.342L256.108,28.604C256.312,27.668 256.786,26.924 257.53,26.372C258.274,25.82 259.204,25.544 260.32,25.544ZM260.104,35.444C260.452,35.444 260.734,35.552 260.95,35.768C261.166,35.984 261.274,36.266 261.274,36.614C261.274,36.962 261.166,37.244 260.95,37.46C260.734,37.676 260.452,37.784 260.104,37.784C259.756,37.784 259.474,37.676 259.258,37.46C259.042,37.244 258.934,36.962 258.934,36.614C258.934,36.266 259.042,35.984 259.258,35.768C259.474,35.552 259.756,35.444 260.104,35.444Z" style="fill:white;fill-rule:nonzero;"/>
                            </g>
                            <g id="ARROW-1" serif:id="ARROW 1" transform="matrix(2.10957,0,0,2.10957,-174.067,-172.042)">
                                <g transform="matrix(1.92894,0,0,1.92894,247.971,164.6)">
                                    <path d="M0,5.129C0.632,3.425 1.711,1.311 2.854,0L0,1.032L-2.853,0C-1.71,1.311 -0.632,3.425 0,5.129" style="fill:white;fill-rule:nonzero;stroke:white;stroke-width:0.15px;stroke-linejoin:round;stroke-miterlimit:1.41421;"/>
                                </g>
                                <g transform="matrix(0,-1.92894,-1.92894,0,255.415,160.064)">
                                    <path d="M-3.859,3.859L3.859,3.859" style="fill:white;fill-rule:nonzero;stroke:white;stroke-width:1.16px;"/>
                                </g>
                            </g>
                            <g transform="matrix(1,0,0,1,101.928,158.023)">
                                <path d="M152.905,19.784C152.041,19.784 151.261,19.613 150.565,19.271C149.869,18.929 149.359,18.422 149.035,17.75L150.205,16.94C150.409,17.468 150.763,17.864 151.267,18.128C151.771,18.392 152.365,18.524 153.049,18.524C153.757,18.524 154.297,18.398 154.669,18.146C155.041,17.894 155.227,17.576 155.227,17.192C155.227,16.844 155.053,16.565 154.705,16.355C154.357,16.145 153.745,15.962 152.869,15.806C152.005,15.65 151.321,15.461 150.817,15.239C150.313,15.017 149.947,14.735 149.719,14.393C149.491,14.051 149.377,13.628 149.377,13.124C149.377,12.632 149.521,12.182 149.809,11.774C150.097,11.366 150.511,11.039 151.051,10.793C151.591,10.547 152.215,10.424 152.923,10.424C153.883,10.424 154.654,10.601 155.236,10.955C155.818,11.309 156.235,11.852 156.487,12.584L155.263,13.304C155.071,12.728 154.78,12.314 154.39,12.062C154,11.81 153.511,11.684 152.923,11.684C152.335,11.684 151.837,11.816 151.429,12.08C151.021,12.344 150.817,12.65 150.817,12.998C150.817,13.394 150.994,13.7 151.348,13.916C151.702,14.132 152.335,14.318 153.247,14.474C154.495,14.678 155.377,14.984 155.893,15.392C156.409,15.8 156.667,16.376 156.667,17.12C156.667,17.636 156.514,18.095 156.208,18.497C155.902,18.899 155.464,19.214 154.894,19.442C154.324,19.67 153.661,19.784 152.905,19.784Z" style="fill:white;fill-rule:nonzero;"/>
                                <path d="M166.711,18.56C166.951,18.56 167.191,18.53 167.431,18.47L167.341,19.604C167.005,19.724 166.645,19.784 166.261,19.784C165.793,19.784 165.424,19.682 165.154,19.478C164.884,19.274 164.713,18.932 164.641,18.452C164.365,18.872 163.96,19.199 163.426,19.433C162.892,19.667 162.331,19.784 161.743,19.784C160.855,19.784 160.123,19.577 159.547,19.163C158.971,18.749 158.683,18.152 158.683,17.372C158.683,16.688 158.983,16.097 159.583,15.599C160.183,15.101 161.053,14.756 162.193,14.564L164.587,14.168L164.587,13.664C164.587,13.064 164.401,12.584 164.029,12.224C163.657,11.864 163.141,11.684 162.481,11.684C161.881,11.684 161.362,11.828 160.924,12.116C160.486,12.404 160.147,12.83 159.907,13.394L158.845,12.62C159.085,11.948 159.532,11.414 160.186,11.018C160.84,10.622 161.605,10.424 162.481,10.424C163.549,10.424 164.407,10.682 165.055,11.198C165.703,11.714 166.027,12.476 166.027,13.484L166.027,17.912C166.027,18.128 166.081,18.29 166.189,18.398C166.297,18.506 166.471,18.56 166.711,18.56ZM161.815,18.524C162.571,18.524 163.222,18.344 163.768,17.984C164.314,17.624 164.587,17.156 164.587,16.58L164.587,15.338L162.571,15.716C161.767,15.86 161.167,16.067 160.771,16.337C160.375,16.607 160.177,16.952 160.177,17.372C160.177,17.744 160.321,18.029 160.609,18.227C160.897,18.425 161.299,18.524 161.815,18.524Z" style="fill:white;fill-rule:nonzero;"/>
                                <path d="M179.977,10.424C180.577,10.424 181.138,10.547 181.66,10.793C182.182,11.039 182.605,11.42 182.929,11.936C183.253,12.452 183.415,13.088 183.415,13.844L183.415,19.604L181.975,19.604L181.975,13.988C181.975,13.208 181.78,12.629 181.39,12.251C181,11.873 180.487,11.684 179.851,11.684C179.371,11.684 178.93,11.801 178.528,12.035C178.126,12.269 177.802,12.611 177.556,13.061C177.31,13.511 177.187,14.048 177.187,14.672L177.187,19.604L175.747,19.604L175.747,13.988C175.747,13.208 175.552,12.629 175.162,12.251C174.772,11.873 174.259,11.684 173.623,11.684C173.191,11.684 172.771,11.795 172.363,12.017C171.955,12.239 171.619,12.584 171.355,13.052C171.091,13.52 170.959,14.102 170.959,14.798L170.959,19.604L169.519,19.604L169.519,10.604L170.779,10.604L170.869,12.008C171.181,11.48 171.592,11.084 172.102,10.82C172.612,10.556 173.161,10.424 173.749,10.424C174.409,10.424 175.018,10.574 175.576,10.874C176.134,11.174 176.557,11.612 176.845,12.188C177.109,11.612 177.541,11.174 178.141,10.874C178.741,10.574 179.353,10.424 179.977,10.424Z" style="fill:white;fill-rule:nonzero;"/>
                                <path d="M191.101,10.424C192.361,10.424 193.36,10.841 194.098,11.675C194.836,12.509 195.205,13.652 195.205,15.104C195.205,16.556 194.836,17.699 194.098,18.533C193.36,19.367 192.361,19.784 191.101,19.784C190.441,19.784 189.85,19.64 189.328,19.352C188.806,19.064 188.401,18.68 188.113,18.2L188.113,23.384L186.673,23.384L186.673,10.604L187.933,10.604L188.023,12.17C188.287,11.642 188.692,11.219 189.238,10.901C189.784,10.583 190.405,10.424 191.101,10.424ZM190.939,18.524C191.815,18.524 192.505,18.215 193.009,17.597C193.513,16.979 193.765,16.148 193.765,15.104C193.765,14.06 193.513,13.229 193.009,12.611C192.505,11.993 191.815,11.684 190.939,11.684C190.075,11.684 189.388,11.984 188.878,12.584C188.368,13.184 188.113,13.988 188.113,14.996L188.113,15.212C188.113,16.22 188.368,17.024 188.878,17.624C189.388,18.224 190.075,18.524 190.939,18.524Z" style="fill:white;fill-rule:nonzero;"/>
                                <path d="M199.381,17.192C199.381,17.648 199.45,17.963 199.588,18.137C199.726,18.311 199.981,18.398 200.353,18.398C200.605,18.398 200.824,18.38 201.01,18.344C201.196,18.308 201.415,18.242 201.667,18.146L201.433,19.532C201.037,19.7 200.593,19.784 200.101,19.784C199.369,19.784 198.826,19.586 198.472,19.19C198.118,18.794 197.941,18.188 197.941,17.372L197.941,6.464L199.381,6.464L199.381,17.192Z" style="fill:white;fill-rule:nonzero;"/>
                                <path d="M204.241,8.876C203.917,8.876 203.656,8.777 203.458,8.579C203.26,8.381 203.161,8.12 203.161,7.796C203.161,7.472 203.26,7.211 203.458,7.013C203.656,6.815 203.917,6.716 204.241,6.716C204.565,6.716 204.826,6.815 205.024,7.013C205.222,7.211 205.321,7.472 205.321,7.796C205.321,8.12 205.222,8.381 205.024,8.579C204.826,8.777 204.565,8.876 204.241,8.876ZM204.961,19.604L203.521,19.604L203.521,10.604L204.961,10.604L204.961,19.604Z" style="fill:white;fill-rule:nonzero;"/>
                                <path d="M212.683,10.424C213.703,10.424 214.543,10.718 215.203,11.306C215.863,11.894 216.193,12.74 216.193,13.844L216.193,19.604L214.753,19.604L214.753,14.348C214.753,13.412 214.552,12.734 214.15,12.314C213.748,11.894 213.211,11.684 212.539,11.684C212.059,11.684 211.609,11.789 211.189,11.999C210.769,12.209 210.424,12.551 210.154,13.025C209.884,13.499 209.749,14.096 209.749,14.816L209.749,19.604L208.309,19.604L208.309,10.604L209.569,10.604L209.659,12.008C209.959,11.468 210.373,11.069 210.901,10.811C211.429,10.553 212.023,10.424 212.683,10.424Z" style="fill:white;fill-rule:nonzero;"/>
                                <path d="M224.473,18.452C225.325,18.452 225.991,18.644 226.471,19.028C226.951,19.412 227.191,19.934 227.191,20.594C227.191,21.17 226.993,21.677 226.597,22.115C226.201,22.553 225.664,22.889 224.986,23.123C224.308,23.357 223.561,23.474 222.745,23.474C221.377,23.474 220.345,23.255 219.649,22.817C218.953,22.379 218.605,21.806 218.605,21.098C218.605,20.69 218.746,20.33 219.028,20.018C219.31,19.706 219.697,19.484 220.189,19.352C219.817,19.172 219.52,18.944 219.298,18.668C219.076,18.392 218.965,18.068 218.965,17.696C218.965,17.252 219.085,16.883 219.325,16.589C219.565,16.295 219.895,16.076 220.315,15.932C219.883,15.668 219.556,15.323 219.334,14.897C219.112,14.471 219.001,13.994 219.001,13.466C219.001,12.878 219.157,12.353 219.469,11.891C219.781,11.429 220.219,11.069 220.783,10.811C221.347,10.553 221.983,10.424 222.691,10.424C223.363,10.424 223.975,10.544 224.527,10.784C224.863,9.56 225.709,8.948 227.065,8.948L227.389,10.208C226.213,10.208 225.499,10.538 225.247,11.198C225.607,11.474 225.886,11.804 226.084,12.188C226.282,12.572 226.381,12.998 226.381,13.466C226.381,14.054 226.225,14.579 225.913,15.041C225.601,15.503 225.163,15.863 224.599,16.121C224.035,16.379 223.399,16.508 222.691,16.508C222.163,16.508 221.701,16.454 221.305,16.346C220.945,16.43 220.687,16.562 220.531,16.742C220.375,16.922 220.297,17.168 220.297,17.48C220.297,17.792 220.405,18.032 220.621,18.2C220.837,18.368 221.125,18.452 221.485,18.452L224.473,18.452ZM222.691,11.594C222.067,11.594 221.545,11.768 221.125,12.116C220.705,12.464 220.495,12.914 220.495,13.466C220.495,14.018 220.705,14.468 221.125,14.816C221.545,15.164 222.067,15.338 222.691,15.338C223.315,15.338 223.837,15.164 224.257,14.816C224.677,14.468 224.887,14.018 224.887,13.466C224.887,12.914 224.677,12.464 224.257,12.116C223.837,11.768 223.315,11.594 222.691,11.594ZM222.907,22.268C223.819,22.268 224.539,22.121 225.067,21.827C225.595,21.533 225.859,21.176 225.859,20.756C225.859,20.408 225.724,20.144 225.454,19.964C225.184,19.784 224.725,19.694 224.077,19.694L221.665,19.694C221.113,19.694 220.687,19.793 220.387,19.991C220.087,20.189 219.937,20.462 219.937,20.81C219.937,21.266 220.189,21.623 220.693,21.881C221.197,22.139 221.935,22.268 222.907,22.268Z" style="fill:white;fill-rule:nonzero;"/>
                            </g>
                        </g>
                    </g>
                </g>
            </g>
        </g>
    </g>
</svg>
