<?xml version="1.0" encoding="UTF-8" standalone="no"?>
<!DOCTYPE svg PUBLIC "-//W3C//DTD SVG 1.1//EN" "http://www.w3.org/Graphics/SVG/1.1/DTD/svg11.dtd">
<svg width="100%" height="100%" viewBox="0 0 1289 1685" version="1.1" xmlns="http://www.w3.org/2000/svg" xmlns:xlink="http://www.w3.org/1999/xlink" xml:space="preserve" xmlns:serif="http://www.serif.com/" style="fill-rule:evenodd;clip-rule:evenodd;">
    <g transform="matrix(4.16667,0,0,4.16667,0,0)">
        <rect x="-8.518" y="-9.308" width="328.224" height="423.752" style="fill:rgb(20,36,46);"/>
        <g id="axes_1">
            <rect id="patch_2" x="69.831" y="16.2" width="223.2" height="326.16" style="fill:none;"/>
            <g id="matplotlib.axis_1">
                <g id="xtick_1">
                    <g id="m53aa4046b0" transform="matrix(1,0,0,1,107.031,342.36)">
                        <path d="M0,0L0,9" style="fill:white;fill-rule:nonzero;stroke:white;stroke-width:1.88px;"/>
                    </g>
                    <g id="text_1" transform="matrix(1,0,0,1,107.031,371.123)">
                        <path d="M-33.072,-10.519C-31.628,-10.519 -30.484,-10.041 -29.638,-9.085C-28.793,-8.13 -28.37,-6.82 -28.37,-5.156C-28.37,-3.493 -28.793,-2.183 -29.638,-1.227C-30.484,-0.272 -31.628,0.206 -33.072,0.206C-33.828,0.206 -34.506,0.041 -35.104,-0.289C-35.702,-0.619 -36.166,-1.059 -36.496,-1.609L-36.496,4.331L-38.146,4.331L-38.146,-10.313L-36.702,-10.313L-36.599,-8.518C-36.297,-9.123 -35.833,-9.608 -35.207,-9.972C-34.581,-10.337 -33.87,-10.519 -33.072,-10.519ZM-33.258,-1.238C-32.254,-1.238 -31.463,-1.592 -30.886,-2.3C-30.308,-3.008 -30.02,-3.96 -30.02,-5.156C-30.02,-6.353 -30.308,-7.305 -30.886,-8.013C-31.463,-8.721 -32.254,-9.075 -33.258,-9.075C-34.248,-9.075 -35.035,-8.731 -35.619,-8.044C-36.204,-7.356 -36.496,-6.435 -36.496,-5.28L-36.496,-5.033C-36.496,-3.878 -36.204,-2.956 -35.619,-2.269C-35.035,-1.581 -34.248,-1.238 -33.258,-1.238Z" style="fill:rgb(235,235,235);fill-rule:nonzero;"/>
                        <path d="M-23.585,-2.764C-23.585,-2.241 -23.506,-1.88 -23.348,-1.681C-23.189,-1.482 -22.897,-1.382 -22.471,-1.382C-22.182,-1.382 -21.931,-1.403 -21.718,-1.444C-21.505,-1.485 -21.254,-1.561 -20.965,-1.671L-21.233,-0.083C-21.687,0.11 -22.196,0.206 -22.76,0.206C-23.598,0.206 -24.221,-0.021 -24.626,-0.474C-25.032,-0.928 -25.235,-1.622 -25.235,-2.558L-25.235,-15.056L-23.585,-15.056L-23.585,-2.764Z" style="fill:rgb(235,235,235);fill-rule:nonzero;"/>
                        <path d="M-10.385,-1.196C-10.11,-1.196 -9.835,-1.231 -9.56,-1.299L-9.663,0C-10.048,0.138 -10.46,0.206 -10.9,0.206C-11.437,0.206 -11.859,0.089 -12.169,-0.144C-12.478,-0.378 -12.674,-0.77 -12.757,-1.32C-13.073,-0.839 -13.537,-0.464 -14.149,-0.196C-14.761,0.072 -15.403,0.206 -16.077,0.206C-17.095,0.206 -17.933,-0.031 -18.593,-0.505C-19.253,-0.98 -19.583,-1.664 -19.583,-2.558C-19.583,-3.341 -19.24,-4.018 -18.552,-4.589C-17.865,-5.16 -16.868,-5.555 -15.562,-5.775L-12.818,-6.229L-12.818,-6.806C-12.818,-7.494 -13.032,-8.044 -13.458,-8.456C-13.884,-8.869 -14.475,-9.075 -15.232,-9.075C-15.919,-9.075 -16.514,-8.91 -17.016,-8.58C-17.518,-8.25 -17.906,-7.762 -18.181,-7.116L-19.398,-8.002C-19.123,-8.773 -18.611,-9.384 -17.861,-9.838C-17.112,-10.292 -16.235,-10.519 -15.232,-10.519C-14.008,-10.519 -13.025,-10.223 -12.282,-9.632C-11.54,-9.041 -11.168,-8.167 -11.168,-7.013L-11.168,-1.939C-11.168,-1.691 -11.107,-1.506 -10.983,-1.382C-10.859,-1.258 -10.66,-1.196 -10.385,-1.196ZM-15.995,-1.238C-15.128,-1.238 -14.383,-1.444 -13.757,-1.856C-13.131,-2.269 -12.818,-2.805 -12.818,-3.465L-12.818,-4.888L-15.128,-4.455C-16.05,-4.29 -16.737,-4.053 -17.191,-3.743C-17.645,-3.434 -17.872,-3.039 -17.872,-2.558C-17.872,-2.131 -17.707,-1.805 -17.377,-1.578C-17.047,-1.351 -16.586,-1.238 -15.995,-1.238Z" style="fill:rgb(235,235,235);fill-rule:nonzero;"/>
                        <path d="M-2.815,-10.519C-1.784,-10.519 -0.914,-10.282 -0.206,-9.807C0.502,-9.333 1.055,-8.656 1.454,-7.776L-0.113,-7.033C-0.553,-8.394 -1.468,-9.075 -2.857,-9.075C-3.888,-9.075 -4.696,-8.728 -5.28,-8.033C-5.864,-7.339 -6.157,-6.38 -6.157,-5.156C-6.157,-3.933 -5.864,-2.973 -5.28,-2.279C-4.696,-1.585 -3.888,-1.238 -2.857,-1.238C-2.059,-1.238 -1.416,-1.42 -0.928,-1.784C-0.44,-2.148 -0.12,-2.674 0.031,-3.362L1.557,-2.826C1.2,-1.863 0.65,-1.117 -0.093,-0.588C-0.835,-0.058 -1.743,0.206 -2.815,0.206C-4.369,0.206 -5.589,-0.268 -6.476,-1.217C-7.363,-2.166 -7.807,-3.479 -7.807,-5.156C-7.807,-6.834 -7.363,-8.147 -6.476,-9.096C-5.589,-10.044 -4.369,-10.519 -2.815,-10.519Z" style="fill:rgb(235,235,235);fill-rule:nonzero;"/>
                        <path d="M13.313,-5.693C13.313,-5.308 13.286,-4.923 13.231,-4.538L5.455,-4.538C5.552,-3.493 5.899,-2.681 6.497,-2.104C7.095,-1.526 7.868,-1.238 8.817,-1.238C9.573,-1.238 10.202,-1.368 10.704,-1.629C11.206,-1.891 11.547,-2.269 11.725,-2.764L13.107,-2.042C12.695,-1.313 12.145,-0.756 11.457,-0.371C10.77,0.014 9.89,0.206 8.817,0.206C7.263,0.206 6.043,-0.268 5.156,-1.217C4.269,-2.166 3.826,-3.479 3.826,-5.156C3.826,-6.834 4.249,-8.147 5.094,-9.096C5.94,-10.044 7.14,-10.519 8.693,-10.519C9.656,-10.519 10.488,-10.306 11.189,-9.879C11.89,-9.453 12.42,-8.876 12.777,-8.147C13.135,-7.418 13.313,-6.6 13.313,-5.693ZM8.693,-9.075C7.786,-9.075 7.054,-8.807 6.497,-8.271C5.94,-7.734 5.6,-6.978 5.476,-6.002L11.725,-6.002C11.615,-6.964 11.299,-7.717 10.777,-8.26C10.254,-8.803 9.56,-9.075 8.693,-9.075Z" style="fill:rgb(235,235,235);fill-rule:nonzero;"/>
                        <path d="M21.522,-10.519C22.966,-10.519 24.111,-10.041 24.956,-9.085C25.802,-8.13 26.225,-6.82 26.225,-5.156C26.225,-3.493 25.802,-2.183 24.956,-1.227C24.111,-0.272 22.966,0.206 21.522,0.206C20.725,0.206 20.013,0.024 19.387,-0.34C18.762,-0.705 18.298,-1.189 17.995,-1.794L17.892,0L16.448,0L16.448,-15.056L18.098,-15.056L18.098,-8.704C18.428,-9.254 18.892,-9.694 19.491,-10.024C20.089,-10.354 20.766,-10.519 21.522,-10.519ZM21.337,-1.238C22.34,-1.238 23.131,-1.592 23.708,-2.3C24.286,-3.008 24.575,-3.96 24.575,-5.156C24.575,-6.353 24.286,-7.305 23.708,-8.013C23.131,-8.721 22.34,-9.075 21.337,-9.075C20.347,-9.075 19.559,-8.731 18.975,-8.044C18.391,-7.356 18.098,-6.435 18.098,-5.28L18.098,-5.033C18.098,-3.878 18.391,-2.956 18.975,-2.269C19.559,-1.581 20.347,-1.238 21.337,-1.238Z" style="fill:rgb(235,235,235);fill-rule:nonzero;"/>
                        <path d="M33.794,-10.519C35.348,-10.519 36.568,-10.044 37.455,-9.096C38.342,-8.147 38.785,-6.834 38.785,-5.156C38.785,-3.479 38.342,-2.166 37.455,-1.217C36.568,-0.268 35.348,0.206 33.794,0.206C32.24,0.206 31.02,-0.268 30.133,-1.217C29.246,-2.166 28.803,-3.479 28.803,-5.156C28.803,-6.834 29.246,-8.147 30.133,-9.096C31.02,-10.044 32.24,-10.519 33.794,-10.519ZM33.794,-9.096C32.749,-9.096 31.931,-8.745 31.34,-8.044C30.748,-7.343 30.453,-6.38 30.453,-5.156C30.453,-3.933 30.748,-2.97 31.34,-2.269C31.931,-1.567 32.749,-1.217 33.794,-1.217C34.839,-1.217 35.657,-1.567 36.248,-2.269C36.84,-2.97 37.135,-3.933 37.135,-5.156C37.135,-6.38 36.84,-7.343 36.248,-8.044C35.657,-8.745 34.839,-9.096 33.794,-9.096Z" style="fill:rgb(235,235,235);fill-rule:nonzero;"/>
                    </g>
                </g>
                <g id="xtick_2">
                    <g id="m53aa4046b01" serif:id="m53aa4046b0" transform="matrix(1,0,0,1,181.431,342.36)">
                        <path d="M0,0L0,9" style="fill:white;fill-rule:nonzero;stroke:white;stroke-width:1.88px;"/>
                    </g>
                    <g id="text_2">
                        <g transform="matrix(1,0,0,1,162.514,370.881)">
                            <path d="M6.93,-10.519C8.099,-10.519 9.061,-10.182 9.818,-9.508C10.574,-8.834 10.952,-7.865 10.952,-6.6L10.952,0L9.302,0L9.302,-6.023C9.302,-7.095 9.072,-7.872 8.611,-8.353C8.15,-8.834 7.535,-9.075 6.765,-9.075C6.215,-9.075 5.699,-8.955 5.218,-8.714C4.737,-8.473 4.342,-8.082 4.032,-7.538C3.723,-6.995 3.568,-6.311 3.568,-5.486L3.568,0L1.918,0L1.918,-10.313L3.362,-10.313L3.465,-8.704C3.809,-9.323 4.283,-9.78 4.888,-10.075C5.493,-10.371 6.174,-10.519 6.93,-10.519Z" style="fill:rgb(235,235,235);fill-rule:nonzero;"/>
                            <path d="M23.533,-5.693C23.533,-5.308 23.506,-4.923 23.451,-4.538L15.675,-4.538C15.771,-3.493 16.118,-2.681 16.717,-2.104C17.315,-1.526 18.088,-1.238 19.037,-1.238C19.793,-1.238 20.422,-1.368 20.924,-1.629C21.426,-1.891 21.766,-2.269 21.945,-2.764L23.327,-2.042C22.914,-1.313 22.364,-0.756 21.677,-0.371C20.989,0.014 20.109,0.206 19.037,0.206C17.483,0.206 16.263,-0.268 15.376,-1.217C14.489,-2.166 14.046,-3.479 14.046,-5.156C14.046,-6.834 14.468,-8.147 15.314,-9.096C16.16,-10.044 17.359,-10.519 18.913,-10.519C19.876,-10.519 20.708,-10.306 21.409,-9.879C22.11,-9.453 22.639,-8.876 22.997,-8.147C23.354,-7.418 23.533,-6.6 23.533,-5.693ZM18.913,-9.075C18.006,-9.075 17.273,-8.807 16.717,-8.271C16.16,-7.734 15.819,-6.978 15.696,-6.002L21.945,-6.002C21.835,-6.964 21.519,-7.717 20.996,-8.26C20.474,-8.803 19.779,-9.075 18.913,-9.075Z" style="fill:rgb(235,235,235);fill-rule:nonzero;"/>
                            <path d="M41.394,-10.313L37.806,0L36.156,0L33.247,-8.209L30.504,0L28.854,0L25.266,-10.313L27.101,-10.313L29.7,-1.918L32.505,-10.313L34.155,-10.313L36.96,-1.918L39.559,-10.313L41.394,-10.313Z" style="fill:rgb(235,235,235);fill-rule:nonzero;"/>
                        </g>
                        <g transform="matrix(1,0,0,1,153.35,392.696)">
                            <path d="M6.621,-13.613C8.766,-13.613 10.443,-13.021 11.653,-11.839C12.863,-10.656 13.468,-8.979 13.468,-6.806C13.468,-4.634 12.863,-2.956 11.653,-1.774C10.443,-0.591 8.766,0 6.621,0L2.228,0L2.228,-13.613L6.621,-13.613ZM6.786,-1.547C8.339,-1.547 9.553,-2.011 10.426,-2.939C11.299,-3.867 11.736,-5.156 11.736,-6.806C11.736,-8.456 11.299,-9.745 10.426,-10.673C9.553,-11.602 8.339,-12.066 6.786,-12.066L3.878,-12.066L3.878,-1.547L6.786,-1.547Z" style="fill:rgb(235,235,235);fill-rule:nonzero;"/>
                            <path d="M21.553,-10.519C22.048,-10.519 22.426,-10.45 22.688,-10.313L22.357,-8.704C22.028,-8.883 21.594,-8.972 21.058,-8.972C20.618,-8.972 20.188,-8.845 19.769,-8.59C19.35,-8.336 19.006,-7.951 18.738,-7.435C18.47,-6.92 18.336,-6.298 18.336,-5.569L18.336,0L16.686,0L16.686,-10.313L18.026,-10.313L18.253,-8.621C18.831,-9.886 19.931,-10.519 21.553,-10.519Z" style="fill:rgb(235,235,235);fill-rule:nonzero;"/>
                            <path d="M34.031,-10.313L34.031,0L32.587,0L32.484,-1.567C31.797,-0.385 30.566,0.206 28.792,0.206C27.679,0.206 26.768,-0.103 26.06,-0.722C25.352,-1.341 24.998,-2.289 24.998,-3.568L24.998,-10.313L26.647,-10.313L26.647,-4.001C26.647,-2.998 26.854,-2.286 27.266,-1.867C27.679,-1.447 28.284,-1.238 29.081,-1.238C30.03,-1.238 30.817,-1.526 31.443,-2.104C32.068,-2.681 32.381,-3.548 32.381,-4.703L32.381,-10.313L34.031,-10.313Z" style="fill:rgb(235,235,235);fill-rule:nonzero;"/>
                            <path d="M43.622,-1.32C44.598,-1.32 45.361,-1.1 45.911,-0.66C46.461,-0.22 46.736,0.378 46.736,1.134C46.736,1.794 46.509,2.375 46.056,2.877C45.602,3.379 44.987,3.764 44.21,4.032C43.433,4.3 42.577,4.434 41.642,4.434C40.074,4.434 38.892,4.183 38.094,3.682C37.297,3.18 36.898,2.523 36.898,1.712C36.898,1.244 37.06,0.832 37.383,0.474C37.706,0.117 38.149,-0.138 38.713,-0.289C38.287,-0.495 37.947,-0.756 37.692,-1.073C37.438,-1.389 37.311,-1.76 37.311,-2.186C37.311,-2.695 37.448,-3.118 37.723,-3.455C37.998,-3.792 38.376,-4.043 38.857,-4.208C38.362,-4.51 37.988,-4.905 37.733,-5.393C37.479,-5.882 37.352,-6.428 37.352,-7.033C37.352,-7.707 37.531,-8.308 37.888,-8.838C38.246,-9.367 38.747,-9.78 39.394,-10.075C40.04,-10.371 40.769,-10.519 41.58,-10.519C42.35,-10.519 43.051,-10.381 43.684,-10.106C44.069,-11.509 45.038,-12.21 46.592,-12.21L46.963,-10.766C45.616,-10.766 44.798,-10.388 44.509,-9.632C44.921,-9.316 45.241,-8.938 45.468,-8.498C45.695,-8.058 45.808,-7.569 45.808,-7.033C45.808,-6.359 45.629,-5.758 45.272,-5.228C44.914,-4.699 44.412,-4.287 43.766,-3.991C43.12,-3.695 42.391,-3.548 41.58,-3.548C40.975,-3.548 40.446,-3.609 39.992,-3.733C39.579,-3.637 39.284,-3.486 39.105,-3.279C38.926,-3.073 38.837,-2.791 38.837,-2.434C38.837,-2.076 38.961,-1.801 39.208,-1.609C39.456,-1.416 39.786,-1.32 40.198,-1.32L43.622,-1.32ZM41.58,-9.178C40.865,-9.178 40.267,-8.979 39.786,-8.58C39.304,-8.181 39.064,-7.666 39.064,-7.033C39.064,-6.401 39.304,-5.885 39.786,-5.486C40.267,-5.088 40.865,-4.888 41.58,-4.888C42.295,-4.888 42.893,-5.088 43.374,-5.486C43.856,-5.885 44.096,-6.401 44.096,-7.033C44.096,-7.666 43.856,-8.181 43.374,-8.58C42.893,-8.979 42.295,-9.178 41.58,-9.178ZM41.828,3.052C42.872,3.052 43.698,2.884 44.302,2.547C44.908,2.21 45.21,1.801 45.21,1.32C45.21,0.921 45.055,0.619 44.746,0.413C44.437,0.206 43.911,0.103 43.168,0.103L40.404,0.103C39.772,0.103 39.284,0.217 38.94,0.443C38.596,0.67 38.424,0.983 38.424,1.382C38.424,1.904 38.713,2.313 39.291,2.609C39.868,2.905 40.714,3.052 41.828,3.052Z" style="fill:rgb(235,235,235);fill-rule:nonzero;"/>
                            <rect x="56.533" y="-13.613" width="1.65" height="13.613" style="fill:rgb(235,235,235);fill-rule:nonzero;"/>
                        </g>
                    </g>
                </g>
                <g id="xtick_3">
                    <g id="m53aa4046b02" serif:id="m53aa4046b0" transform="matrix(1,0,0,1,255.831,342.36)">
                        <path d="M0,0L0,9" style="fill:white;fill-rule:nonzero;stroke:white;stroke-width:1.88px;"/>
                    </g>
                    <g id="text_3">
                        <g transform="matrix(1,0,0,1,236.914,370.881)">
                            <path d="M6.93,-10.519C8.099,-10.519 9.061,-10.182 9.818,-9.508C10.574,-8.834 10.952,-7.865 10.952,-6.6L10.952,0L9.302,0L9.302,-6.023C9.302,-7.095 9.072,-7.872 8.611,-8.353C8.15,-8.834 7.535,-9.075 6.765,-9.075C6.215,-9.075 5.699,-8.955 5.218,-8.714C4.737,-8.473 4.342,-8.082 4.032,-7.538C3.723,-6.995 3.568,-6.311 3.568,-5.486L3.568,0L1.918,0L1.918,-10.313L3.362,-10.313L3.465,-8.704C3.809,-9.323 4.283,-9.78 4.888,-10.075C5.493,-10.371 6.174,-10.519 6.93,-10.519Z" style="fill:rgb(235,235,235);fill-rule:nonzero;"/>
                            <path d="M23.533,-5.693C23.533,-5.308 23.506,-4.923 23.451,-4.538L15.675,-4.538C15.771,-3.493 16.118,-2.681 16.717,-2.104C17.315,-1.526 18.088,-1.238 19.037,-1.238C19.793,-1.238 20.422,-1.368 20.924,-1.629C21.426,-1.891 21.766,-2.269 21.945,-2.764L23.327,-2.042C22.914,-1.313 22.364,-0.756 21.677,-0.371C20.989,0.014 20.109,0.206 19.037,0.206C17.483,0.206 16.263,-0.268 15.376,-1.217C14.489,-2.166 14.046,-3.479 14.046,-5.156C14.046,-6.834 14.468,-8.147 15.314,-9.096C16.16,-10.044 17.359,-10.519 18.913,-10.519C19.876,-10.519 20.708,-10.306 21.409,-9.879C22.11,-9.453 22.639,-8.876 22.997,-8.147C23.354,-7.418 23.533,-6.6 23.533,-5.693ZM18.913,-9.075C18.006,-9.075 17.273,-8.807 16.717,-8.271C16.16,-7.734 15.819,-6.978 15.696,-6.002L21.945,-6.002C21.835,-6.964 21.519,-7.717 20.996,-8.26C20.474,-8.803 19.779,-9.075 18.913,-9.075Z" style="fill:rgb(235,235,235);fill-rule:nonzero;"/>
                            <path d="M41.394,-10.313L37.806,0L36.156,0L33.247,-8.209L30.504,0L28.854,0L25.266,-10.313L27.101,-10.313L29.7,-1.918L32.505,-10.313L34.155,-10.313L36.96,-1.918L39.559,-10.313L41.394,-10.313Z" style="fill:rgb(235,235,235);fill-rule:nonzero;"/>
                        </g>
                        <g transform="matrix(1,0,0,1,224.885,392.696)">
                            <path d="M6.621,-13.613C8.766,-13.613 10.443,-13.021 11.653,-11.839C12.863,-10.656 13.468,-8.979 13.468,-6.806C13.468,-4.634 12.863,-2.956 11.653,-1.774C10.443,-0.591 8.766,0 6.621,0L2.228,0L2.228,-13.613L6.621,-13.613ZM6.786,-1.547C8.339,-1.547 9.553,-2.011 10.426,-2.939C11.299,-3.867 11.736,-5.156 11.736,-6.806C11.736,-8.456 11.299,-9.745 10.426,-10.673C9.553,-11.602 8.339,-12.066 6.786,-12.066L3.878,-12.066L3.878,-1.547L6.786,-1.547Z" style="fill:rgb(235,235,235);fill-rule:nonzero;"/>
                            <path d="M21.553,-10.519C22.048,-10.519 22.426,-10.45 22.688,-10.313L22.357,-8.704C22.028,-8.883 21.594,-8.972 21.058,-8.972C20.618,-8.972 20.188,-8.845 19.769,-8.59C19.35,-8.336 19.006,-7.951 18.738,-7.435C18.47,-6.92 18.336,-6.298 18.336,-5.569L18.336,0L16.686,0L16.686,-10.313L18.026,-10.313L18.253,-8.621C18.831,-9.886 19.931,-10.519 21.553,-10.519Z" style="fill:rgb(235,235,235);fill-rule:nonzero;"/>
                            <path d="M34.031,-10.313L34.031,0L32.587,0L32.484,-1.567C31.797,-0.385 30.566,0.206 28.792,0.206C27.679,0.206 26.768,-0.103 26.06,-0.722C25.352,-1.341 24.998,-2.289 24.998,-3.568L24.998,-10.313L26.647,-10.313L26.647,-4.001C26.647,-2.998 26.854,-2.286 27.266,-1.867C27.679,-1.447 28.284,-1.238 29.081,-1.238C30.03,-1.238 30.817,-1.526 31.443,-2.104C32.068,-2.681 32.381,-3.548 32.381,-4.703L32.381,-10.313L34.031,-10.313Z" style="fill:rgb(235,235,235);fill-rule:nonzero;"/>
                            <path d="M43.622,-1.32C44.598,-1.32 45.361,-1.1 45.911,-0.66C46.461,-0.22 46.736,0.378 46.736,1.134C46.736,1.794 46.509,2.375 46.056,2.877C45.602,3.379 44.987,3.764 44.21,4.032C43.433,4.3 42.577,4.434 41.642,4.434C40.074,4.434 38.892,4.183 38.094,3.682C37.297,3.18 36.898,2.523 36.898,1.712C36.898,1.244 37.06,0.832 37.383,0.474C37.706,0.117 38.149,-0.138 38.713,-0.289C38.287,-0.495 37.947,-0.756 37.692,-1.073C37.438,-1.389 37.311,-1.76 37.311,-2.186C37.311,-2.695 37.448,-3.118 37.723,-3.455C37.998,-3.792 38.376,-4.043 38.857,-4.208C38.362,-4.51 37.988,-4.905 37.733,-5.393C37.479,-5.882 37.352,-6.428 37.352,-7.033C37.352,-7.707 37.531,-8.308 37.888,-8.838C38.246,-9.367 38.747,-9.78 39.394,-10.075C40.04,-10.371 40.769,-10.519 41.58,-10.519C42.35,-10.519 43.051,-10.381 43.684,-10.106C44.069,-11.509 45.038,-12.21 46.592,-12.21L46.963,-10.766C45.616,-10.766 44.798,-10.388 44.509,-9.632C44.921,-9.316 45.241,-8.938 45.468,-8.498C45.695,-8.058 45.808,-7.569 45.808,-7.033C45.808,-6.359 45.629,-5.758 45.272,-5.228C44.914,-4.699 44.412,-4.287 43.766,-3.991C43.12,-3.695 42.391,-3.548 41.58,-3.548C40.975,-3.548 40.446,-3.609 39.992,-3.733C39.579,-3.637 39.284,-3.486 39.105,-3.279C38.926,-3.073 38.837,-2.791 38.837,-2.434C38.837,-2.076 38.961,-1.801 39.208,-1.609C39.456,-1.416 39.786,-1.32 40.198,-1.32L43.622,-1.32ZM41.58,-9.178C40.865,-9.178 40.267,-8.979 39.786,-8.58C39.304,-8.181 39.064,-7.666 39.064,-7.033C39.064,-6.401 39.304,-5.885 39.786,-5.486C40.267,-5.088 40.865,-4.888 41.58,-4.888C42.295,-4.888 42.893,-5.088 43.374,-5.486C43.856,-5.885 44.096,-6.401 44.096,-7.033C44.096,-7.666 43.856,-8.181 43.374,-8.58C42.893,-8.979 42.295,-9.178 41.58,-9.178ZM41.828,3.052C42.872,3.052 43.698,2.884 44.302,2.547C44.908,2.21 45.21,1.801 45.21,1.32C45.21,0.921 45.055,0.619 44.746,0.413C44.437,0.206 43.911,0.103 43.168,0.103L40.404,0.103C39.772,0.103 39.284,0.217 38.94,0.443C38.596,0.67 38.424,0.983 38.424,1.382C38.424,1.904 38.713,2.313 39.291,2.609C39.868,2.905 40.714,3.052 41.828,3.052Z" style="fill:rgb(235,235,235);fill-rule:nonzero;"/>
                            <rect x="56.533" y="-13.613" width="1.65" height="13.613" style="fill:rgb(235,235,235);fill-rule:nonzero;"/>
                            <rect x="62.638" y="-13.613" width="1.65" height="13.613" style="fill:rgb(235,235,235);fill-rule:nonzero;"/>
                        </g>
                    </g>
                </g>
            </g>
            <g id="matplotlib.axis_2">
                <g id="ytick_1">
                    <g id="meaeb2baa12" transform="matrix(1,0,0,1,69.8306,342.36)">
                        <path d="M0,0L-9,0" style="fill:white;fill-rule:nonzero;stroke:white;stroke-width:1.88px;"/>
                    </g>
                    <g id="text_4" transform="matrix(1,0,0,1,55.8306,349.741)">
                        <rect x="-23.842" y="-7.301" width="10.024" height="1.547" style="fill:rgb(235,235,235);fill-rule:nonzero;"/>
                        <path d="M-0.99,-3.568L-3.403,-3.568L-3.403,0L-5.053,0L-5.053,-3.568L-11.694,-3.568L-11.694,-4.785L-5.486,-13.613L-3.403,-13.613L-3.403,-4.991L-0.99,-4.991L-0.99,-3.568ZM-9.941,-4.991L-5.053,-4.991L-5.053,-10.086L-4.971,-12.272L-5.012,-12.272C-5.356,-11.571 -5.809,-10.814 -6.373,-10.003L-9.941,-4.991Z" style="fill:rgb(235,235,235);fill-rule:nonzero;"/>
                    </g>
                </g>
                <g id="ytick_2">
                    <g id="meaeb2baa121" serif:id="meaeb2baa12" transform="matrix(1,0,0,1,69.8306,288)">
                        <path d="M0,0L-9,0" style="fill:white;fill-rule:nonzero;stroke:white;stroke-width:1.88px;"/>
                    </g>
                    <g id="text_5" transform="matrix(1,0,0,1,55.8306,295.381)">
                        <rect x="-22.605" y="-7.301" width="10.024" height="1.547" style="fill:rgb(235,235,235);fill-rule:nonzero;"/>
                        <path d="M-6.023,-13.819C-5.129,-13.819 -4.362,-13.657 -3.723,-13.334C-3.083,-13.011 -2.599,-12.581 -2.269,-12.045C-1.939,-11.509 -1.774,-10.918 -1.774,-10.271C-1.774,-9.639 -1.891,-9.068 -2.124,-8.559C-2.358,-8.051 -2.671,-7.648 -3.063,-7.353C-3.455,-7.057 -3.877,-6.909 -4.331,-6.909L-4.331,-6.868C-3.465,-6.868 -2.771,-6.555 -2.248,-5.93C-1.726,-5.304 -1.464,-4.544 -1.464,-3.651C-1.464,-2.922 -1.66,-2.262 -2.052,-1.671C-2.444,-1.079 -3.004,-0.619 -3.733,-0.289C-4.462,0.041 -5.301,0.206 -6.249,0.206C-8.518,0.206 -10.086,-0.88 -10.952,-3.052L-9.426,-3.857C-9.151,-3.018 -8.769,-2.389 -8.281,-1.97C-7.793,-1.55 -7.074,-1.341 -6.126,-1.341C-5.204,-1.341 -4.483,-1.571 -3.96,-2.032C-3.437,-2.492 -3.176,-3.087 -3.176,-3.816C-3.176,-4.654 -3.427,-5.242 -3.929,-5.579C-4.431,-5.916 -5.225,-6.084 -6.311,-6.084L-6.847,-6.084L-6.847,-7.631L-6.311,-7.631C-4.427,-7.631 -3.486,-8.401 -3.486,-9.941C-3.486,-10.711 -3.702,-11.292 -4.135,-11.684C-4.568,-12.076 -5.191,-12.272 -6.002,-12.272C-6.799,-12.272 -7.435,-12.09 -7.91,-11.725C-8.384,-11.361 -8.711,-10.849 -8.889,-10.189L-10.436,-10.911C-10.106,-11.804 -9.546,-12.512 -8.755,-13.035C-7.965,-13.557 -7.054,-13.819 -6.023,-13.819Z" style="fill:rgb(235,235,235);fill-rule:nonzero;"/>
                    </g>
                </g>
                <g id="ytick_3">
                    <g id="meaeb2baa122" serif:id="meaeb2baa12" transform="matrix(1,0,0,1,69.8306,233.64)">
                        <path d="M0,0L-9,0" style="fill:white;fill-rule:nonzero;stroke:white;stroke-width:1.88px;"/>
                    </g>
                    <g id="text_6" transform="matrix(1,0,0,1,55.8306,241.021)">
                        <rect x="-22.626" y="-7.301" width="10.024" height="1.547" style="fill:rgb(235,235,235);fill-rule:nonzero;"/>
                        <path d="M-10.498,-1.341C-8.614,-2.729 -7.171,-3.874 -6.167,-4.775C-5.163,-5.675 -4.445,-6.493 -4.012,-7.229C-3.578,-7.965 -3.362,-8.738 -3.362,-9.549C-3.362,-10.361 -3.623,-11.017 -4.146,-11.519C-4.668,-12.021 -5.369,-12.272 -6.249,-12.272C-7.171,-12.272 -7.917,-11.969 -8.487,-11.364C-9.058,-10.759 -9.391,-9.941 -9.488,-8.91L-10.931,-9.776C-10.753,-11 -10.254,-11.98 -9.436,-12.715C-8.618,-13.451 -7.535,-13.819 -6.188,-13.819C-5.28,-13.819 -4.479,-13.64 -3.785,-13.283C-3.09,-12.925 -2.558,-12.423 -2.186,-11.777C-1.815,-11.131 -1.629,-10.388 -1.629,-9.549C-1.629,-8.669 -1.839,-7.824 -2.258,-7.013C-2.678,-6.201 -3.362,-5.349 -4.311,-4.455C-5.259,-3.561 -6.538,-2.578 -8.147,-1.506L-8.147,-1.485C-7.239,-1.526 -6.559,-1.547 -6.105,-1.547L-1.341,-1.547L-1.341,0L-10.498,0L-10.498,-1.341Z" style="fill:rgb(235,235,235);fill-rule:nonzero;"/>
                    </g>
                </g>
                <g id="ytick_4">
                    <g id="meaeb2baa123" serif:id="meaeb2baa12" transform="matrix(1,0,0,1,69.8306,179.28)">
                        <path d="M0,0L-9,0" style="fill:white;fill-rule:nonzero;stroke:white;stroke-width:1.88px;"/>
                    </g>
                    <g id="text_7" transform="matrix(1,0,0,1,55.8306,186.661)">
                        <rect x="-19.202" y="-7.301" width="10.024" height="1.547" style="fill:rgb(235,235,235);fill-rule:nonzero;"/>
                        <path d="M-2.104,-13.613L-2.104,0L-3.754,0L-3.754,-9.983C-3.754,-10.271 -3.74,-10.801 -3.712,-11.571C-4.18,-11.117 -4.723,-10.722 -5.342,-10.385C-5.961,-10.048 -6.593,-9.804 -7.239,-9.653L-7.673,-11.158C-7.343,-11.199 -6.896,-11.354 -6.332,-11.622C-5.768,-11.89 -5.225,-12.207 -4.703,-12.571C-4.18,-12.935 -3.795,-13.283 -3.547,-13.613L-2.104,-13.613Z" style="fill:rgb(235,235,235);fill-rule:nonzero;"/>
                    </g>
                </g>
                <g id="ytick_5">
                    <g id="meaeb2baa124" serif:id="meaeb2baa12" transform="matrix(1,0,0,1,69.8306,124.92)">
                        <path d="M0,0L-9,0" style="fill:white;fill-rule:nonzero;stroke:white;stroke-width:1.88px;"/>
                    </g>
                    <g id="text_8" transform="matrix(1,0,0,1,55.8306,132.301)">
                        <path d="M-6.414,0.206C-8.064,0.206 -9.323,-0.392 -10.189,-1.588C-11.055,-2.784 -11.488,-4.524 -11.488,-6.806C-11.488,-9.089 -11.055,-10.828 -10.189,-12.024C-9.323,-13.221 -8.064,-13.819 -6.414,-13.819C-4.764,-13.819 -3.506,-13.221 -2.64,-12.024C-1.774,-10.828 -1.341,-9.089 -1.341,-6.806C-1.341,-4.524 -1.774,-2.784 -2.64,-1.588C-3.506,-0.392 -4.764,0.206 -6.414,0.206ZM-6.414,-1.279C-5.328,-1.279 -4.496,-1.75 -3.919,-2.692C-3.341,-3.633 -3.052,-5.005 -3.052,-6.806C-3.052,-8.608 -3.341,-9.979 -3.919,-10.921C-4.496,-11.863 -5.328,-12.334 -6.414,-12.334C-7.501,-12.334 -8.333,-11.863 -8.91,-10.921C-9.487,-9.979 -9.776,-8.608 -9.776,-6.806C-9.776,-5.005 -9.487,-3.633 -8.91,-2.692C-8.333,-1.75 -7.501,-1.279 -6.414,-1.279Z" style="fill:rgb(235,235,235);fill-rule:nonzero;"/>
                    </g>
                </g>
                <g id="ytick_6">
                    <g id="meaeb2baa125" serif:id="meaeb2baa12" transform="matrix(1,0,0,1,69.8306,70.56)">
                        <path d="M0,0L-9,0" style="fill:white;fill-rule:nonzero;stroke:white;stroke-width:1.88px;"/>
                    </g>
                    <g id="text_9" transform="matrix(1,0,0,1,55.8306,77.9415)">
                        <path d="M-2.104,-13.613L-2.104,0L-3.754,0L-3.754,-9.983C-3.754,-10.271 -3.74,-10.801 -3.712,-11.571C-4.18,-11.117 -4.723,-10.722 -5.342,-10.385C-5.961,-10.048 -6.593,-9.804 -7.239,-9.653L-7.673,-11.158C-7.343,-11.199 -6.896,-11.354 -6.332,-11.622C-5.768,-11.89 -5.225,-12.207 -4.703,-12.571C-4.18,-12.935 -3.795,-13.283 -3.547,-13.613L-2.104,-13.613Z" style="fill:rgb(235,235,235);fill-rule:nonzero;"/>
                    </g>
                </g>
                <g id="ytick_7">
                    <g id="meaeb2baa126" serif:id="meaeb2baa12" transform="matrix(1,0,0,1,69.8306,16.2)">
                        <path d="M0,0L-9,0" style="fill:white;fill-rule:nonzero;stroke:white;stroke-width:1.88px;"/>
                    </g>
                    <g id="text_10" transform="matrix(1,0,0,1,55.8306,23.5815)">
                        <path d="M-10.498,-1.341C-8.614,-2.729 -7.171,-3.874 -6.167,-4.775C-5.163,-5.675 -4.445,-6.493 -4.012,-7.229C-3.578,-7.965 -3.362,-8.738 -3.362,-9.549C-3.362,-10.361 -3.623,-11.017 -4.146,-11.519C-4.668,-12.021 -5.369,-12.272 -6.249,-12.272C-7.171,-12.272 -7.917,-11.969 -8.487,-11.364C-9.058,-10.759 -9.391,-9.941 -9.487,-8.91L-10.931,-9.776C-10.753,-11 -10.254,-11.98 -9.436,-12.715C-8.618,-13.451 -7.535,-13.819 -6.187,-13.819C-5.28,-13.819 -4.479,-13.64 -3.785,-13.283C-3.09,-12.925 -2.557,-12.423 -2.186,-11.777C-1.815,-11.131 -1.629,-10.388 -1.629,-9.549C-1.629,-8.669 -1.839,-7.824 -2.258,-7.013C-2.678,-6.201 -3.362,-5.349 -4.311,-4.455C-5.259,-3.561 -6.538,-2.578 -8.147,-1.506L-8.147,-1.485C-7.239,-1.526 -6.559,-1.547 -6.105,-1.547L-1.341,-1.547L-1.341,0L-10.498,0L-10.498,-1.341Z" style="fill:rgb(235,235,235);fill-rule:nonzero;"/>
                    </g>
                </g>
                <g id="text_11" transform="matrix(-3.82857e-16,-1,1,-3.82857e-16,23.5793,179.28)">
                    <path d="M-92.655,-1.508L-92.655,0L-106.583,0L-106.583,-1.508L-100.688,-14.85L-98.55,-14.85L-92.655,-1.508ZM-104.94,-1.508L-94.298,-1.508L-99.63,-13.477L-104.94,-1.508Z" style="fill:rgb(235,235,235);fill-rule:nonzero;"/>
                    <path d="M-71.82,-13.163L-76.995,-13.163L-76.995,0L-78.795,0L-78.795,-13.163L-83.97,-13.163L-83.97,-14.85L-71.82,-14.85L-71.82,-13.163Z" style="fill:rgb(235,235,235);fill-rule:nonzero;"/>
                    <path d="M-60.728,-11.25L-60.728,0L-62.303,0L-62.415,-1.71C-63.165,-0.42 -64.507,0.225 -66.443,0.225C-67.658,0.225 -68.651,-0.113 -69.424,-0.788C-70.196,-1.463 -70.583,-2.498 -70.583,-3.893L-70.583,-11.25L-68.783,-11.25L-68.783,-4.365C-68.783,-3.27 -68.558,-2.494 -68.108,-2.036C-67.658,-1.579 -66.998,-1.35 -66.128,-1.35C-65.093,-1.35 -64.234,-1.665 -63.551,-2.295C-62.869,-2.925 -62.528,-3.87 -62.528,-5.13L-62.528,-11.25L-60.728,-11.25Z" style="fill:rgb(235,235,235);fill-rule:nonzero;"/>
                    <path d="M-43.47,-11.475C-42.72,-11.475 -42.019,-11.321 -41.366,-11.014C-40.714,-10.706 -40.185,-10.23 -39.78,-9.585C-39.375,-8.94 -39.173,-8.145 -39.173,-7.2L-39.173,0L-40.972,0L-40.972,-7.02C-40.972,-7.995 -41.216,-8.719 -41.704,-9.191C-42.191,-9.664 -42.832,-9.9 -43.628,-9.9C-44.228,-9.9 -44.779,-9.754 -45.281,-9.461C-45.784,-9.169 -46.189,-8.741 -46.496,-8.179C-46.804,-7.616 -46.957,-6.945 -46.957,-6.165L-46.957,0L-48.758,0L-48.758,-7.02C-48.758,-7.995 -49.001,-8.719 -49.489,-9.191C-49.976,-9.664 -50.618,-9.9 -51.412,-9.9C-51.953,-9.9 -52.478,-9.761 -52.987,-9.484C-53.497,-9.206 -53.917,-8.775 -54.247,-8.19C-54.578,-7.605 -54.743,-6.878 -54.743,-6.008L-54.743,0L-56.542,0L-56.542,-11.25L-54.968,-11.25L-54.855,-9.495C-54.465,-10.155 -53.951,-10.65 -53.314,-10.98C-52.676,-11.31 -51.99,-11.475 -51.255,-11.475C-50.43,-11.475 -49.669,-11.287 -48.971,-10.913C-48.274,-10.538 -47.745,-9.99 -47.385,-9.27C-47.055,-9.99 -46.515,-10.538 -45.765,-10.913C-45.015,-11.287 -44.25,-11.475 -43.47,-11.475Z" style="fill:rgb(235,235,235);fill-rule:nonzero;"/>
                    <path d="M-30.352,-11.475C-28.657,-11.475 -27.326,-10.958 -26.359,-9.923C-25.391,-8.888 -24.907,-7.455 -24.907,-5.625C-24.907,-3.795 -25.391,-2.363 -26.359,-1.328C-27.326,-0.293 -28.657,0.225 -30.352,0.225C-32.048,0.225 -33.379,-0.293 -34.346,-1.328C-35.314,-2.363 -35.797,-3.795 -35.797,-5.625C-35.797,-7.455 -35.314,-8.888 -34.346,-9.923C-33.379,-10.958 -32.048,-11.475 -30.352,-11.475ZM-30.352,-9.923C-31.492,-9.923 -32.385,-9.54 -33.03,-8.775C-33.675,-8.01 -33.997,-6.96 -33.997,-5.625C-33.997,-4.29 -33.675,-3.24 -33.03,-2.475C-32.385,-1.71 -31.492,-1.328 -30.352,-1.328C-29.212,-1.328 -28.32,-1.71 -27.675,-2.475C-27.03,-3.24 -26.707,-4.29 -26.707,-5.625C-26.707,-6.96 -27.03,-8.01 -27.675,-8.775C-28.32,-9.54 -29.212,-9.923 -30.352,-9.923Z" style="fill:rgb(235,235,235);fill-rule:nonzero;"/>
                    <path d="M-11.677,-11.25L-11.677,0L-13.252,0L-13.365,-1.71C-14.115,-0.42 -15.457,0.225 -17.392,0.225C-18.607,0.225 -19.601,-0.113 -20.374,-0.788C-21.146,-1.463 -21.532,-2.498 -21.532,-3.893L-21.532,-11.25L-19.732,-11.25L-19.732,-4.365C-19.732,-3.27 -19.507,-2.494 -19.057,-2.036C-18.607,-1.579 -17.947,-1.35 -17.077,-1.35C-16.042,-1.35 -15.184,-1.665 -14.501,-2.295C-13.819,-2.925 -13.477,-3.87 -13.477,-5.13L-13.477,-11.25L-11.677,-11.25Z" style="fill:rgb(235,235,235);fill-rule:nonzero;"/>
                    <path d="M-2.182,-11.475C-1.642,-11.475 -1.23,-11.4 -0.945,-11.25L-1.305,-9.495C-1.665,-9.69 -2.137,-9.788 -2.722,-9.788C-3.202,-9.788 -3.671,-9.649 -4.129,-9.371C-4.586,-9.094 -4.961,-8.674 -5.254,-8.111C-5.546,-7.549 -5.692,-6.87 -5.692,-6.075L-5.692,0L-7.492,0L-7.492,-11.25L-6.03,-11.25L-5.782,-9.405C-5.152,-10.785 -3.952,-11.475 -2.182,-11.475Z" style="fill:rgb(235,235,235);fill-rule:nonzero;"/>
                    <path d="M13.95,-15.075C16.605,-15.075 18.518,-14.025 19.688,-11.925L18.135,-10.665C17.685,-11.655 17.149,-12.356 16.526,-12.769C15.904,-13.181 15.053,-13.387 13.973,-13.387C12.833,-13.387 11.936,-13.151 11.284,-12.679C10.631,-12.206 10.305,-11.603 10.305,-10.868C10.305,-10.387 10.433,-9.99 10.688,-9.675C10.943,-9.36 11.366,-9.086 11.959,-8.854C12.551,-8.621 13.373,-8.415 14.423,-8.235C16.388,-7.905 17.779,-7.41 18.596,-6.75C19.414,-6.09 19.823,-5.175 19.823,-4.005C19.823,-3.165 19.586,-2.426 19.114,-1.789C18.641,-1.151 17.97,-0.656 17.1,-0.304C16.23,0.049 15.225,0.225 14.085,0.225C12.585,0.225 11.306,-0.068 10.249,-0.653C9.191,-1.238 8.385,-2.018 7.83,-2.993L9.383,-4.253C9.788,-3.368 10.384,-2.681 11.171,-2.194C11.959,-1.706 12.945,-1.463 14.13,-1.463C15.3,-1.463 16.23,-1.676 16.92,-2.104C17.61,-2.531 17.955,-3.135 17.955,-3.915C17.955,-4.575 17.655,-5.1 17.055,-5.49C16.455,-5.88 15.39,-6.21 13.86,-6.48C11.88,-6.825 10.478,-7.32 9.653,-7.965C8.828,-8.61 8.415,-9.51 8.415,-10.665C8.415,-11.46 8.64,-12.195 9.09,-12.87C9.54,-13.545 10.185,-14.081 11.025,-14.479C11.865,-14.876 12.84,-15.075 13.95,-15.075Z" style="fill:rgb(235,235,235);fill-rule:nonzero;"/>
                    <path d="M24.053,-13.41C23.648,-13.41 23.321,-13.534 23.074,-13.781C22.826,-14.029 22.703,-14.355 22.703,-14.76C22.703,-15.165 22.826,-15.491 23.074,-15.739C23.321,-15.986 23.648,-16.11 24.053,-16.11C24.458,-16.11 24.784,-15.986 25.031,-15.739C25.279,-15.491 25.403,-15.165 25.403,-14.76C25.403,-14.355 25.279,-14.029 25.031,-13.781C24.784,-13.534 24.458,-13.41 24.053,-13.41ZM24.953,0L23.153,0L23.153,-11.25L24.953,-11.25L24.953,0Z" style="fill:rgb(235,235,235);fill-rule:nonzero;"/>
                    <path d="M28.328,-1.373L34.223,-8.28L35.64,-9.743L33.638,-9.698L28.395,-9.698L28.395,-11.25L37.643,-11.25L37.643,-9.878L31.748,-2.97L30.353,-1.508L32.535,-1.553L37.823,-1.553L37.823,0L28.328,0L28.328,-1.373Z" style="fill:rgb(235,235,235);fill-rule:nonzero;"/>
                    <path d="M50.625,-6.21C50.625,-5.79 50.595,-5.37 50.535,-4.95L42.053,-4.95C42.158,-3.81 42.536,-2.925 43.189,-2.295C43.841,-1.665 44.685,-1.35 45.72,-1.35C46.545,-1.35 47.231,-1.493 47.779,-1.778C48.326,-2.063 48.698,-2.475 48.893,-3.015L50.4,-2.228C49.95,-1.432 49.35,-0.825 48.6,-0.405C47.85,0.015 46.89,0.225 45.72,0.225C44.025,0.225 42.694,-0.293 41.726,-1.328C40.759,-2.363 40.275,-3.795 40.275,-5.625C40.275,-7.455 40.736,-8.888 41.659,-9.923C42.581,-10.958 43.89,-11.475 45.585,-11.475C46.635,-11.475 47.543,-11.243 48.308,-10.778C49.073,-10.313 49.65,-9.682 50.04,-8.888C50.43,-8.093 50.625,-7.2 50.625,-6.21ZM45.585,-9.9C44.595,-9.9 43.796,-9.608 43.189,-9.023C42.581,-8.438 42.21,-7.613 42.075,-6.547L48.893,-6.547C48.773,-7.597 48.428,-8.419 47.858,-9.011C47.288,-9.604 46.53,-9.9 45.585,-9.9Z" style="fill:rgb(235,235,235);fill-rule:nonzero;"/>
                    <path d="M66.848,-15.862C65.378,-14.527 64.343,-13.125 63.743,-11.655C63.143,-10.185 62.843,-8.407 62.843,-6.323C62.843,-4.238 63.143,-2.46 63.743,-0.99C64.343,0.48 65.378,1.883 66.848,3.218L65.813,4.253C64.222,2.873 63.023,1.294 62.213,-0.484C61.403,-2.261 60.998,-4.208 60.998,-6.323C60.998,-8.438 61.403,-10.384 62.213,-12.161C63.023,-13.939 64.222,-15.518 65.813,-16.898L66.848,-15.862Z" style="fill:rgb(235,235,235);fill-rule:nonzero;"/>
                    <path d="M73.193,-11.475C74.318,-11.475 75.266,-11.216 76.039,-10.699C76.811,-10.181 77.415,-9.442 77.85,-8.483L76.14,-7.673C75.66,-9.158 74.663,-9.9 73.147,-9.9C72.022,-9.9 71.141,-9.521 70.504,-8.764C69.866,-8.006 69.547,-6.96 69.547,-5.625C69.547,-4.29 69.866,-3.244 70.504,-2.486C71.141,-1.729 72.022,-1.35 73.147,-1.35C74.018,-1.35 74.719,-1.549 75.251,-1.946C75.784,-2.344 76.132,-2.918 76.297,-3.668L77.962,-3.083C77.572,-2.033 76.973,-1.219 76.163,-0.641C75.352,-0.064 74.363,0.225 73.193,0.225C71.497,0.225 70.166,-0.293 69.199,-1.328C68.231,-2.363 67.747,-3.795 67.747,-5.625C67.747,-7.455 68.231,-8.888 69.199,-9.923C70.166,-10.958 71.497,-11.475 73.193,-11.475Z" style="fill:rgb(235,235,235);fill-rule:nonzero;"/>
                    <path d="M94.208,-11.475C94.957,-11.475 95.659,-11.321 96.311,-11.014C96.964,-10.706 97.492,-10.23 97.897,-9.585C98.302,-8.94 98.505,-8.145 98.505,-7.2L98.505,0L96.705,0L96.705,-7.02C96.705,-7.995 96.461,-8.719 95.974,-9.191C95.486,-9.664 94.845,-9.9 94.05,-9.9C93.45,-9.9 92.899,-9.754 92.396,-9.461C91.894,-9.169 91.489,-8.741 91.181,-8.179C90.874,-7.616 90.72,-6.945 90.72,-6.165L90.72,0L88.92,0L88.92,-7.02C88.92,-7.995 88.676,-8.719 88.189,-9.191C87.701,-9.664 87.06,-9.9 86.265,-9.9C85.725,-9.9 85.2,-9.761 84.69,-9.484C84.18,-9.206 83.76,-8.775 83.43,-8.19C83.1,-7.605 82.935,-6.878 82.935,-6.008L82.935,0L81.135,0L81.135,-11.25L82.71,-11.25L82.822,-9.495C83.212,-10.155 83.726,-10.65 84.364,-10.98C85.001,-11.31 85.687,-11.475 86.422,-11.475C87.247,-11.475 88.009,-11.287 88.706,-10.913C89.404,-10.538 89.932,-9.99 90.292,-9.27C90.622,-9.99 91.162,-10.538 91.912,-10.913C92.662,-11.287 93.428,-11.475 94.208,-11.475Z" style="fill:rgb(235,235,235);fill-rule:nonzero;"/>
                    <path d="M101.295,-16.898C102.885,-15.518 104.085,-13.939 104.895,-12.161C105.705,-10.384 106.11,-8.438 106.11,-6.323C106.11,-4.208 105.705,-2.261 104.895,-0.484C104.085,1.294 102.885,2.873 101.295,4.253L100.26,3.218C101.73,1.883 102.765,0.48 103.365,-0.99C103.965,-2.46 104.265,-4.238 104.265,-6.323C104.265,-8.407 103.965,-10.185 103.365,-11.655C102.765,-13.125 101.73,-14.527 100.26,-15.862L101.295,-16.898Z" style="fill:rgb(235,235,235);fill-rule:nonzero;"/>
                </g>
            </g>
            <rect id="patch_3" x="77.271" y="46.766" width="59.52" height="78.154" style="fill:rgb(42,142,113);fill-opacity:0.9;fill-rule:nonzero;"/>
            <rect id="patch_4" x="151.671" y="124.92" width="59.52" height="52.108" style="fill:rgb(190,99,29);fill-opacity:0.9;fill-rule:nonzero;"/>
            <rect id="patch_5" x="226.071" y="124.92" width="59.52" height="97.63" style="fill:rgb(188,137,98);fill-opacity:0.9;fill-rule:nonzero;"/>
            <path id="line2d_11" d="M107.031,74.917L107.031,20.475" style="fill:none;stroke:rgb(161,161,161);stroke-width:4.05px;stroke-linecap:round;"/>
            <path id="line2d_12" d="M181.431,193.562L181.431,159.89" style="fill:none;stroke:rgb(161,161,161);stroke-width:4.05px;stroke-linecap:round;"/>
            <path id="line2d_13" d="M255.831,309.397L255.831,137.917" style="fill:none;stroke:rgb(161,161,161);stroke-width:4.05px;stroke-linecap:round;"/>
            <path id="line2d_14" d="M69.831,124.92L293.031,124.92" style="fill:none;stroke:white;stroke-width:2.25px;stroke-linecap:round;"/>
            <path id="patch_6" d="M69.831,342.36L69.831,16.2" style="fill:none;stroke:white;stroke-width:1.88px;stroke-linecap:square;"/>
            <path id="patch_7" d="M107.031,342.36L255.831,342.36" style="fill:none;stroke:white;stroke-width:1.88px;stroke-linecap:square;"/>
            <g id="text_12" transform="matrix(1,0,0,1,181.431,231.388)">
                <path d="M3.29,-14.77L5.74,-11.34L3.92,-10.01L1.4,-13.405L0,-15.96L-1.4,-13.405L-3.92,-10.01L-5.74,-11.34L-3.29,-14.77L-1.295,-16.905L-4.165,-17.465L-8.155,-18.795L-7.49,-20.93L-3.43,-19.67L-0.805,-18.445L-1.155,-21.315L-1.155,-25.55L1.155,-25.55L1.155,-21.315L0.805,-18.445L3.43,-19.67L7.49,-20.93L8.155,-18.795L4.165,-17.465L1.295,-16.905L3.29,-14.77Z" style="fill:white;fill-rule:nonzero;"/>
            </g>
            <g id="text_13" transform="matrix(1,0,0,1,255.831,331.27)">
                <path d="M-7.369,0L-9.596,0L-15.806,-9.945L-17.381,-12.87L-17.404,-12.87L-17.314,-10.485L-17.314,0L-19.024,0L-19.024,-14.85L-16.796,-14.85L-10.609,-4.95L-9.011,-1.98L-8.989,-1.98L-9.079,-4.365L-9.079,-14.85L-7.369,-14.85L-7.369,0Z" style="fill:white;fill-rule:nonzero;"/>
                <path d="M-1.946,-2.7C-1.511,-2.7 -1.159,-2.565 -0.889,-2.295C-0.619,-2.025 -0.484,-1.673 -0.484,-1.238C-0.484,-0.803 -0.619,-0.45 -0.889,-0.18C-1.159,0.09 -1.511,0.225 -1.946,0.225C-2.381,0.225 -2.734,0.09 -3.004,-0.18C-3.274,-0.45 -3.409,-0.803 -3.409,-1.238C-3.409,-1.673 -3.274,-2.025 -3.004,-2.295C-2.734,-2.565 -2.381,-2.7 -1.946,-2.7Z" style="fill:white;fill-rule:nonzero;"/>
                <path d="M8.246,-15.075C10.901,-15.075 12.814,-14.025 13.984,-11.925L12.431,-10.665C11.981,-11.655 11.445,-12.356 10.823,-12.769C10.2,-13.181 9.349,-13.387 8.269,-13.387C7.129,-13.387 6.233,-13.151 5.58,-12.679C4.928,-12.206 4.601,-11.603 4.601,-10.868C4.601,-10.387 4.729,-9.99 4.984,-9.675C5.239,-9.36 5.663,-9.086 6.255,-8.854C6.848,-8.621 7.669,-8.415 8.719,-8.235C10.684,-7.905 12.075,-7.41 12.893,-6.75C13.71,-6.09 14.119,-5.175 14.119,-4.005C14.119,-3.165 13.883,-2.426 13.41,-1.789C12.938,-1.151 12.266,-0.656 11.396,-0.304C10.526,0.049 9.521,0.225 8.381,0.225C6.881,0.225 5.603,-0.068 4.545,-0.653C3.488,-1.238 2.681,-2.018 2.126,-2.993L3.679,-4.253C4.084,-3.368 4.68,-2.681 5.468,-2.194C6.255,-1.706 7.241,-1.463 8.426,-1.463C9.596,-1.463 10.526,-1.676 11.216,-2.104C11.906,-2.531 12.251,-3.135 12.251,-3.915C12.251,-4.575 11.951,-5.1 11.351,-5.49C10.751,-5.88 9.686,-6.21 8.156,-6.48C6.176,-6.825 4.774,-7.32 3.949,-7.965C3.124,-8.61 2.711,-9.51 2.711,-10.665C2.711,-11.46 2.936,-12.195 3.386,-12.87C3.836,-13.545 4.481,-14.081 5.321,-14.479C6.161,-14.876 7.136,-15.075 8.246,-15.075Z" style="fill:white;fill-rule:nonzero;"/>
                <path d="M18.461,-2.7C18.896,-2.7 19.249,-2.565 19.519,-2.295C19.789,-2.025 19.924,-1.673 19.924,-1.238C19.924,-0.803 19.789,-0.45 19.519,-0.18C19.249,0.09 18.896,0.225 18.461,0.225C18.026,0.225 17.674,0.09 17.404,-0.18C17.134,-0.45 16.999,-0.803 16.999,-1.238C16.999,-1.673 17.134,-2.025 17.404,-2.295C17.674,-2.565 18.026,-2.7 18.461,-2.7Z" style="fill:white;fill-rule:nonzero;"/>
            </g>
        </g>
    </g>
</svg>
