<?xml version="1.0" encoding="utf-8" standalone="no"?>
<!DOCTYPE svg PUBLIC "-//W3C//DTD SVG 1.1//EN"
  "http://www.w3.org/Graphics/SVG/1.1/DTD/svg11.dtd">
<!-- Created with matplotlib (http://matplotlib.org/) -->
<svg height="760.948223pt" version="1.1" viewBox="0 0 785.385547 760.948223" width="785.385547pt" xmlns="http://www.w3.org/2000/svg" xmlns:xlink="http://www.w3.org/1999/xlink">
 <defs>
  <style type="text/css">
*{stroke-linecap:butt;stroke-linejoin:round;}
  </style>
 </defs>
 <g id="figure_1">
  <g id="patch_1">
   <path d="M 0 760.948223 
L 785.385547 760.948223 
L 785.385547 0 
L 0 0 
z
" style="fill:none;"/>
  </g>
  <g id="axes_1">
   <g id="patch_2">
    <path d="M 96.793848 134.667684 
L 766.393848 134.667684 
L 766.393848 30.296484 
L 96.793848 30.296484 
z
" style="fill:none;"/>
   </g>
   <g id="PolyCollection_1">
    <path clip-path="url(#pf5c6e03aa9)" d="M -274.384859 134.666747 
L -274.384859 134.667684 
L -262.487219 134.667684 
L -250.58958 134.667684 
L -238.691941 134.667684 
L -226.794302 134.667684 
L -214.896662 134.667684 
L -202.999023 134.667684 
L -191.101384 134.667684 
L -179.203745 134.667684 
L -167.306105 134.667684 
L -155.408466 134.667684 
L -143.510827 134.667684 
L -131.613188 134.667684 
L -119.715548 134.667684 
L -107.817909 134.667684 
L -95.92027 134.667684 
L -84.022631 134.667684 
L -72.124992 134.667684 
L -60.227352 134.667684 
L -48.329713 134.667684 
L -36.432074 134.667684 
L -24.534435 134.667684 
L -12.636795 134.667684 
L -0.739156 134.667684 
L 11.158483 134.667684 
L 23.056122 134.667684 
L 34.953762 134.667684 
L 46.851401 134.667684 
L 58.74904 134.667684 
L 70.646679 134.667684 
L 82.544319 134.667684 
L 94.441958 134.667684 
L 106.339597 134.667684 
L 118.237236 134.667684 
L 130.134876 134.667684 
L 142.032515 134.667684 
L 153.930154 134.667684 
L 165.827793 134.667684 
L 177.725433 134.667684 
L 189.623072 134.667684 
L 201.520711 134.667684 
L 213.41835 134.667684 
L 225.31599 134.667684 
L 237.213629 134.667684 
L 249.111268 134.667684 
L 261.008907 134.667684 
L 272.906547 134.667684 
L 284.804186 134.667684 
L 296.701825 134.667684 
L 308.599464 134.667684 
L 320.497104 134.667684 
L 332.394743 134.667684 
L 344.292382 134.667684 
L 356.190021 134.667684 
L 368.087661 134.667684 
L 379.9853 134.667684 
L 391.882939 134.667684 
L 403.780578 134.667684 
L 415.678218 134.667684 
L 427.575857 134.667684 
L 439.473496 134.667684 
L 451.371135 134.667684 
L 463.268775 134.667684 
L 475.166414 134.667684 
L 487.064053 134.667684 
L 498.961692 134.667684 
L 510.859332 134.667684 
L 522.756971 134.667684 
L 534.65461 134.667684 
L 546.552249 134.667684 
L 558.449889 134.667684 
L 570.347528 134.667684 
L 582.245167 134.667684 
L 594.142806 134.667684 
L 606.040446 134.667684 
L 617.938085 134.667684 
L 629.835724 134.667684 
L 641.733363 134.667684 
L 653.631003 134.667684 
L 665.528642 134.667684 
L 677.426281 134.667684 
L 689.32392 134.667684 
L 701.22156 134.667684 
L 713.119199 134.667684 
L 725.016838 134.667684 
L 736.914477 134.667684 
L 748.812117 134.667684 
L 760.709756 134.667684 
L 772.607395 134.667684 
L 784.505034 134.667684 
L 796.402674 134.667684 
L 808.300313 134.667684 
L 820.197952 134.667684 
L 832.095591 134.667684 
L 843.993231 134.667684 
L 855.89087 134.667684 
L 867.788509 134.667684 
L 879.686148 134.667684 
L 891.583788 134.667684 
L 903.481427 134.667684 
L 915.379066 134.667684 
L 927.276705 134.667684 
L 939.174345 134.667684 
L 951.071984 134.667684 
L 962.969623 134.667684 
L 974.867262 134.667684 
L 986.764902 134.667684 
L 998.662541 134.667684 
L 1010.56018 134.667684 
L 1022.457819 134.667684 
L 1034.355459 134.667684 
L 1046.253098 134.667684 
L 1058.150737 134.667684 
L 1070.048376 134.667684 
L 1081.946016 134.667684 
L 1093.843655 134.667684 
L 1105.741294 134.667684 
L 1117.638933 134.667684 
L 1129.536572 134.667684 
L 1141.434212 134.667684 
L 1153.331851 134.667684 
L 1165.22949 134.667684 
L 1177.127129 134.667684 
L 1189.024769 134.667684 
L 1200.922408 134.667684 
L 1212.820047 134.667684 
L 1224.717686 134.667684 
L 1236.615326 134.667684 
L 1236.615326 134.666747 
L 1236.615326 134.666747 
L 1224.717686 134.665128 
L 1212.820047 134.66074 
L 1200.922408 134.651965 
L 1189.024769 134.638397 
L 1177.127129 134.622828 
L 1165.22949 134.611243 
L 1153.331851 134.609376 
L 1141.434212 134.618259 
L 1129.536572 134.633322 
L 1117.638933 134.64806 
L 1105.741294 134.658286 
L 1093.843655 134.663143 
L 1081.946016 134.663198 
L 1070.048376 134.658371 
L 1058.150737 134.647631 
L 1046.253098 134.630152 
L 1034.355459 134.605642 
L 1022.457819 134.571379 
L 1010.56018 134.517557 
L 998.662541 134.427683 
L 986.764902 134.28818 
L 974.867262 134.100017 
L 962.969623 133.879081 
L 951.071984 133.642671 
L 939.174345 133.396508 
L 927.276705 133.137867 
L 915.379066 132.871037 
L 903.481427 132.61244 
L 891.583788 132.370248 
L 879.686148 132.114869 
L 867.788509 131.774409 
L 855.89087 131.263689 
L 843.993231 130.516448 
L 832.095591 129.494376 
L 820.197952 128.185342 
L 808.300313 126.613012 
L 796.402674 124.848423 
L 784.505034 122.994816 
L 772.607395 121.141266 
L 760.709756 119.318054 
L 748.812117 117.486685 
L 736.914477 115.554607 
L 725.016838 113.3858 
L 713.119199 110.818669 
L 701.22156 107.723103 
L 689.32392 104.075526 
L 677.426281 99.985372 
L 665.528642 95.640766 
L 653.631003 91.211344 
L 641.733363 86.775264 
L 629.835724 82.306568 
L 617.938085 77.718526 
L 606.040446 72.944705 
L 594.142806 68.017826 
L 582.245167 63.088434 
L 570.347528 58.377578 
L 558.449889 54.114406 
L 546.552249 50.475753 
L 534.65461 47.518742 
L 522.756971 45.152892 
L 510.859332 43.201355 
L 498.961692 41.50974 
L 487.064053 40.023302 
L 475.166414 38.798527 
L 463.268775 37.942011 
L 451.371135 37.498922 
L 439.473496 37.401104 
L 427.575857 37.591666 
L 415.678218 38.23255 
L 403.780578 39.700882 
L 391.882939 42.254562 
L 379.9853 45.680686 
L 368.087661 49.353665 
L 356.190021 52.700167 
L 344.292382 55.611831 
L 332.394743 58.428864 
L 320.497104 61.596561 
L 308.599464 65.366907 
L 296.701825 69.737882 
L 284.804186 74.541582 
L 272.906547 79.544658 
L 261.008907 84.52332 
L 249.111268 89.315174 
L 237.213629 93.834929 
L 225.31599 98.053796 
L 213.41835 101.968326 
L 201.520711 105.580218 
L 189.623072 108.887618 
L 177.725433 111.8821 
L 165.827793 114.555761 
L 153.930154 116.924896 
L 142.032515 119.053667 
L 130.134876 121.043422 
L 118.237236 122.97937 
L 106.339597 124.872116 
L 94.441958 126.643155 
L 82.544319 128.171247 
L 70.646679 129.370139 
L 58.74904 130.243839 
L 46.851401 130.883298 
L 34.953762 131.411136 
L 23.056122 131.914334 
L 11.158483 132.409796 
L -0.739156 132.862087 
L -12.636795 133.231915 
L -24.534435 133.5125 
L -36.432074 133.729353 
L -48.329713 133.915085 
L -60.227352 134.087392 
L -72.124992 134.2455 
L -84.022631 134.379461 
L -95.92027 134.480022 
L -107.817909 134.544033 
L -119.715548 134.576511 
L -131.613188 134.589043 
L -143.510827 134.593736 
L -155.408466 134.59687 
L -167.306105 134.598626 
L -179.203745 134.598687 
L -191.101384 134.600281 
L -202.999023 134.607775 
L -214.896662 134.621745 
L -226.794302 134.638119 
L -238.691941 134.651907 
L -250.58958 134.66073 
L -262.487219 134.665127 
L -274.384859 134.666747 
z
" style="fill:#1a9e78;fill-opacity:0.25;stroke:#ffffff;stroke-opacity:0.25;stroke-width:1.5;"/>
   </g>
   <g id="PolyCollection_2">
    <path clip-path="url(#pf5c6e03aa9)" d="M -233.923579 134.666064 
L -233.923579 134.667684 
L -223.023836 134.667684 
L -212.124093 134.667684 
L -201.22435 134.667684 
L -190.324607 134.667684 
L -179.424864 134.667684 
L -168.525121 134.667684 
L -157.625378 134.667684 
L -146.725636 134.667684 
L -135.825893 134.667684 
L -124.92615 134.667684 
L -114.026407 134.667684 
L -103.126664 134.667684 
L -92.226921 134.667684 
L -81.327178 134.667684 
L -70.427435 134.667684 
L -59.527692 134.667684 
L -48.62795 134.667684 
L -37.728207 134.667684 
L -26.828464 134.667684 
L -15.928721 134.667684 
L -5.028978 134.667684 
L 5.870765 134.667684 
L 16.770508 134.667684 
L 27.670251 134.667684 
L 38.569994 134.667684 
L 49.469736 134.667684 
L 60.369479 134.667684 
L 71.269222 134.667684 
L 82.168965 134.667684 
L 93.068708 134.667684 
L 103.968451 134.667684 
L 114.868194 134.667684 
L 125.767937 134.667684 
L 136.66768 134.667684 
L 147.567422 134.667684 
L 158.467165 134.667684 
L 169.366908 134.667684 
L 180.266651 134.667684 
L 191.166394 134.667684 
L 202.066137 134.667684 
L 212.96588 134.667684 
L 223.865623 134.667684 
L 234.765366 134.667684 
L 245.665108 134.667684 
L 256.564851 134.667684 
L 267.464594 134.667684 
L 278.364337 134.667684 
L 289.26408 134.667684 
L 300.163823 134.667684 
L 311.063566 134.667684 
L 321.963309 134.667684 
L 332.863052 134.667684 
L 343.762794 134.667684 
L 354.662537 134.667684 
L 365.56228 134.667684 
L 376.462023 134.667684 
L 387.361766 134.667684 
L 398.261509 134.667684 
L 409.161252 134.667684 
L 420.060995 134.667684 
L 430.960737 134.667684 
L 441.86048 134.667684 
L 452.760223 134.667684 
L 463.659966 134.667684 
L 474.559709 134.667684 
L 485.459452 134.667684 
L 496.359195 134.667684 
L 507.258938 134.667684 
L 518.158681 134.667684 
L 529.058423 134.667684 
L 539.958166 134.667684 
L 550.857909 134.667684 
L 561.757652 134.667684 
L 572.657395 134.667684 
L 583.557138 134.667684 
L 594.456881 134.667684 
L 605.356624 134.667684 
L 616.256367 134.667684 
L 627.156109 134.667684 
L 638.055852 134.667684 
L 648.955595 134.667684 
L 659.855338 134.667684 
L 670.755081 134.667684 
L 681.654824 134.667684 
L 692.554567 134.667684 
L 703.45431 134.667684 
L 714.354053 134.667684 
L 725.253795 134.667684 
L 736.153538 134.667684 
L 747.053281 134.667684 
L 757.953024 134.667684 
L 768.852767 134.667684 
L 779.75251 134.667684 
L 790.652253 134.667684 
L 801.551996 134.667684 
L 812.451739 134.667684 
L 823.351481 134.667684 
L 834.251224 134.667684 
L 845.150967 134.667684 
L 856.05071 134.667684 
L 866.950453 134.667684 
L 877.850196 134.667684 
L 888.749939 134.667684 
L 899.649682 134.667684 
L 910.549425 134.667684 
L 921.449167 134.667684 
L 932.34891 134.667684 
L 943.248653 134.667684 
L 954.148396 134.667684 
L 965.048139 134.667684 
L 975.947882 134.667684 
L 986.847625 134.667684 
L 997.747368 134.667684 
L 1008.647111 134.667684 
L 1019.546853 134.667684 
L 1030.446596 134.667684 
L 1041.346339 134.667684 
L 1052.246082 134.667684 
L 1063.145825 134.667684 
L 1074.045568 134.667684 
L 1084.945311 134.667684 
L 1095.845054 134.667684 
L 1106.744797 134.667684 
L 1117.644539 134.667684 
L 1128.544282 134.667684 
L 1139.444025 134.667684 
L 1150.343768 134.667684 
L 1150.343768 134.666587 
L 1150.343768 134.666587 
L 1139.444025 134.665394 
L 1128.544282 134.661911 
L 1117.644539 134.654938 
L 1106.744797 134.643789 
L 1095.845054 134.629724 
L 1084.945311 134.616565 
L 1074.045568 134.609251 
L 1063.145825 134.610731 
L 1052.246082 134.619492 
L 1041.346339 134.629751 
L 1030.446596 134.633893 
L 1019.546853 134.625226 
L 1008.647111 134.600116 
L 997.747368 134.559646 
L 986.847625 134.510104 
L 975.947882 134.460507 
L 965.048139 134.417088 
L 954.148396 134.378148 
L 943.248653 134.333275 
L 932.34891 134.267271 
L 921.449167 134.165516 
L 910.549425 134.017962 
L 899.649682 133.821466 
L 888.749939 133.579953 
L 877.850196 133.300089 
L 866.950453 132.982691 
L 856.05071 132.616607 
L 845.150967 132.182322 
L 834.251224 131.663211 
L 823.351481 131.05507 
L 812.451739 130.367933 
L 801.551996 129.619281 
L 790.652253 128.81721 
L 779.75251 127.937797 
L 768.852767 126.916788 
L 757.953024 125.674998 
L 747.053281 124.161927 
L 736.153538 122.372152 
L 725.253795 120.315875 
L 714.354053 117.985021 
L 703.45431 115.36772 
L 692.554567 112.501994 
L 681.654824 109.499406 
L 670.755081 106.49109 
L 659.855338 103.532599 
L 648.955595 100.556637 
L 638.055852 97.424753 
L 627.156109 94.038719 
L 616.256367 90.417708 
L 605.356624 86.676933 
L 594.456881 82.927398 
L 583.557138 79.182555 
L 572.657395 75.353438 
L 561.757652 71.34237 
L 550.857909 67.160112 
L 539.958166 62.964163 
L 529.058423 58.981916 
L 518.158681 55.386494 
L 507.258938 52.227121 
L 496.359195 49.449684 
L 485.459452 46.964466 
L 474.559709 44.704203 
L 463.659966 42.64461 
L 452.760223 40.786844 
L 441.86048 39.127673 
L 430.960737 37.661169 
L 420.060995 36.427647 
L 409.161252 35.561214 
L 398.261509 35.266542 
L 387.361766 35.721252 
L 376.462023 36.985266 
L 365.56228 38.997988 
L 354.662537 41.649808 
L 343.762794 44.838584 
L 332.863052 48.457611 
L 321.963309 52.35267 
L 311.063566 56.312232 
L 300.163823 60.109652 
L 289.26408 63.580159 
L 278.364337 66.706067 
L 267.464594 69.659582 
L 256.564851 72.739036 
L 245.665108 76.200758 
L 234.765366 80.100765 
L 223.865623 84.278862 
L 212.96588 88.490757 
L 202.066137 92.556922 
L 191.166394 96.405639 
L 180.266651 100.017178 
L 169.366908 103.366495 
L 158.467165 106.426182 
L 147.567422 109.201735 
L 136.66768 111.742136 
L 125.767937 114.115164 
L 114.868194 116.378806 
L 103.968451 118.56651 
L 93.068708 120.675447 
L 82.168965 122.656742 
L 71.269222 124.431579 
L 60.369479 125.940611 
L 49.469736 127.18845 
L 38.569994 128.237553 
L 27.670251 129.155358 
L 16.770508 129.966919 
L 5.870765 130.657049 
L -5.028978 131.213373 
L -15.928721 131.662525 
L -26.828464 132.063779 
L -37.728207 132.469429 
L -48.62795 132.890709 
L -59.527692 133.297354 
L -70.427435 133.645928 
L -81.327178 133.91025 
L -92.226921 134.091935 
L -103.126664 134.210345 
L -114.026407 134.287313 
L -124.92615 134.339903 
L -135.825893 134.38132 
L -146.725636 134.422313 
L -157.625378 134.469096 
L -168.525121 134.520804 
L -179.424864 134.570806 
L -190.324607 134.611638 
L -201.22435 134.639554 
L -212.124093 134.655518 
L -223.023836 134.663136 
L -233.923579 134.666064 
z
" style="fill:#d95f02;fill-opacity:0.25;stroke:#ffffff;stroke-opacity:0.25;stroke-width:1.5;"/>
   </g>
   <g id="line2d_1">
    <path clip-path="url(#pf5c6e03aa9)" d="M -1 132.870195 
L 11.158483 132.409796 
L 46.851401 130.883298 
L 58.74904 130.243839 
L 70.646679 129.370139 
L 82.544319 128.171247 
L 94.441958 126.643155 
L 106.339597 124.872116 
L 130.134876 121.043422 
L 142.032515 119.053667 
L 153.930154 116.924896 
L 165.827793 114.555761 
L 177.725433 111.8821 
L 189.623072 108.887618 
L 201.520711 105.580218 
L 213.41835 101.968326 
L 225.31599 98.053796 
L 237.213629 93.834929 
L 249.111268 89.315174 
L 261.008907 84.52332 
L 284.804186 74.541582 
L 296.701825 69.737882 
L 308.599464 65.366907 
L 320.497104 61.596561 
L 332.394743 58.428864 
L 356.190021 52.700167 
L 368.087661 49.353665 
L 379.9853 45.680686 
L 391.882939 42.254562 
L 403.780578 39.700882 
L 415.678218 38.23255 
L 427.575857 37.591666 
L 439.473496 37.401104 
L 451.371135 37.498922 
L 463.268775 37.942011 
L 475.166414 38.798527 
L 487.064053 40.023302 
L 498.961692 41.50974 
L 510.859332 43.201355 
L 522.756971 45.152892 
L 534.65461 47.518742 
L 546.552249 50.475753 
L 558.449889 54.114406 
L 570.347528 58.377578 
L 582.245167 63.088434 
L 606.040446 72.944705 
L 617.938085 77.718526 
L 629.835724 82.306568 
L 665.528642 95.640766 
L 677.426281 99.985372 
L 689.32392 104.075526 
L 701.22156 107.723103 
L 713.119199 110.818669 
L 725.016838 113.3858 
L 736.914477 115.554607 
L 760.709756 119.318054 
L 786.385547 123.287793 
L 786.385547 123.287793 
" style="fill:none;"/>
   </g>
   <g id="line2d_2">
    <path clip-path="url(#pf5c6e03aa9)" d="M -1 131.007734 
L 5.870765 130.657049 
L 16.770508 129.966919 
L 38.569994 128.237553 
L 49.469736 127.18845 
L 60.369479 125.940611 
L 71.269222 124.431579 
L 82.168965 122.656742 
L 93.068708 120.675447 
L 114.868194 116.378806 
L 136.66768 111.742136 
L 147.567422 109.201735 
L 158.467165 106.426182 
L 169.366908 103.366495 
L 180.266651 100.017178 
L 191.166394 96.405639 
L 202.066137 92.556922 
L 212.96588 88.490757 
L 234.765366 80.100765 
L 245.665108 76.200758 
L 256.564851 72.739036 
L 267.464594 69.659582 
L 278.364337 66.706067 
L 289.26408 63.580159 
L 300.163823 60.109652 
L 311.063566 56.312232 
L 332.863052 48.457611 
L 343.762794 44.838584 
L 354.662537 41.649808 
L 365.56228 38.997988 
L 376.462023 36.985266 
L 387.361766 35.721252 
L 398.261509 35.266542 
L 409.161252 35.561214 
L 420.060995 36.427647 
L 430.960737 37.661169 
L 441.86048 39.127673 
L 452.760223 40.786844 
L 463.659966 42.64461 
L 474.559709 44.704203 
L 485.459452 46.964466 
L 496.359195 49.449684 
L 507.258938 52.227121 
L 518.158681 55.386494 
L 529.058423 58.981916 
L 539.958166 62.964163 
L 561.757652 71.34237 
L 572.657395 75.353438 
L 594.456881 82.927398 
L 616.256367 90.417708 
L 627.156109 94.038719 
L 638.055852 97.424753 
L 648.955595 100.556637 
L 703.45431 115.36772 
L 714.354053 117.985021 
L 725.253795 120.315875 
L 736.153538 122.372152 
L 747.053281 124.161927 
L 757.953024 125.674998 
L 768.852767 126.916788 
L 786.385547 128.472964 
L 786.385547 128.472964 
" style="fill:none;"/>
   </g>
   <g id="line2d_3">
    <path clip-path="url(#pf5c6e03aa9)" d="M 451.287965 134.667684 
L 451.287965 30.296484 
" style="fill:none;stroke:#1a9e78;stroke-dasharray:2,3.3;stroke-dashoffset:0;stroke-width:2;"/>
   </g>
   <g id="line2d_4">
    <path clip-path="url(#pf5c6e03aa9)" d="M 411.89973 134.667684 
L 411.89973 30.296484 
" style="fill:none;stroke:#d95f02;stroke-dasharray:2,3.3;stroke-dashoffset:0;stroke-width:2;"/>
   </g>
   <g id="text_1">
    <text style="fill:#ffffff;font-family:Open Sans;font-size:22.5px;font-style:normal;font-weight:normal;text-anchor:middle;" transform="rotate(-0, 431.593848, 24.296484)" x="431.593848" y="24.296484">All Tumours in the Universe</text>
   </g>
  </g>
  <g id="axes_2">
   <g id="patch_3">
    <path d="M 96.793848 317.317284 
L 766.393848 317.317284 
L 766.393848 212.946084 
L 96.793848 212.946084 
z
" style="fill:none;"/>
   </g>
   <g id="matplotlib.axis_1">
    <g id="xtick_1">
     <g id="line2d_5">
      <defs>
       <path d="M 0 0 
L 0 9 
" id="mb23dc95d68" style="stroke:#ffffff;stroke-width:1.875;"/>
      </defs>
      <g>
       <use style="fill:#ffffff;stroke:#ffffff;stroke-width:1.875;" x="136.182083" xlink:href="#mb23dc95d68" y="317.317284"/>
      </g>
     </g>
     <g id="text_2">
      <text style="fill:#ffffff;font-family:Open Sans;font-size:20.625px;font-style:normal;font-weight:400;text-anchor:middle;" transform="rotate(-0, 136.182083, 346.989062)" x="136.182083" y="346.989062">−4</text>
     </g>
    </g>
    <g id="xtick_2">
     <g id="line2d_6">
      <g>
       <use style="fill:#ffffff;stroke:#ffffff;stroke-width:1.875;" x="214.958554" xlink:href="#mb23dc95d68" y="317.317284"/>
      </g>
     </g>
     <g id="text_3">
      <text style="fill:#ffffff;font-family:Open Sans;font-size:20.625px;font-style:normal;font-weight:400;text-anchor:middle;" transform="rotate(-0, 214.958554, 346.989062)" x="214.958554" y="346.989062">−2</text>
     </g>
    </g>
    <g id="xtick_3">
     <g id="line2d_7">
      <g>
       <use style="fill:#ffffff;stroke:#ffffff;stroke-width:1.875;" x="293.735024" xlink:href="#mb23dc95d68" y="317.317284"/>
      </g>
     </g>
     <g id="text_4">
      <text style="fill:#ffffff;font-family:Open Sans;font-size:20.625px;font-style:normal;font-weight:400;text-anchor:middle;" transform="rotate(-0, 293.735024, 346.989062)" x="293.735024" y="346.989062">0</text>
     </g>
    </g>
    <g id="xtick_4">
     <g id="line2d_8">
      <g>
       <use style="fill:#ffffff;stroke:#ffffff;stroke-width:1.875;" x="372.511495" xlink:href="#mb23dc95d68" y="317.317284"/>
      </g>
     </g>
     <g id="text_5">
      <text style="fill:#ffffff;font-family:Open Sans;font-size:20.625px;font-style:normal;font-weight:400;text-anchor:middle;" transform="rotate(-0, 372.511495, 346.989062)" x="372.511495" y="346.989062">2</text>
     </g>
    </g>
    <g id="xtick_5">
     <g id="line2d_9">
      <g>
       <use style="fill:#ffffff;stroke:#ffffff;stroke-width:1.875;" x="451.287965" xlink:href="#mb23dc95d68" y="317.317284"/>
      </g>
     </g>
     <g id="text_6">
      <text style="fill:#ffffff;font-family:Open Sans;font-size:20.625px;font-style:normal;font-weight:400;text-anchor:middle;" transform="rotate(-0, 451.287965, 346.989062)" x="451.287965" y="346.989062">4</text>
     </g>
    </g>
    <g id="xtick_6">
     <g id="line2d_10">
      <g>
       <use style="fill:#ffffff;stroke:#ffffff;stroke-width:1.875;" x="530.064436" xlink:href="#mb23dc95d68" y="317.317284"/>
      </g>
     </g>
     <g id="text_7">
      <text style="fill:#ffffff;font-family:Open Sans;font-size:20.625px;font-style:normal;font-weight:400;text-anchor:middle;" transform="rotate(-0, 530.064436, 346.989062)" x="530.064436" y="346.989062">6</text>
     </g>
    </g>
    <g id="xtick_7">
     <g id="line2d_11">
      <g>
       <use style="fill:#ffffff;stroke:#ffffff;stroke-width:1.875;" x="608.840906" xlink:href="#mb23dc95d68" y="317.317284"/>
      </g>
     </g>
     <g id="text_8">
      <text style="fill:#ffffff;font-family:Open Sans;font-size:20.625px;font-style:normal;font-weight:400;text-anchor:middle;" transform="rotate(-0, 608.840906, 346.989062)" x="608.840906" y="346.989062">8</text>
     </g>
    </g>
    <g id="xtick_8">
     <g id="line2d_12">
      <g>
       <use style="fill:#ffffff;stroke:#ffffff;stroke-width:1.875;" x="687.617377" xlink:href="#mb23dc95d68" y="317.317284"/>
      </g>
     </g>
     <g id="text_9">
      <text style="fill:#ffffff;font-family:Open Sans;font-size:20.625px;font-style:normal;font-weight:400;text-anchor:middle;" transform="rotate(-0, 687.617377, 346.989062)" x="687.617377" y="346.989062">10</text>
     </g>
    </g>
    <g id="xtick_9">
     <g id="line2d_13">
      <g>
       <use style="fill:#ffffff;stroke:#ffffff;stroke-width:1.875;" x="766.393848" xlink:href="#mb23dc95d68" y="317.317284"/>
      </g>
     </g>
     <g id="text_10">
      <text style="fill:#ffffff;font-family:Open Sans;font-size:20.625px;font-style:normal;font-weight:400;text-anchor:middle;" transform="rotate(-0, 766.393848, 346.989062)" x="766.393848" y="346.989062">12</text>
     </g>
    </g>
    <g id="text_11">
     <text style="fill:#ffffff;font-family:Open Sans;font-size:22.5px;font-style:normal;font-weight:normal;text-anchor:middle;" transform="rotate(-0, 431.593848, 373.041991)" x="431.593848" y="373.041991">Tumour Size</text>
    </g>
   </g>
   <g id="matplotlib.axis_2">
    <g id="ytick_1">
     <g id="line2d_14">
      <defs>
       <path d="M 0 0 
L -9 0 
" id="mdc671aaf72" style="stroke:#ffffff;stroke-width:1.875;"/>
      </defs>
      <g>
       <use style="fill:#ffffff;stroke:#ffffff;stroke-width:1.875;" x="96.793848" xlink:href="#mdc671aaf72" y="239.038884"/>
      </g>
     </g>
     <g id="text_12">
      <text style="fill:#ffffff;font-family:Open Sans;font-size:20.625px;font-style:normal;font-weight:400;text-anchor:end;" transform="rotate(-0, 82.793848, 246.874773)" x="82.793848" y="246.874773">Placebo</text>
     </g>
    </g>
    <g id="ytick_2">
     <g id="line2d_15">
      <g>
       <use style="fill:#ffffff;stroke:#ffffff;stroke-width:1.875;" x="96.793848" xlink:href="#mdc671aaf72" y="291.224484"/>
      </g>
     </g>
     <g id="text_13">
      <text style="fill:#ffffff;font-family:Open Sans;font-size:20.625px;font-style:normal;font-weight:400;text-anchor:end;" transform="rotate(-0, 82.793848, 299.060373)" x="82.793848" y="299.060373">Drug</text>
     </g>
    </g>
   </g>
   <g id="line2d_16">
    <path clip-path="url(#p9088426c7d)" d="M 476.704608 317.317284 
L 476.704608 212.946084 
" style="fill:none;stroke:#1a9e78;stroke-linecap:round;stroke-width:4;"/>
   </g>
   <g id="line2d_17">
    <path clip-path="url(#p9088426c7d)" d="M 408.765874 278.178084 
L 408.765874 343.410084 
" style="fill:none;stroke:#d95f02;stroke-linecap:round;stroke-width:4;"/>
   </g>
   <g id="patch_4">
    <path d="M 96.793848 239.038884 
L 96.793848 291.224484 
" style="fill:none;stroke:#ffffff;stroke-linecap:square;stroke-linejoin:miter;stroke-width:1.875;"/>
   </g>
   <g id="patch_5">
    <path d="M 136.182083 317.317284 
L 766.393848 317.317284 
" style="fill:none;stroke:#ffffff;stroke-linecap:square;stroke-linejoin:miter;stroke-width:1.875;"/>
   </g>
   <g id="PathCollection_1">
    <defs>
     <path d="M 0 4 
C 1.060812 4 2.078319 3.578535 2.828427 2.828427 
C 3.578535 2.078319 4 1.060812 4 0 
C 4 -1.060812 3.578535 -2.078319 2.828427 -2.828427 
C 2.078319 -3.578535 1.060812 -4 0 -4 
C -1.060812 -4 -2.078319 -3.578535 -2.828427 -2.828427 
C -3.578535 -2.078319 -4 -1.060812 -4 0 
C -4 1.060812 -3.578535 2.078319 -2.828427 2.828427 
C -2.078319 3.578535 -1.060812 4 0 4 
z
" id="C0_0_26a68d540e"/>
    </defs>
    <g clip-path="url(#p9088426c7d)">
     <use style="fill:#1a9e78;" x="174.564326" xlink:href="#C0_0_26a68d540e" y="239.038884"/>
    </g>
    <g clip-path="url(#p9088426c7d)">
     <use style="fill:#1a9e78;" x="288.746954" xlink:href="#C0_0_26a68d540e" y="239.038884"/>
    </g>
    <g clip-path="url(#p9088426c7d)">
     <use style="fill:#1a9e78;" x="291.106007" xlink:href="#C0_0_26a68d540e" y="231.0124"/>
    </g>
    <g clip-path="url(#p9088426c7d)">
     <use style="fill:#1a9e78;" x="345.643439" xlink:href="#C0_0_26a68d540e" y="239.038884"/>
    </g>
    <g clip-path="url(#p9088426c7d)">
     <use style="fill:#1a9e78;" x="413.590088" xlink:href="#C0_0_26a68d540e" y="239.038884"/>
    </g>
    <g clip-path="url(#p9088426c7d)">
     <use style="fill:#1a9e78;" x="421.682344" xlink:href="#C0_0_26a68d540e" y="239.038884"/>
    </g>
    <g clip-path="url(#p9088426c7d)">
     <use style="fill:#1a9e78;" x="421.814222" xlink:href="#C0_0_26a68d540e" y="230.640026"/>
    </g>
    <g clip-path="url(#p9088426c7d)">
     <use style="fill:#1a9e78;" x="452.96321" xlink:href="#C0_0_26a68d540e" y="239.038884"/>
    </g>
    <g clip-path="url(#p9088426c7d)">
     <use style="fill:#1a9e78;" x="459.900203" xlink:href="#C0_0_26a68d540e" y="234.85491"/>
    </g>
    <g clip-path="url(#p9088426c7d)">
     <use style="fill:#1a9e78;" x="488.912395" xlink:href="#C0_0_26a68d540e" y="239.038884"/>
    </g>
    <g clip-path="url(#p9088426c7d)">
     <use style="fill:#1a9e78;" x="491.135992" xlink:href="#C0_0_26a68d540e" y="230.969881"/>
    </g>
    <g clip-path="url(#p9088426c7d)">
     <use style="fill:#1a9e78;" x="506.781328" xlink:href="#C0_0_26a68d540e" y="239.038884"/>
    </g>
    <g clip-path="url(#p9088426c7d)">
     <use style="fill:#1a9e78;" x="552.924717" xlink:href="#C0_0_26a68d540e" y="239.038884"/>
    </g>
    <g clip-path="url(#p9088426c7d)">
     <use style="fill:#1a9e78;" x="562.005015" xlink:href="#C0_0_26a68d540e" y="239.038884"/>
    </g>
    <g clip-path="url(#p9088426c7d)">
     <use style="fill:#1a9e78;" x="578.840676" xlink:href="#C0_0_26a68d540e" y="239.038884"/>
    </g>
    <g clip-path="url(#p9088426c7d)">
     <use style="fill:#1a9e78;" x="580.105177" xlink:href="#C0_0_26a68d540e" y="230.74448"/>
    </g>
    <g clip-path="url(#p9088426c7d)">
     <use style="fill:#1a9e78;" x="581.474557" xlink:href="#C0_0_26a68d540e" y="246.970567"/>
    </g>
    <g clip-path="url(#p9088426c7d)">
     <use style="fill:#1a9e78;" x="616.4159" xlink:href="#C0_0_26a68d540e" y="239.038884"/>
    </g>
    <g clip-path="url(#p9088426c7d)">
     <use style="fill:#1a9e78;" x="639.067448" xlink:href="#C0_0_26a68d540e" y="239.038884"/>
    </g>
    <g clip-path="url(#p9088426c7d)">
     <use style="fill:#1a9e78;" x="666.418155" xlink:href="#C0_0_26a68d540e" y="239.038884"/>
    </g>
   </g>
   <g id="PathCollection_2">
    <defs>
     <path d="M 0 4 
C 1.060812 4 2.078319 3.578535 2.828427 2.828427 
C 3.578535 2.078319 4 1.060812 4 0 
C 4 -1.060812 3.578535 -2.078319 2.828427 -2.828427 
C 2.078319 -3.578535 1.060812 -4 0 -4 
C -1.060812 -4 -2.078319 -3.578535 -2.828427 -2.828427 
C -3.578535 -2.078319 -4 -1.060812 -4 0 
C -4 1.060812 -3.578535 2.078319 -2.828427 2.828427 
C -2.078319 3.578535 -1.060812 4 0 4 
z
" id="C1_0_4167c47b69"/>
    </defs>
    <g clip-path="url(#p9088426c7d)">
     <use style="fill:#d95f02;" x="160.226604" xlink:href="#C1_0_4167c47b69" y="291.224484"/>
    </g>
    <g clip-path="url(#p9088426c7d)">
     <use style="fill:#d95f02;" x="230.073728" xlink:href="#C1_0_4167c47b69" y="291.224484"/>
    </g>
    <g clip-path="url(#p9088426c7d)">
     <use style="fill:#d95f02;" x="311.855386" xlink:href="#C1_0_4167c47b69" y="291.224484"/>
    </g>
    <g clip-path="url(#p9088426c7d)">
     <use style="fill:#d95f02;" x="332.001662" xlink:href="#C1_0_4167c47b69" y="291.224484"/>
    </g>
    <g clip-path="url(#p9088426c7d)">
     <use style="fill:#d95f02;" x="342.634971" xlink:href="#C1_0_4167c47b69" y="291.224484"/>
    </g>
    <g clip-path="url(#p9088426c7d)">
     <use style="fill:#d95f02;" x="348.913412" xlink:href="#C1_0_4167c47b69" y="286.018645"/>
    </g>
    <g clip-path="url(#p9088426c7d)">
     <use style="fill:#d95f02;" x="349.640051" xlink:href="#C1_0_4167c47b69" y="295.281462"/>
    </g>
    <g clip-path="url(#p9088426c7d)">
     <use style="fill:#d95f02;" x="355.273539" xlink:href="#C1_0_4167c47b69" y="301.245593"/>
    </g>
    <g clip-path="url(#p9088426c7d)">
     <use style="fill:#d95f02;" x="356.631984" xlink:href="#C1_0_4167c47b69" y="291.224484"/>
    </g>
    <g clip-path="url(#p9088426c7d)">
     <use style="fill:#d95f02;" x="367.747372" xlink:href="#C1_0_4167c47b69" y="291.224484"/>
    </g>
    <g clip-path="url(#p9088426c7d)">
     <use style="fill:#d95f02;" x="387.020394" xlink:href="#C1_0_4167c47b69" y="291.224484"/>
    </g>
    <g clip-path="url(#p9088426c7d)">
     <use style="fill:#d95f02;" x="433.993515" xlink:href="#C1_0_4167c47b69" y="291.224484"/>
    </g>
    <g clip-path="url(#p9088426c7d)">
     <use style="fill:#d95f02;" x="467.959579" xlink:href="#C1_0_4167c47b69" y="291.224484"/>
    </g>
    <g clip-path="url(#p9088426c7d)">
     <use style="fill:#d95f02;" x="482.513892" xlink:href="#C1_0_4167c47b69" y="291.224484"/>
    </g>
    <g clip-path="url(#p9088426c7d)">
     <use style="fill:#d95f02;" x="495.129545" xlink:href="#C1_0_4167c47b69" y="291.224484"/>
    </g>
    <g clip-path="url(#p9088426c7d)">
     <use style="fill:#d95f02;" x="502.8764" xlink:href="#C1_0_4167c47b69" y="289.1281"/>
    </g>
    <g clip-path="url(#p9088426c7d)">
     <use style="fill:#d95f02;" x="517.475815" xlink:href="#C1_0_4167c47b69" y="291.224484"/>
    </g>
    <g clip-path="url(#p9088426c7d)">
     <use style="fill:#d95f02;" x="521.700487" xlink:href="#C1_0_4167c47b69" y="284.09127"/>
    </g>
    <g clip-path="url(#p9088426c7d)">
     <use style="fill:#d95f02;" x="589.804216" xlink:href="#C1_0_4167c47b69" y="291.224484"/>
    </g>
    <g clip-path="url(#p9088426c7d)">
     <use style="fill:#d95f02;" x="621.844917" xlink:href="#C1_0_4167c47b69" y="291.224484"/>
    </g>
   </g>
   <g id="text_14">
    <text style="fill:#ffffff;font-family:Open Sans;font-size:22.5px;font-style:normal;font-weight:normal;text-anchor:middle;" transform="rotate(-0, 431.593848, 206.946084)" x="431.593848" y="206.946084">Samples</text>
   </g>
  </g>
  <g id="axes_3">
   <g id="patch_6">
    <path d="M 96.793848 499.966884 
L 766.393848 499.966884 
L 766.393848 395.595684 
L 96.793848 395.595684 
z
" style="fill:none;"/>
   </g>
   <g id="PolyCollection_3">
    <defs>
     <path d="M 319.193537 -260.981995 
L 319.193537 -260.981338 
L 321.539647 -260.981338 
L 323.885757 -260.981338 
L 326.231868 -260.981338 
L 328.577978 -260.981338 
L 330.924088 -260.981338 
L 333.270199 -260.981338 
L 335.616309 -260.981338 
L 337.962419 -260.981338 
L 340.30853 -260.981338 
L 342.65464 -260.981338 
L 345.00075 -260.981338 
L 347.346861 -260.981338 
L 349.692971 -260.981338 
L 352.039081 -260.981338 
L 354.385192 -260.981338 
L 356.731302 -260.981338 
L 359.077412 -260.981338 
L 361.423523 -260.981338 
L 363.769633 -260.981338 
L 366.115743 -260.981338 
L 368.461854 -260.981338 
L 370.807964 -260.981338 
L 373.154074 -260.981338 
L 375.500185 -260.981338 
L 377.846295 -260.981338 
L 380.192405 -260.981338 
L 382.538516 -260.981338 
L 384.884626 -260.981338 
L 387.230737 -260.981338 
L 389.576847 -260.981338 
L 391.922957 -260.981338 
L 394.269068 -260.981338 
L 396.615178 -260.981338 
L 398.961288 -260.981338 
L 401.307399 -260.981338 
L 403.653509 -260.981338 
L 405.999619 -260.981338 
L 408.34573 -260.981338 
L 410.69184 -260.981338 
L 413.03795 -260.981338 
L 415.384061 -260.981338 
L 417.730171 -260.981338 
L 420.076281 -260.981338 
L 422.422392 -260.981338 
L 424.768502 -260.981338 
L 427.114612 -260.981338 
L 429.460723 -260.981338 
L 431.806833 -260.981338 
L 434.152943 -260.981338 
L 436.499054 -260.981338 
L 438.845164 -260.981338 
L 441.191274 -260.981338 
L 443.537385 -260.981338 
L 445.883495 -260.981338 
L 448.229605 -260.981338 
L 450.575716 -260.981338 
L 452.921826 -260.981338 
L 455.267936 -260.981338 
L 457.614047 -260.981338 
L 459.960157 -260.981338 
L 462.306267 -260.981338 
L 464.652378 -260.981338 
L 466.998488 -260.981338 
L 469.344598 -260.981338 
L 471.690709 -260.981338 
L 474.036819 -260.981338 
L 476.382929 -260.981338 
L 478.72904 -260.981338 
L 481.07515 -260.981338 
L 483.42126 -260.981338 
L 485.767371 -260.981338 
L 488.113481 -260.981338 
L 490.459591 -260.981338 
L 492.805702 -260.981338 
L 495.151812 -260.981338 
L 497.497922 -260.981338 
L 499.844033 -260.981338 
L 502.190143 -260.981338 
L 504.536253 -260.981338 
L 506.882364 -260.981338 
L 509.228474 -260.981338 
L 511.574584 -260.981338 
L 513.920695 -260.981338 
L 516.266805 -260.981338 
L 518.612915 -260.981338 
L 520.959026 -260.981338 
L 523.305136 -260.981338 
L 525.651247 -260.981338 
L 527.997357 -260.981338 
L 530.343467 -260.981338 
L 532.689578 -260.981338 
L 535.035688 -260.981338 
L 537.381798 -260.981338 
L 539.727909 -260.981338 
L 542.074019 -260.981338 
L 544.420129 -260.981338 
L 546.76624 -260.981338 
L 549.11235 -260.981338 
L 551.45846 -260.981338 
L 553.804571 -260.981338 
L 556.150681 -260.981338 
L 558.496791 -260.981338 
L 560.842902 -260.981338 
L 563.189012 -260.981338 
L 565.535122 -260.981338 
L 567.881233 -260.981338 
L 570.227343 -260.981338 
L 572.573453 -260.981338 
L 574.919564 -260.981338 
L 577.265674 -260.981338 
L 579.611784 -260.981338 
L 581.957895 -260.981338 
L 584.304005 -260.981338 
L 586.650115 -260.981338 
L 588.996226 -260.981338 
L 591.342336 -260.981338 
L 593.688446 -260.981338 
L 596.034557 -260.981338 
L 598.380667 -260.981338 
L 600.726777 -260.981338 
L 603.072888 -260.981338 
L 605.418998 -260.981338 
L 607.765108 -260.981338 
L 610.111219 -260.981338 
L 612.457329 -260.981338 
L 614.803439 -260.981338 
L 617.14955 -260.981338 
L 617.14955 -260.982314 
L 617.14955 -260.982314 
L 614.803439 -260.983521 
L 612.457329 -260.98634 
L 610.111219 -260.992077 
L 607.765108 -261.002673 
L 605.418998 -261.020554 
L 603.072888 -261.048151 
L 600.726777 -261.087126 
L 598.380667 -261.137569 
L 596.034557 -261.197595 
L 593.688446 -261.263755 
L 591.342336 -261.332298 
L 588.996226 -261.400856 
L 586.650115 -261.469785 
L 584.304005 -261.542591 
L 581.957895 -261.625335 
L 579.611784 -261.725375 
L 577.265674 -261.849943 
L 574.919564 -262.004881 
L 572.573453 -262.193797 
L 570.227343 -262.418054 
L 567.881233 -262.677981 
L 565.535122 -262.975105 
L 563.189012 -263.314255 
L 560.842902 -263.70373 
L 558.496791 -264.15243 
L 556.150681 -264.664682 
L 553.804571 -265.235424 
L 551.45846 -265.848788 
L 549.11235 -266.481544 
L 546.76624 -267.110098 
L 544.420129 -267.717916 
L 542.074019 -268.30026 
L 539.727909 -268.864887 
L 537.381798 -269.429171 
L 535.035688 -270.014968 
L 532.689578 -270.642381 
L 530.343467 -271.323549 
L 527.997357 -272.057946 
L 525.651247 -272.831182 
L 523.305136 -273.618689 
L 520.959026 -274.393893 
L 518.612915 -275.138071 
L 516.266805 -275.847589 
L 513.920695 -276.534474 
L 511.574584 -277.218848 
L 509.228474 -277.915931 
L 506.882364 -278.624147 
L 504.536253 -279.321575 
L 502.190143 -279.973946 
L 499.844033 -280.550459 
L 497.497922 -281.038487 
L 495.151812 -281.448791 
L 492.805702 -281.808838 
L 490.459591 -282.148825 
L 488.113481 -282.48821 
L 485.767371 -282.828528 
L 483.42126 -283.153652 
L 481.07515 -283.435145 
L 478.72904 -283.639466 
L 476.382929 -283.734937 
L 474.036819 -283.697711 
L 471.690709 -283.516595 
L 469.344598 -283.196455 
L 466.998488 -282.759521 
L 464.652378 -282.243416 
L 462.306267 -281.694765 
L 459.960157 -281.158349 
L 457.614047 -280.664214 
L 455.267936 -280.217506 
L 452.921826 -279.796173 
L 450.575716 -279.358807 
L 448.229605 -278.860052 
L 445.883495 -278.267206 
L 443.537385 -277.571266 
L 441.191274 -276.788676 
L 438.845164 -275.954341 
L 436.499054 -275.109509 
L 434.152943 -274.289112 
L 431.806833 -273.512562 
L 429.460723 -272.780646 
L 427.114612 -272.079154 
L 424.768502 -271.387479 
L 422.422392 -270.688314 
L 420.076281 -269.974327 
L 417.730171 -269.249487 
L 415.384061 -268.525743 
L 413.03795 -267.817832 
L 410.69184 -267.13912 
L 408.34573 -266.499812 
L 405.999619 -265.90712 
L 403.653509 -265.366181 
L 401.307399 -264.880731 
L 398.961288 -264.453134 
L 396.615178 -264.083788 
L 394.269068 -263.770106 
L 391.922957 -263.505601 
L 389.576847 -263.279839 
L 387.230737 -263.079873 
L 384.884626 -262.893027 
L 382.538516 -262.710007 
L 380.192405 -262.526964 
L 377.846295 -262.345641 
L 375.500185 -262.1716 
L 373.154074 -262.011329 
L 370.807964 -261.869369 
L 368.461854 -261.746542 
L 366.115743 -261.639949 
L 363.769633 -261.544682 
L 361.423523 -261.456346 
L 359.077412 -261.373048 
L 356.731302 -261.295824 
L 354.385192 -261.227474 
L 352.039081 -261.170648 
L 349.692971 -261.12632 
L 347.346861 -261.093344 
L 345.00075 -261.069073 
L 342.65464 -261.050494 
L 340.30853 -261.035231 
L 337.962419 -261.022012 
L 335.616309 -261.010536 
L 333.270199 -261.001011 
L 330.924088 -260.99367 
L 328.577978 -260.98849 
L 326.231868 -260.985167 
L 323.885757 -260.983247 
L 321.539647 -260.982287 
L 319.193537 -260.981995 
z
" id="m59ebab6803" style="stroke:#ffffff;stroke-opacity:0.25;stroke-width:1.5;"/>
    </defs>
    <g clip-path="url(#pc99fc7d74d)">
     <use style="fill:#c0c0c0;fill-opacity:0.25;stroke:#ffffff;stroke-opacity:0.25;stroke-width:1.5;" x="0" xlink:href="#m59ebab6803" y="760.948223"/>
    </g>
   </g>
   <g id="line2d_18">
    <path clip-path="url(#pc99fc7d74d)" d="M 476.704608 499.966884 
L 476.704608 395.595684 
" style="fill:none;stroke:#1a9e78;stroke-linecap:round;stroke-width:4;"/>
   </g>
   <g id="line2d_19">
    <path clip-path="url(#pc99fc7d74d)" d="M 408.765874 499.966884 
L 408.765874 395.595684 
" style="fill:none;stroke:#d95f02;stroke-linecap:round;stroke-width:4;"/>
   </g>
   <g id="line2d_20">
    <path clip-path="url(#pc99fc7d74d)" d="M 319.193537 499.966228 
L 347.346861 499.854879 
L 356.731302 499.652399 
L 370.807964 499.078854 
L 380.192405 498.421259 
L 391.922957 497.442621 
L 396.615178 496.864435 
L 401.307399 496.067492 
L 405.999619 495.041103 
L 410.69184 493.809102 
L 417.730171 491.698736 
L 436.499054 485.838714 
L 443.537385 483.376956 
L 448.229605 482.088171 
L 452.921826 481.15205 
L 459.960157 479.789874 
L 469.344598 477.751767 
L 471.690709 477.431628 
L 474.036819 477.250512 
L 476.382929 477.213286 
L 481.07515 477.513077 
L 488.113481 478.460012 
L 497.497922 479.909736 
L 502.190143 480.974276 
L 509.228474 483.032291 
L 523.305136 487.329534 
L 530.343467 489.624674 
L 535.035688 490.933255 
L 558.496791 496.795793 
L 563.189012 497.633968 
L 567.881233 498.270242 
L 574.919564 498.943342 
L 581.957895 499.322888 
L 598.380667 499.810654 
L 610.111219 499.956146 
L 617.14955 499.965909 
L 617.14955 499.965909 
" style="fill:none;"/>
   </g>
   <g id="text_15">
    <text style="fill:#ffffff;font-family:Open Sans;font-size:22.5px;font-style:normal;font-weight:normal;text-anchor:middle;" transform="rotate(-0, 431.593848, 389.595684)" x="431.593848" y="389.595684">Null Distribution</text>
   </g>
  </g>
  <g id="axes_4">
   <g id="patch_7">
    <path d="M 96.793848 682.616484 
L 766.393848 682.616484 
L 766.393848 578.245284 
L 96.793848 578.245284 
z
" style="fill:none;"/>
   </g>
   <g id="matplotlib.axis_3">
    <g id="xtick_10">
     <g id="line2d_21">
      <g>
       <use style="fill:#ffffff;stroke:#ffffff;stroke-width:1.875;" x="161.598725" xlink:href="#mb23dc95d68" y="692.616484"/>
      </g>
     </g>
     <g id="text_16">
      <text style="fill:#ffffff;font-family:Open Sans;font-size:20.625px;font-style:normal;font-weight:400;text-anchor:middle;" transform="rotate(-0, 161.598725, 722.288262)" x="161.598725" y="722.288262">−8</text>
     </g>
    </g>
    <g id="xtick_11">
     <g id="line2d_22">
      <g>
       <use style="fill:#ffffff;stroke:#ffffff;stroke-width:1.875;" x="240.375196" xlink:href="#mb23dc95d68" y="692.616484"/>
      </g>
     </g>
     <g id="text_17">
      <text style="fill:#ffffff;font-family:Open Sans;font-size:20.625px;font-style:normal;font-weight:400;text-anchor:middle;" transform="rotate(-0, 240.375196, 722.288262)" x="240.375196" y="722.288262">−6</text>
     </g>
    </g>
    <g id="xtick_12">
     <g id="line2d_23">
      <g>
       <use style="fill:#ffffff;stroke:#ffffff;stroke-width:1.875;" x="319.151666" xlink:href="#mb23dc95d68" y="692.616484"/>
      </g>
     </g>
     <g id="text_18">
      <text style="fill:#ffffff;font-family:Open Sans;font-size:20.625px;font-style:normal;font-weight:400;text-anchor:middle;" transform="rotate(-0, 319.151666, 722.288262)" x="319.151666" y="722.288262">−4</text>
     </g>
    </g>
    <g id="xtick_13">
     <g id="line2d_24">
      <g>
       <use style="fill:#ffffff;stroke:#ffffff;stroke-width:1.875;" x="397.928137" xlink:href="#mb23dc95d68" y="692.616484"/>
      </g>
     </g>
     <g id="text_19">
      <text style="fill:#ffffff;font-family:Open Sans;font-size:20.625px;font-style:normal;font-weight:400;text-anchor:middle;" transform="rotate(-0, 397.928137, 722.288262)" x="397.928137" y="722.288262">−2</text>
     </g>
    </g>
    <g id="xtick_14">
     <g id="line2d_25">
      <g>
       <use style="fill:#ffffff;stroke:#ffffff;stroke-width:1.875;" x="476.704608" xlink:href="#mb23dc95d68" y="692.616484"/>
      </g>
     </g>
     <g id="text_20">
      <text style="fill:#ffffff;font-family:Open Sans;font-size:20.625px;font-style:normal;font-weight:400;text-anchor:middle;" transform="rotate(-0, 476.704608, 722.288262)" x="476.704608" y="722.288262">0</text>
     </g>
    </g>
    <g id="xtick_15">
     <g id="line2d_26">
      <g>
       <use style="fill:#ffffff;stroke:#ffffff;stroke-width:1.875;" x="555.481078" xlink:href="#mb23dc95d68" y="692.616484"/>
      </g>
     </g>
     <g id="text_21">
      <text style="fill:#ffffff;font-family:Open Sans;font-size:20.625px;font-style:normal;font-weight:400;text-anchor:middle;" transform="rotate(-0, 555.481078, 722.288262)" x="555.481078" y="722.288262">2</text>
     </g>
    </g>
    <g id="xtick_16">
     <g id="line2d_27">
      <g>
       <use style="fill:#ffffff;stroke:#ffffff;stroke-width:1.875;" x="634.257549" xlink:href="#mb23dc95d68" y="692.616484"/>
      </g>
     </g>
     <g id="text_22">
      <text style="fill:#ffffff;font-family:Open Sans;font-size:20.625px;font-style:normal;font-weight:400;text-anchor:middle;" transform="rotate(-0, 634.257549, 722.288262)" x="634.257549" y="722.288262">4</text>
     </g>
    </g>
    <g id="xtick_17">
     <g id="line2d_28">
      <g>
       <use style="fill:#ffffff;stroke:#ffffff;stroke-width:1.875;" x="713.034019" xlink:href="#mb23dc95d68" y="692.616484"/>
      </g>
     </g>
     <g id="text_23">
      <text style="fill:#ffffff;font-family:Open Sans;font-size:20.625px;font-style:normal;font-weight:400;text-anchor:middle;" transform="rotate(-0, 713.034019, 722.288262)" x="713.034019" y="722.288262">6</text>
     </g>
    </g>
    <g id="text_24">
     <text style="fill:#ffffff;font-family:Open Sans;font-size:22.5px;font-style:normal;font-weight:normal;text-anchor:middle;" transform="rotate(-0, 431.593848, 748.341191)" x="431.593848" y="748.341191">∆ Tumour Size</text>
    </g>
   </g>
   <g id="PolyCollection_4">
    <defs>
     <path d="M 266.985334 -95.728209 
L 266.985334 -95.726938 
L 269.396166 -95.726938 
L 271.806998 -95.726938 
L 274.217829 -95.726938 
L 276.628661 -95.726938 
L 279.039493 -95.726938 
L 281.450324 -95.726938 
L 283.861156 -95.726938 
L 286.271987 -95.726938 
L 288.682819 -95.726938 
L 291.093651 -95.726938 
L 293.504482 -95.726938 
L 295.915314 -95.726938 
L 298.326146 -95.726938 
L 300.736977 -95.726938 
L 303.147809 -95.726938 
L 305.558641 -95.726938 
L 307.969472 -95.726938 
L 310.380304 -95.726938 
L 312.791135 -95.726938 
L 315.201967 -95.726938 
L 317.612799 -95.726938 
L 320.02363 -95.726938 
L 322.434462 -95.726938 
L 324.845294 -95.726938 
L 327.256125 -95.726938 
L 329.666957 -95.726938 
L 332.077789 -95.726938 
L 334.48862 -95.726938 
L 336.899452 -95.726938 
L 339.310283 -95.726938 
L 341.721115 -95.726938 
L 344.131947 -95.726938 
L 346.542778 -95.726938 
L 348.95361 -95.726938 
L 351.364442 -95.726938 
L 353.775273 -95.726938 
L 356.186105 -95.726938 
L 358.596937 -95.726938 
L 361.007768 -95.726938 
L 363.4186 -95.726938 
L 365.829431 -95.726938 
L 368.240263 -95.726938 
L 370.651095 -95.726938 
L 373.061926 -95.726938 
L 375.472758 -95.726938 
L 377.88359 -95.726938 
L 380.294421 -95.726938 
L 382.705253 -95.726938 
L 385.116085 -95.726938 
L 387.526916 -95.726938 
L 389.937748 -95.726938 
L 392.348579 -95.726938 
L 394.759411 -95.726938 
L 397.170243 -95.726938 
L 399.581074 -95.726938 
L 401.991906 -95.726938 
L 404.402738 -95.726938 
L 406.813569 -95.726938 
L 409.224401 -95.726938 
L 411.635232 -95.726938 
L 414.046064 -95.726938 
L 416.456896 -95.726938 
L 418.867727 -95.726938 
L 421.278559 -95.726938 
L 423.689391 -95.726938 
L 426.100222 -95.726938 
L 428.511054 -95.726938 
L 430.921886 -95.726938 
L 433.332717 -95.726938 
L 435.743549 -95.726938 
L 438.15438 -95.726938 
L 440.565212 -95.726938 
L 442.976044 -95.726938 
L 445.386875 -95.726938 
L 447.797707 -95.726938 
L 450.208539 -95.726938 
L 452.61937 -95.726938 
L 455.030202 -95.726938 
L 457.441034 -95.726938 
L 459.851865 -95.726938 
L 462.262697 -95.726938 
L 464.673528 -95.726938 
L 467.08436 -95.726938 
L 469.495192 -95.726938 
L 471.906023 -95.726938 
L 474.316855 -95.726938 
L 476.727687 -95.726938 
L 479.138518 -95.726938 
L 481.54935 -95.726938 
L 483.960182 -95.726938 
L 486.371013 -95.726938 
L 488.781845 -95.726938 
L 491.192676 -95.726938 
L 493.603508 -95.726938 
L 496.01434 -95.726938 
L 498.425171 -95.726938 
L 500.836003 -95.726938 
L 503.246835 -95.726938 
L 505.657666 -95.726938 
L 508.068498 -95.726938 
L 510.47933 -95.726938 
L 512.890161 -95.726938 
L 515.300993 -95.726938 
L 517.711824 -95.726938 
L 520.122656 -95.726938 
L 522.533488 -95.726938 
L 524.944319 -95.726938 
L 527.355151 -95.726938 
L 529.765983 -95.726938 
L 532.176814 -95.726938 
L 534.587646 -95.726938 
L 536.998478 -95.726938 
L 539.409309 -95.726938 
L 541.820141 -95.726938 
L 544.230972 -95.726938 
L 546.641804 -95.726938 
L 549.052636 -95.726938 
L 551.463467 -95.726938 
L 553.874299 -95.726938 
L 556.285131 -95.726938 
L 558.695962 -95.726938 
L 561.106794 -95.726938 
L 563.517626 -95.726938 
L 565.928457 -95.726938 
L 568.339289 -95.726938 
L 570.75012 -95.726938 
L 573.160952 -95.726938 
L 573.160952 -95.72778 
L 573.160952 -95.72778 
L 570.75012 -95.728253 
L 568.339289 -95.729789 
L 565.928457 -95.732969 
L 563.517626 -95.738657 
L 561.106794 -95.747774 
L 558.695962 -95.760942 
L 556.285131 -95.778115 
L 553.874299 -95.798343 
L 551.463467 -95.819864 
L 549.052636 -95.840565 
L 546.641804 -95.858687 
L 544.230972 -95.873447 
L 541.820141 -95.88521 
L 539.409309 -95.895124 
L 536.998478 -95.904586 
L 534.587646 -95.91516 
L 532.176814 -95.929235 
L 529.765983 -95.950877 
L 527.355151 -95.985848 
L 524.944319 -96.040289 
L 522.533488 -96.118745 
L 520.122656 -96.222988 
L 517.711824 -96.352591 
L 515.300993 -96.506772 
L 512.890161 -96.685999 
L 510.47933 -96.892058 
L 508.068498 -97.126555 
L 505.657666 -97.389154 
L 503.246835 -97.677144 
L 500.836003 -97.9871 
L 498.425171 -98.317879 
L 496.01434 -98.673223 
L 493.603508 -99.062434 
L 491.192676 -99.498878 
L 488.781845 -99.997405 
L 486.371013 -100.57192 
L 483.960182 -101.233141 
L 481.54935 -101.985315 
L 479.138518 -102.821385 
L 476.727687 -103.718996 
L 474.316855 -104.642098 
L 471.906023 -105.551336 
L 469.495192 -106.420687 
L 467.08436 -107.252032 
L 464.673528 -108.07874 
L 462.262697 -108.95482 
L 459.851865 -109.934486 
L 457.441034 -111.052443 
L 455.030202 -112.314257 
L 452.61937 -113.699332 
L 450.208539 -115.170931 
L 447.797707 -116.684787 
L 445.386875 -118.192322 
L 442.976044 -119.641983 
L 440.565212 -120.984783 
L 438.15438 -122.185003 
L 435.743549 -123.229763 
L 433.332717 -124.130157 
L 430.921886 -124.913651 
L 428.511054 -125.614964 
L 426.100222 -126.272134 
L 423.689391 -126.926231 
L 421.278559 -127.616601 
L 418.867727 -128.366992 
L 416.456896 -129.168626 
L 414.046064 -129.972801 
L 411.635232 -130.700628 
L 409.224401 -131.265727 
L 406.813569 -131.598303 
L 404.402738 -131.661001 
L 401.991906 -131.453453 
L 399.581074 -131.006728 
L 397.170243 -130.370227 
L 394.759411 -129.595098 
L 392.348579 -128.720499 
L 389.937748 -127.76844 
L 387.526916 -126.747565 
L 385.116085 -125.66001 
L 382.705253 -124.504723 
L 380.294421 -123.276661 
L 377.88359 -121.967613 
L 375.472758 -120.573553 
L 373.061926 -119.105637 
L 370.651095 -117.59604 
L 368.240263 -116.092703 
L 365.829431 -114.645676 
L 363.4186 -113.293152 
L 361.007768 -112.053209 
L 358.596937 -110.922224 
L 356.186105 -109.878412 
L 353.775273 -108.889318 
L 351.364442 -107.921871 
L 348.95361 -106.952086 
L 346.542778 -105.971054 
L 344.131947 -104.985721 
L 341.721115 -104.015258 
L 339.310283 -103.084657 
L 336.899452 -102.217043 
L 334.48862 -101.426763 
L 332.077789 -100.716242 
L 329.666957 -100.078644 
L 327.256125 -99.504869 
L 324.845294 -98.989933 
L 322.434462 -98.533971 
L 320.02363 -98.137607 
L 317.612799 -97.796367 
L 315.201967 -97.499436 
L 312.791135 -97.233902 
L 310.380304 -96.990806 
L 307.969472 -96.768321 
L 305.558641 -96.570322 
L 303.147809 -96.402228 
L 300.736977 -96.267108 
L 298.326146 -96.163739 
L 295.915314 -96.086704 
L 293.504482 -96.027905 
L 291.093651 -95.978908 
L 288.682819 -95.933405 
L 286.271987 -95.888775 
L 283.861156 -95.845997 
L 281.450324 -95.808005 
L 279.039493 -95.777541 
L 276.628661 -95.755714 
L 274.217829 -95.741786 
L 271.806998 -95.733881 
L 269.396166 -95.72991 
L 266.985334 -95.728209 
z
" id="me6ef111e5e" style="stroke:#ffffff;stroke-opacity:0.25;stroke-width:1.5;"/>
    </defs>
    <g clip-path="url(#p7f1f505e70)">
     <use style="fill:#ffffff;fill-opacity:0.25;stroke:#ffffff;stroke-opacity:0.25;stroke-width:1.5;" x="0" xlink:href="#me6ef111e5e" y="760.948223"/>
    </g>
   </g>
   <g id="line2d_29">
    <path clip-path="url(#p7f1f505e70)" d="M 476.704608 682.616484 
L 476.704608 578.245284 
" style="fill:none;stroke:#1a9e78;stroke-linecap:round;stroke-width:4;"/>
   </g>
   <g id="line2d_30">
    <path clip-path="url(#p7f1f505e70)" d="M 408.765874 682.616484 
L 408.765874 578.245284 
" style="fill:none;stroke:#d95f02;stroke-linecap:round;stroke-width:4;"/>
   </g>
   <g id="line2d_31">
    <path clip-path="url(#p7f1f505e70)" d="M 266.985334 665.220013 
L 283.861156 665.102225 
L 298.326146 664.784484 
L 305.558641 664.377901 
L 312.791135 663.714321 
L 320.02363 662.810616 
L 324.845294 661.95829 
L 329.666957 660.869579 
L 334.48862 659.52146 
L 339.310283 657.863566 
L 346.542778 654.977168 
L 358.596937 650.025998 
L 363.4186 647.655071 
L 368.240263 644.85552 
L 375.472758 640.374669 
L 380.294421 637.671562 
L 385.116085 635.288213 
L 389.937748 633.179783 
L 394.759411 631.353125 
L 397.170243 630.577996 
L 399.581074 629.941495 
L 401.991906 629.49477 
L 404.402738 629.287222 
L 406.813569 629.34992 
L 409.224401 629.682495 
L 411.635232 630.247595 
L 416.456896 631.779597 
L 421.278559 633.331622 
L 433.332717 636.818066 
L 435.743549 637.718459 
L 438.15438 638.763219 
L 440.565212 639.96344 
L 445.386875 642.755901 
L 452.61937 647.248891 
L 457.441034 649.89578 
L 459.851865 651.013737 
L 464.673528 652.869483 
L 471.906023 655.396886 
L 481.54935 658.962908 
L 486.371013 660.376302 
L 491.192676 661.449344 
L 496.01434 662.275 
L 503.246835 663.271079 
L 510.47933 664.056165 
L 517.711824 664.595631 
L 524.944319 664.907934 
L 534.587646 665.033063 
L 573.160952 665.220443 
L 573.160952 665.220443 
" style="fill:none;"/>
   </g>
   <g id="line2d_32">
    <path clip-path="url(#p7f1f505e70)" d="M 337.11565 665.221284 
L 485.035312 665.221284 
" style="fill:none;stroke:#ffffff;stroke-linecap:round;stroke-width:4;"/>
   </g>
   <g id="line2d_33">
    <path clip-path="url(#p7f1f505e70)" d="M 408.765874 665.221284 
" style="fill:none;stroke:#ffffff;stroke-linecap:round;stroke-width:2.25;"/>
    <defs>
     <path d="M 0 7.5 
C 1.989023 7.5 3.896849 6.709753 5.303301 5.303301 
C 6.709753 3.896849 7.5 1.989023 7.5 0 
C 7.5 -1.989023 6.709753 -3.896849 5.303301 -5.303301 
C 3.896849 -6.709753 1.989023 -7.5 0 -7.5 
C -1.989023 -7.5 -3.896849 -6.709753 -5.303301 -5.303301 
C -6.709753 -3.896849 -7.5 -1.989023 -7.5 0 
C -7.5 1.989023 -6.709753 3.896849 -5.303301 5.303301 
C -3.896849 6.709753 -1.989023 7.5 0 7.5 
z
" id="m4cc20d2e94" style="stroke:#ffffff;"/>
    </defs>
    <g clip-path="url(#p7f1f505e70)">
     <use style="fill:#ffffff;stroke:#ffffff;" x="408.765874" xlink:href="#m4cc20d2e94" y="665.221284"/>
    </g>
   </g>
   <g id="patch_8">
    <path d="M 96.793848 692.616484 
L 766.393848 692.616484 
" style="fill:none;stroke:#ffffff;stroke-linecap:square;stroke-linejoin:miter;stroke-width:1.875;"/>
   </g>
   <g id="text_25">
    <text style="fill:#ffffff;font-family:Open Sans;font-size:22.5px;font-style:normal;font-weight:normal;text-anchor:middle;" transform="rotate(-0, 431.593848, 572.245284)" x="431.593848" y="572.245284">Mean Difference Distribution</text>
   </g>
  </g>
 </g>
 <defs>
  <clipPath id="pf5c6e03aa9">
   <rect height="104.3712" width="669.6" x="96.793848" y="30.296484"/>
  </clipPath>
  <clipPath id="p9088426c7d">
   <rect height="104.3712" width="669.6" x="96.793848" y="212.946084"/>
  </clipPath>
  <clipPath id="pc99fc7d74d">
   <rect height="104.3712" width="669.6" x="96.793848" y="395.595684"/>
  </clipPath>
  <clipPath id="p7f1f505e70">
   <rect height="104.3712" width="669.6" x="96.793848" y="578.245284"/>
  </clipPath>
 </defs>
</svg>
